M48
; DRILL file {KiCad 8.0.6} date 2025-06-28T13:01:55+0100
; FORMAT={-:-/ absolute / inch / decimal}
; #@! TF.CreationDate,2025-06-28T13:01:55+01:00
; #@! TF.GenerationSoftware,Kicad,Pcbnew,8.0.6
; #@! TF.FileFunction,NonPlated,1,2,NPTH
FMAT,2
INCH
; #@! TA.AperFunction,NonPlated,NPTH,ComponentDrill
T1C0.0689
; #@! TA.AperFunction,NonPlated,NPTH,ComponentDrill
T2C0.1181
; #@! TA.AperFunction,NonPlated,NPTH,ComponentDrill
T3C0.1570
%
G90
G05
T1
X3.7383Y-1.3189
X3.7383Y-1.7189
X3.74Y-2.0779
X3.74Y-2.4779
X3.74Y-2.8389
X3.74Y-3.2389
X4.5Y-1.3189
X4.5Y-1.7189
X4.5Y-2.0789
X4.5Y-2.4789
X4.5Y-2.8389
X4.5Y-3.2389
X5.26Y-1.3189
X5.26Y-1.7189
X5.26Y-2.84
X5.26Y-3.24
X5.2617Y-2.0789
X5.2617Y-2.4789
T2
X3.8383Y-1.3689
X3.84Y-2.1279
X3.84Y-2.8889
X3.9383Y-1.6189
X3.94Y-2.3779
X3.94Y-3.1389
X4.6Y-1.3689
X4.6Y-2.1289
X4.6Y-2.8889
X4.7Y-1.6189
X4.7Y-2.3789
X4.7Y-3.1389
X5.36Y-1.3689
X5.36Y-2.89
X5.3617Y-2.1289
X5.46Y-1.6189
X5.46Y-3.14
X5.4617Y-2.3789
T3
X3.7383Y-1.5189
X3.74Y-2.2779
X3.74Y-3.0389
X4.5Y-1.5189
X4.5Y-2.2789
X4.5Y-3.0389
X5.26Y-1.5189
X5.26Y-3.04
X5.2617Y-2.2789
M30
