G04 #@! TF.GenerationSoftware,KiCad,Pcbnew,8.0.6*
G04 #@! TF.CreationDate,2025-06-28T13:01:53+01:00*
G04 #@! TF.ProjectId,3x3,3378332e-6b69-4636-9164-5f7063625858,0.1*
G04 #@! TF.SameCoordinates,Original*
G04 #@! TF.FileFunction,Soldermask,Top*
G04 #@! TF.FilePolarity,Negative*
%FSLAX46Y46*%
G04 Gerber Fmt 4.6, Leading zero omitted, Abs format (unit mm)*
G04 Created by KiCad (PCBNEW 8.0.6) date 2025-06-28 13:01:53*
%MOMM*%
%LPD*%
G01*
G04 APERTURE LIST*
%ADD10C,1.750000*%
%ADD11C,3.000000*%
%ADD12C,3.987800*%
%ADD13C,0.600000*%
G04 APERTURE END LIST*
D10*
X114300000Y-33501000D03*
D11*
X116840000Y-34771000D03*
D12*
X114300000Y-38581000D03*
D11*
X119380000Y-41121000D03*
D10*
X114300000Y-43661000D03*
X133604000Y-72136000D03*
D11*
X136144000Y-73406000D03*
D12*
X133604000Y-77216000D03*
D11*
X138684000Y-79756000D03*
D10*
X133604000Y-82296000D03*
X114300000Y-72109000D03*
D11*
X116840000Y-73379000D03*
D12*
X114300000Y-77189000D03*
D11*
X119380000Y-79729000D03*
D10*
X114300000Y-82269000D03*
X133604000Y-33501000D03*
D11*
X136144000Y-34771000D03*
D12*
X133604000Y-38581000D03*
D11*
X138684000Y-41121000D03*
D10*
X133604000Y-43661000D03*
X94996000Y-72109000D03*
D11*
X97536000Y-73379000D03*
D12*
X94996000Y-77189000D03*
D11*
X100076000Y-79729000D03*
D10*
X94996000Y-82269000D03*
X133647066Y-52805000D03*
D11*
X136187066Y-54075000D03*
D12*
X133647066Y-57885000D03*
D11*
X138727066Y-60425000D03*
D10*
X133647066Y-62965000D03*
X94952934Y-33501000D03*
D11*
X97492934Y-34771000D03*
D12*
X94952934Y-38581000D03*
D11*
X100032934Y-41121000D03*
D10*
X94952934Y-43661000D03*
X94996000Y-52778000D03*
D11*
X97536000Y-54048000D03*
D12*
X94996000Y-57858000D03*
D11*
X100076000Y-60398000D03*
D10*
X94996000Y-62938000D03*
X114300000Y-52805000D03*
D11*
X116840000Y-54075000D03*
D12*
X114300000Y-57885000D03*
D11*
X119380000Y-60425000D03*
D10*
X114300000Y-62965000D03*
D13*
X95377000Y-31469000D03*
X79883000Y-47244000D03*
X133985000Y-31469000D03*
X74803000Y-47244000D03*
X95250000Y-50773000D03*
X82448400Y-47244000D03*
X114681000Y-31469000D03*
X77343000Y-47244000D03*
X133604000Y-50773000D03*
X87477600Y-47193200D03*
X84988400Y-47244000D03*
X114554000Y-50773000D03*
X94945200Y-70104000D03*
X84937600Y-68224400D03*
X114198400Y-70104000D03*
X87477600Y-68224400D03*
X90068400Y-68173600D03*
X133502400Y-70154800D03*
M02*
