G04 #@! TF.GenerationSoftware,KiCad,Pcbnew,8.0.6*
G04 #@! TF.CreationDate,2025-06-28T13:01:53+01:00*
G04 #@! TF.ProjectId,3x3,3378332e-6b69-4636-9164-5f7063625858,0.1*
G04 #@! TF.SameCoordinates,Original*
G04 #@! TF.FileFunction,Legend,Top*
G04 #@! TF.FilePolarity,Positive*
%FSLAX46Y46*%
G04 Gerber Fmt 4.6, Leading zero omitted, Abs format (unit mm)*
G04 Created by KiCad (PCBNEW 8.0.6) date 2025-06-28 13:01:53*
%MOMM*%
%LPD*%
G01*
G04 APERTURE LIST*
%ADD10C,0.100000*%
G04 APERTURE END LIST*
D10*
X72389084Y-86105419D02*
X72389084Y-85105419D01*
X72865274Y-86105419D02*
X72865274Y-85438752D01*
X72865274Y-85533990D02*
X72912893Y-85486371D01*
X72912893Y-85486371D02*
X73008131Y-85438752D01*
X73008131Y-85438752D02*
X73150988Y-85438752D01*
X73150988Y-85438752D02*
X73246226Y-85486371D01*
X73246226Y-85486371D02*
X73293845Y-85581609D01*
X73293845Y-85581609D02*
X73293845Y-86105419D01*
X73293845Y-85581609D02*
X73341464Y-85486371D01*
X73341464Y-85486371D02*
X73436702Y-85438752D01*
X73436702Y-85438752D02*
X73579559Y-85438752D01*
X73579559Y-85438752D02*
X73674798Y-85486371D01*
X73674798Y-85486371D02*
X73722417Y-85581609D01*
X73722417Y-85581609D02*
X73722417Y-86105419D01*
X74150988Y-86057800D02*
X74293845Y-86105419D01*
X74293845Y-86105419D02*
X74531940Y-86105419D01*
X74531940Y-86105419D02*
X74627178Y-86057800D01*
X74627178Y-86057800D02*
X74674797Y-86010180D01*
X74674797Y-86010180D02*
X74722416Y-85914942D01*
X74722416Y-85914942D02*
X74722416Y-85819704D01*
X74722416Y-85819704D02*
X74674797Y-85724466D01*
X74674797Y-85724466D02*
X74627178Y-85676847D01*
X74627178Y-85676847D02*
X74531940Y-85629228D01*
X74531940Y-85629228D02*
X74341464Y-85581609D01*
X74341464Y-85581609D02*
X74246226Y-85533990D01*
X74246226Y-85533990D02*
X74198607Y-85486371D01*
X74198607Y-85486371D02*
X74150988Y-85391133D01*
X74150988Y-85391133D02*
X74150988Y-85295895D01*
X74150988Y-85295895D02*
X74198607Y-85200657D01*
X74198607Y-85200657D02*
X74246226Y-85153038D01*
X74246226Y-85153038D02*
X74341464Y-85105419D01*
X74341464Y-85105419D02*
X74579559Y-85105419D01*
X74579559Y-85105419D02*
X74722416Y-85153038D01*
X75531940Y-86057800D02*
X75436702Y-86105419D01*
X75436702Y-86105419D02*
X75246226Y-86105419D01*
X75246226Y-86105419D02*
X75150988Y-86057800D01*
X75150988Y-86057800D02*
X75103369Y-85962561D01*
X75103369Y-85962561D02*
X75103369Y-85581609D01*
X75103369Y-85581609D02*
X75150988Y-85486371D01*
X75150988Y-85486371D02*
X75246226Y-85438752D01*
X75246226Y-85438752D02*
X75436702Y-85438752D01*
X75436702Y-85438752D02*
X75531940Y-85486371D01*
X75531940Y-85486371D02*
X75579559Y-85581609D01*
X75579559Y-85581609D02*
X75579559Y-85676847D01*
X75579559Y-85676847D02*
X75103369Y-85772085D01*
X76436702Y-86105419D02*
X76436702Y-85581609D01*
X76436702Y-85581609D02*
X76389083Y-85486371D01*
X76389083Y-85486371D02*
X76293845Y-85438752D01*
X76293845Y-85438752D02*
X76103369Y-85438752D01*
X76103369Y-85438752D02*
X76008131Y-85486371D01*
X76436702Y-86057800D02*
X76341464Y-86105419D01*
X76341464Y-86105419D02*
X76103369Y-86105419D01*
X76103369Y-86105419D02*
X76008131Y-86057800D01*
X76008131Y-86057800D02*
X75960512Y-85962561D01*
X75960512Y-85962561D02*
X75960512Y-85867323D01*
X75960512Y-85867323D02*
X76008131Y-85772085D01*
X76008131Y-85772085D02*
X76103369Y-85724466D01*
X76103369Y-85724466D02*
X76341464Y-85724466D01*
X76341464Y-85724466D02*
X76436702Y-85676847D01*
X76912893Y-85438752D02*
X76912893Y-86105419D01*
X76912893Y-85533990D02*
X76960512Y-85486371D01*
X76960512Y-85486371D02*
X77055750Y-85438752D01*
X77055750Y-85438752D02*
X77198607Y-85438752D01*
X77198607Y-85438752D02*
X77293845Y-85486371D01*
X77293845Y-85486371D02*
X77341464Y-85581609D01*
X77341464Y-85581609D02*
X77341464Y-86105419D01*
X78389083Y-86010180D02*
X78341464Y-86057800D01*
X78341464Y-86057800D02*
X78198607Y-86105419D01*
X78198607Y-86105419D02*
X78103369Y-86105419D01*
X78103369Y-86105419D02*
X77960512Y-86057800D01*
X77960512Y-86057800D02*
X77865274Y-85962561D01*
X77865274Y-85962561D02*
X77817655Y-85867323D01*
X77817655Y-85867323D02*
X77770036Y-85676847D01*
X77770036Y-85676847D02*
X77770036Y-85533990D01*
X77770036Y-85533990D02*
X77817655Y-85343514D01*
X77817655Y-85343514D02*
X77865274Y-85248276D01*
X77865274Y-85248276D02*
X77960512Y-85153038D01*
X77960512Y-85153038D02*
X78103369Y-85105419D01*
X78103369Y-85105419D02*
X78198607Y-85105419D01*
X78198607Y-85105419D02*
X78341464Y-85153038D01*
X78341464Y-85153038D02*
X78389083Y-85200657D01*
X78960512Y-86105419D02*
X78865274Y-86057800D01*
X78865274Y-86057800D02*
X78817655Y-86010180D01*
X78817655Y-86010180D02*
X78770036Y-85914942D01*
X78770036Y-85914942D02*
X78770036Y-85629228D01*
X78770036Y-85629228D02*
X78817655Y-85533990D01*
X78817655Y-85533990D02*
X78865274Y-85486371D01*
X78865274Y-85486371D02*
X78960512Y-85438752D01*
X78960512Y-85438752D02*
X79103369Y-85438752D01*
X79103369Y-85438752D02*
X79198607Y-85486371D01*
X79198607Y-85486371D02*
X79246226Y-85533990D01*
X79246226Y-85533990D02*
X79293845Y-85629228D01*
X79293845Y-85629228D02*
X79293845Y-85914942D01*
X79293845Y-85914942D02*
X79246226Y-86010180D01*
X79246226Y-86010180D02*
X79198607Y-86057800D01*
X79198607Y-86057800D02*
X79103369Y-86105419D01*
X79103369Y-86105419D02*
X78960512Y-86105419D01*
X79722417Y-85438752D02*
X79722417Y-86105419D01*
X79722417Y-85533990D02*
X79770036Y-85486371D01*
X79770036Y-85486371D02*
X79865274Y-85438752D01*
X79865274Y-85438752D02*
X80008131Y-85438752D01*
X80008131Y-85438752D02*
X80103369Y-85486371D01*
X80103369Y-85486371D02*
X80150988Y-85581609D01*
X80150988Y-85581609D02*
X80150988Y-86105419D01*
X80627179Y-86105419D02*
X80627179Y-85438752D01*
X80627179Y-85629228D02*
X80674798Y-85533990D01*
X80674798Y-85533990D02*
X80722417Y-85486371D01*
X80722417Y-85486371D02*
X80817655Y-85438752D01*
X80817655Y-85438752D02*
X80912893Y-85438752D01*
X81389084Y-86105419D02*
X81293846Y-86057800D01*
X81293846Y-86057800D02*
X81246227Y-86010180D01*
X81246227Y-86010180D02*
X81198608Y-85914942D01*
X81198608Y-85914942D02*
X81198608Y-85629228D01*
X81198608Y-85629228D02*
X81246227Y-85533990D01*
X81246227Y-85533990D02*
X81293846Y-85486371D01*
X81293846Y-85486371D02*
X81389084Y-85438752D01*
X81389084Y-85438752D02*
X81531941Y-85438752D01*
X81531941Y-85438752D02*
X81627179Y-85486371D01*
X81627179Y-85486371D02*
X81674798Y-85533990D01*
X81674798Y-85533990D02*
X81722417Y-85629228D01*
X81722417Y-85629228D02*
X81722417Y-85914942D01*
X81722417Y-85914942D02*
X81674798Y-86010180D01*
X81674798Y-86010180D02*
X81627179Y-86057800D01*
X81627179Y-86057800D02*
X81531941Y-86105419D01*
X81531941Y-86105419D02*
X81389084Y-86105419D01*
X82055751Y-85438752D02*
X82293846Y-86105419D01*
X82531941Y-85438752D02*
X82293846Y-86105419D01*
X82293846Y-86105419D02*
X82198608Y-86343514D01*
X82198608Y-86343514D02*
X82150989Y-86391133D01*
X82150989Y-86391133D02*
X82055751Y-86438752D01*
X83627179Y-85057800D02*
X82770037Y-86343514D01*
X83960513Y-86105419D02*
X83960513Y-85105419D01*
X83960513Y-85105419D02*
X84293846Y-85819704D01*
X84293846Y-85819704D02*
X84627179Y-85105419D01*
X84627179Y-85105419D02*
X84627179Y-86105419D01*
X85531941Y-86105419D02*
X85531941Y-85581609D01*
X85531941Y-85581609D02*
X85484322Y-85486371D01*
X85484322Y-85486371D02*
X85389084Y-85438752D01*
X85389084Y-85438752D02*
X85198608Y-85438752D01*
X85198608Y-85438752D02*
X85103370Y-85486371D01*
X85531941Y-86057800D02*
X85436703Y-86105419D01*
X85436703Y-86105419D02*
X85198608Y-86105419D01*
X85198608Y-86105419D02*
X85103370Y-86057800D01*
X85103370Y-86057800D02*
X85055751Y-85962561D01*
X85055751Y-85962561D02*
X85055751Y-85867323D01*
X85055751Y-85867323D02*
X85103370Y-85772085D01*
X85103370Y-85772085D02*
X85198608Y-85724466D01*
X85198608Y-85724466D02*
X85436703Y-85724466D01*
X85436703Y-85724466D02*
X85531941Y-85676847D01*
X86436703Y-86057800D02*
X86341465Y-86105419D01*
X86341465Y-86105419D02*
X86150989Y-86105419D01*
X86150989Y-86105419D02*
X86055751Y-86057800D01*
X86055751Y-86057800D02*
X86008132Y-86010180D01*
X86008132Y-86010180D02*
X85960513Y-85914942D01*
X85960513Y-85914942D02*
X85960513Y-85629228D01*
X85960513Y-85629228D02*
X86008132Y-85533990D01*
X86008132Y-85533990D02*
X86055751Y-85486371D01*
X86055751Y-85486371D02*
X86150989Y-85438752D01*
X86150989Y-85438752D02*
X86341465Y-85438752D01*
X86341465Y-85438752D02*
X86436703Y-85486371D01*
X86865275Y-86105419D02*
X86865275Y-85438752D01*
X86865275Y-85629228D02*
X86912894Y-85533990D01*
X86912894Y-85533990D02*
X86960513Y-85486371D01*
X86960513Y-85486371D02*
X87055751Y-85438752D01*
X87055751Y-85438752D02*
X87150989Y-85438752D01*
X87627180Y-86105419D02*
X87531942Y-86057800D01*
X87531942Y-86057800D02*
X87484323Y-86010180D01*
X87484323Y-86010180D02*
X87436704Y-85914942D01*
X87436704Y-85914942D02*
X87436704Y-85629228D01*
X87436704Y-85629228D02*
X87484323Y-85533990D01*
X87484323Y-85533990D02*
X87531942Y-85486371D01*
X87531942Y-85486371D02*
X87627180Y-85438752D01*
X87627180Y-85438752D02*
X87770037Y-85438752D01*
X87770037Y-85438752D02*
X87865275Y-85486371D01*
X87865275Y-85486371D02*
X87912894Y-85533990D01*
X87912894Y-85533990D02*
X87960513Y-85629228D01*
X87960513Y-85629228D02*
X87960513Y-85914942D01*
X87960513Y-85914942D02*
X87912894Y-86010180D01*
X87912894Y-86010180D02*
X87865275Y-86057800D01*
X87865275Y-86057800D02*
X87770037Y-86105419D01*
X87770037Y-86105419D02*
X87627180Y-86105419D01*
X88389085Y-85724466D02*
X89150990Y-85724466D01*
X89627180Y-86105419D02*
X89627180Y-85105419D01*
X90198608Y-86105419D02*
X89770037Y-85533990D01*
X90198608Y-85105419D02*
X89627180Y-85676847D01*
X91008132Y-86057800D02*
X90912894Y-86105419D01*
X90912894Y-86105419D02*
X90722418Y-86105419D01*
X90722418Y-86105419D02*
X90627180Y-86057800D01*
X90627180Y-86057800D02*
X90579561Y-85962561D01*
X90579561Y-85962561D02*
X90579561Y-85581609D01*
X90579561Y-85581609D02*
X90627180Y-85486371D01*
X90627180Y-85486371D02*
X90722418Y-85438752D01*
X90722418Y-85438752D02*
X90912894Y-85438752D01*
X90912894Y-85438752D02*
X91008132Y-85486371D01*
X91008132Y-85486371D02*
X91055751Y-85581609D01*
X91055751Y-85581609D02*
X91055751Y-85676847D01*
X91055751Y-85676847D02*
X90579561Y-85772085D01*
X91389085Y-85438752D02*
X91627180Y-86105419D01*
X91865275Y-85438752D02*
X91627180Y-86105419D01*
X91627180Y-86105419D02*
X91531942Y-86343514D01*
X91531942Y-86343514D02*
X91484323Y-86391133D01*
X91484323Y-86391133D02*
X91389085Y-86438752D01*
X92246228Y-86105419D02*
X92246228Y-85105419D01*
X92246228Y-85486371D02*
X92341466Y-85438752D01*
X92341466Y-85438752D02*
X92531942Y-85438752D01*
X92531942Y-85438752D02*
X92627180Y-85486371D01*
X92627180Y-85486371D02*
X92674799Y-85533990D01*
X92674799Y-85533990D02*
X92722418Y-85629228D01*
X92722418Y-85629228D02*
X92722418Y-85914942D01*
X92722418Y-85914942D02*
X92674799Y-86010180D01*
X92674799Y-86010180D02*
X92627180Y-86057800D01*
X92627180Y-86057800D02*
X92531942Y-86105419D01*
X92531942Y-86105419D02*
X92341466Y-86105419D01*
X92341466Y-86105419D02*
X92246228Y-86057800D01*
X93293847Y-86105419D02*
X93198609Y-86057800D01*
X93198609Y-86057800D02*
X93150990Y-86010180D01*
X93150990Y-86010180D02*
X93103371Y-85914942D01*
X93103371Y-85914942D02*
X93103371Y-85629228D01*
X93103371Y-85629228D02*
X93150990Y-85533990D01*
X93150990Y-85533990D02*
X93198609Y-85486371D01*
X93198609Y-85486371D02*
X93293847Y-85438752D01*
X93293847Y-85438752D02*
X93436704Y-85438752D01*
X93436704Y-85438752D02*
X93531942Y-85486371D01*
X93531942Y-85486371D02*
X93579561Y-85533990D01*
X93579561Y-85533990D02*
X93627180Y-85629228D01*
X93627180Y-85629228D02*
X93627180Y-85914942D01*
X93627180Y-85914942D02*
X93579561Y-86010180D01*
X93579561Y-86010180D02*
X93531942Y-86057800D01*
X93531942Y-86057800D02*
X93436704Y-86105419D01*
X93436704Y-86105419D02*
X93293847Y-86105419D01*
X94484323Y-86105419D02*
X94484323Y-85581609D01*
X94484323Y-85581609D02*
X94436704Y-85486371D01*
X94436704Y-85486371D02*
X94341466Y-85438752D01*
X94341466Y-85438752D02*
X94150990Y-85438752D01*
X94150990Y-85438752D02*
X94055752Y-85486371D01*
X94484323Y-86057800D02*
X94389085Y-86105419D01*
X94389085Y-86105419D02*
X94150990Y-86105419D01*
X94150990Y-86105419D02*
X94055752Y-86057800D01*
X94055752Y-86057800D02*
X94008133Y-85962561D01*
X94008133Y-85962561D02*
X94008133Y-85867323D01*
X94008133Y-85867323D02*
X94055752Y-85772085D01*
X94055752Y-85772085D02*
X94150990Y-85724466D01*
X94150990Y-85724466D02*
X94389085Y-85724466D01*
X94389085Y-85724466D02*
X94484323Y-85676847D01*
X94960514Y-86105419D02*
X94960514Y-85438752D01*
X94960514Y-85629228D02*
X95008133Y-85533990D01*
X95008133Y-85533990D02*
X95055752Y-85486371D01*
X95055752Y-85486371D02*
X95150990Y-85438752D01*
X95150990Y-85438752D02*
X95246228Y-85438752D01*
X96008133Y-86105419D02*
X96008133Y-85105419D01*
X96008133Y-86057800D02*
X95912895Y-86105419D01*
X95912895Y-86105419D02*
X95722419Y-86105419D01*
X95722419Y-86105419D02*
X95627181Y-86057800D01*
X95627181Y-86057800D02*
X95579562Y-86010180D01*
X95579562Y-86010180D02*
X95531943Y-85914942D01*
X95531943Y-85914942D02*
X95531943Y-85629228D01*
X95531943Y-85629228D02*
X95579562Y-85533990D01*
X95579562Y-85533990D02*
X95627181Y-85486371D01*
X95627181Y-85486371D02*
X95722419Y-85438752D01*
X95722419Y-85438752D02*
X95912895Y-85438752D01*
X95912895Y-85438752D02*
X96008133Y-85486371D01*
X97246229Y-85724466D02*
X98008134Y-85724466D01*
X99150991Y-85105419D02*
X99770038Y-85105419D01*
X99770038Y-85105419D02*
X99436705Y-85486371D01*
X99436705Y-85486371D02*
X99579562Y-85486371D01*
X99579562Y-85486371D02*
X99674800Y-85533990D01*
X99674800Y-85533990D02*
X99722419Y-85581609D01*
X99722419Y-85581609D02*
X99770038Y-85676847D01*
X99770038Y-85676847D02*
X99770038Y-85914942D01*
X99770038Y-85914942D02*
X99722419Y-86010180D01*
X99722419Y-86010180D02*
X99674800Y-86057800D01*
X99674800Y-86057800D02*
X99579562Y-86105419D01*
X99579562Y-86105419D02*
X99293848Y-86105419D01*
X99293848Y-86105419D02*
X99198610Y-86057800D01*
X99198610Y-86057800D02*
X99150991Y-86010180D01*
X100103372Y-86105419D02*
X100627181Y-85438752D01*
X100103372Y-85438752D02*
X100627181Y-86105419D01*
X100912896Y-85105419D02*
X101531943Y-85105419D01*
X101531943Y-85105419D02*
X101198610Y-85486371D01*
X101198610Y-85486371D02*
X101341467Y-85486371D01*
X101341467Y-85486371D02*
X101436705Y-85533990D01*
X101436705Y-85533990D02*
X101484324Y-85581609D01*
X101484324Y-85581609D02*
X101531943Y-85676847D01*
X101531943Y-85676847D02*
X101531943Y-85914942D01*
X101531943Y-85914942D02*
X101484324Y-86010180D01*
X101484324Y-86010180D02*
X101436705Y-86057800D01*
X101436705Y-86057800D02*
X101341467Y-86105419D01*
X101341467Y-86105419D02*
X101055753Y-86105419D01*
X101055753Y-86105419D02*
X100960515Y-86057800D01*
X100960515Y-86057800D02*
X100912896Y-86010180D01*
X103008134Y-86486371D02*
X102960515Y-86438752D01*
X102960515Y-86438752D02*
X102865277Y-86295895D01*
X102865277Y-86295895D02*
X102817658Y-86200657D01*
X102817658Y-86200657D02*
X102770039Y-86057800D01*
X102770039Y-86057800D02*
X102722420Y-85819704D01*
X102722420Y-85819704D02*
X102722420Y-85629228D01*
X102722420Y-85629228D02*
X102770039Y-85391133D01*
X102770039Y-85391133D02*
X102817658Y-85248276D01*
X102817658Y-85248276D02*
X102865277Y-85153038D01*
X102865277Y-85153038D02*
X102960515Y-85010180D01*
X102960515Y-85010180D02*
X103008134Y-84962561D01*
X103293849Y-85438752D02*
X103531944Y-86105419D01*
X103531944Y-86105419D02*
X103770039Y-85438752D01*
X104341468Y-85105419D02*
X104436706Y-85105419D01*
X104436706Y-85105419D02*
X104531944Y-85153038D01*
X104531944Y-85153038D02*
X104579563Y-85200657D01*
X104579563Y-85200657D02*
X104627182Y-85295895D01*
X104627182Y-85295895D02*
X104674801Y-85486371D01*
X104674801Y-85486371D02*
X104674801Y-85724466D01*
X104674801Y-85724466D02*
X104627182Y-85914942D01*
X104627182Y-85914942D02*
X104579563Y-86010180D01*
X104579563Y-86010180D02*
X104531944Y-86057800D01*
X104531944Y-86057800D02*
X104436706Y-86105419D01*
X104436706Y-86105419D02*
X104341468Y-86105419D01*
X104341468Y-86105419D02*
X104246230Y-86057800D01*
X104246230Y-86057800D02*
X104198611Y-86010180D01*
X104198611Y-86010180D02*
X104150992Y-85914942D01*
X104150992Y-85914942D02*
X104103373Y-85724466D01*
X104103373Y-85724466D02*
X104103373Y-85486371D01*
X104103373Y-85486371D02*
X104150992Y-85295895D01*
X104150992Y-85295895D02*
X104198611Y-85200657D01*
X104198611Y-85200657D02*
X104246230Y-85153038D01*
X104246230Y-85153038D02*
X104341468Y-85105419D01*
X105103373Y-86010180D02*
X105150992Y-86057800D01*
X105150992Y-86057800D02*
X105103373Y-86105419D01*
X105103373Y-86105419D02*
X105055754Y-86057800D01*
X105055754Y-86057800D02*
X105103373Y-86010180D01*
X105103373Y-86010180D02*
X105103373Y-86105419D01*
X106103372Y-86105419D02*
X105531944Y-86105419D01*
X105817658Y-86105419D02*
X105817658Y-85105419D01*
X105817658Y-85105419D02*
X105722420Y-85248276D01*
X105722420Y-85248276D02*
X105627182Y-85343514D01*
X105627182Y-85343514D02*
X105531944Y-85391133D01*
X106436706Y-86486371D02*
X106484325Y-86438752D01*
X106484325Y-86438752D02*
X106579563Y-86295895D01*
X106579563Y-86295895D02*
X106627182Y-86200657D01*
X106627182Y-86200657D02*
X106674801Y-86057800D01*
X106674801Y-86057800D02*
X106722420Y-85819704D01*
X106722420Y-85819704D02*
X106722420Y-85629228D01*
X106722420Y-85629228D02*
X106674801Y-85391133D01*
X106674801Y-85391133D02*
X106627182Y-85248276D01*
X106627182Y-85248276D02*
X106579563Y-85153038D01*
X106579563Y-85153038D02*
X106484325Y-85010180D01*
X106484325Y-85010180D02*
X106436706Y-84962561D01*
M02*
