G04 #@! TF.GenerationSoftware,KiCad,Pcbnew,8.0.6*
G04 #@! TF.CreationDate,2025-06-28T13:01:24+01:00*
G04 #@! TF.ProjectId,2x4,3278342e-6b69-4636-9164-5f7063625858,0.2*
G04 #@! TF.SameCoordinates,Original*
G04 #@! TF.FileFunction,Copper,L2,Bot*
G04 #@! TF.FilePolarity,Positive*
%FSLAX46Y46*%
G04 Gerber Fmt 4.6, Leading zero omitted, Abs format (unit mm)*
G04 Created by KiCad (PCBNEW 8.0.6) date 2025-06-28 13:01:24*
%MOMM*%
%LPD*%
G01*
G04 APERTURE LIST*
G04 #@! TA.AperFunction,SMDPad,CuDef*
%ADD10R,2.500000X2.550000*%
G04 #@! TD*
G04 #@! TA.AperFunction,SMDPad,CuDef*
%ADD11O,1.998980X2.748280*%
G04 #@! TD*
G04 #@! TA.AperFunction,SMDPad,CuDef*
%ADD12O,2.032000X1.016000*%
G04 #@! TD*
G04 #@! TA.AperFunction,SMDPad,CuDef*
%ADD13C,1.143000*%
G04 #@! TD*
G04 #@! TA.AperFunction,ViaPad*
%ADD14C,0.600000*%
G04 #@! TD*
G04 #@! TA.AperFunction,Conductor*
%ADD15C,0.200000*%
G04 #@! TD*
G04 APERTURE END LIST*
D10*
X103886000Y-44223000D03*
X106426000Y-57150000D03*
X142494000Y-63527000D03*
X145034000Y-76454000D03*
X123190000Y-44223000D03*
X125730000Y-57150000D03*
X123190000Y-63527000D03*
X125730000Y-76454000D03*
X103886000Y-63527000D03*
X106426000Y-76454000D03*
X84538934Y-44223000D03*
X87078934Y-57150000D03*
X142494000Y-44223000D03*
X145034000Y-57150000D03*
X84538934Y-63527000D03*
X87078934Y-76454000D03*
D11*
X61384180Y-52903120D03*
X63924180Y-52903120D03*
X66464180Y-52903120D03*
X69004180Y-52903120D03*
X71544180Y-52903120D03*
X74084180Y-52903120D03*
X76624180Y-52903120D03*
X76624180Y-69067680D03*
X74084180Y-69067680D03*
X71544180Y-69067680D03*
X69004180Y-69067680D03*
X66464180Y-69067680D03*
X63924180Y-69067680D03*
X61384180Y-69067680D03*
D12*
X77702000Y-59770000D03*
X77702000Y-62320000D03*
D13*
X60697813Y-59768803D03*
X60697813Y-62308803D03*
X63237813Y-59768803D03*
X63237813Y-62308803D03*
D14*
X69088000Y-50800000D03*
X82423000Y-44196000D03*
X64008000Y-50800000D03*
X121031000Y-44196000D03*
X140335000Y-44196000D03*
X61468000Y-50800000D03*
X101727000Y-44196000D03*
X66548000Y-50800000D03*
X74168000Y-66802000D03*
X101600000Y-63500000D03*
X76708000Y-66802000D03*
X82296000Y-63500000D03*
X71628000Y-66802000D03*
X120650000Y-63500000D03*
X139954000Y-63500000D03*
X69088000Y-66802000D03*
D15*
X69088000Y-50800000D02*
X69088000Y-52819300D01*
X82423000Y-44196000D02*
X82931000Y-44196000D01*
X69088000Y-52819300D02*
X69004180Y-52903120D01*
X82958000Y-44223000D02*
X84538934Y-44223000D01*
X82931000Y-44196000D02*
X82958000Y-44223000D01*
X69004180Y-52903120D02*
X69104750Y-52802550D01*
X63924180Y-52903120D02*
X64024750Y-52802550D01*
X121058000Y-44223000D02*
X123190000Y-44223000D01*
X63924180Y-50883820D02*
X63924180Y-52903120D01*
X121031000Y-44196000D02*
X121058000Y-44223000D01*
X64008000Y-50800000D02*
X63924180Y-50883820D01*
X61384180Y-50883820D02*
X61384180Y-52903120D01*
X142467000Y-44196000D02*
X142494000Y-44223000D01*
X61468000Y-50800000D02*
X61384180Y-50883820D01*
X140335000Y-44196000D02*
X142467000Y-44196000D01*
X61384180Y-52903120D02*
X61484750Y-52802550D01*
X66548000Y-50800000D02*
X66464180Y-50883820D01*
X66464180Y-50883820D02*
X66464180Y-52903120D01*
X101727000Y-44196000D02*
X103859000Y-44196000D01*
X103859000Y-44196000D02*
X103886000Y-44223000D01*
X66464180Y-52903120D02*
X66564750Y-52802550D01*
X74168000Y-66802000D02*
X74084180Y-66885820D01*
X103886000Y-63527000D02*
X101627000Y-63527000D01*
X101627000Y-63527000D02*
X101600000Y-63500000D01*
X74084180Y-66885820D02*
X74084180Y-69067680D01*
X76708000Y-66802000D02*
X76708000Y-68983860D01*
X84538934Y-63527000D02*
X82323000Y-63527000D01*
X76708000Y-68983860D02*
X76624180Y-69067680D01*
X82323000Y-63527000D02*
X82296000Y-63500000D01*
X71544180Y-66885820D02*
X71628000Y-66802000D01*
X123190000Y-63527000D02*
X120677000Y-63527000D01*
X120677000Y-63527000D02*
X120650000Y-63500000D01*
X71544180Y-69067680D02*
X71544180Y-66885820D01*
X142494000Y-63527000D02*
X139981000Y-63527000D01*
X69004180Y-66885820D02*
X69088000Y-66802000D01*
X69004180Y-69067680D02*
X69004180Y-66885820D01*
X139981000Y-63527000D02*
X139954000Y-63500000D01*
G04 #@! TA.AperFunction,Conductor*
G36*
X149627539Y-41478185D02*
G01*
X149673294Y-41530989D01*
X149684500Y-41582500D01*
X149684500Y-80407500D01*
X149664815Y-80474539D01*
X149612011Y-80520294D01*
X149560500Y-80531500D01*
X58607500Y-80531500D01*
X58540461Y-80511815D01*
X58494706Y-80459011D01*
X58483500Y-80407500D01*
X58483500Y-77776844D01*
X85328934Y-77776844D01*
X85335335Y-77836372D01*
X85335337Y-77836379D01*
X85385579Y-77971086D01*
X85385583Y-77971093D01*
X85471743Y-78086187D01*
X85471746Y-78086190D01*
X85586840Y-78172350D01*
X85586847Y-78172354D01*
X85721554Y-78222596D01*
X85721561Y-78222598D01*
X85781089Y-78228999D01*
X85781106Y-78229000D01*
X86828934Y-78229000D01*
X87328934Y-78229000D01*
X88376762Y-78229000D01*
X88376778Y-78228999D01*
X88436306Y-78222598D01*
X88436313Y-78222596D01*
X88571020Y-78172354D01*
X88571027Y-78172350D01*
X88686121Y-78086190D01*
X88686124Y-78086187D01*
X88772284Y-77971093D01*
X88772288Y-77971086D01*
X88822530Y-77836379D01*
X88822532Y-77836372D01*
X88828933Y-77776844D01*
X104676000Y-77776844D01*
X104682401Y-77836372D01*
X104682403Y-77836379D01*
X104732645Y-77971086D01*
X104732649Y-77971093D01*
X104818809Y-78086187D01*
X104818812Y-78086190D01*
X104933906Y-78172350D01*
X104933913Y-78172354D01*
X105068620Y-78222596D01*
X105068627Y-78222598D01*
X105128155Y-78228999D01*
X105128172Y-78229000D01*
X106176000Y-78229000D01*
X106676000Y-78229000D01*
X107723828Y-78229000D01*
X107723844Y-78228999D01*
X107783372Y-78222598D01*
X107783379Y-78222596D01*
X107918086Y-78172354D01*
X107918093Y-78172350D01*
X108033187Y-78086190D01*
X108033190Y-78086187D01*
X108119350Y-77971093D01*
X108119354Y-77971086D01*
X108169596Y-77836379D01*
X108169598Y-77836372D01*
X108175999Y-77776844D01*
X123980000Y-77776844D01*
X123986401Y-77836372D01*
X123986403Y-77836379D01*
X124036645Y-77971086D01*
X124036649Y-77971093D01*
X124122809Y-78086187D01*
X124122812Y-78086190D01*
X124237906Y-78172350D01*
X124237913Y-78172354D01*
X124372620Y-78222596D01*
X124372627Y-78222598D01*
X124432155Y-78228999D01*
X124432172Y-78229000D01*
X125480000Y-78229000D01*
X125980000Y-78229000D01*
X127027828Y-78229000D01*
X127027844Y-78228999D01*
X127087372Y-78222598D01*
X127087379Y-78222596D01*
X127222086Y-78172354D01*
X127222093Y-78172350D01*
X127337187Y-78086190D01*
X127337190Y-78086187D01*
X127423350Y-77971093D01*
X127423354Y-77971086D01*
X127473596Y-77836379D01*
X127473598Y-77836372D01*
X127479999Y-77776844D01*
X143284000Y-77776844D01*
X143290401Y-77836372D01*
X143290403Y-77836379D01*
X143340645Y-77971086D01*
X143340649Y-77971093D01*
X143426809Y-78086187D01*
X143426812Y-78086190D01*
X143541906Y-78172350D01*
X143541913Y-78172354D01*
X143676620Y-78222596D01*
X143676627Y-78222598D01*
X143736155Y-78228999D01*
X143736172Y-78229000D01*
X144784000Y-78229000D01*
X145284000Y-78229000D01*
X146331828Y-78229000D01*
X146331844Y-78228999D01*
X146391372Y-78222598D01*
X146391379Y-78222596D01*
X146526086Y-78172354D01*
X146526093Y-78172350D01*
X146641187Y-78086190D01*
X146641190Y-78086187D01*
X146727350Y-77971093D01*
X146727354Y-77971086D01*
X146777596Y-77836379D01*
X146777598Y-77836372D01*
X146783999Y-77776844D01*
X146784000Y-77776827D01*
X146784000Y-76704000D01*
X145284000Y-76704000D01*
X145284000Y-78229000D01*
X144784000Y-78229000D01*
X144784000Y-76704000D01*
X143284000Y-76704000D01*
X143284000Y-77776844D01*
X127479999Y-77776844D01*
X127480000Y-77776827D01*
X127480000Y-76704000D01*
X125980000Y-76704000D01*
X125980000Y-78229000D01*
X125480000Y-78229000D01*
X125480000Y-76704000D01*
X123980000Y-76704000D01*
X123980000Y-77776844D01*
X108175999Y-77776844D01*
X108176000Y-77776827D01*
X108176000Y-76704000D01*
X106676000Y-76704000D01*
X106676000Y-78229000D01*
X106176000Y-78229000D01*
X106176000Y-76704000D01*
X104676000Y-76704000D01*
X104676000Y-77776844D01*
X88828933Y-77776844D01*
X88828934Y-77776827D01*
X88828934Y-76704000D01*
X87328934Y-76704000D01*
X87328934Y-78229000D01*
X86828934Y-78229000D01*
X86828934Y-76704000D01*
X85328934Y-76704000D01*
X85328934Y-77776844D01*
X58483500Y-77776844D01*
X58483500Y-75603421D01*
X80873434Y-75603421D01*
X80873434Y-75780578D01*
X80901148Y-75955556D01*
X80955890Y-76124039D01*
X80955891Y-76124042D01*
X81036320Y-76281890D01*
X81140451Y-76425214D01*
X81265720Y-76550483D01*
X81409044Y-76654614D01*
X81486463Y-76694061D01*
X81566891Y-76735042D01*
X81566894Y-76735043D01*
X81651135Y-76762414D01*
X81735379Y-76789786D01*
X81910355Y-76817500D01*
X81910356Y-76817500D01*
X82087512Y-76817500D01*
X82087513Y-76817500D01*
X82262489Y-76789786D01*
X82430976Y-76735042D01*
X82588824Y-76654614D01*
X82732148Y-76550483D01*
X82857417Y-76425214D01*
X82961548Y-76281890D01*
X83041976Y-76124042D01*
X83096720Y-75955555D01*
X83124434Y-75780579D01*
X83124434Y-75603421D01*
X83096720Y-75428445D01*
X83041976Y-75259958D01*
X83041976Y-75259957D01*
X82961547Y-75102109D01*
X82857417Y-74958786D01*
X82732148Y-74833517D01*
X82588824Y-74729386D01*
X82580891Y-74725344D01*
X82430976Y-74648957D01*
X82430973Y-74648956D01*
X82262490Y-74594214D01*
X82175001Y-74580357D01*
X82087513Y-74566500D01*
X81910355Y-74566500D01*
X81852029Y-74575738D01*
X81735377Y-74594214D01*
X81566894Y-74648956D01*
X81566891Y-74648957D01*
X81409043Y-74729386D01*
X81327272Y-74788796D01*
X81265720Y-74833517D01*
X81265718Y-74833519D01*
X81265717Y-74833519D01*
X81140453Y-74958783D01*
X81140453Y-74958784D01*
X81140451Y-74958786D01*
X81095730Y-75020338D01*
X81036320Y-75102109D01*
X80955891Y-75259957D01*
X80955890Y-75259960D01*
X80901148Y-75428443D01*
X80873434Y-75603421D01*
X58483500Y-75603421D01*
X58483500Y-73037258D01*
X85328434Y-73037258D01*
X85328434Y-73266741D01*
X85353380Y-73456215D01*
X85358386Y-73494238D01*
X85358387Y-73494240D01*
X85417776Y-73715887D01*
X85505584Y-73927876D01*
X85505591Y-73927890D01*
X85620326Y-74126617D01*
X85760015Y-74308661D01*
X85760023Y-74308670D01*
X85918672Y-74467319D01*
X85952157Y-74528642D01*
X85947173Y-74598334D01*
X85905301Y-74654267D01*
X85839837Y-74678684D01*
X85830991Y-74679000D01*
X85781089Y-74679000D01*
X85721561Y-74685401D01*
X85721554Y-74685403D01*
X85586847Y-74735645D01*
X85586840Y-74735649D01*
X85471746Y-74821809D01*
X85471743Y-74821812D01*
X85385583Y-74936906D01*
X85385579Y-74936913D01*
X85335337Y-75071620D01*
X85335335Y-75071627D01*
X85328934Y-75131155D01*
X85328934Y-76204000D01*
X88828934Y-76204000D01*
X88828934Y-75603421D01*
X100220500Y-75603421D01*
X100220500Y-75780578D01*
X100248214Y-75955556D01*
X100302956Y-76124039D01*
X100302957Y-76124042D01*
X100383386Y-76281890D01*
X100487517Y-76425214D01*
X100612786Y-76550483D01*
X100756110Y-76654614D01*
X100833529Y-76694061D01*
X100913957Y-76735042D01*
X100913960Y-76735043D01*
X100998201Y-76762414D01*
X101082445Y-76789786D01*
X101257421Y-76817500D01*
X101257422Y-76817500D01*
X101434578Y-76817500D01*
X101434579Y-76817500D01*
X101609555Y-76789786D01*
X101778042Y-76735042D01*
X101935890Y-76654614D01*
X102079214Y-76550483D01*
X102204483Y-76425214D01*
X102308614Y-76281890D01*
X102389042Y-76124042D01*
X102443786Y-75955555D01*
X102471500Y-75780579D01*
X102471500Y-75603421D01*
X102443786Y-75428445D01*
X102389042Y-75259958D01*
X102389042Y-75259957D01*
X102308613Y-75102109D01*
X102204483Y-74958786D01*
X102079214Y-74833517D01*
X101935890Y-74729386D01*
X101927957Y-74725344D01*
X101778042Y-74648957D01*
X101778039Y-74648956D01*
X101609556Y-74594214D01*
X101522067Y-74580357D01*
X101434579Y-74566500D01*
X101257421Y-74566500D01*
X101199095Y-74575738D01*
X101082443Y-74594214D01*
X100913960Y-74648956D01*
X100913957Y-74648957D01*
X100756109Y-74729386D01*
X100674338Y-74788796D01*
X100612786Y-74833517D01*
X100612784Y-74833519D01*
X100612783Y-74833519D01*
X100487519Y-74958783D01*
X100487519Y-74958784D01*
X100487517Y-74958786D01*
X100442796Y-75020338D01*
X100383386Y-75102109D01*
X100302957Y-75259957D01*
X100302956Y-75259960D01*
X100248214Y-75428443D01*
X100220500Y-75603421D01*
X88828934Y-75603421D01*
X88828934Y-75131172D01*
X88828933Y-75131155D01*
X88822532Y-75071627D01*
X88822530Y-75071620D01*
X88772288Y-74936913D01*
X88772284Y-74936906D01*
X88686124Y-74821812D01*
X88686121Y-74821809D01*
X88571027Y-74735649D01*
X88571020Y-74735645D01*
X88436313Y-74685403D01*
X88436306Y-74685401D01*
X88376778Y-74679000D01*
X88326877Y-74679000D01*
X88259838Y-74659315D01*
X88214083Y-74606511D01*
X88204139Y-74537353D01*
X88233164Y-74473797D01*
X88239196Y-74467319D01*
X88397845Y-74308670D01*
X88397848Y-74308665D01*
X88397853Y-74308661D01*
X88537545Y-74126612D01*
X88652278Y-73927888D01*
X88740092Y-73715887D01*
X88799482Y-73494238D01*
X88829434Y-73266734D01*
X88829434Y-73037266D01*
X88829433Y-73037258D01*
X104675500Y-73037258D01*
X104675500Y-73266741D01*
X104700446Y-73456215D01*
X104705452Y-73494238D01*
X104705453Y-73494240D01*
X104764842Y-73715887D01*
X104852650Y-73927876D01*
X104852657Y-73927890D01*
X104967392Y-74126617D01*
X105107081Y-74308661D01*
X105107089Y-74308670D01*
X105265738Y-74467319D01*
X105299223Y-74528642D01*
X105294239Y-74598334D01*
X105252367Y-74654267D01*
X105186903Y-74678684D01*
X105178057Y-74679000D01*
X105128155Y-74679000D01*
X105068627Y-74685401D01*
X105068620Y-74685403D01*
X104933913Y-74735645D01*
X104933906Y-74735649D01*
X104818812Y-74821809D01*
X104818809Y-74821812D01*
X104732649Y-74936906D01*
X104732645Y-74936913D01*
X104682403Y-75071620D01*
X104682401Y-75071627D01*
X104676000Y-75131155D01*
X104676000Y-76204000D01*
X108176000Y-76204000D01*
X108176000Y-75603421D01*
X119524500Y-75603421D01*
X119524500Y-75780578D01*
X119552214Y-75955556D01*
X119606956Y-76124039D01*
X119606957Y-76124042D01*
X119687386Y-76281890D01*
X119791517Y-76425214D01*
X119916786Y-76550483D01*
X120060110Y-76654614D01*
X120137529Y-76694061D01*
X120217957Y-76735042D01*
X120217960Y-76735043D01*
X120302201Y-76762414D01*
X120386445Y-76789786D01*
X120561421Y-76817500D01*
X120561422Y-76817500D01*
X120738578Y-76817500D01*
X120738579Y-76817500D01*
X120913555Y-76789786D01*
X121082042Y-76735042D01*
X121239890Y-76654614D01*
X121383214Y-76550483D01*
X121508483Y-76425214D01*
X121612614Y-76281890D01*
X121693042Y-76124042D01*
X121747786Y-75955555D01*
X121775500Y-75780579D01*
X121775500Y-75603421D01*
X121747786Y-75428445D01*
X121693042Y-75259958D01*
X121693042Y-75259957D01*
X121612613Y-75102109D01*
X121508483Y-74958786D01*
X121383214Y-74833517D01*
X121239890Y-74729386D01*
X121231957Y-74725344D01*
X121082042Y-74648957D01*
X121082039Y-74648956D01*
X120913556Y-74594214D01*
X120826067Y-74580357D01*
X120738579Y-74566500D01*
X120561421Y-74566500D01*
X120503095Y-74575738D01*
X120386443Y-74594214D01*
X120217960Y-74648956D01*
X120217957Y-74648957D01*
X120060109Y-74729386D01*
X119978338Y-74788796D01*
X119916786Y-74833517D01*
X119916784Y-74833519D01*
X119916783Y-74833519D01*
X119791519Y-74958783D01*
X119791519Y-74958784D01*
X119791517Y-74958786D01*
X119746796Y-75020338D01*
X119687386Y-75102109D01*
X119606957Y-75259957D01*
X119606956Y-75259960D01*
X119552214Y-75428443D01*
X119524500Y-75603421D01*
X108176000Y-75603421D01*
X108176000Y-75131172D01*
X108175999Y-75131155D01*
X108169598Y-75071627D01*
X108169596Y-75071620D01*
X108119354Y-74936913D01*
X108119350Y-74936906D01*
X108033190Y-74821812D01*
X108033187Y-74821809D01*
X107918093Y-74735649D01*
X107918086Y-74735645D01*
X107783379Y-74685403D01*
X107783372Y-74685401D01*
X107723844Y-74679000D01*
X107673943Y-74679000D01*
X107606904Y-74659315D01*
X107561149Y-74606511D01*
X107551205Y-74537353D01*
X107580230Y-74473797D01*
X107586262Y-74467319D01*
X107744911Y-74308670D01*
X107744914Y-74308665D01*
X107744919Y-74308661D01*
X107884611Y-74126612D01*
X107999344Y-73927888D01*
X108087158Y-73715887D01*
X108146548Y-73494238D01*
X108176500Y-73266734D01*
X108176500Y-73037266D01*
X108176499Y-73037258D01*
X123979500Y-73037258D01*
X123979500Y-73266741D01*
X124004446Y-73456215D01*
X124009452Y-73494238D01*
X124009453Y-73494240D01*
X124068842Y-73715887D01*
X124156650Y-73927876D01*
X124156657Y-73927890D01*
X124271392Y-74126617D01*
X124411081Y-74308661D01*
X124411089Y-74308670D01*
X124569738Y-74467319D01*
X124603223Y-74528642D01*
X124598239Y-74598334D01*
X124556367Y-74654267D01*
X124490903Y-74678684D01*
X124482057Y-74679000D01*
X124432155Y-74679000D01*
X124372627Y-74685401D01*
X124372620Y-74685403D01*
X124237913Y-74735645D01*
X124237906Y-74735649D01*
X124122812Y-74821809D01*
X124122809Y-74821812D01*
X124036649Y-74936906D01*
X124036645Y-74936913D01*
X123986403Y-75071620D01*
X123986401Y-75071627D01*
X123980000Y-75131155D01*
X123980000Y-76204000D01*
X127480000Y-76204000D01*
X127480000Y-75603421D01*
X138828500Y-75603421D01*
X138828500Y-75780578D01*
X138856214Y-75955556D01*
X138910956Y-76124039D01*
X138910957Y-76124042D01*
X138991386Y-76281890D01*
X139095517Y-76425214D01*
X139220786Y-76550483D01*
X139364110Y-76654614D01*
X139441529Y-76694061D01*
X139521957Y-76735042D01*
X139521960Y-76735043D01*
X139606201Y-76762414D01*
X139690445Y-76789786D01*
X139865421Y-76817500D01*
X139865422Y-76817500D01*
X140042578Y-76817500D01*
X140042579Y-76817500D01*
X140217555Y-76789786D01*
X140386042Y-76735042D01*
X140543890Y-76654614D01*
X140687214Y-76550483D01*
X140812483Y-76425214D01*
X140916614Y-76281890D01*
X140997042Y-76124042D01*
X141051786Y-75955555D01*
X141079500Y-75780579D01*
X141079500Y-75603421D01*
X141051786Y-75428445D01*
X140997042Y-75259958D01*
X140997042Y-75259957D01*
X140916613Y-75102109D01*
X140812483Y-74958786D01*
X140687214Y-74833517D01*
X140543890Y-74729386D01*
X140535957Y-74725344D01*
X140386042Y-74648957D01*
X140386039Y-74648956D01*
X140217556Y-74594214D01*
X140130067Y-74580357D01*
X140042579Y-74566500D01*
X139865421Y-74566500D01*
X139807095Y-74575738D01*
X139690443Y-74594214D01*
X139521960Y-74648956D01*
X139521957Y-74648957D01*
X139364109Y-74729386D01*
X139282338Y-74788796D01*
X139220786Y-74833517D01*
X139220784Y-74833519D01*
X139220783Y-74833519D01*
X139095519Y-74958783D01*
X139095519Y-74958784D01*
X139095517Y-74958786D01*
X139050796Y-75020338D01*
X138991386Y-75102109D01*
X138910957Y-75259957D01*
X138910956Y-75259960D01*
X138856214Y-75428443D01*
X138828500Y-75603421D01*
X127480000Y-75603421D01*
X127480000Y-75131172D01*
X127479999Y-75131155D01*
X127473598Y-75071627D01*
X127473596Y-75071620D01*
X127423354Y-74936913D01*
X127423350Y-74936906D01*
X127337190Y-74821812D01*
X127337187Y-74821809D01*
X127222093Y-74735649D01*
X127222086Y-74735645D01*
X127087379Y-74685403D01*
X127087372Y-74685401D01*
X127027844Y-74679000D01*
X126977943Y-74679000D01*
X126910904Y-74659315D01*
X126865149Y-74606511D01*
X126855205Y-74537353D01*
X126884230Y-74473797D01*
X126890262Y-74467319D01*
X127048911Y-74308670D01*
X127048914Y-74308665D01*
X127048919Y-74308661D01*
X127188611Y-74126612D01*
X127303344Y-73927888D01*
X127391158Y-73715887D01*
X127450548Y-73494238D01*
X127480500Y-73266734D01*
X127480500Y-73037266D01*
X127480499Y-73037258D01*
X143283500Y-73037258D01*
X143283500Y-73266741D01*
X143308446Y-73456215D01*
X143313452Y-73494238D01*
X143313453Y-73494240D01*
X143372842Y-73715887D01*
X143460650Y-73927876D01*
X143460657Y-73927890D01*
X143575392Y-74126617D01*
X143715081Y-74308661D01*
X143715089Y-74308670D01*
X143873738Y-74467319D01*
X143907223Y-74528642D01*
X143902239Y-74598334D01*
X143860367Y-74654267D01*
X143794903Y-74678684D01*
X143786057Y-74679000D01*
X143736155Y-74679000D01*
X143676627Y-74685401D01*
X143676620Y-74685403D01*
X143541913Y-74735645D01*
X143541906Y-74735649D01*
X143426812Y-74821809D01*
X143426809Y-74821812D01*
X143340649Y-74936906D01*
X143340645Y-74936913D01*
X143290403Y-75071620D01*
X143290401Y-75071627D01*
X143284000Y-75131155D01*
X143284000Y-76204000D01*
X146784000Y-76204000D01*
X146784000Y-75131172D01*
X146783999Y-75131155D01*
X146777598Y-75071627D01*
X146777596Y-75071620D01*
X146727354Y-74936913D01*
X146727350Y-74936906D01*
X146641190Y-74821812D01*
X146641187Y-74821809D01*
X146526093Y-74735649D01*
X146526086Y-74735645D01*
X146391379Y-74685403D01*
X146391372Y-74685401D01*
X146331844Y-74679000D01*
X146281943Y-74679000D01*
X146214904Y-74659315D01*
X146169149Y-74606511D01*
X146159205Y-74537353D01*
X146188230Y-74473797D01*
X146194262Y-74467319D01*
X146352911Y-74308670D01*
X146352914Y-74308665D01*
X146352919Y-74308661D01*
X146492611Y-74126612D01*
X146607344Y-73927888D01*
X146695158Y-73715887D01*
X146754548Y-73494238D01*
X146784500Y-73266734D01*
X146784500Y-73037266D01*
X146754548Y-72809762D01*
X146695158Y-72588113D01*
X146607344Y-72376112D01*
X146492611Y-72177388D01*
X146492608Y-72177385D01*
X146492607Y-72177382D01*
X146352918Y-71995338D01*
X146352911Y-71995330D01*
X146190670Y-71833089D01*
X146190661Y-71833081D01*
X146008617Y-71693392D01*
X145809890Y-71578657D01*
X145809876Y-71578650D01*
X145597887Y-71490842D01*
X145376238Y-71431452D01*
X145338215Y-71426446D01*
X145148741Y-71401500D01*
X145148734Y-71401500D01*
X144919266Y-71401500D01*
X144919258Y-71401500D01*
X144702715Y-71430009D01*
X144691762Y-71431452D01*
X144598076Y-71456554D01*
X144470112Y-71490842D01*
X144258123Y-71578650D01*
X144258109Y-71578657D01*
X144059382Y-71693392D01*
X143877338Y-71833081D01*
X143715081Y-71995338D01*
X143575392Y-72177382D01*
X143460657Y-72376109D01*
X143460650Y-72376123D01*
X143372842Y-72588112D01*
X143313453Y-72809759D01*
X143313451Y-72809770D01*
X143283500Y-73037258D01*
X127480499Y-73037258D01*
X127450548Y-72809762D01*
X127391158Y-72588113D01*
X127303344Y-72376112D01*
X127188611Y-72177388D01*
X127188608Y-72177385D01*
X127188607Y-72177382D01*
X127048918Y-71995338D01*
X127048911Y-71995330D01*
X126886670Y-71833089D01*
X126886661Y-71833081D01*
X126704617Y-71693392D01*
X126505890Y-71578657D01*
X126505876Y-71578650D01*
X126293887Y-71490842D01*
X126072238Y-71431452D01*
X126034215Y-71426446D01*
X125844741Y-71401500D01*
X125844734Y-71401500D01*
X125615266Y-71401500D01*
X125615258Y-71401500D01*
X125398715Y-71430009D01*
X125387762Y-71431452D01*
X125294076Y-71456554D01*
X125166112Y-71490842D01*
X124954123Y-71578650D01*
X124954109Y-71578657D01*
X124755382Y-71693392D01*
X124573338Y-71833081D01*
X124411081Y-71995338D01*
X124271392Y-72177382D01*
X124156657Y-72376109D01*
X124156650Y-72376123D01*
X124068842Y-72588112D01*
X124009453Y-72809759D01*
X124009451Y-72809770D01*
X123979500Y-73037258D01*
X108176499Y-73037258D01*
X108146548Y-72809762D01*
X108087158Y-72588113D01*
X107999344Y-72376112D01*
X107884611Y-72177388D01*
X107884608Y-72177385D01*
X107884607Y-72177382D01*
X107744918Y-71995338D01*
X107744911Y-71995330D01*
X107582670Y-71833089D01*
X107582661Y-71833081D01*
X107400617Y-71693392D01*
X107201890Y-71578657D01*
X107201876Y-71578650D01*
X106989887Y-71490842D01*
X106768238Y-71431452D01*
X106730215Y-71426446D01*
X106540741Y-71401500D01*
X106540734Y-71401500D01*
X106311266Y-71401500D01*
X106311258Y-71401500D01*
X106094715Y-71430009D01*
X106083762Y-71431452D01*
X105990076Y-71456554D01*
X105862112Y-71490842D01*
X105650123Y-71578650D01*
X105650109Y-71578657D01*
X105451382Y-71693392D01*
X105269338Y-71833081D01*
X105107081Y-71995338D01*
X104967392Y-72177382D01*
X104852657Y-72376109D01*
X104852650Y-72376123D01*
X104764842Y-72588112D01*
X104705453Y-72809759D01*
X104705451Y-72809770D01*
X104675500Y-73037258D01*
X88829433Y-73037258D01*
X88799482Y-72809762D01*
X88740092Y-72588113D01*
X88652278Y-72376112D01*
X88537545Y-72177388D01*
X88537542Y-72177385D01*
X88537541Y-72177382D01*
X88397852Y-71995338D01*
X88397845Y-71995330D01*
X88235604Y-71833089D01*
X88235595Y-71833081D01*
X88053551Y-71693392D01*
X87854824Y-71578657D01*
X87854810Y-71578650D01*
X87642821Y-71490842D01*
X87421172Y-71431452D01*
X87383149Y-71426446D01*
X87193675Y-71401500D01*
X87193668Y-71401500D01*
X86964200Y-71401500D01*
X86964192Y-71401500D01*
X86747649Y-71430009D01*
X86736696Y-71431452D01*
X86643010Y-71456554D01*
X86515046Y-71490842D01*
X86303057Y-71578650D01*
X86303043Y-71578657D01*
X86104316Y-71693392D01*
X85922272Y-71833081D01*
X85760015Y-71995338D01*
X85620326Y-72177382D01*
X85505591Y-72376109D01*
X85505584Y-72376123D01*
X85417776Y-72588112D01*
X85358387Y-72809759D01*
X85358385Y-72809770D01*
X85328434Y-73037258D01*
X58483500Y-73037258D01*
X58483500Y-68574978D01*
X59884190Y-68574978D01*
X59884190Y-69560382D01*
X59893189Y-69617197D01*
X59921125Y-69793578D01*
X59994086Y-70018130D01*
X60101276Y-70228499D01*
X60240046Y-70419501D01*
X60240050Y-70419506D01*
X60407003Y-70586459D01*
X60407008Y-70586463D01*
X60573611Y-70707506D01*
X60598014Y-70725236D01*
X60732060Y-70793536D01*
X60808379Y-70832423D01*
X60808381Y-70832423D01*
X60808384Y-70832425D01*
X61032932Y-70905385D01*
X61266128Y-70942320D01*
X61266129Y-70942320D01*
X61502231Y-70942320D01*
X61502232Y-70942320D01*
X61735428Y-70905385D01*
X61959976Y-70832425D01*
X62170346Y-70725236D01*
X62361358Y-70586458D01*
X62528308Y-70419508D01*
X62554170Y-70383910D01*
X62609496Y-70341245D01*
X62679110Y-70335264D01*
X62740906Y-70367868D01*
X62754806Y-70383909D01*
X62780434Y-70419183D01*
X62947325Y-70586074D01*
X63138275Y-70724808D01*
X63348571Y-70831960D01*
X63573044Y-70904896D01*
X63573050Y-70904898D01*
X63674180Y-70920915D01*
X63674180Y-67214443D01*
X64174180Y-67214443D01*
X64174180Y-70920914D01*
X64275309Y-70904898D01*
X64275315Y-70904896D01*
X64499788Y-70831960D01*
X64710084Y-70724808D01*
X64901033Y-70586074D01*
X64901034Y-70586074D01*
X65067930Y-70419178D01*
X65093552Y-70383912D01*
X65148881Y-70341246D01*
X65218494Y-70335265D01*
X65280290Y-70367870D01*
X65294190Y-70383912D01*
X65320048Y-70419504D01*
X65487003Y-70586459D01*
X65487008Y-70586463D01*
X65653611Y-70707506D01*
X65678014Y-70725236D01*
X65812060Y-70793536D01*
X65888379Y-70832423D01*
X65888381Y-70832423D01*
X65888384Y-70832425D01*
X66112932Y-70905385D01*
X66346128Y-70942320D01*
X66346129Y-70942320D01*
X66582231Y-70942320D01*
X66582232Y-70942320D01*
X66815428Y-70905385D01*
X67039976Y-70832425D01*
X67250346Y-70725236D01*
X67441358Y-70586458D01*
X67608308Y-70419508D01*
X67633861Y-70384336D01*
X67689190Y-70341671D01*
X67758803Y-70335690D01*
X67820599Y-70368295D01*
X67834499Y-70384337D01*
X67860048Y-70419504D01*
X68027003Y-70586459D01*
X68027008Y-70586463D01*
X68193611Y-70707506D01*
X68218014Y-70725236D01*
X68352060Y-70793536D01*
X68428379Y-70832423D01*
X68428381Y-70832423D01*
X68428384Y-70832425D01*
X68652932Y-70905385D01*
X68886128Y-70942320D01*
X68886129Y-70942320D01*
X69122231Y-70942320D01*
X69122232Y-70942320D01*
X69355428Y-70905385D01*
X69579976Y-70832425D01*
X69790346Y-70725236D01*
X69981358Y-70586458D01*
X70148308Y-70419508D01*
X70173861Y-70384336D01*
X70229190Y-70341671D01*
X70298803Y-70335690D01*
X70360599Y-70368295D01*
X70374499Y-70384337D01*
X70400048Y-70419504D01*
X70567003Y-70586459D01*
X70567008Y-70586463D01*
X70733611Y-70707506D01*
X70758014Y-70725236D01*
X70892060Y-70793536D01*
X70968379Y-70832423D01*
X70968381Y-70832423D01*
X70968384Y-70832425D01*
X71192932Y-70905385D01*
X71426128Y-70942320D01*
X71426129Y-70942320D01*
X71662231Y-70942320D01*
X71662232Y-70942320D01*
X71895428Y-70905385D01*
X72119976Y-70832425D01*
X72330346Y-70725236D01*
X72521358Y-70586458D01*
X72688308Y-70419508D01*
X72713861Y-70384336D01*
X72769190Y-70341671D01*
X72838803Y-70335690D01*
X72900599Y-70368295D01*
X72914499Y-70384337D01*
X72940048Y-70419504D01*
X73107003Y-70586459D01*
X73107008Y-70586463D01*
X73273611Y-70707506D01*
X73298014Y-70725236D01*
X73432060Y-70793536D01*
X73508379Y-70832423D01*
X73508381Y-70832423D01*
X73508384Y-70832425D01*
X73732932Y-70905385D01*
X73966128Y-70942320D01*
X73966129Y-70942320D01*
X74202231Y-70942320D01*
X74202232Y-70942320D01*
X74435428Y-70905385D01*
X74659976Y-70832425D01*
X74870346Y-70725236D01*
X75061358Y-70586458D01*
X75228308Y-70419508D01*
X75253861Y-70384336D01*
X75309190Y-70341671D01*
X75378803Y-70335690D01*
X75440599Y-70368295D01*
X75454499Y-70384337D01*
X75480048Y-70419504D01*
X75647003Y-70586459D01*
X75647008Y-70586463D01*
X75813611Y-70707506D01*
X75838014Y-70725236D01*
X75972060Y-70793536D01*
X76048379Y-70832423D01*
X76048381Y-70832423D01*
X76048384Y-70832425D01*
X76272932Y-70905385D01*
X76506128Y-70942320D01*
X76506129Y-70942320D01*
X76742231Y-70942320D01*
X76742232Y-70942320D01*
X76975428Y-70905385D01*
X77199976Y-70832425D01*
X77410346Y-70725236D01*
X77601358Y-70586458D01*
X77722916Y-70464900D01*
X79754534Y-70464900D01*
X79754534Y-70759099D01*
X79754535Y-70759116D01*
X79792935Y-71050796D01*
X79869086Y-71334994D01*
X79981668Y-71606794D01*
X79981676Y-71606810D01*
X80128774Y-71861589D01*
X80128785Y-71861605D01*
X80307882Y-72095009D01*
X80307888Y-72095016D01*
X80515917Y-72303045D01*
X80515924Y-72303051D01*
X80682139Y-72430592D01*
X80749337Y-72482155D01*
X80749344Y-72482159D01*
X81004123Y-72629257D01*
X81004139Y-72629265D01*
X81275939Y-72741847D01*
X81275941Y-72741847D01*
X81275947Y-72741850D01*
X81560134Y-72817998D01*
X81851828Y-72856400D01*
X81851835Y-72856400D01*
X82146033Y-72856400D01*
X82146040Y-72856400D01*
X82437734Y-72817998D01*
X82721921Y-72741850D01*
X82795252Y-72711475D01*
X82993728Y-72629265D01*
X82993731Y-72629263D01*
X82993737Y-72629261D01*
X83248531Y-72482155D01*
X83481945Y-72303050D01*
X83689984Y-72095011D01*
X83869089Y-71861597D01*
X84016195Y-71606803D01*
X84027854Y-71578657D01*
X84128781Y-71334994D01*
X84128780Y-71334994D01*
X84128784Y-71334987D01*
X84204932Y-71050800D01*
X84243334Y-70759106D01*
X84243334Y-70464900D01*
X99101600Y-70464900D01*
X99101600Y-70759099D01*
X99101601Y-70759116D01*
X99140001Y-71050796D01*
X99216152Y-71334994D01*
X99328734Y-71606794D01*
X99328742Y-71606810D01*
X99475840Y-71861589D01*
X99475851Y-71861605D01*
X99654948Y-72095009D01*
X99654954Y-72095016D01*
X99862983Y-72303045D01*
X99862990Y-72303051D01*
X100029205Y-72430592D01*
X100096403Y-72482155D01*
X100096410Y-72482159D01*
X100351189Y-72629257D01*
X100351205Y-72629265D01*
X100623005Y-72741847D01*
X100623007Y-72741847D01*
X100623013Y-72741850D01*
X100907200Y-72817998D01*
X101198894Y-72856400D01*
X101198901Y-72856400D01*
X101493099Y-72856400D01*
X101493106Y-72856400D01*
X101784800Y-72817998D01*
X102068987Y-72741850D01*
X102142318Y-72711475D01*
X102340794Y-72629265D01*
X102340797Y-72629263D01*
X102340803Y-72629261D01*
X102595597Y-72482155D01*
X102829011Y-72303050D01*
X103037050Y-72095011D01*
X103216155Y-71861597D01*
X103363261Y-71606803D01*
X103374920Y-71578657D01*
X103475847Y-71334994D01*
X103475846Y-71334994D01*
X103475850Y-71334987D01*
X103551998Y-71050800D01*
X103590400Y-70759106D01*
X103590400Y-70464900D01*
X118405600Y-70464900D01*
X118405600Y-70759099D01*
X118405601Y-70759116D01*
X118444001Y-71050796D01*
X118520152Y-71334994D01*
X118632734Y-71606794D01*
X118632742Y-71606810D01*
X118779840Y-71861589D01*
X118779851Y-71861605D01*
X118958948Y-72095009D01*
X118958954Y-72095016D01*
X119166983Y-72303045D01*
X119166990Y-72303051D01*
X119333205Y-72430592D01*
X119400403Y-72482155D01*
X119400410Y-72482159D01*
X119655189Y-72629257D01*
X119655205Y-72629265D01*
X119927005Y-72741847D01*
X119927007Y-72741847D01*
X119927013Y-72741850D01*
X120211200Y-72817998D01*
X120502894Y-72856400D01*
X120502901Y-72856400D01*
X120797099Y-72856400D01*
X120797106Y-72856400D01*
X121088800Y-72817998D01*
X121372987Y-72741850D01*
X121446318Y-72711475D01*
X121644794Y-72629265D01*
X121644797Y-72629263D01*
X121644803Y-72629261D01*
X121899597Y-72482155D01*
X122133011Y-72303050D01*
X122341050Y-72095011D01*
X122520155Y-71861597D01*
X122667261Y-71606803D01*
X122678920Y-71578657D01*
X122779847Y-71334994D01*
X122779846Y-71334994D01*
X122779850Y-71334987D01*
X122855998Y-71050800D01*
X122894400Y-70759106D01*
X122894400Y-70464900D01*
X137709600Y-70464900D01*
X137709600Y-70759099D01*
X137709601Y-70759116D01*
X137748001Y-71050796D01*
X137824152Y-71334994D01*
X137936734Y-71606794D01*
X137936742Y-71606810D01*
X138083840Y-71861589D01*
X138083851Y-71861605D01*
X138262948Y-72095009D01*
X138262954Y-72095016D01*
X138470983Y-72303045D01*
X138470990Y-72303051D01*
X138637205Y-72430592D01*
X138704403Y-72482155D01*
X138704410Y-72482159D01*
X138959189Y-72629257D01*
X138959205Y-72629265D01*
X139231005Y-72741847D01*
X139231007Y-72741847D01*
X139231013Y-72741850D01*
X139515200Y-72817998D01*
X139806894Y-72856400D01*
X139806901Y-72856400D01*
X140101099Y-72856400D01*
X140101106Y-72856400D01*
X140392800Y-72817998D01*
X140676987Y-72741850D01*
X140750318Y-72711475D01*
X140948794Y-72629265D01*
X140948797Y-72629263D01*
X140948803Y-72629261D01*
X141203597Y-72482155D01*
X141437011Y-72303050D01*
X141645050Y-72095011D01*
X141824155Y-71861597D01*
X141971261Y-71606803D01*
X141982920Y-71578657D01*
X142083847Y-71334994D01*
X142083846Y-71334994D01*
X142083850Y-71334987D01*
X142159998Y-71050800D01*
X142198400Y-70759106D01*
X142198400Y-70464894D01*
X142159998Y-70173200D01*
X142083850Y-69889013D01*
X142044320Y-69793578D01*
X141971265Y-69617205D01*
X141971257Y-69617189D01*
X141824159Y-69362410D01*
X141824155Y-69362403D01*
X141645050Y-69128989D01*
X141645045Y-69128983D01*
X141437016Y-68920954D01*
X141437009Y-68920948D01*
X141203605Y-68741851D01*
X141203603Y-68741849D01*
X141203597Y-68741845D01*
X141203592Y-68741842D01*
X141203589Y-68741840D01*
X140948810Y-68594742D01*
X140948794Y-68594734D01*
X140676994Y-68482152D01*
X140392796Y-68406001D01*
X140101116Y-68367601D01*
X140101111Y-68367600D01*
X140101106Y-68367600D01*
X139806894Y-68367600D01*
X139806888Y-68367600D01*
X139806883Y-68367601D01*
X139515203Y-68406001D01*
X139231005Y-68482152D01*
X138959205Y-68594734D01*
X138959189Y-68594742D01*
X138704410Y-68741840D01*
X138704394Y-68741851D01*
X138470990Y-68920948D01*
X138470983Y-68920954D01*
X138262954Y-69128983D01*
X138262948Y-69128990D01*
X138083851Y-69362394D01*
X138083840Y-69362410D01*
X137936742Y-69617189D01*
X137936734Y-69617205D01*
X137824152Y-69889005D01*
X137748001Y-70173203D01*
X137709601Y-70464883D01*
X137709600Y-70464900D01*
X122894400Y-70464900D01*
X122894400Y-70464894D01*
X122855998Y-70173200D01*
X122779850Y-69889013D01*
X122740320Y-69793578D01*
X122667265Y-69617205D01*
X122667257Y-69617189D01*
X122520159Y-69362410D01*
X122520155Y-69362403D01*
X122341050Y-69128989D01*
X122341045Y-69128983D01*
X122133016Y-68920954D01*
X122133009Y-68920948D01*
X121899605Y-68741851D01*
X121899603Y-68741849D01*
X121899597Y-68741845D01*
X121899592Y-68741842D01*
X121899589Y-68741840D01*
X121644810Y-68594742D01*
X121644794Y-68594734D01*
X121372994Y-68482152D01*
X121088796Y-68406001D01*
X120797116Y-68367601D01*
X120797111Y-68367600D01*
X120797106Y-68367600D01*
X120502894Y-68367600D01*
X120502888Y-68367600D01*
X120502883Y-68367601D01*
X120211203Y-68406001D01*
X119927005Y-68482152D01*
X119655205Y-68594734D01*
X119655189Y-68594742D01*
X119400410Y-68741840D01*
X119400394Y-68741851D01*
X119166990Y-68920948D01*
X119166983Y-68920954D01*
X118958954Y-69128983D01*
X118958948Y-69128990D01*
X118779851Y-69362394D01*
X118779840Y-69362410D01*
X118632742Y-69617189D01*
X118632734Y-69617205D01*
X118520152Y-69889005D01*
X118444001Y-70173203D01*
X118405601Y-70464883D01*
X118405600Y-70464900D01*
X103590400Y-70464900D01*
X103590400Y-70464894D01*
X103551998Y-70173200D01*
X103475850Y-69889013D01*
X103436320Y-69793578D01*
X103363265Y-69617205D01*
X103363257Y-69617189D01*
X103216159Y-69362410D01*
X103216155Y-69362403D01*
X103037050Y-69128989D01*
X103037045Y-69128983D01*
X102829016Y-68920954D01*
X102829009Y-68920948D01*
X102595605Y-68741851D01*
X102595603Y-68741849D01*
X102595597Y-68741845D01*
X102595592Y-68741842D01*
X102595589Y-68741840D01*
X102340810Y-68594742D01*
X102340794Y-68594734D01*
X102068994Y-68482152D01*
X101784796Y-68406001D01*
X101493116Y-68367601D01*
X101493111Y-68367600D01*
X101493106Y-68367600D01*
X101198894Y-68367600D01*
X101198888Y-68367600D01*
X101198883Y-68367601D01*
X100907203Y-68406001D01*
X100623005Y-68482152D01*
X100351205Y-68594734D01*
X100351189Y-68594742D01*
X100096410Y-68741840D01*
X100096394Y-68741851D01*
X99862990Y-68920948D01*
X99862983Y-68920954D01*
X99654954Y-69128983D01*
X99654948Y-69128990D01*
X99475851Y-69362394D01*
X99475840Y-69362410D01*
X99328742Y-69617189D01*
X99328734Y-69617205D01*
X99216152Y-69889005D01*
X99140001Y-70173203D01*
X99101601Y-70464883D01*
X99101600Y-70464900D01*
X84243334Y-70464900D01*
X84243334Y-70464894D01*
X84204932Y-70173200D01*
X84128784Y-69889013D01*
X84089254Y-69793578D01*
X84016199Y-69617205D01*
X84016191Y-69617189D01*
X83869093Y-69362410D01*
X83869089Y-69362403D01*
X83689984Y-69128989D01*
X83689979Y-69128983D01*
X83481950Y-68920954D01*
X83481943Y-68920948D01*
X83248539Y-68741851D01*
X83248537Y-68741849D01*
X83248531Y-68741845D01*
X83248526Y-68741842D01*
X83248523Y-68741840D01*
X82993744Y-68594742D01*
X82993728Y-68594734D01*
X82721928Y-68482152D01*
X82437730Y-68406001D01*
X82146050Y-68367601D01*
X82146045Y-68367600D01*
X82146040Y-68367600D01*
X81851828Y-68367600D01*
X81851822Y-68367600D01*
X81851817Y-68367601D01*
X81560137Y-68406001D01*
X81275939Y-68482152D01*
X81004139Y-68594734D01*
X81004123Y-68594742D01*
X80749344Y-68741840D01*
X80749328Y-68741851D01*
X80515924Y-68920948D01*
X80515917Y-68920954D01*
X80307888Y-69128983D01*
X80307882Y-69128990D01*
X80128785Y-69362394D01*
X80128774Y-69362410D01*
X79981676Y-69617189D01*
X79981668Y-69617205D01*
X79869086Y-69889005D01*
X79792935Y-70173203D01*
X79754535Y-70464883D01*
X79754534Y-70464900D01*
X77722916Y-70464900D01*
X77768308Y-70419508D01*
X77907086Y-70228496D01*
X78014275Y-70018126D01*
X78087235Y-69793578D01*
X78124170Y-69560382D01*
X78124170Y-68574978D01*
X78087235Y-68341782D01*
X78014275Y-68117234D01*
X78014273Y-68117231D01*
X78014273Y-68117229D01*
X77975386Y-68040910D01*
X77907086Y-67906864D01*
X77889356Y-67882461D01*
X77768313Y-67715858D01*
X77768309Y-67715853D01*
X77601356Y-67548900D01*
X77601351Y-67548896D01*
X77408663Y-67408900D01*
X77365997Y-67353570D01*
X77360018Y-67283957D01*
X77376555Y-67242609D01*
X77433788Y-67151524D01*
X77436337Y-67144240D01*
X77493368Y-66981255D01*
X77500638Y-66916734D01*
X77513565Y-66802003D01*
X77513565Y-66801996D01*
X77493369Y-66622750D01*
X77493368Y-66622745D01*
X77476676Y-66575042D01*
X77433789Y-66452478D01*
X77337816Y-66299738D01*
X77210262Y-66172184D01*
X77130220Y-66121890D01*
X77057523Y-66076211D01*
X76887254Y-66016631D01*
X76887249Y-66016630D01*
X76708004Y-65996435D01*
X76707996Y-65996435D01*
X76528750Y-66016630D01*
X76528745Y-66016631D01*
X76358476Y-66076211D01*
X76205737Y-66172184D01*
X76078184Y-66299737D01*
X75982211Y-66452476D01*
X75922631Y-66622745D01*
X75922630Y-66622750D01*
X75902435Y-66801996D01*
X75902435Y-66802003D01*
X75922630Y-66981249D01*
X75922631Y-66981254D01*
X75982211Y-67151522D01*
X75998149Y-67176888D01*
X76017148Y-67244125D01*
X75996779Y-67310960D01*
X75949450Y-67353343D01*
X75838012Y-67410124D01*
X75647008Y-67548896D01*
X75647003Y-67548900D01*
X75480054Y-67715849D01*
X75480049Y-67715855D01*
X75454498Y-67751024D01*
X75399168Y-67793690D01*
X75329555Y-67799669D01*
X75267760Y-67767063D01*
X75253862Y-67751024D01*
X75228545Y-67716178D01*
X75228308Y-67715852D01*
X75061358Y-67548902D01*
X75061356Y-67548900D01*
X75061351Y-67548896D01*
X74868663Y-67408900D01*
X74825997Y-67353570D01*
X74820018Y-67283957D01*
X74836555Y-67242609D01*
X74893788Y-67151524D01*
X74896337Y-67144240D01*
X74953368Y-66981255D01*
X74960638Y-66916734D01*
X74973565Y-66802003D01*
X74973565Y-66801996D01*
X74953369Y-66622750D01*
X74953368Y-66622745D01*
X74936676Y-66575042D01*
X74893789Y-66452478D01*
X74797816Y-66299738D01*
X74670262Y-66172184D01*
X74590220Y-66121890D01*
X74517523Y-66076211D01*
X74347254Y-66016631D01*
X74347249Y-66016630D01*
X74168004Y-65996435D01*
X74167996Y-65996435D01*
X73988750Y-66016630D01*
X73988745Y-66016631D01*
X73818476Y-66076211D01*
X73665737Y-66172184D01*
X73538184Y-66299737D01*
X73442211Y-66452476D01*
X73382631Y-66622745D01*
X73382630Y-66622750D01*
X73362435Y-66801996D01*
X73362435Y-66802003D01*
X73382630Y-66981249D01*
X73382631Y-66981254D01*
X73442211Y-67151524D01*
X73458148Y-67176886D01*
X73477149Y-67244123D01*
X73456782Y-67310958D01*
X73409450Y-67353344D01*
X73298010Y-67410126D01*
X73107008Y-67548896D01*
X73107003Y-67548900D01*
X72940054Y-67715849D01*
X72940049Y-67715855D01*
X72914498Y-67751024D01*
X72859168Y-67793690D01*
X72789555Y-67799669D01*
X72727760Y-67767063D01*
X72713862Y-67751024D01*
X72688545Y-67716178D01*
X72688308Y-67715852D01*
X72521358Y-67548902D01*
X72521356Y-67548900D01*
X72521351Y-67548896D01*
X72328663Y-67408900D01*
X72285997Y-67353570D01*
X72280018Y-67283957D01*
X72296555Y-67242609D01*
X72353788Y-67151524D01*
X72356337Y-67144240D01*
X72413368Y-66981255D01*
X72420638Y-66916734D01*
X72433565Y-66802003D01*
X72433565Y-66801996D01*
X72413369Y-66622750D01*
X72413368Y-66622745D01*
X72396676Y-66575042D01*
X72353789Y-66452478D01*
X72257816Y-66299738D01*
X72130262Y-66172184D01*
X72050220Y-66121890D01*
X71977523Y-66076211D01*
X71807254Y-66016631D01*
X71807249Y-66016630D01*
X71628004Y-65996435D01*
X71627996Y-65996435D01*
X71448750Y-66016630D01*
X71448745Y-66016631D01*
X71278476Y-66076211D01*
X71125737Y-66172184D01*
X70998184Y-66299737D01*
X70902211Y-66452476D01*
X70842631Y-66622745D01*
X70842630Y-66622750D01*
X70822435Y-66801996D01*
X70822435Y-66802003D01*
X70842630Y-66981249D01*
X70842631Y-66981254D01*
X70902211Y-67151524D01*
X70918148Y-67176886D01*
X70937149Y-67244123D01*
X70916782Y-67310958D01*
X70869450Y-67353344D01*
X70758010Y-67410126D01*
X70567008Y-67548896D01*
X70567003Y-67548900D01*
X70400054Y-67715849D01*
X70400049Y-67715855D01*
X70374498Y-67751024D01*
X70319168Y-67793690D01*
X70249555Y-67799669D01*
X70187760Y-67767063D01*
X70173862Y-67751024D01*
X70148545Y-67716178D01*
X70148308Y-67715852D01*
X69981358Y-67548902D01*
X69981356Y-67548900D01*
X69981351Y-67548896D01*
X69788663Y-67408900D01*
X69745997Y-67353570D01*
X69740018Y-67283957D01*
X69756555Y-67242609D01*
X69813788Y-67151524D01*
X69816337Y-67144240D01*
X69873368Y-66981255D01*
X69880638Y-66916734D01*
X69893565Y-66802003D01*
X69893565Y-66801996D01*
X69873369Y-66622750D01*
X69873368Y-66622745D01*
X69856676Y-66575042D01*
X69813789Y-66452478D01*
X69717816Y-66299738D01*
X69590262Y-66172184D01*
X69510220Y-66121890D01*
X69437523Y-66076211D01*
X69267254Y-66016631D01*
X69267249Y-66016630D01*
X69088004Y-65996435D01*
X69087996Y-65996435D01*
X68908750Y-66016630D01*
X68908745Y-66016631D01*
X68738476Y-66076211D01*
X68585737Y-66172184D01*
X68458184Y-66299737D01*
X68362211Y-66452476D01*
X68302631Y-66622745D01*
X68302630Y-66622750D01*
X68282435Y-66801996D01*
X68282435Y-66802003D01*
X68302630Y-66981249D01*
X68302631Y-66981254D01*
X68362211Y-67151524D01*
X68378148Y-67176886D01*
X68397149Y-67244123D01*
X68376782Y-67310958D01*
X68329450Y-67353344D01*
X68218010Y-67410126D01*
X68027008Y-67548896D01*
X68027003Y-67548900D01*
X67860054Y-67715849D01*
X67860049Y-67715855D01*
X67834498Y-67751024D01*
X67779168Y-67793690D01*
X67709555Y-67799669D01*
X67647760Y-67767063D01*
X67633862Y-67751024D01*
X67608545Y-67716178D01*
X67608308Y-67715852D01*
X67441358Y-67548902D01*
X67441356Y-67548900D01*
X67441351Y-67548896D01*
X67250349Y-67410126D01*
X67250348Y-67410125D01*
X67250346Y-67410124D01*
X67163526Y-67365887D01*
X67039980Y-67302936D01*
X66815428Y-67229975D01*
X66582232Y-67193040D01*
X66346128Y-67193040D01*
X66229530Y-67211507D01*
X66112931Y-67229975D01*
X65888379Y-67302936D01*
X65678010Y-67410126D01*
X65487008Y-67548896D01*
X65487003Y-67548900D01*
X65320054Y-67715849D01*
X65320054Y-67715850D01*
X65320052Y-67715852D01*
X65294190Y-67751448D01*
X65294189Y-67751450D01*
X65238859Y-67794115D01*
X65169245Y-67800094D01*
X65107450Y-67767488D01*
X65093553Y-67751450D01*
X65067924Y-67716175D01*
X64901034Y-67549285D01*
X64710084Y-67410551D01*
X64499786Y-67303399D01*
X64275307Y-67230461D01*
X64174180Y-67214443D01*
X63674180Y-67214443D01*
X63573052Y-67230461D01*
X63348573Y-67303399D01*
X63138275Y-67410551D01*
X62947326Y-67549285D01*
X62947325Y-67549285D01*
X62780432Y-67716178D01*
X62754806Y-67751450D01*
X62699476Y-67794115D01*
X62629862Y-67800093D01*
X62568068Y-67767486D01*
X62554171Y-67751448D01*
X62528313Y-67715858D01*
X62528309Y-67715853D01*
X62361356Y-67548900D01*
X62361351Y-67548896D01*
X62170349Y-67410126D01*
X62170348Y-67410125D01*
X62170346Y-67410124D01*
X62083526Y-67365887D01*
X61959980Y-67302936D01*
X61735428Y-67229975D01*
X61502232Y-67193040D01*
X61266128Y-67193040D01*
X61149530Y-67211507D01*
X61032931Y-67229975D01*
X60808379Y-67302936D01*
X60598010Y-67410126D01*
X60407008Y-67548896D01*
X60407003Y-67548900D01*
X60240050Y-67715853D01*
X60240046Y-67715858D01*
X60101276Y-67906860D01*
X59994086Y-68117229D01*
X59921125Y-68341781D01*
X59910953Y-68406002D01*
X59884190Y-68574978D01*
X58483500Y-68574978D01*
X58483500Y-65443421D01*
X80873434Y-65443421D01*
X80873434Y-65620578D01*
X80901148Y-65795556D01*
X80955890Y-65964039D01*
X80955891Y-65964042D01*
X81013045Y-66076211D01*
X81036320Y-66121890D01*
X81140451Y-66265214D01*
X81265720Y-66390483D01*
X81409044Y-66494614D01*
X81486463Y-66534061D01*
X81566891Y-66575042D01*
X81566894Y-66575043D01*
X81651135Y-66602414D01*
X81735379Y-66629786D01*
X81910355Y-66657500D01*
X81910356Y-66657500D01*
X82087512Y-66657500D01*
X82087513Y-66657500D01*
X82262489Y-66629786D01*
X82430976Y-66575042D01*
X82588824Y-66494614D01*
X82604095Y-66483518D01*
X82669898Y-66460038D01*
X82737952Y-66475862D01*
X82786649Y-66525966D01*
X82800526Y-66594443D01*
X82799920Y-66600022D01*
X82788434Y-66687258D01*
X82788434Y-66916741D01*
X82813380Y-67106215D01*
X82818386Y-67144238D01*
X82855823Y-67283957D01*
X82877776Y-67365887D01*
X82965584Y-67577876D01*
X82965591Y-67577890D01*
X83080326Y-67776617D01*
X83220015Y-67958661D01*
X83220023Y-67958670D01*
X83382264Y-68120911D01*
X83382272Y-68120918D01*
X83564316Y-68260607D01*
X83564319Y-68260608D01*
X83564322Y-68260611D01*
X83763046Y-68375344D01*
X83763051Y-68375346D01*
X83763057Y-68375349D01*
X83854414Y-68413190D01*
X83975047Y-68463158D01*
X84196696Y-68522548D01*
X84424200Y-68552500D01*
X84424207Y-68552500D01*
X84653661Y-68552500D01*
X84653668Y-68552500D01*
X84881172Y-68522548D01*
X85102821Y-68463158D01*
X85314822Y-68375344D01*
X85513546Y-68260611D01*
X85695595Y-68120919D01*
X85695599Y-68120914D01*
X85695604Y-68120911D01*
X85857845Y-67958670D01*
X85857848Y-67958665D01*
X85857853Y-67958661D01*
X85997545Y-67776612D01*
X86112278Y-67577888D01*
X86200092Y-67365887D01*
X86259482Y-67144238D01*
X86289434Y-66916734D01*
X86289434Y-66687266D01*
X86259482Y-66459762D01*
X86200092Y-66238113D01*
X86112278Y-66026112D01*
X85997545Y-65827388D01*
X85997542Y-65827385D01*
X85997541Y-65827382D01*
X85857852Y-65645338D01*
X85857845Y-65645330D01*
X85726695Y-65514180D01*
X85693210Y-65452857D01*
X85693885Y-65443421D01*
X100220500Y-65443421D01*
X100220500Y-65620578D01*
X100248214Y-65795556D01*
X100302956Y-65964039D01*
X100302957Y-65964042D01*
X100360111Y-66076211D01*
X100383386Y-66121890D01*
X100487517Y-66265214D01*
X100612786Y-66390483D01*
X100756110Y-66494614D01*
X100833529Y-66534061D01*
X100913957Y-66575042D01*
X100913960Y-66575043D01*
X100998201Y-66602414D01*
X101082445Y-66629786D01*
X101257421Y-66657500D01*
X101257422Y-66657500D01*
X101434578Y-66657500D01*
X101434579Y-66657500D01*
X101609555Y-66629786D01*
X101778042Y-66575042D01*
X101935890Y-66494614D01*
X101951161Y-66483518D01*
X102016964Y-66460038D01*
X102085018Y-66475862D01*
X102133715Y-66525966D01*
X102147592Y-66594443D01*
X102146986Y-66600022D01*
X102135500Y-66687258D01*
X102135500Y-66916741D01*
X102160446Y-67106215D01*
X102165452Y-67144238D01*
X102202889Y-67283957D01*
X102224842Y-67365887D01*
X102312650Y-67577876D01*
X102312657Y-67577890D01*
X102427392Y-67776617D01*
X102567081Y-67958661D01*
X102567089Y-67958670D01*
X102729330Y-68120911D01*
X102729338Y-68120918D01*
X102911382Y-68260607D01*
X102911385Y-68260608D01*
X102911388Y-68260611D01*
X103110112Y-68375344D01*
X103110117Y-68375346D01*
X103110123Y-68375349D01*
X103201480Y-68413190D01*
X103322113Y-68463158D01*
X103543762Y-68522548D01*
X103771266Y-68552500D01*
X103771273Y-68552500D01*
X104000727Y-68552500D01*
X104000734Y-68552500D01*
X104228238Y-68522548D01*
X104449887Y-68463158D01*
X104661888Y-68375344D01*
X104860612Y-68260611D01*
X105042661Y-68120919D01*
X105042665Y-68120914D01*
X105042670Y-68120911D01*
X105204911Y-67958670D01*
X105204914Y-67958665D01*
X105204919Y-67958661D01*
X105344611Y-67776612D01*
X105459344Y-67577888D01*
X105547158Y-67365887D01*
X105606548Y-67144238D01*
X105636500Y-66916734D01*
X105636500Y-66687266D01*
X105606548Y-66459762D01*
X105547158Y-66238113D01*
X105459344Y-66026112D01*
X105344611Y-65827388D01*
X105344608Y-65827385D01*
X105344607Y-65827382D01*
X105204918Y-65645338D01*
X105204911Y-65645330D01*
X105073761Y-65514180D01*
X105040276Y-65452857D01*
X105040951Y-65443421D01*
X119524500Y-65443421D01*
X119524500Y-65620578D01*
X119552214Y-65795556D01*
X119606956Y-65964039D01*
X119606957Y-65964042D01*
X119664111Y-66076211D01*
X119687386Y-66121890D01*
X119791517Y-66265214D01*
X119916786Y-66390483D01*
X120060110Y-66494614D01*
X120137529Y-66534061D01*
X120217957Y-66575042D01*
X120217960Y-66575043D01*
X120302201Y-66602414D01*
X120386445Y-66629786D01*
X120561421Y-66657500D01*
X120561422Y-66657500D01*
X120738578Y-66657500D01*
X120738579Y-66657500D01*
X120913555Y-66629786D01*
X121082042Y-66575042D01*
X121239890Y-66494614D01*
X121255161Y-66483518D01*
X121320964Y-66460038D01*
X121389018Y-66475862D01*
X121437715Y-66525966D01*
X121451592Y-66594443D01*
X121450986Y-66600022D01*
X121439500Y-66687258D01*
X121439500Y-66916741D01*
X121464446Y-67106215D01*
X121469452Y-67144238D01*
X121506889Y-67283957D01*
X121528842Y-67365887D01*
X121616650Y-67577876D01*
X121616657Y-67577890D01*
X121731392Y-67776617D01*
X121871081Y-67958661D01*
X121871089Y-67958670D01*
X122033330Y-68120911D01*
X122033338Y-68120918D01*
X122215382Y-68260607D01*
X122215385Y-68260608D01*
X122215388Y-68260611D01*
X122414112Y-68375344D01*
X122414117Y-68375346D01*
X122414123Y-68375349D01*
X122505480Y-68413190D01*
X122626113Y-68463158D01*
X122847762Y-68522548D01*
X123075266Y-68552500D01*
X123075273Y-68552500D01*
X123304727Y-68552500D01*
X123304734Y-68552500D01*
X123532238Y-68522548D01*
X123753887Y-68463158D01*
X123965888Y-68375344D01*
X124164612Y-68260611D01*
X124346661Y-68120919D01*
X124346665Y-68120914D01*
X124346670Y-68120911D01*
X124508911Y-67958670D01*
X124508914Y-67958665D01*
X124508919Y-67958661D01*
X124648611Y-67776612D01*
X124763344Y-67577888D01*
X124851158Y-67365887D01*
X124910548Y-67144238D01*
X124940500Y-66916734D01*
X124940500Y-66687266D01*
X124910548Y-66459762D01*
X124851158Y-66238113D01*
X124763344Y-66026112D01*
X124648611Y-65827388D01*
X124648608Y-65827385D01*
X124648607Y-65827382D01*
X124508918Y-65645338D01*
X124508911Y-65645330D01*
X124377761Y-65514180D01*
X124344276Y-65452857D01*
X124344951Y-65443421D01*
X138828500Y-65443421D01*
X138828500Y-65620578D01*
X138856214Y-65795556D01*
X138910956Y-65964039D01*
X138910957Y-65964042D01*
X138968111Y-66076211D01*
X138991386Y-66121890D01*
X139095517Y-66265214D01*
X139220786Y-66390483D01*
X139364110Y-66494614D01*
X139441529Y-66534061D01*
X139521957Y-66575042D01*
X139521960Y-66575043D01*
X139606201Y-66602414D01*
X139690445Y-66629786D01*
X139865421Y-66657500D01*
X139865422Y-66657500D01*
X140042578Y-66657500D01*
X140042579Y-66657500D01*
X140217555Y-66629786D01*
X140386042Y-66575042D01*
X140543890Y-66494614D01*
X140559161Y-66483518D01*
X140624964Y-66460038D01*
X140693018Y-66475862D01*
X140741715Y-66525966D01*
X140755592Y-66594443D01*
X140754986Y-66600022D01*
X140743500Y-66687258D01*
X140743500Y-66916741D01*
X140768446Y-67106215D01*
X140773452Y-67144238D01*
X140810889Y-67283957D01*
X140832842Y-67365887D01*
X140920650Y-67577876D01*
X140920657Y-67577890D01*
X141035392Y-67776617D01*
X141175081Y-67958661D01*
X141175089Y-67958670D01*
X141337330Y-68120911D01*
X141337338Y-68120918D01*
X141519382Y-68260607D01*
X141519385Y-68260608D01*
X141519388Y-68260611D01*
X141718112Y-68375344D01*
X141718117Y-68375346D01*
X141718123Y-68375349D01*
X141809480Y-68413190D01*
X141930113Y-68463158D01*
X142151762Y-68522548D01*
X142379266Y-68552500D01*
X142379273Y-68552500D01*
X142608727Y-68552500D01*
X142608734Y-68552500D01*
X142836238Y-68522548D01*
X143057887Y-68463158D01*
X143269888Y-68375344D01*
X143468612Y-68260611D01*
X143650661Y-68120919D01*
X143650665Y-68120914D01*
X143650670Y-68120911D01*
X143812911Y-67958670D01*
X143812914Y-67958665D01*
X143812919Y-67958661D01*
X143952611Y-67776612D01*
X144067344Y-67577888D01*
X144155158Y-67365887D01*
X144214548Y-67144238D01*
X144244500Y-66916734D01*
X144244500Y-66687266D01*
X144214548Y-66459762D01*
X144155158Y-66238113D01*
X144067344Y-66026112D01*
X143952611Y-65827388D01*
X143952608Y-65827385D01*
X143952607Y-65827382D01*
X143812918Y-65645338D01*
X143812911Y-65645330D01*
X143681761Y-65514180D01*
X143648276Y-65452857D01*
X143653260Y-65383165D01*
X143695132Y-65327232D01*
X143760596Y-65302815D01*
X143769442Y-65302499D01*
X143791871Y-65302499D01*
X143791872Y-65302499D01*
X143851483Y-65296091D01*
X143986331Y-65245796D01*
X144101546Y-65159546D01*
X144187796Y-65044331D01*
X144238091Y-64909483D01*
X144244500Y-64849873D01*
X144244499Y-62204128D01*
X144238091Y-62144517D01*
X144225581Y-62110977D01*
X144187797Y-62009671D01*
X144187793Y-62009664D01*
X144101547Y-61894455D01*
X144101544Y-61894452D01*
X143986335Y-61808206D01*
X143986328Y-61808202D01*
X143851482Y-61757908D01*
X143851483Y-61757908D01*
X143791883Y-61751501D01*
X143791881Y-61751500D01*
X143791873Y-61751500D01*
X143791864Y-61751500D01*
X141196129Y-61751500D01*
X141196123Y-61751501D01*
X141136516Y-61757908D01*
X141001671Y-61808202D01*
X141001664Y-61808206D01*
X140886455Y-61894452D01*
X140886452Y-61894455D01*
X140800206Y-62009664D01*
X140800202Y-62009671D01*
X140749908Y-62144517D01*
X140743501Y-62204116D01*
X140743501Y-62204123D01*
X140743500Y-62204135D01*
X140743500Y-62802500D01*
X140723815Y-62869539D01*
X140671011Y-62915294D01*
X140619500Y-62926500D01*
X140563940Y-62926500D01*
X140496901Y-62906815D01*
X140476259Y-62890181D01*
X140456262Y-62870184D01*
X140303523Y-62774211D01*
X140133254Y-62714631D01*
X140133249Y-62714630D01*
X139954004Y-62694435D01*
X139953996Y-62694435D01*
X139774750Y-62714630D01*
X139774745Y-62714631D01*
X139604476Y-62774211D01*
X139451737Y-62870184D01*
X139324184Y-62997737D01*
X139228211Y-63150476D01*
X139168631Y-63320745D01*
X139168630Y-63320750D01*
X139148435Y-63499996D01*
X139148435Y-63500003D01*
X139168630Y-63679249D01*
X139168631Y-63679254D01*
X139228211Y-63849523D01*
X139324184Y-64002262D01*
X139451738Y-64129816D01*
X139563418Y-64199989D01*
X139604478Y-64225789D01*
X139607790Y-64226948D01*
X139609645Y-64228278D01*
X139610753Y-64228812D01*
X139610659Y-64229005D01*
X139664569Y-64267666D01*
X139690320Y-64332617D01*
X139676868Y-64401179D01*
X139628484Y-64451585D01*
X139605162Y-64461923D01*
X139521957Y-64488958D01*
X139364109Y-64569386D01*
X139282338Y-64628796D01*
X139220786Y-64673517D01*
X139220784Y-64673519D01*
X139220783Y-64673519D01*
X139095519Y-64798783D01*
X139095519Y-64798784D01*
X139095517Y-64798786D01*
X139058407Y-64849864D01*
X138991386Y-64942109D01*
X138910957Y-65099957D01*
X138910956Y-65099960D01*
X138856214Y-65268443D01*
X138828500Y-65443421D01*
X124344951Y-65443421D01*
X124349260Y-65383165D01*
X124391132Y-65327232D01*
X124456596Y-65302815D01*
X124465442Y-65302499D01*
X124487871Y-65302499D01*
X124487872Y-65302499D01*
X124547483Y-65296091D01*
X124682331Y-65245796D01*
X124797546Y-65159546D01*
X124883796Y-65044331D01*
X124934091Y-64909483D01*
X124940500Y-64849873D01*
X124940499Y-62204128D01*
X124934091Y-62144517D01*
X124921581Y-62110977D01*
X124883797Y-62009671D01*
X124883793Y-62009664D01*
X124797547Y-61894455D01*
X124797544Y-61894452D01*
X124682335Y-61808206D01*
X124682328Y-61808202D01*
X124547482Y-61757908D01*
X124547483Y-61757908D01*
X124487883Y-61751501D01*
X124487881Y-61751500D01*
X124487873Y-61751500D01*
X124487864Y-61751500D01*
X121892129Y-61751500D01*
X121892123Y-61751501D01*
X121832516Y-61757908D01*
X121697671Y-61808202D01*
X121697664Y-61808206D01*
X121582455Y-61894452D01*
X121582452Y-61894455D01*
X121496206Y-62009664D01*
X121496202Y-62009671D01*
X121445908Y-62144517D01*
X121439501Y-62204116D01*
X121439501Y-62204123D01*
X121439500Y-62204135D01*
X121439500Y-62802500D01*
X121419815Y-62869539D01*
X121367011Y-62915294D01*
X121315500Y-62926500D01*
X121259940Y-62926500D01*
X121192901Y-62906815D01*
X121172259Y-62890181D01*
X121152262Y-62870184D01*
X120999523Y-62774211D01*
X120829254Y-62714631D01*
X120829249Y-62714630D01*
X120650004Y-62694435D01*
X120649996Y-62694435D01*
X120470750Y-62714630D01*
X120470745Y-62714631D01*
X120300476Y-62774211D01*
X120147737Y-62870184D01*
X120020184Y-62997737D01*
X119924211Y-63150476D01*
X119864631Y-63320745D01*
X119864630Y-63320750D01*
X119844435Y-63499996D01*
X119844435Y-63500003D01*
X119864630Y-63679249D01*
X119864631Y-63679254D01*
X119924211Y-63849523D01*
X120020184Y-64002262D01*
X120147738Y-64129816D01*
X120259418Y-64199989D01*
X120300478Y-64225789D01*
X120303790Y-64226948D01*
X120305645Y-64228278D01*
X120306753Y-64228812D01*
X120306659Y-64229005D01*
X120360569Y-64267666D01*
X120386320Y-64332617D01*
X120372868Y-64401179D01*
X120324484Y-64451585D01*
X120301162Y-64461923D01*
X120217957Y-64488958D01*
X120060109Y-64569386D01*
X119978338Y-64628796D01*
X119916786Y-64673517D01*
X119916784Y-64673519D01*
X119916783Y-64673519D01*
X119791519Y-64798783D01*
X119791519Y-64798784D01*
X119791517Y-64798786D01*
X119754407Y-64849864D01*
X119687386Y-64942109D01*
X119606957Y-65099957D01*
X119606956Y-65099960D01*
X119552214Y-65268443D01*
X119524500Y-65443421D01*
X105040951Y-65443421D01*
X105045260Y-65383165D01*
X105087132Y-65327232D01*
X105152596Y-65302815D01*
X105161442Y-65302499D01*
X105183871Y-65302499D01*
X105183872Y-65302499D01*
X105243483Y-65296091D01*
X105378331Y-65245796D01*
X105493546Y-65159546D01*
X105579796Y-65044331D01*
X105630091Y-64909483D01*
X105636500Y-64849873D01*
X105636499Y-62204128D01*
X105630091Y-62144517D01*
X105617581Y-62110977D01*
X105579797Y-62009671D01*
X105579793Y-62009664D01*
X105493547Y-61894455D01*
X105493544Y-61894452D01*
X105378335Y-61808206D01*
X105378328Y-61808202D01*
X105243482Y-61757908D01*
X105243483Y-61757908D01*
X105183883Y-61751501D01*
X105183881Y-61751500D01*
X105183873Y-61751500D01*
X105183864Y-61751500D01*
X102588129Y-61751500D01*
X102588123Y-61751501D01*
X102528516Y-61757908D01*
X102393671Y-61808202D01*
X102393664Y-61808206D01*
X102278455Y-61894452D01*
X102278452Y-61894455D01*
X102192206Y-62009664D01*
X102192202Y-62009671D01*
X102141908Y-62144517D01*
X102135501Y-62204116D01*
X102135501Y-62204123D01*
X102135500Y-62204135D01*
X102135500Y-62666707D01*
X102115815Y-62733746D01*
X102063011Y-62779501D01*
X101993853Y-62789445D01*
X101956515Y-62775735D01*
X101955795Y-62777231D01*
X101949529Y-62774213D01*
X101779254Y-62714631D01*
X101779249Y-62714630D01*
X101600004Y-62694435D01*
X101599996Y-62694435D01*
X101420750Y-62714630D01*
X101420745Y-62714631D01*
X101250476Y-62774211D01*
X101097737Y-62870184D01*
X100970184Y-62997737D01*
X100874211Y-63150476D01*
X100814631Y-63320745D01*
X100814630Y-63320750D01*
X100794435Y-63499996D01*
X100794435Y-63500003D01*
X100814630Y-63679249D01*
X100814631Y-63679254D01*
X100874211Y-63849523D01*
X100970184Y-64002262D01*
X101097738Y-64129816D01*
X101107564Y-64135990D01*
X101201821Y-64195216D01*
X101248112Y-64247551D01*
X101258760Y-64316605D01*
X101230385Y-64380453D01*
X101171995Y-64418825D01*
X101155247Y-64422683D01*
X101082443Y-64434214D01*
X100913960Y-64488956D01*
X100913957Y-64488957D01*
X100756109Y-64569386D01*
X100674338Y-64628796D01*
X100612786Y-64673517D01*
X100612784Y-64673519D01*
X100612783Y-64673519D01*
X100487519Y-64798783D01*
X100487519Y-64798784D01*
X100487517Y-64798786D01*
X100450407Y-64849864D01*
X100383386Y-64942109D01*
X100302957Y-65099957D01*
X100302956Y-65099960D01*
X100248214Y-65268443D01*
X100220500Y-65443421D01*
X85693885Y-65443421D01*
X85698194Y-65383165D01*
X85740066Y-65327232D01*
X85805530Y-65302815D01*
X85814376Y-65302499D01*
X85836805Y-65302499D01*
X85836806Y-65302499D01*
X85896417Y-65296091D01*
X86031265Y-65245796D01*
X86146480Y-65159546D01*
X86232730Y-65044331D01*
X86283025Y-64909483D01*
X86289434Y-64849873D01*
X86289433Y-62204128D01*
X86283025Y-62144517D01*
X86270515Y-62110977D01*
X86232731Y-62009671D01*
X86232727Y-62009664D01*
X86146481Y-61894455D01*
X86146478Y-61894452D01*
X86031269Y-61808206D01*
X86031262Y-61808202D01*
X85896416Y-61757908D01*
X85896417Y-61757908D01*
X85836817Y-61751501D01*
X85836815Y-61751500D01*
X85836807Y-61751500D01*
X85836798Y-61751500D01*
X83241063Y-61751500D01*
X83241057Y-61751501D01*
X83181450Y-61757908D01*
X83046605Y-61808202D01*
X83046598Y-61808206D01*
X82931389Y-61894452D01*
X82931386Y-61894455D01*
X82845140Y-62009664D01*
X82845136Y-62009671D01*
X82794842Y-62144517D01*
X82788435Y-62204116D01*
X82788435Y-62204123D01*
X82788434Y-62204135D01*
X82788434Y-62649456D01*
X82768749Y-62716495D01*
X82715945Y-62762250D01*
X82646787Y-62772194D01*
X82623479Y-62766497D01*
X82475262Y-62714633D01*
X82475249Y-62714630D01*
X82296004Y-62694435D01*
X82295996Y-62694435D01*
X82116750Y-62714630D01*
X82116745Y-62714631D01*
X81946476Y-62774211D01*
X81793737Y-62870184D01*
X81666184Y-62997737D01*
X81570211Y-63150476D01*
X81510631Y-63320745D01*
X81510630Y-63320750D01*
X81490435Y-63499996D01*
X81490435Y-63500003D01*
X81510630Y-63679249D01*
X81510631Y-63679254D01*
X81570211Y-63849523D01*
X81666184Y-64002262D01*
X81793738Y-64129816D01*
X81803564Y-64135990D01*
X81889151Y-64189768D01*
X81935442Y-64242103D01*
X81946090Y-64311157D01*
X81917715Y-64375005D01*
X81859325Y-64413377D01*
X81842577Y-64417235D01*
X81735377Y-64434214D01*
X81566894Y-64488956D01*
X81566891Y-64488957D01*
X81409043Y-64569386D01*
X81327272Y-64628796D01*
X81265720Y-64673517D01*
X81265718Y-64673519D01*
X81265717Y-64673519D01*
X81140453Y-64798783D01*
X81140453Y-64798784D01*
X81140451Y-64798786D01*
X81103341Y-64849864D01*
X81036320Y-64942109D01*
X80955891Y-65099957D01*
X80955890Y-65099960D01*
X80901148Y-65268443D01*
X80873434Y-65443421D01*
X58483500Y-65443421D01*
X58483500Y-62308802D01*
X59621220Y-62308802D01*
X59621220Y-62308803D01*
X59639550Y-62506625D01*
X59639551Y-62506628D01*
X59693917Y-62697708D01*
X59693920Y-62697714D01*
X59782475Y-62875556D01*
X59902202Y-63034101D01*
X59977740Y-63102962D01*
X60049021Y-63167943D01*
X60217934Y-63272530D01*
X60403189Y-63344298D01*
X60598478Y-63380803D01*
X60598481Y-63380803D01*
X60797145Y-63380803D01*
X60797148Y-63380803D01*
X60992437Y-63344298D01*
X61177692Y-63272530D01*
X61258753Y-63222339D01*
X62677828Y-63222339D01*
X62677828Y-63222340D01*
X62758154Y-63272077D01*
X62758161Y-63272080D01*
X62943324Y-63343812D01*
X62943329Y-63343813D01*
X63138526Y-63380303D01*
X63337100Y-63380303D01*
X63532296Y-63343813D01*
X63532297Y-63343813D01*
X63717467Y-63272078D01*
X63717477Y-63272073D01*
X63797796Y-63222340D01*
X63797797Y-63222339D01*
X63237814Y-62662356D01*
X63237813Y-62662356D01*
X62677828Y-63222339D01*
X61258753Y-63222339D01*
X61346605Y-63167943D01*
X61493425Y-63034099D01*
X61613151Y-62875556D01*
X61701706Y-62697713D01*
X61701706Y-62697710D01*
X61701708Y-62697708D01*
X61732838Y-62588294D01*
X61756075Y-62506626D01*
X61774406Y-62308803D01*
X61774406Y-62308802D01*
X62161723Y-62308802D01*
X62161723Y-62308803D01*
X62180044Y-62506533D01*
X62234388Y-62697529D01*
X62234393Y-62697542D01*
X62321196Y-62871865D01*
X62321197Y-62871865D01*
X62884260Y-62308803D01*
X62884259Y-62308802D01*
X63591366Y-62308802D01*
X63591366Y-62308803D01*
X64154427Y-62871864D01*
X64154428Y-62871864D01*
X64241234Y-62697536D01*
X64241240Y-62697521D01*
X64277523Y-62570000D01*
X76215980Y-62570000D01*
X76224735Y-62614017D01*
X76224737Y-62614023D01*
X76300720Y-62797464D01*
X76300725Y-62797473D01*
X76411034Y-62962561D01*
X76411037Y-62962565D01*
X76551434Y-63102962D01*
X76551438Y-63102965D01*
X76716526Y-63213274D01*
X76716535Y-63213279D01*
X76899976Y-63289262D01*
X76899984Y-63289264D01*
X77094716Y-63327999D01*
X77094719Y-63328000D01*
X77452000Y-63328000D01*
X77952000Y-63328000D01*
X78309281Y-63328000D01*
X78309283Y-63327999D01*
X78504015Y-63289264D01*
X78504023Y-63289262D01*
X78687464Y-63213279D01*
X78687473Y-63213274D01*
X78852561Y-63102965D01*
X78852565Y-63102962D01*
X78992962Y-62962565D01*
X78992965Y-62962561D01*
X79103274Y-62797473D01*
X79103279Y-62797464D01*
X79179262Y-62614023D01*
X79179264Y-62614017D01*
X79188020Y-62570000D01*
X77952000Y-62570000D01*
X77952000Y-63328000D01*
X77452000Y-63328000D01*
X77452000Y-62570000D01*
X76215980Y-62570000D01*
X64277523Y-62570000D01*
X64295580Y-62506535D01*
X64295581Y-62506533D01*
X64313903Y-62308803D01*
X64313903Y-62308802D01*
X64295581Y-62111072D01*
X64295580Y-62111070D01*
X64283894Y-62069999D01*
X76215979Y-62069999D01*
X76215980Y-62070000D01*
X77452000Y-62070000D01*
X77952000Y-62070000D01*
X79188020Y-62070000D01*
X79188020Y-62069999D01*
X79179264Y-62025982D01*
X79179262Y-62025976D01*
X79103279Y-61842535D01*
X79103274Y-61842526D01*
X78992965Y-61677438D01*
X78992962Y-61677434D01*
X78852565Y-61537037D01*
X78852561Y-61537034D01*
X78687473Y-61426725D01*
X78687464Y-61426720D01*
X78504023Y-61350737D01*
X78504015Y-61350735D01*
X78309282Y-61312000D01*
X77952000Y-61312000D01*
X77952000Y-62070000D01*
X77452000Y-62070000D01*
X77452000Y-61312000D01*
X77094718Y-61312000D01*
X76899984Y-61350735D01*
X76899976Y-61350737D01*
X76716535Y-61426720D01*
X76716526Y-61426725D01*
X76551438Y-61537034D01*
X76551434Y-61537037D01*
X76411037Y-61677434D01*
X76411034Y-61677438D01*
X76300725Y-61842526D01*
X76300720Y-61842535D01*
X76224737Y-62025976D01*
X76224735Y-62025982D01*
X76215979Y-62069999D01*
X64283894Y-62069999D01*
X64241240Y-61920084D01*
X64241234Y-61920069D01*
X64154428Y-61745740D01*
X64154427Y-61745740D01*
X63591366Y-62308802D01*
X62884259Y-62308802D01*
X62321196Y-61745739D01*
X62234393Y-61920063D01*
X62234388Y-61920076D01*
X62180044Y-62111072D01*
X62161723Y-62308802D01*
X61774406Y-62308802D01*
X61756075Y-62110980D01*
X61731891Y-62025982D01*
X61701708Y-61919897D01*
X61701705Y-61919891D01*
X61663182Y-61842526D01*
X61613151Y-61742050D01*
X61493425Y-61583507D01*
X61493423Y-61583504D01*
X61346606Y-61449664D01*
X61346605Y-61449663D01*
X61258750Y-61395265D01*
X62677827Y-61395265D01*
X63237813Y-61955250D01*
X63237814Y-61955250D01*
X63797797Y-61395265D01*
X63717468Y-61345527D01*
X63717464Y-61345525D01*
X63532301Y-61273793D01*
X63532296Y-61273792D01*
X63337100Y-61237303D01*
X63138526Y-61237303D01*
X62943329Y-61273792D01*
X62943324Y-61273793D01*
X62758163Y-61345524D01*
X62758154Y-61345528D01*
X62677828Y-61395264D01*
X62677827Y-61395265D01*
X61258750Y-61395265D01*
X61258748Y-61395264D01*
X61177693Y-61345076D01*
X61177691Y-61345075D01*
X60992440Y-61273309D01*
X60992439Y-61273308D01*
X60992437Y-61273308D01*
X60797148Y-61236803D01*
X60598478Y-61236803D01*
X60403189Y-61273308D01*
X60403187Y-61273308D01*
X60403185Y-61273309D01*
X60217934Y-61345075D01*
X60217932Y-61345076D01*
X60049019Y-61449664D01*
X59902202Y-61583504D01*
X59782475Y-61742049D01*
X59693920Y-61919891D01*
X59693917Y-61919897D01*
X59639551Y-62110977D01*
X59639550Y-62110980D01*
X59621220Y-62308802D01*
X58483500Y-62308802D01*
X58483500Y-59768802D01*
X59621220Y-59768802D01*
X59621220Y-59768803D01*
X59639550Y-59966625D01*
X59639551Y-59966628D01*
X59693917Y-60157708D01*
X59693920Y-60157714D01*
X59782475Y-60335556D01*
X59902202Y-60494101D01*
X60028506Y-60609241D01*
X60049021Y-60627943D01*
X60217934Y-60732530D01*
X60403189Y-60804298D01*
X60598478Y-60840803D01*
X60598481Y-60840803D01*
X60797145Y-60840803D01*
X60797148Y-60840803D01*
X60992437Y-60804298D01*
X61177692Y-60732530D01*
X61346605Y-60627943D01*
X61493425Y-60494099D01*
X61613151Y-60335556D01*
X61701706Y-60157713D01*
X61701706Y-60157710D01*
X61701708Y-60157708D01*
X61756074Y-59966628D01*
X61756075Y-59966625D01*
X61765091Y-59869333D01*
X61774406Y-59768803D01*
X61774406Y-59768802D01*
X62161220Y-59768802D01*
X62161220Y-59768803D01*
X62179550Y-59966625D01*
X62179551Y-59966628D01*
X62233917Y-60157708D01*
X62233920Y-60157714D01*
X62322475Y-60335556D01*
X62442202Y-60494101D01*
X62568506Y-60609241D01*
X62589021Y-60627943D01*
X62757934Y-60732530D01*
X62943189Y-60804298D01*
X63138478Y-60840803D01*
X63138481Y-60840803D01*
X63337145Y-60840803D01*
X63337148Y-60840803D01*
X63532437Y-60804298D01*
X63717692Y-60732530D01*
X63886605Y-60627943D01*
X64033425Y-60494099D01*
X64153151Y-60335556D01*
X64241706Y-60157713D01*
X64241706Y-60157710D01*
X64241708Y-60157708D01*
X64296074Y-59966628D01*
X64296075Y-59966625D01*
X64305091Y-59869333D01*
X64314406Y-59768803D01*
X64305312Y-59670666D01*
X76185500Y-59670666D01*
X76185500Y-59869333D01*
X76224254Y-60064161D01*
X76224256Y-60064169D01*
X76300277Y-60247701D01*
X76300282Y-60247710D01*
X76410646Y-60412880D01*
X76410649Y-60412884D01*
X76551115Y-60553350D01*
X76551119Y-60553353D01*
X76716289Y-60663717D01*
X76716295Y-60663720D01*
X76716296Y-60663721D01*
X76899831Y-60739744D01*
X77094666Y-60778499D01*
X77094670Y-60778500D01*
X77094671Y-60778500D01*
X78309330Y-60778500D01*
X78309331Y-60778499D01*
X78504169Y-60739744D01*
X78687704Y-60663721D01*
X78852881Y-60553353D01*
X78993353Y-60412881D01*
X79103721Y-60247704D01*
X79179744Y-60064169D01*
X79218500Y-59869329D01*
X79218500Y-59670671D01*
X79179744Y-59475831D01*
X79103721Y-59292296D01*
X79103720Y-59292295D01*
X79103717Y-59292289D01*
X78993353Y-59127119D01*
X78993350Y-59127115D01*
X78852884Y-58986649D01*
X78852880Y-58986646D01*
X78687710Y-58876282D01*
X78687701Y-58876277D01*
X78504169Y-58800256D01*
X78504161Y-58800254D01*
X78309333Y-58761500D01*
X78309329Y-58761500D01*
X77094671Y-58761500D01*
X77094666Y-58761500D01*
X76899838Y-58800254D01*
X76899830Y-58800256D01*
X76716298Y-58876277D01*
X76716289Y-58876282D01*
X76551119Y-58986646D01*
X76551115Y-58986649D01*
X76410649Y-59127115D01*
X76410646Y-59127119D01*
X76300282Y-59292289D01*
X76300277Y-59292298D01*
X76224256Y-59475830D01*
X76224254Y-59475838D01*
X76185500Y-59670666D01*
X64305312Y-59670666D01*
X64296075Y-59570980D01*
X64269003Y-59475831D01*
X64241708Y-59379897D01*
X64241705Y-59379891D01*
X64198088Y-59292296D01*
X64153151Y-59202050D01*
X64033425Y-59043507D01*
X64033423Y-59043504D01*
X63886606Y-58909664D01*
X63886605Y-58909663D01*
X63819883Y-58868350D01*
X63717693Y-58805076D01*
X63717691Y-58805075D01*
X63532440Y-58733309D01*
X63532439Y-58733308D01*
X63532437Y-58733308D01*
X63337148Y-58696803D01*
X63138478Y-58696803D01*
X62943189Y-58733308D01*
X62943187Y-58733308D01*
X62943185Y-58733309D01*
X62757934Y-58805075D01*
X62757932Y-58805076D01*
X62589019Y-58909664D01*
X62442202Y-59043504D01*
X62322475Y-59202049D01*
X62233920Y-59379891D01*
X62233917Y-59379897D01*
X62179551Y-59570977D01*
X62179550Y-59570980D01*
X62161220Y-59768802D01*
X61774406Y-59768802D01*
X61756075Y-59570980D01*
X61729003Y-59475831D01*
X61701708Y-59379897D01*
X61701705Y-59379891D01*
X61658088Y-59292296D01*
X61613151Y-59202050D01*
X61493425Y-59043507D01*
X61493423Y-59043504D01*
X61346606Y-58909664D01*
X61346605Y-58909663D01*
X61279883Y-58868350D01*
X61177693Y-58805076D01*
X61177691Y-58805075D01*
X60992440Y-58733309D01*
X60992439Y-58733308D01*
X60992437Y-58733308D01*
X60797148Y-58696803D01*
X60598478Y-58696803D01*
X60403189Y-58733308D01*
X60403187Y-58733308D01*
X60403185Y-58733309D01*
X60217934Y-58805075D01*
X60217932Y-58805076D01*
X60049019Y-58909664D01*
X59902202Y-59043504D01*
X59782475Y-59202049D01*
X59693920Y-59379891D01*
X59693917Y-59379897D01*
X59639551Y-59570977D01*
X59639550Y-59570980D01*
X59621220Y-59768802D01*
X58483500Y-59768802D01*
X58483500Y-58472844D01*
X85328934Y-58472844D01*
X85335335Y-58532372D01*
X85335337Y-58532379D01*
X85385579Y-58667086D01*
X85385583Y-58667093D01*
X85471743Y-58782187D01*
X85471746Y-58782190D01*
X85586840Y-58868350D01*
X85586847Y-58868354D01*
X85721554Y-58918596D01*
X85721561Y-58918598D01*
X85781089Y-58924999D01*
X85781106Y-58925000D01*
X86828934Y-58925000D01*
X87328934Y-58925000D01*
X88376762Y-58925000D01*
X88376778Y-58924999D01*
X88436306Y-58918598D01*
X88436313Y-58918596D01*
X88571020Y-58868354D01*
X88571027Y-58868350D01*
X88686121Y-58782190D01*
X88686124Y-58782187D01*
X88772284Y-58667093D01*
X88772288Y-58667086D01*
X88822530Y-58532379D01*
X88822532Y-58532372D01*
X88828933Y-58472844D01*
X104676000Y-58472844D01*
X104682401Y-58532372D01*
X104682403Y-58532379D01*
X104732645Y-58667086D01*
X104732649Y-58667093D01*
X104818809Y-58782187D01*
X104818812Y-58782190D01*
X104933906Y-58868350D01*
X104933913Y-58868354D01*
X105068620Y-58918596D01*
X105068627Y-58918598D01*
X105128155Y-58924999D01*
X105128172Y-58925000D01*
X106176000Y-58925000D01*
X106676000Y-58925000D01*
X107723828Y-58925000D01*
X107723844Y-58924999D01*
X107783372Y-58918598D01*
X107783379Y-58918596D01*
X107918086Y-58868354D01*
X107918093Y-58868350D01*
X108033187Y-58782190D01*
X108033190Y-58782187D01*
X108119350Y-58667093D01*
X108119354Y-58667086D01*
X108169596Y-58532379D01*
X108169598Y-58532372D01*
X108175999Y-58472844D01*
X123980000Y-58472844D01*
X123986401Y-58532372D01*
X123986403Y-58532379D01*
X124036645Y-58667086D01*
X124036649Y-58667093D01*
X124122809Y-58782187D01*
X124122812Y-58782190D01*
X124237906Y-58868350D01*
X124237913Y-58868354D01*
X124372620Y-58918596D01*
X124372627Y-58918598D01*
X124432155Y-58924999D01*
X124432172Y-58925000D01*
X125480000Y-58925000D01*
X125980000Y-58925000D01*
X127027828Y-58925000D01*
X127027844Y-58924999D01*
X127087372Y-58918598D01*
X127087379Y-58918596D01*
X127222086Y-58868354D01*
X127222093Y-58868350D01*
X127337187Y-58782190D01*
X127337190Y-58782187D01*
X127423350Y-58667093D01*
X127423354Y-58667086D01*
X127473596Y-58532379D01*
X127473598Y-58532372D01*
X127479999Y-58472844D01*
X143284000Y-58472844D01*
X143290401Y-58532372D01*
X143290403Y-58532379D01*
X143340645Y-58667086D01*
X143340649Y-58667093D01*
X143426809Y-58782187D01*
X143426812Y-58782190D01*
X143541906Y-58868350D01*
X143541913Y-58868354D01*
X143676620Y-58918596D01*
X143676627Y-58918598D01*
X143736155Y-58924999D01*
X143736172Y-58925000D01*
X144784000Y-58925000D01*
X145284000Y-58925000D01*
X146331828Y-58925000D01*
X146331844Y-58924999D01*
X146391372Y-58918598D01*
X146391379Y-58918596D01*
X146526086Y-58868354D01*
X146526093Y-58868350D01*
X146641187Y-58782190D01*
X146641190Y-58782187D01*
X146727350Y-58667093D01*
X146727354Y-58667086D01*
X146777596Y-58532379D01*
X146777598Y-58532372D01*
X146783999Y-58472844D01*
X146784000Y-58472827D01*
X146784000Y-57400000D01*
X145284000Y-57400000D01*
X145284000Y-58925000D01*
X144784000Y-58925000D01*
X144784000Y-57400000D01*
X143284000Y-57400000D01*
X143284000Y-58472844D01*
X127479999Y-58472844D01*
X127480000Y-58472827D01*
X127480000Y-57400000D01*
X125980000Y-57400000D01*
X125980000Y-58925000D01*
X125480000Y-58925000D01*
X125480000Y-57400000D01*
X123980000Y-57400000D01*
X123980000Y-58472844D01*
X108175999Y-58472844D01*
X108176000Y-58472827D01*
X108176000Y-57400000D01*
X106676000Y-57400000D01*
X106676000Y-58925000D01*
X106176000Y-58925000D01*
X106176000Y-57400000D01*
X104676000Y-57400000D01*
X104676000Y-58472844D01*
X88828933Y-58472844D01*
X88828934Y-58472827D01*
X88828934Y-57400000D01*
X87328934Y-57400000D01*
X87328934Y-58925000D01*
X86828934Y-58925000D01*
X86828934Y-57400000D01*
X85328934Y-57400000D01*
X85328934Y-58472844D01*
X58483500Y-58472844D01*
X58483500Y-56299421D01*
X80873434Y-56299421D01*
X80873434Y-56476578D01*
X80901148Y-56651556D01*
X80955890Y-56820039D01*
X80955891Y-56820042D01*
X81036320Y-56977890D01*
X81140451Y-57121214D01*
X81265720Y-57246483D01*
X81409044Y-57350614D01*
X81486463Y-57390061D01*
X81566891Y-57431042D01*
X81566894Y-57431043D01*
X81651135Y-57458414D01*
X81735379Y-57485786D01*
X81910355Y-57513500D01*
X81910356Y-57513500D01*
X82087512Y-57513500D01*
X82087513Y-57513500D01*
X82262489Y-57485786D01*
X82430976Y-57431042D01*
X82588824Y-57350614D01*
X82732148Y-57246483D01*
X82857417Y-57121214D01*
X82961548Y-56977890D01*
X83041976Y-56820042D01*
X83096720Y-56651555D01*
X83124434Y-56476579D01*
X83124434Y-56299421D01*
X83096720Y-56124445D01*
X83041976Y-55955958D01*
X83041976Y-55955957D01*
X82961547Y-55798109D01*
X82857417Y-55654786D01*
X82732148Y-55529517D01*
X82588824Y-55425386D01*
X82580891Y-55421344D01*
X82430976Y-55344957D01*
X82430973Y-55344956D01*
X82262490Y-55290214D01*
X82175001Y-55276357D01*
X82087513Y-55262500D01*
X81910355Y-55262500D01*
X81852029Y-55271738D01*
X81735377Y-55290214D01*
X81566894Y-55344956D01*
X81566891Y-55344957D01*
X81409043Y-55425386D01*
X81327272Y-55484796D01*
X81265720Y-55529517D01*
X81265718Y-55529519D01*
X81265717Y-55529519D01*
X81140453Y-55654783D01*
X81140453Y-55654784D01*
X81140451Y-55654786D01*
X81095730Y-55716338D01*
X81036320Y-55798109D01*
X80955891Y-55955957D01*
X80955890Y-55955960D01*
X80901148Y-56124443D01*
X80873434Y-56299421D01*
X58483500Y-56299421D01*
X58483500Y-52410418D01*
X59884190Y-52410418D01*
X59884190Y-53395822D01*
X59908990Y-53552400D01*
X59921125Y-53629018D01*
X59994086Y-53853570D01*
X60101276Y-54063939D01*
X60240046Y-54254941D01*
X60240050Y-54254946D01*
X60407003Y-54421899D01*
X60407008Y-54421903D01*
X60573611Y-54542946D01*
X60598014Y-54560676D01*
X60722078Y-54623890D01*
X60808379Y-54667863D01*
X60808381Y-54667863D01*
X60808384Y-54667865D01*
X61032932Y-54740825D01*
X61266128Y-54777760D01*
X61266129Y-54777760D01*
X61502231Y-54777760D01*
X61502232Y-54777760D01*
X61735428Y-54740825D01*
X61959976Y-54667865D01*
X62170346Y-54560676D01*
X62361358Y-54421898D01*
X62528308Y-54254948D01*
X62553861Y-54219776D01*
X62609190Y-54177111D01*
X62678803Y-54171130D01*
X62740599Y-54203735D01*
X62754499Y-54219777D01*
X62780048Y-54254944D01*
X62947003Y-54421899D01*
X62947008Y-54421903D01*
X63113611Y-54542946D01*
X63138014Y-54560676D01*
X63262078Y-54623890D01*
X63348379Y-54667863D01*
X63348381Y-54667863D01*
X63348384Y-54667865D01*
X63572932Y-54740825D01*
X63806128Y-54777760D01*
X63806129Y-54777760D01*
X64042231Y-54777760D01*
X64042232Y-54777760D01*
X64275428Y-54740825D01*
X64499976Y-54667865D01*
X64710346Y-54560676D01*
X64901358Y-54421898D01*
X65068308Y-54254948D01*
X65093861Y-54219776D01*
X65149190Y-54177111D01*
X65218803Y-54171130D01*
X65280599Y-54203735D01*
X65294499Y-54219777D01*
X65320048Y-54254944D01*
X65487003Y-54421899D01*
X65487008Y-54421903D01*
X65653611Y-54542946D01*
X65678014Y-54560676D01*
X65802078Y-54623890D01*
X65888379Y-54667863D01*
X65888381Y-54667863D01*
X65888384Y-54667865D01*
X66112932Y-54740825D01*
X66346128Y-54777760D01*
X66346129Y-54777760D01*
X66582231Y-54777760D01*
X66582232Y-54777760D01*
X66815428Y-54740825D01*
X67039976Y-54667865D01*
X67250346Y-54560676D01*
X67441358Y-54421898D01*
X67608308Y-54254948D01*
X67633861Y-54219776D01*
X67689190Y-54177111D01*
X67758803Y-54171130D01*
X67820599Y-54203735D01*
X67834499Y-54219777D01*
X67860048Y-54254944D01*
X68027003Y-54421899D01*
X68027008Y-54421903D01*
X68193611Y-54542946D01*
X68218014Y-54560676D01*
X68342078Y-54623890D01*
X68428379Y-54667863D01*
X68428381Y-54667863D01*
X68428384Y-54667865D01*
X68652932Y-54740825D01*
X68886128Y-54777760D01*
X68886129Y-54777760D01*
X69122231Y-54777760D01*
X69122232Y-54777760D01*
X69355428Y-54740825D01*
X69579976Y-54667865D01*
X69790346Y-54560676D01*
X69981358Y-54421898D01*
X70148308Y-54254948D01*
X70173861Y-54219776D01*
X70229190Y-54177111D01*
X70298803Y-54171130D01*
X70360599Y-54203735D01*
X70374499Y-54219777D01*
X70400048Y-54254944D01*
X70567003Y-54421899D01*
X70567008Y-54421903D01*
X70733611Y-54542946D01*
X70758014Y-54560676D01*
X70882078Y-54623890D01*
X70968379Y-54667863D01*
X70968381Y-54667863D01*
X70968384Y-54667865D01*
X71192932Y-54740825D01*
X71426128Y-54777760D01*
X71426129Y-54777760D01*
X71662231Y-54777760D01*
X71662232Y-54777760D01*
X71895428Y-54740825D01*
X72119976Y-54667865D01*
X72330346Y-54560676D01*
X72521358Y-54421898D01*
X72688308Y-54254948D01*
X72713861Y-54219776D01*
X72769190Y-54177111D01*
X72838803Y-54171130D01*
X72900599Y-54203735D01*
X72914499Y-54219777D01*
X72940048Y-54254944D01*
X73107003Y-54421899D01*
X73107008Y-54421903D01*
X73273611Y-54542946D01*
X73298014Y-54560676D01*
X73422078Y-54623890D01*
X73508379Y-54667863D01*
X73508381Y-54667863D01*
X73508384Y-54667865D01*
X73732932Y-54740825D01*
X73966128Y-54777760D01*
X73966129Y-54777760D01*
X74202231Y-54777760D01*
X74202232Y-54777760D01*
X74435428Y-54740825D01*
X74659976Y-54667865D01*
X74870346Y-54560676D01*
X75061358Y-54421898D01*
X75228308Y-54254948D01*
X75253861Y-54219776D01*
X75309190Y-54177111D01*
X75378803Y-54171130D01*
X75440599Y-54203735D01*
X75454499Y-54219777D01*
X75480048Y-54254944D01*
X75647003Y-54421899D01*
X75647008Y-54421903D01*
X75813611Y-54542946D01*
X75838014Y-54560676D01*
X75962078Y-54623890D01*
X76048379Y-54667863D01*
X76048381Y-54667863D01*
X76048384Y-54667865D01*
X76272932Y-54740825D01*
X76506128Y-54777760D01*
X76506129Y-54777760D01*
X76742231Y-54777760D01*
X76742232Y-54777760D01*
X76975428Y-54740825D01*
X77199976Y-54667865D01*
X77410346Y-54560676D01*
X77601358Y-54421898D01*
X77768308Y-54254948D01*
X77907086Y-54063936D01*
X78014275Y-53853566D01*
X78053365Y-53733258D01*
X85328434Y-53733258D01*
X85328434Y-53962741D01*
X85341758Y-54063939D01*
X85358386Y-54190238D01*
X85375725Y-54254948D01*
X85417776Y-54411887D01*
X85505584Y-54623876D01*
X85505591Y-54623890D01*
X85620326Y-54822617D01*
X85760015Y-55004661D01*
X85760023Y-55004670D01*
X85918672Y-55163319D01*
X85952157Y-55224642D01*
X85947173Y-55294334D01*
X85905301Y-55350267D01*
X85839837Y-55374684D01*
X85830991Y-55375000D01*
X85781089Y-55375000D01*
X85721561Y-55381401D01*
X85721554Y-55381403D01*
X85586847Y-55431645D01*
X85586840Y-55431649D01*
X85471746Y-55517809D01*
X85471743Y-55517812D01*
X85385583Y-55632906D01*
X85385579Y-55632913D01*
X85335337Y-55767620D01*
X85335335Y-55767627D01*
X85328934Y-55827155D01*
X85328934Y-56900000D01*
X88828934Y-56900000D01*
X88828934Y-56299421D01*
X100220500Y-56299421D01*
X100220500Y-56476578D01*
X100248214Y-56651556D01*
X100302956Y-56820039D01*
X100302957Y-56820042D01*
X100383386Y-56977890D01*
X100487517Y-57121214D01*
X100612786Y-57246483D01*
X100756110Y-57350614D01*
X100833529Y-57390061D01*
X100913957Y-57431042D01*
X100913960Y-57431043D01*
X100998201Y-57458414D01*
X101082445Y-57485786D01*
X101257421Y-57513500D01*
X101257422Y-57513500D01*
X101434578Y-57513500D01*
X101434579Y-57513500D01*
X101609555Y-57485786D01*
X101778042Y-57431042D01*
X101935890Y-57350614D01*
X102079214Y-57246483D01*
X102204483Y-57121214D01*
X102308614Y-56977890D01*
X102389042Y-56820042D01*
X102443786Y-56651555D01*
X102471500Y-56476579D01*
X102471500Y-56299421D01*
X102443786Y-56124445D01*
X102389042Y-55955958D01*
X102389042Y-55955957D01*
X102308613Y-55798109D01*
X102204483Y-55654786D01*
X102079214Y-55529517D01*
X101935890Y-55425386D01*
X101927957Y-55421344D01*
X101778042Y-55344957D01*
X101778039Y-55344956D01*
X101609556Y-55290214D01*
X101522067Y-55276357D01*
X101434579Y-55262500D01*
X101257421Y-55262500D01*
X101199095Y-55271738D01*
X101082443Y-55290214D01*
X100913960Y-55344956D01*
X100913957Y-55344957D01*
X100756109Y-55425386D01*
X100674338Y-55484796D01*
X100612786Y-55529517D01*
X100612784Y-55529519D01*
X100612783Y-55529519D01*
X100487519Y-55654783D01*
X100487519Y-55654784D01*
X100487517Y-55654786D01*
X100442796Y-55716338D01*
X100383386Y-55798109D01*
X100302957Y-55955957D01*
X100302956Y-55955960D01*
X100248214Y-56124443D01*
X100220500Y-56299421D01*
X88828934Y-56299421D01*
X88828934Y-55827172D01*
X88828933Y-55827155D01*
X88822532Y-55767627D01*
X88822530Y-55767620D01*
X88772288Y-55632913D01*
X88772284Y-55632906D01*
X88686124Y-55517812D01*
X88686121Y-55517809D01*
X88571027Y-55431649D01*
X88571020Y-55431645D01*
X88436313Y-55381403D01*
X88436306Y-55381401D01*
X88376778Y-55375000D01*
X88326877Y-55375000D01*
X88259838Y-55355315D01*
X88214083Y-55302511D01*
X88204139Y-55233353D01*
X88233164Y-55169797D01*
X88239196Y-55163319D01*
X88397845Y-55004670D01*
X88397848Y-55004665D01*
X88397853Y-55004661D01*
X88537545Y-54822612D01*
X88652278Y-54623888D01*
X88740092Y-54411887D01*
X88799482Y-54190238D01*
X88829434Y-53962734D01*
X88829434Y-53733266D01*
X88829433Y-53733258D01*
X104675500Y-53733258D01*
X104675500Y-53962741D01*
X104688824Y-54063939D01*
X104705452Y-54190238D01*
X104722791Y-54254948D01*
X104764842Y-54411887D01*
X104852650Y-54623876D01*
X104852657Y-54623890D01*
X104967392Y-54822617D01*
X105107081Y-55004661D01*
X105107089Y-55004670D01*
X105265738Y-55163319D01*
X105299223Y-55224642D01*
X105294239Y-55294334D01*
X105252367Y-55350267D01*
X105186903Y-55374684D01*
X105178057Y-55375000D01*
X105128155Y-55375000D01*
X105068627Y-55381401D01*
X105068620Y-55381403D01*
X104933913Y-55431645D01*
X104933906Y-55431649D01*
X104818812Y-55517809D01*
X104818809Y-55517812D01*
X104732649Y-55632906D01*
X104732645Y-55632913D01*
X104682403Y-55767620D01*
X104682401Y-55767627D01*
X104676000Y-55827155D01*
X104676000Y-56900000D01*
X108176000Y-56900000D01*
X108176000Y-56299421D01*
X119524500Y-56299421D01*
X119524500Y-56476578D01*
X119552214Y-56651556D01*
X119606956Y-56820039D01*
X119606957Y-56820042D01*
X119687386Y-56977890D01*
X119791517Y-57121214D01*
X119916786Y-57246483D01*
X120060110Y-57350614D01*
X120137529Y-57390061D01*
X120217957Y-57431042D01*
X120217960Y-57431043D01*
X120302201Y-57458414D01*
X120386445Y-57485786D01*
X120561421Y-57513500D01*
X120561422Y-57513500D01*
X120738578Y-57513500D01*
X120738579Y-57513500D01*
X120913555Y-57485786D01*
X121082042Y-57431042D01*
X121239890Y-57350614D01*
X121383214Y-57246483D01*
X121508483Y-57121214D01*
X121612614Y-56977890D01*
X121693042Y-56820042D01*
X121747786Y-56651555D01*
X121775500Y-56476579D01*
X121775500Y-56299421D01*
X121747786Y-56124445D01*
X121693042Y-55955958D01*
X121693042Y-55955957D01*
X121612613Y-55798109D01*
X121508483Y-55654786D01*
X121383214Y-55529517D01*
X121239890Y-55425386D01*
X121231957Y-55421344D01*
X121082042Y-55344957D01*
X121082039Y-55344956D01*
X120913556Y-55290214D01*
X120826067Y-55276357D01*
X120738579Y-55262500D01*
X120561421Y-55262500D01*
X120503095Y-55271738D01*
X120386443Y-55290214D01*
X120217960Y-55344956D01*
X120217957Y-55344957D01*
X120060109Y-55425386D01*
X119978338Y-55484796D01*
X119916786Y-55529517D01*
X119916784Y-55529519D01*
X119916783Y-55529519D01*
X119791519Y-55654783D01*
X119791519Y-55654784D01*
X119791517Y-55654786D01*
X119746796Y-55716338D01*
X119687386Y-55798109D01*
X119606957Y-55955957D01*
X119606956Y-55955960D01*
X119552214Y-56124443D01*
X119524500Y-56299421D01*
X108176000Y-56299421D01*
X108176000Y-55827172D01*
X108175999Y-55827155D01*
X108169598Y-55767627D01*
X108169596Y-55767620D01*
X108119354Y-55632913D01*
X108119350Y-55632906D01*
X108033190Y-55517812D01*
X108033187Y-55517809D01*
X107918093Y-55431649D01*
X107918086Y-55431645D01*
X107783379Y-55381403D01*
X107783372Y-55381401D01*
X107723844Y-55375000D01*
X107673943Y-55375000D01*
X107606904Y-55355315D01*
X107561149Y-55302511D01*
X107551205Y-55233353D01*
X107580230Y-55169797D01*
X107586262Y-55163319D01*
X107744911Y-55004670D01*
X107744914Y-55004665D01*
X107744919Y-55004661D01*
X107884611Y-54822612D01*
X107999344Y-54623888D01*
X108087158Y-54411887D01*
X108146548Y-54190238D01*
X108176500Y-53962734D01*
X108176500Y-53733266D01*
X108176499Y-53733258D01*
X123979500Y-53733258D01*
X123979500Y-53962741D01*
X123992824Y-54063939D01*
X124009452Y-54190238D01*
X124026791Y-54254948D01*
X124068842Y-54411887D01*
X124156650Y-54623876D01*
X124156657Y-54623890D01*
X124271392Y-54822617D01*
X124411081Y-55004661D01*
X124411089Y-55004670D01*
X124569738Y-55163319D01*
X124603223Y-55224642D01*
X124598239Y-55294334D01*
X124556367Y-55350267D01*
X124490903Y-55374684D01*
X124482057Y-55375000D01*
X124432155Y-55375000D01*
X124372627Y-55381401D01*
X124372620Y-55381403D01*
X124237913Y-55431645D01*
X124237906Y-55431649D01*
X124122812Y-55517809D01*
X124122809Y-55517812D01*
X124036649Y-55632906D01*
X124036645Y-55632913D01*
X123986403Y-55767620D01*
X123986401Y-55767627D01*
X123980000Y-55827155D01*
X123980000Y-56900000D01*
X127480000Y-56900000D01*
X127480000Y-56299421D01*
X138828500Y-56299421D01*
X138828500Y-56476578D01*
X138856214Y-56651556D01*
X138910956Y-56820039D01*
X138910957Y-56820042D01*
X138991386Y-56977890D01*
X139095517Y-57121214D01*
X139220786Y-57246483D01*
X139364110Y-57350614D01*
X139441529Y-57390061D01*
X139521957Y-57431042D01*
X139521960Y-57431043D01*
X139606201Y-57458414D01*
X139690445Y-57485786D01*
X139865421Y-57513500D01*
X139865422Y-57513500D01*
X140042578Y-57513500D01*
X140042579Y-57513500D01*
X140217555Y-57485786D01*
X140386042Y-57431042D01*
X140543890Y-57350614D01*
X140687214Y-57246483D01*
X140812483Y-57121214D01*
X140916614Y-56977890D01*
X140997042Y-56820042D01*
X141051786Y-56651555D01*
X141079500Y-56476579D01*
X141079500Y-56299421D01*
X141051786Y-56124445D01*
X140997042Y-55955958D01*
X140997042Y-55955957D01*
X140916613Y-55798109D01*
X140812483Y-55654786D01*
X140687214Y-55529517D01*
X140543890Y-55425386D01*
X140535957Y-55421344D01*
X140386042Y-55344957D01*
X140386039Y-55344956D01*
X140217556Y-55290214D01*
X140130067Y-55276357D01*
X140042579Y-55262500D01*
X139865421Y-55262500D01*
X139807095Y-55271738D01*
X139690443Y-55290214D01*
X139521960Y-55344956D01*
X139521957Y-55344957D01*
X139364109Y-55425386D01*
X139282338Y-55484796D01*
X139220786Y-55529517D01*
X139220784Y-55529519D01*
X139220783Y-55529519D01*
X139095519Y-55654783D01*
X139095519Y-55654784D01*
X139095517Y-55654786D01*
X139050796Y-55716338D01*
X138991386Y-55798109D01*
X138910957Y-55955957D01*
X138910956Y-55955960D01*
X138856214Y-56124443D01*
X138828500Y-56299421D01*
X127480000Y-56299421D01*
X127480000Y-55827172D01*
X127479999Y-55827155D01*
X127473598Y-55767627D01*
X127473596Y-55767620D01*
X127423354Y-55632913D01*
X127423350Y-55632906D01*
X127337190Y-55517812D01*
X127337187Y-55517809D01*
X127222093Y-55431649D01*
X127222086Y-55431645D01*
X127087379Y-55381403D01*
X127087372Y-55381401D01*
X127027844Y-55375000D01*
X126977943Y-55375000D01*
X126910904Y-55355315D01*
X126865149Y-55302511D01*
X126855205Y-55233353D01*
X126884230Y-55169797D01*
X126890262Y-55163319D01*
X127048911Y-55004670D01*
X127048914Y-55004665D01*
X127048919Y-55004661D01*
X127188611Y-54822612D01*
X127303344Y-54623888D01*
X127391158Y-54411887D01*
X127450548Y-54190238D01*
X127480500Y-53962734D01*
X127480500Y-53733266D01*
X127480499Y-53733258D01*
X143283500Y-53733258D01*
X143283500Y-53962741D01*
X143296824Y-54063939D01*
X143313452Y-54190238D01*
X143330791Y-54254948D01*
X143372842Y-54411887D01*
X143460650Y-54623876D01*
X143460657Y-54623890D01*
X143575392Y-54822617D01*
X143715081Y-55004661D01*
X143715089Y-55004670D01*
X143873738Y-55163319D01*
X143907223Y-55224642D01*
X143902239Y-55294334D01*
X143860367Y-55350267D01*
X143794903Y-55374684D01*
X143786057Y-55375000D01*
X143736155Y-55375000D01*
X143676627Y-55381401D01*
X143676620Y-55381403D01*
X143541913Y-55431645D01*
X143541906Y-55431649D01*
X143426812Y-55517809D01*
X143426809Y-55517812D01*
X143340649Y-55632906D01*
X143340645Y-55632913D01*
X143290403Y-55767620D01*
X143290401Y-55767627D01*
X143284000Y-55827155D01*
X143284000Y-56900000D01*
X146784000Y-56900000D01*
X146784000Y-55827172D01*
X146783999Y-55827155D01*
X146777598Y-55767627D01*
X146777596Y-55767620D01*
X146727354Y-55632913D01*
X146727350Y-55632906D01*
X146641190Y-55517812D01*
X146641187Y-55517809D01*
X146526093Y-55431649D01*
X146526086Y-55431645D01*
X146391379Y-55381403D01*
X146391372Y-55381401D01*
X146331844Y-55375000D01*
X146281943Y-55375000D01*
X146214904Y-55355315D01*
X146169149Y-55302511D01*
X146159205Y-55233353D01*
X146188230Y-55169797D01*
X146194262Y-55163319D01*
X146352911Y-55004670D01*
X146352914Y-55004665D01*
X146352919Y-55004661D01*
X146492611Y-54822612D01*
X146607344Y-54623888D01*
X146695158Y-54411887D01*
X146754548Y-54190238D01*
X146784500Y-53962734D01*
X146784500Y-53733266D01*
X146754548Y-53505762D01*
X146695158Y-53284113D01*
X146607344Y-53072112D01*
X146492611Y-52873388D01*
X146492608Y-52873385D01*
X146492607Y-52873382D01*
X146352918Y-52691338D01*
X146352911Y-52691330D01*
X146190670Y-52529089D01*
X146190661Y-52529081D01*
X146008617Y-52389392D01*
X145809890Y-52274657D01*
X145809876Y-52274650D01*
X145597887Y-52186842D01*
X145561984Y-52177222D01*
X145376238Y-52127452D01*
X145338215Y-52122446D01*
X145148741Y-52097500D01*
X145148734Y-52097500D01*
X144919266Y-52097500D01*
X144919258Y-52097500D01*
X144702715Y-52126009D01*
X144691762Y-52127452D01*
X144598076Y-52152554D01*
X144470112Y-52186842D01*
X144258123Y-52274650D01*
X144258109Y-52274657D01*
X144059382Y-52389392D01*
X143877338Y-52529081D01*
X143715081Y-52691338D01*
X143575392Y-52873382D01*
X143460657Y-53072109D01*
X143460650Y-53072123D01*
X143372842Y-53284112D01*
X143313453Y-53505759D01*
X143313451Y-53505770D01*
X143283500Y-53733258D01*
X127480499Y-53733258D01*
X127450548Y-53505762D01*
X127391158Y-53284113D01*
X127303344Y-53072112D01*
X127188611Y-52873388D01*
X127188608Y-52873385D01*
X127188607Y-52873382D01*
X127048918Y-52691338D01*
X127048911Y-52691330D01*
X126886670Y-52529089D01*
X126886661Y-52529081D01*
X126704617Y-52389392D01*
X126505890Y-52274657D01*
X126505876Y-52274650D01*
X126293887Y-52186842D01*
X126257984Y-52177222D01*
X126072238Y-52127452D01*
X126034215Y-52122446D01*
X125844741Y-52097500D01*
X125844734Y-52097500D01*
X125615266Y-52097500D01*
X125615258Y-52097500D01*
X125398715Y-52126009D01*
X125387762Y-52127452D01*
X125294076Y-52152554D01*
X125166112Y-52186842D01*
X124954123Y-52274650D01*
X124954109Y-52274657D01*
X124755382Y-52389392D01*
X124573338Y-52529081D01*
X124411081Y-52691338D01*
X124271392Y-52873382D01*
X124156657Y-53072109D01*
X124156650Y-53072123D01*
X124068842Y-53284112D01*
X124009453Y-53505759D01*
X124009451Y-53505770D01*
X123979500Y-53733258D01*
X108176499Y-53733258D01*
X108146548Y-53505762D01*
X108087158Y-53284113D01*
X107999344Y-53072112D01*
X107884611Y-52873388D01*
X107884608Y-52873385D01*
X107884607Y-52873382D01*
X107744918Y-52691338D01*
X107744911Y-52691330D01*
X107582670Y-52529089D01*
X107582661Y-52529081D01*
X107400617Y-52389392D01*
X107201890Y-52274657D01*
X107201876Y-52274650D01*
X106989887Y-52186842D01*
X106953984Y-52177222D01*
X106768238Y-52127452D01*
X106730215Y-52122446D01*
X106540741Y-52097500D01*
X106540734Y-52097500D01*
X106311266Y-52097500D01*
X106311258Y-52097500D01*
X106094715Y-52126009D01*
X106083762Y-52127452D01*
X105990076Y-52152554D01*
X105862112Y-52186842D01*
X105650123Y-52274650D01*
X105650109Y-52274657D01*
X105451382Y-52389392D01*
X105269338Y-52529081D01*
X105107081Y-52691338D01*
X104967392Y-52873382D01*
X104852657Y-53072109D01*
X104852650Y-53072123D01*
X104764842Y-53284112D01*
X104705453Y-53505759D01*
X104705451Y-53505770D01*
X104675500Y-53733258D01*
X88829433Y-53733258D01*
X88799482Y-53505762D01*
X88740092Y-53284113D01*
X88652278Y-53072112D01*
X88537545Y-52873388D01*
X88537542Y-52873385D01*
X88537541Y-52873382D01*
X88397852Y-52691338D01*
X88397845Y-52691330D01*
X88235604Y-52529089D01*
X88235595Y-52529081D01*
X88053551Y-52389392D01*
X87854824Y-52274657D01*
X87854810Y-52274650D01*
X87642821Y-52186842D01*
X87606918Y-52177222D01*
X87421172Y-52127452D01*
X87383149Y-52122446D01*
X87193675Y-52097500D01*
X87193668Y-52097500D01*
X86964200Y-52097500D01*
X86964192Y-52097500D01*
X86747649Y-52126009D01*
X86736696Y-52127452D01*
X86643010Y-52152554D01*
X86515046Y-52186842D01*
X86303057Y-52274650D01*
X86303043Y-52274657D01*
X86104316Y-52389392D01*
X85922272Y-52529081D01*
X85760015Y-52691338D01*
X85620326Y-52873382D01*
X85505591Y-53072109D01*
X85505584Y-53072123D01*
X85417776Y-53284112D01*
X85358387Y-53505759D01*
X85358385Y-53505770D01*
X85328434Y-53733258D01*
X78053365Y-53733258D01*
X78087235Y-53629018D01*
X78124170Y-53395822D01*
X78124170Y-52410418D01*
X78087235Y-52177222D01*
X78014275Y-51952674D01*
X78014273Y-51952671D01*
X78014273Y-51952669D01*
X77975386Y-51876350D01*
X77907086Y-51742304D01*
X77889356Y-51717901D01*
X77768313Y-51551298D01*
X77768309Y-51551293D01*
X77601356Y-51384340D01*
X77601351Y-51384336D01*
X77410349Y-51245566D01*
X77410348Y-51245565D01*
X77410346Y-51245564D01*
X77344651Y-51212090D01*
X77244186Y-51160900D01*
X79754534Y-51160900D01*
X79754534Y-51455099D01*
X79754535Y-51455116D01*
X79792935Y-51746796D01*
X79869086Y-52030994D01*
X79981668Y-52302794D01*
X79981676Y-52302810D01*
X80128774Y-52557589D01*
X80128785Y-52557605D01*
X80307882Y-52791009D01*
X80307888Y-52791016D01*
X80515917Y-52999045D01*
X80515924Y-52999051D01*
X80682139Y-53126592D01*
X80749337Y-53178155D01*
X80749344Y-53178159D01*
X81004123Y-53325257D01*
X81004139Y-53325265D01*
X81275939Y-53437847D01*
X81275941Y-53437847D01*
X81275947Y-53437850D01*
X81560134Y-53513998D01*
X81851828Y-53552400D01*
X81851835Y-53552400D01*
X82146033Y-53552400D01*
X82146040Y-53552400D01*
X82437734Y-53513998D01*
X82721921Y-53437850D01*
X82823389Y-53395821D01*
X82993728Y-53325265D01*
X82993731Y-53325263D01*
X82993737Y-53325261D01*
X83248531Y-53178155D01*
X83481945Y-52999050D01*
X83689984Y-52791011D01*
X83869089Y-52557597D01*
X84016195Y-52302803D01*
X84027854Y-52274657D01*
X84128781Y-52030994D01*
X84128780Y-52030994D01*
X84128784Y-52030987D01*
X84204932Y-51746800D01*
X84243334Y-51455106D01*
X84243334Y-51160900D01*
X99101600Y-51160900D01*
X99101600Y-51455099D01*
X99101601Y-51455116D01*
X99140001Y-51746796D01*
X99216152Y-52030994D01*
X99328734Y-52302794D01*
X99328742Y-52302810D01*
X99475840Y-52557589D01*
X99475851Y-52557605D01*
X99654948Y-52791009D01*
X99654954Y-52791016D01*
X99862983Y-52999045D01*
X99862990Y-52999051D01*
X100029205Y-53126592D01*
X100096403Y-53178155D01*
X100096410Y-53178159D01*
X100351189Y-53325257D01*
X100351205Y-53325265D01*
X100623005Y-53437847D01*
X100623007Y-53437847D01*
X100623013Y-53437850D01*
X100907200Y-53513998D01*
X101198894Y-53552400D01*
X101198901Y-53552400D01*
X101493099Y-53552400D01*
X101493106Y-53552400D01*
X101784800Y-53513998D01*
X102068987Y-53437850D01*
X102170455Y-53395821D01*
X102340794Y-53325265D01*
X102340797Y-53325263D01*
X102340803Y-53325261D01*
X102595597Y-53178155D01*
X102829011Y-52999050D01*
X103037050Y-52791011D01*
X103216155Y-52557597D01*
X103363261Y-52302803D01*
X103374920Y-52274657D01*
X103475847Y-52030994D01*
X103475846Y-52030994D01*
X103475850Y-52030987D01*
X103551998Y-51746800D01*
X103590400Y-51455106D01*
X103590400Y-51160900D01*
X118405600Y-51160900D01*
X118405600Y-51455099D01*
X118405601Y-51455116D01*
X118444001Y-51746796D01*
X118520152Y-52030994D01*
X118632734Y-52302794D01*
X118632742Y-52302810D01*
X118779840Y-52557589D01*
X118779851Y-52557605D01*
X118958948Y-52791009D01*
X118958954Y-52791016D01*
X119166983Y-52999045D01*
X119166990Y-52999051D01*
X119333205Y-53126592D01*
X119400403Y-53178155D01*
X119400410Y-53178159D01*
X119655189Y-53325257D01*
X119655205Y-53325265D01*
X119927005Y-53437847D01*
X119927007Y-53437847D01*
X119927013Y-53437850D01*
X120211200Y-53513998D01*
X120502894Y-53552400D01*
X120502901Y-53552400D01*
X120797099Y-53552400D01*
X120797106Y-53552400D01*
X121088800Y-53513998D01*
X121372987Y-53437850D01*
X121474455Y-53395821D01*
X121644794Y-53325265D01*
X121644797Y-53325263D01*
X121644803Y-53325261D01*
X121899597Y-53178155D01*
X122133011Y-52999050D01*
X122341050Y-52791011D01*
X122520155Y-52557597D01*
X122667261Y-52302803D01*
X122678920Y-52274657D01*
X122779847Y-52030994D01*
X122779846Y-52030994D01*
X122779850Y-52030987D01*
X122855998Y-51746800D01*
X122894400Y-51455106D01*
X122894400Y-51160900D01*
X137709600Y-51160900D01*
X137709600Y-51455099D01*
X137709601Y-51455116D01*
X137748001Y-51746796D01*
X137824152Y-52030994D01*
X137936734Y-52302794D01*
X137936742Y-52302810D01*
X138083840Y-52557589D01*
X138083851Y-52557605D01*
X138262948Y-52791009D01*
X138262954Y-52791016D01*
X138470983Y-52999045D01*
X138470990Y-52999051D01*
X138637205Y-53126592D01*
X138704403Y-53178155D01*
X138704410Y-53178159D01*
X138959189Y-53325257D01*
X138959205Y-53325265D01*
X139231005Y-53437847D01*
X139231007Y-53437847D01*
X139231013Y-53437850D01*
X139515200Y-53513998D01*
X139806894Y-53552400D01*
X139806901Y-53552400D01*
X140101099Y-53552400D01*
X140101106Y-53552400D01*
X140392800Y-53513998D01*
X140676987Y-53437850D01*
X140778455Y-53395821D01*
X140948794Y-53325265D01*
X140948797Y-53325263D01*
X140948803Y-53325261D01*
X141203597Y-53178155D01*
X141437011Y-52999050D01*
X141645050Y-52791011D01*
X141824155Y-52557597D01*
X141971261Y-52302803D01*
X141982920Y-52274657D01*
X142083847Y-52030994D01*
X142083846Y-52030994D01*
X142083850Y-52030987D01*
X142159998Y-51746800D01*
X142198400Y-51455106D01*
X142198400Y-51160894D01*
X142159998Y-50869200D01*
X142083850Y-50585013D01*
X142083847Y-50585005D01*
X141971265Y-50313205D01*
X141971257Y-50313189D01*
X141824159Y-50058410D01*
X141824155Y-50058403D01*
X141645050Y-49824989D01*
X141645045Y-49824983D01*
X141437016Y-49616954D01*
X141437009Y-49616948D01*
X141203605Y-49437851D01*
X141203603Y-49437849D01*
X141203597Y-49437845D01*
X141203592Y-49437842D01*
X141203589Y-49437840D01*
X140948810Y-49290742D01*
X140948794Y-49290734D01*
X140676994Y-49178152D01*
X140392796Y-49102001D01*
X140101116Y-49063601D01*
X140101111Y-49063600D01*
X140101106Y-49063600D01*
X139806894Y-49063600D01*
X139806888Y-49063600D01*
X139806883Y-49063601D01*
X139515203Y-49102001D01*
X139231005Y-49178152D01*
X138959205Y-49290734D01*
X138959189Y-49290742D01*
X138704410Y-49437840D01*
X138704394Y-49437851D01*
X138470990Y-49616948D01*
X138470983Y-49616954D01*
X138262954Y-49824983D01*
X138262948Y-49824990D01*
X138083851Y-50058394D01*
X138083840Y-50058410D01*
X137936742Y-50313189D01*
X137936734Y-50313205D01*
X137824152Y-50585005D01*
X137748001Y-50869203D01*
X137709601Y-51160883D01*
X137709600Y-51160900D01*
X122894400Y-51160900D01*
X122894400Y-51160894D01*
X122855998Y-50869200D01*
X122779850Y-50585013D01*
X122779847Y-50585005D01*
X122667265Y-50313205D01*
X122667257Y-50313189D01*
X122520159Y-50058410D01*
X122520155Y-50058403D01*
X122341050Y-49824989D01*
X122341045Y-49824983D01*
X122133016Y-49616954D01*
X122133009Y-49616948D01*
X121899605Y-49437851D01*
X121899603Y-49437849D01*
X121899597Y-49437845D01*
X121899592Y-49437842D01*
X121899589Y-49437840D01*
X121644810Y-49290742D01*
X121644794Y-49290734D01*
X121372994Y-49178152D01*
X121088796Y-49102001D01*
X120797116Y-49063601D01*
X120797111Y-49063600D01*
X120797106Y-49063600D01*
X120502894Y-49063600D01*
X120502888Y-49063600D01*
X120502883Y-49063601D01*
X120211203Y-49102001D01*
X119927005Y-49178152D01*
X119655205Y-49290734D01*
X119655189Y-49290742D01*
X119400410Y-49437840D01*
X119400394Y-49437851D01*
X119166990Y-49616948D01*
X119166983Y-49616954D01*
X118958954Y-49824983D01*
X118958948Y-49824990D01*
X118779851Y-50058394D01*
X118779840Y-50058410D01*
X118632742Y-50313189D01*
X118632734Y-50313205D01*
X118520152Y-50585005D01*
X118444001Y-50869203D01*
X118405601Y-51160883D01*
X118405600Y-51160900D01*
X103590400Y-51160900D01*
X103590400Y-51160894D01*
X103551998Y-50869200D01*
X103475850Y-50585013D01*
X103475847Y-50585005D01*
X103363265Y-50313205D01*
X103363257Y-50313189D01*
X103216159Y-50058410D01*
X103216155Y-50058403D01*
X103037050Y-49824989D01*
X103037045Y-49824983D01*
X102829016Y-49616954D01*
X102829009Y-49616948D01*
X102595605Y-49437851D01*
X102595603Y-49437849D01*
X102595597Y-49437845D01*
X102595592Y-49437842D01*
X102595589Y-49437840D01*
X102340810Y-49290742D01*
X102340794Y-49290734D01*
X102068994Y-49178152D01*
X101784796Y-49102001D01*
X101493116Y-49063601D01*
X101493111Y-49063600D01*
X101493106Y-49063600D01*
X101198894Y-49063600D01*
X101198888Y-49063600D01*
X101198883Y-49063601D01*
X100907203Y-49102001D01*
X100623005Y-49178152D01*
X100351205Y-49290734D01*
X100351189Y-49290742D01*
X100096410Y-49437840D01*
X100096394Y-49437851D01*
X99862990Y-49616948D01*
X99862983Y-49616954D01*
X99654954Y-49824983D01*
X99654948Y-49824990D01*
X99475851Y-50058394D01*
X99475840Y-50058410D01*
X99328742Y-50313189D01*
X99328734Y-50313205D01*
X99216152Y-50585005D01*
X99140001Y-50869203D01*
X99101601Y-51160883D01*
X99101600Y-51160900D01*
X84243334Y-51160900D01*
X84243334Y-51160894D01*
X84204932Y-50869200D01*
X84128784Y-50585013D01*
X84128781Y-50585005D01*
X84016199Y-50313205D01*
X84016191Y-50313189D01*
X83869093Y-50058410D01*
X83869089Y-50058403D01*
X83689984Y-49824989D01*
X83689979Y-49824983D01*
X83481950Y-49616954D01*
X83481943Y-49616948D01*
X83248539Y-49437851D01*
X83248537Y-49437849D01*
X83248531Y-49437845D01*
X83248526Y-49437842D01*
X83248523Y-49437840D01*
X82993744Y-49290742D01*
X82993728Y-49290734D01*
X82721928Y-49178152D01*
X82437730Y-49102001D01*
X82146050Y-49063601D01*
X82146045Y-49063600D01*
X82146040Y-49063600D01*
X81851828Y-49063600D01*
X81851822Y-49063600D01*
X81851817Y-49063601D01*
X81560137Y-49102001D01*
X81275939Y-49178152D01*
X81004139Y-49290734D01*
X81004123Y-49290742D01*
X80749344Y-49437840D01*
X80749328Y-49437851D01*
X80515924Y-49616948D01*
X80515917Y-49616954D01*
X80307888Y-49824983D01*
X80307882Y-49824990D01*
X80128785Y-50058394D01*
X80128774Y-50058410D01*
X79981676Y-50313189D01*
X79981668Y-50313205D01*
X79869086Y-50585005D01*
X79792935Y-50869203D01*
X79754535Y-51160883D01*
X79754534Y-51160900D01*
X77244186Y-51160900D01*
X77199980Y-51138376D01*
X76975428Y-51065415D01*
X76742232Y-51028480D01*
X76506128Y-51028480D01*
X76389530Y-51046947D01*
X76272931Y-51065415D01*
X76048379Y-51138376D01*
X75838010Y-51245566D01*
X75647008Y-51384336D01*
X75647003Y-51384340D01*
X75480054Y-51551289D01*
X75480049Y-51551295D01*
X75454498Y-51586464D01*
X75399168Y-51629130D01*
X75329555Y-51635109D01*
X75267760Y-51602503D01*
X75253862Y-51586464D01*
X75228310Y-51551295D01*
X75228308Y-51551292D01*
X75061358Y-51384342D01*
X75061356Y-51384340D01*
X75061351Y-51384336D01*
X74870349Y-51245566D01*
X74870348Y-51245565D01*
X74870346Y-51245564D01*
X74804651Y-51212090D01*
X74659980Y-51138376D01*
X74435428Y-51065415D01*
X74202232Y-51028480D01*
X73966128Y-51028480D01*
X73849530Y-51046947D01*
X73732931Y-51065415D01*
X73508379Y-51138376D01*
X73298010Y-51245566D01*
X73107008Y-51384336D01*
X73107003Y-51384340D01*
X72940054Y-51551289D01*
X72940049Y-51551295D01*
X72914498Y-51586464D01*
X72859168Y-51629130D01*
X72789555Y-51635109D01*
X72727760Y-51602503D01*
X72713862Y-51586464D01*
X72688310Y-51551295D01*
X72688308Y-51551292D01*
X72521358Y-51384342D01*
X72521356Y-51384340D01*
X72521351Y-51384336D01*
X72330349Y-51245566D01*
X72330348Y-51245565D01*
X72330346Y-51245564D01*
X72264651Y-51212090D01*
X72119980Y-51138376D01*
X71895428Y-51065415D01*
X71662232Y-51028480D01*
X71426128Y-51028480D01*
X71309530Y-51046947D01*
X71192931Y-51065415D01*
X70968379Y-51138376D01*
X70758010Y-51245566D01*
X70567008Y-51384336D01*
X70567003Y-51384340D01*
X70400054Y-51551289D01*
X70400049Y-51551295D01*
X70374498Y-51586464D01*
X70319168Y-51629130D01*
X70249555Y-51635109D01*
X70187760Y-51602503D01*
X70173862Y-51586464D01*
X70148310Y-51551295D01*
X70148308Y-51551292D01*
X69981358Y-51384342D01*
X69981356Y-51384340D01*
X69856861Y-51293889D01*
X69814196Y-51238559D01*
X69808217Y-51168946D01*
X69812706Y-51152616D01*
X69817690Y-51138375D01*
X69843219Y-51065415D01*
X69873366Y-50979262D01*
X69873369Y-50979249D01*
X69893565Y-50800003D01*
X69893565Y-50799996D01*
X69873369Y-50620750D01*
X69873368Y-50620745D01*
X69813788Y-50450476D01*
X69774582Y-50388080D01*
X69717816Y-50297738D01*
X69590262Y-50170184D01*
X69437523Y-50074211D01*
X69267254Y-50014631D01*
X69267249Y-50014630D01*
X69088004Y-49994435D01*
X69087996Y-49994435D01*
X68908750Y-50014630D01*
X68908745Y-50014631D01*
X68738476Y-50074211D01*
X68585737Y-50170184D01*
X68458184Y-50297737D01*
X68362211Y-50450476D01*
X68302631Y-50620745D01*
X68302630Y-50620750D01*
X68282435Y-50799996D01*
X68282435Y-50800003D01*
X68302630Y-50979249D01*
X68302632Y-50979257D01*
X68333132Y-51066421D01*
X68336693Y-51136200D01*
X68301964Y-51196827D01*
X68272386Y-51217859D01*
X68218012Y-51245564D01*
X68027008Y-51384336D01*
X68027003Y-51384340D01*
X67860054Y-51551289D01*
X67860049Y-51551295D01*
X67834498Y-51586464D01*
X67779168Y-51629130D01*
X67709555Y-51635109D01*
X67647760Y-51602503D01*
X67633862Y-51586464D01*
X67608310Y-51551295D01*
X67608308Y-51551292D01*
X67441358Y-51384342D01*
X67441356Y-51384340D01*
X67316861Y-51293889D01*
X67274196Y-51238559D01*
X67268217Y-51168946D01*
X67272706Y-51152616D01*
X67277690Y-51138375D01*
X67303219Y-51065415D01*
X67333366Y-50979262D01*
X67333369Y-50979249D01*
X67353565Y-50800003D01*
X67353565Y-50799996D01*
X67333369Y-50620750D01*
X67333368Y-50620745D01*
X67273788Y-50450476D01*
X67234582Y-50388080D01*
X67177816Y-50297738D01*
X67050262Y-50170184D01*
X66897523Y-50074211D01*
X66727254Y-50014631D01*
X66727249Y-50014630D01*
X66548004Y-49994435D01*
X66547996Y-49994435D01*
X66368750Y-50014630D01*
X66368745Y-50014631D01*
X66198476Y-50074211D01*
X66045737Y-50170184D01*
X65918184Y-50297737D01*
X65822211Y-50450476D01*
X65762631Y-50620745D01*
X65762630Y-50620750D01*
X65742435Y-50799996D01*
X65742435Y-50800003D01*
X65762630Y-50979249D01*
X65762632Y-50979257D01*
X65793132Y-51066421D01*
X65796693Y-51136200D01*
X65761964Y-51196827D01*
X65732386Y-51217859D01*
X65678012Y-51245564D01*
X65487008Y-51384336D01*
X65487003Y-51384340D01*
X65320054Y-51551289D01*
X65320049Y-51551295D01*
X65294498Y-51586464D01*
X65239168Y-51629130D01*
X65169555Y-51635109D01*
X65107760Y-51602503D01*
X65093862Y-51586464D01*
X65068310Y-51551295D01*
X65068308Y-51551292D01*
X64901358Y-51384342D01*
X64901356Y-51384340D01*
X64776861Y-51293889D01*
X64734196Y-51238559D01*
X64728217Y-51168946D01*
X64732706Y-51152616D01*
X64737690Y-51138375D01*
X64763219Y-51065415D01*
X64793366Y-50979262D01*
X64793369Y-50979249D01*
X64813565Y-50800003D01*
X64813565Y-50799996D01*
X64793369Y-50620750D01*
X64793368Y-50620745D01*
X64733788Y-50450476D01*
X64694582Y-50388080D01*
X64637816Y-50297738D01*
X64510262Y-50170184D01*
X64357523Y-50074211D01*
X64187254Y-50014631D01*
X64187249Y-50014630D01*
X64008004Y-49994435D01*
X64007996Y-49994435D01*
X63828750Y-50014630D01*
X63828745Y-50014631D01*
X63658476Y-50074211D01*
X63505737Y-50170184D01*
X63378184Y-50297737D01*
X63282211Y-50450476D01*
X63222631Y-50620745D01*
X63222630Y-50620750D01*
X63202435Y-50799996D01*
X63202435Y-50800003D01*
X63222630Y-50979249D01*
X63222632Y-50979257D01*
X63253132Y-51066421D01*
X63256693Y-51136200D01*
X63221964Y-51196827D01*
X63192386Y-51217859D01*
X63138012Y-51245564D01*
X62947008Y-51384336D01*
X62947003Y-51384340D01*
X62780054Y-51551289D01*
X62780049Y-51551295D01*
X62754498Y-51586464D01*
X62699168Y-51629130D01*
X62629555Y-51635109D01*
X62567760Y-51602503D01*
X62553862Y-51586464D01*
X62528310Y-51551295D01*
X62528308Y-51551292D01*
X62361358Y-51384342D01*
X62361356Y-51384340D01*
X62236861Y-51293889D01*
X62194196Y-51238559D01*
X62188217Y-51168946D01*
X62192706Y-51152616D01*
X62197690Y-51138375D01*
X62223219Y-51065415D01*
X62253366Y-50979262D01*
X62253369Y-50979249D01*
X62273565Y-50800003D01*
X62273565Y-50799996D01*
X62253369Y-50620750D01*
X62253368Y-50620745D01*
X62193788Y-50450476D01*
X62154582Y-50388080D01*
X62097816Y-50297738D01*
X61970262Y-50170184D01*
X61817523Y-50074211D01*
X61647254Y-50014631D01*
X61647249Y-50014630D01*
X61468004Y-49994435D01*
X61467996Y-49994435D01*
X61288750Y-50014630D01*
X61288745Y-50014631D01*
X61118476Y-50074211D01*
X60965737Y-50170184D01*
X60838184Y-50297737D01*
X60742211Y-50450476D01*
X60682631Y-50620745D01*
X60682630Y-50620750D01*
X60662435Y-50799996D01*
X60662435Y-50800003D01*
X60682630Y-50979249D01*
X60682632Y-50979257D01*
X60713132Y-51066421D01*
X60716693Y-51136200D01*
X60681964Y-51196827D01*
X60652386Y-51217859D01*
X60598012Y-51245564D01*
X60407008Y-51384336D01*
X60407003Y-51384340D01*
X60240050Y-51551293D01*
X60240046Y-51551298D01*
X60101276Y-51742300D01*
X59994086Y-51952669D01*
X59937296Y-52127452D01*
X59921125Y-52177222D01*
X59884190Y-52410418D01*
X58483500Y-52410418D01*
X58483500Y-46139421D01*
X80873434Y-46139421D01*
X80873434Y-46316578D01*
X80901148Y-46491556D01*
X80955890Y-46660039D01*
X80955891Y-46660042D01*
X81036320Y-46817890D01*
X81140451Y-46961214D01*
X81265720Y-47086483D01*
X81409044Y-47190614D01*
X81486463Y-47230061D01*
X81566891Y-47271042D01*
X81566894Y-47271043D01*
X81651135Y-47298414D01*
X81735379Y-47325786D01*
X81910355Y-47353500D01*
X81910356Y-47353500D01*
X82087512Y-47353500D01*
X82087513Y-47353500D01*
X82262489Y-47325786D01*
X82430976Y-47271042D01*
X82588824Y-47190614D01*
X82604095Y-47179518D01*
X82669898Y-47156038D01*
X82737952Y-47171862D01*
X82786649Y-47221966D01*
X82800526Y-47290443D01*
X82799920Y-47296022D01*
X82788434Y-47383258D01*
X82788434Y-47612741D01*
X82813380Y-47802215D01*
X82818386Y-47840238D01*
X82818387Y-47840240D01*
X82877776Y-48061887D01*
X82965584Y-48273876D01*
X82965591Y-48273890D01*
X83080326Y-48472617D01*
X83220015Y-48654661D01*
X83220023Y-48654670D01*
X83382264Y-48816911D01*
X83382272Y-48816918D01*
X83564316Y-48956607D01*
X83564319Y-48956608D01*
X83564322Y-48956611D01*
X83763046Y-49071344D01*
X83763051Y-49071346D01*
X83763057Y-49071349D01*
X83854414Y-49109190D01*
X83975047Y-49159158D01*
X84196696Y-49218548D01*
X84424200Y-49248500D01*
X84424207Y-49248500D01*
X84653661Y-49248500D01*
X84653668Y-49248500D01*
X84881172Y-49218548D01*
X85102821Y-49159158D01*
X85314822Y-49071344D01*
X85513546Y-48956611D01*
X85695595Y-48816919D01*
X85695599Y-48816914D01*
X85695604Y-48816911D01*
X85857845Y-48654670D01*
X85857848Y-48654665D01*
X85857853Y-48654661D01*
X85997545Y-48472612D01*
X86112278Y-48273888D01*
X86200092Y-48061887D01*
X86259482Y-47840238D01*
X86289434Y-47612734D01*
X86289434Y-47383266D01*
X86259482Y-47155762D01*
X86200092Y-46934113D01*
X86112278Y-46722112D01*
X85997545Y-46523388D01*
X85997542Y-46523385D01*
X85997541Y-46523382D01*
X85857852Y-46341338D01*
X85857845Y-46341330D01*
X85726695Y-46210180D01*
X85693210Y-46148857D01*
X85693885Y-46139421D01*
X100220500Y-46139421D01*
X100220500Y-46316578D01*
X100248214Y-46491556D01*
X100302956Y-46660039D01*
X100302957Y-46660042D01*
X100383386Y-46817890D01*
X100487517Y-46961214D01*
X100612786Y-47086483D01*
X100756110Y-47190614D01*
X100833529Y-47230061D01*
X100913957Y-47271042D01*
X100913960Y-47271043D01*
X100998201Y-47298414D01*
X101082445Y-47325786D01*
X101257421Y-47353500D01*
X101257422Y-47353500D01*
X101434578Y-47353500D01*
X101434579Y-47353500D01*
X101609555Y-47325786D01*
X101778042Y-47271042D01*
X101935890Y-47190614D01*
X101951161Y-47179518D01*
X102016964Y-47156038D01*
X102085018Y-47171862D01*
X102133715Y-47221966D01*
X102147592Y-47290443D01*
X102146986Y-47296022D01*
X102135500Y-47383258D01*
X102135500Y-47612741D01*
X102160446Y-47802215D01*
X102165452Y-47840238D01*
X102165453Y-47840240D01*
X102224842Y-48061887D01*
X102312650Y-48273876D01*
X102312657Y-48273890D01*
X102427392Y-48472617D01*
X102567081Y-48654661D01*
X102567089Y-48654670D01*
X102729330Y-48816911D01*
X102729338Y-48816918D01*
X102911382Y-48956607D01*
X102911385Y-48956608D01*
X102911388Y-48956611D01*
X103110112Y-49071344D01*
X103110117Y-49071346D01*
X103110123Y-49071349D01*
X103201480Y-49109190D01*
X103322113Y-49159158D01*
X103543762Y-49218548D01*
X103771266Y-49248500D01*
X103771273Y-49248500D01*
X104000727Y-49248500D01*
X104000734Y-49248500D01*
X104228238Y-49218548D01*
X104449887Y-49159158D01*
X104661888Y-49071344D01*
X104860612Y-48956611D01*
X105042661Y-48816919D01*
X105042665Y-48816914D01*
X105042670Y-48816911D01*
X105204911Y-48654670D01*
X105204914Y-48654665D01*
X105204919Y-48654661D01*
X105344611Y-48472612D01*
X105459344Y-48273888D01*
X105547158Y-48061887D01*
X105606548Y-47840238D01*
X105636500Y-47612734D01*
X105636500Y-47383266D01*
X105606548Y-47155762D01*
X105547158Y-46934113D01*
X105459344Y-46722112D01*
X105344611Y-46523388D01*
X105344608Y-46523385D01*
X105344607Y-46523382D01*
X105204918Y-46341338D01*
X105204911Y-46341330D01*
X105073761Y-46210180D01*
X105040276Y-46148857D01*
X105040951Y-46139421D01*
X119524500Y-46139421D01*
X119524500Y-46316578D01*
X119552214Y-46491556D01*
X119606956Y-46660039D01*
X119606957Y-46660042D01*
X119687386Y-46817890D01*
X119791517Y-46961214D01*
X119916786Y-47086483D01*
X120060110Y-47190614D01*
X120137529Y-47230061D01*
X120217957Y-47271042D01*
X120217960Y-47271043D01*
X120302201Y-47298414D01*
X120386445Y-47325786D01*
X120561421Y-47353500D01*
X120561422Y-47353500D01*
X120738578Y-47353500D01*
X120738579Y-47353500D01*
X120913555Y-47325786D01*
X121082042Y-47271042D01*
X121239890Y-47190614D01*
X121255161Y-47179518D01*
X121320964Y-47156038D01*
X121389018Y-47171862D01*
X121437715Y-47221966D01*
X121451592Y-47290443D01*
X121450986Y-47296022D01*
X121439500Y-47383258D01*
X121439500Y-47612741D01*
X121464446Y-47802215D01*
X121469452Y-47840238D01*
X121469453Y-47840240D01*
X121528842Y-48061887D01*
X121616650Y-48273876D01*
X121616657Y-48273890D01*
X121731392Y-48472617D01*
X121871081Y-48654661D01*
X121871089Y-48654670D01*
X122033330Y-48816911D01*
X122033338Y-48816918D01*
X122215382Y-48956607D01*
X122215385Y-48956608D01*
X122215388Y-48956611D01*
X122414112Y-49071344D01*
X122414117Y-49071346D01*
X122414123Y-49071349D01*
X122505480Y-49109190D01*
X122626113Y-49159158D01*
X122847762Y-49218548D01*
X123075266Y-49248500D01*
X123075273Y-49248500D01*
X123304727Y-49248500D01*
X123304734Y-49248500D01*
X123532238Y-49218548D01*
X123753887Y-49159158D01*
X123965888Y-49071344D01*
X124164612Y-48956611D01*
X124346661Y-48816919D01*
X124346665Y-48816914D01*
X124346670Y-48816911D01*
X124508911Y-48654670D01*
X124508914Y-48654665D01*
X124508919Y-48654661D01*
X124648611Y-48472612D01*
X124763344Y-48273888D01*
X124851158Y-48061887D01*
X124910548Y-47840238D01*
X124940500Y-47612734D01*
X124940500Y-47383266D01*
X124910548Y-47155762D01*
X124851158Y-46934113D01*
X124763344Y-46722112D01*
X124648611Y-46523388D01*
X124648608Y-46523385D01*
X124648607Y-46523382D01*
X124508918Y-46341338D01*
X124508911Y-46341330D01*
X124377761Y-46210180D01*
X124344276Y-46148857D01*
X124344951Y-46139421D01*
X138828500Y-46139421D01*
X138828500Y-46316578D01*
X138856214Y-46491556D01*
X138910956Y-46660039D01*
X138910957Y-46660042D01*
X138991386Y-46817890D01*
X139095517Y-46961214D01*
X139220786Y-47086483D01*
X139364110Y-47190614D01*
X139441529Y-47230061D01*
X139521957Y-47271042D01*
X139521960Y-47271043D01*
X139606201Y-47298414D01*
X139690445Y-47325786D01*
X139865421Y-47353500D01*
X139865422Y-47353500D01*
X140042578Y-47353500D01*
X140042579Y-47353500D01*
X140217555Y-47325786D01*
X140386042Y-47271042D01*
X140543890Y-47190614D01*
X140559161Y-47179518D01*
X140624964Y-47156038D01*
X140693018Y-47171862D01*
X140741715Y-47221966D01*
X140755592Y-47290443D01*
X140754986Y-47296022D01*
X140743500Y-47383258D01*
X140743500Y-47612741D01*
X140768446Y-47802215D01*
X140773452Y-47840238D01*
X140773453Y-47840240D01*
X140832842Y-48061887D01*
X140920650Y-48273876D01*
X140920657Y-48273890D01*
X141035392Y-48472617D01*
X141175081Y-48654661D01*
X141175089Y-48654670D01*
X141337330Y-48816911D01*
X141337338Y-48816918D01*
X141519382Y-48956607D01*
X141519385Y-48956608D01*
X141519388Y-48956611D01*
X141718112Y-49071344D01*
X141718117Y-49071346D01*
X141718123Y-49071349D01*
X141809480Y-49109190D01*
X141930113Y-49159158D01*
X142151762Y-49218548D01*
X142379266Y-49248500D01*
X142379273Y-49248500D01*
X142608727Y-49248500D01*
X142608734Y-49248500D01*
X142836238Y-49218548D01*
X143057887Y-49159158D01*
X143269888Y-49071344D01*
X143468612Y-48956611D01*
X143650661Y-48816919D01*
X143650665Y-48816914D01*
X143650670Y-48816911D01*
X143812911Y-48654670D01*
X143812914Y-48654665D01*
X143812919Y-48654661D01*
X143952611Y-48472612D01*
X144067344Y-48273888D01*
X144155158Y-48061887D01*
X144214548Y-47840238D01*
X144244500Y-47612734D01*
X144244500Y-47383266D01*
X144214548Y-47155762D01*
X144155158Y-46934113D01*
X144067344Y-46722112D01*
X143952611Y-46523388D01*
X143952608Y-46523385D01*
X143952607Y-46523382D01*
X143812918Y-46341338D01*
X143812911Y-46341330D01*
X143681761Y-46210180D01*
X143648276Y-46148857D01*
X143653260Y-46079165D01*
X143695132Y-46023232D01*
X143760596Y-45998815D01*
X143769442Y-45998499D01*
X143791871Y-45998499D01*
X143791872Y-45998499D01*
X143851483Y-45992091D01*
X143986331Y-45941796D01*
X144101546Y-45855546D01*
X144187796Y-45740331D01*
X144238091Y-45605483D01*
X144244500Y-45545873D01*
X144244499Y-42900128D01*
X144238091Y-42840517D01*
X144187796Y-42705669D01*
X144187795Y-42705668D01*
X144187793Y-42705664D01*
X144101547Y-42590455D01*
X144101544Y-42590452D01*
X143986335Y-42504206D01*
X143986328Y-42504202D01*
X143851482Y-42453908D01*
X143851483Y-42453908D01*
X143791883Y-42447501D01*
X143791881Y-42447500D01*
X143791873Y-42447500D01*
X143791864Y-42447500D01*
X141196129Y-42447500D01*
X141196123Y-42447501D01*
X141136516Y-42453908D01*
X141001671Y-42504202D01*
X141001664Y-42504206D01*
X140886455Y-42590452D01*
X140886452Y-42590455D01*
X140800206Y-42705664D01*
X140800202Y-42705671D01*
X140749908Y-42840517D01*
X140743501Y-42900116D01*
X140743501Y-42900123D01*
X140743500Y-42900135D01*
X140743500Y-43316086D01*
X140723815Y-43383125D01*
X140671011Y-43428880D01*
X140601853Y-43438824D01*
X140578545Y-43433128D01*
X140514254Y-43410631D01*
X140514249Y-43410630D01*
X140335004Y-43390435D01*
X140334996Y-43390435D01*
X140155750Y-43410630D01*
X140155745Y-43410631D01*
X139985476Y-43470211D01*
X139832737Y-43566184D01*
X139705184Y-43693737D01*
X139609211Y-43846476D01*
X139549631Y-44016745D01*
X139549630Y-44016750D01*
X139529435Y-44195996D01*
X139529435Y-44196003D01*
X139549630Y-44375249D01*
X139549631Y-44375254D01*
X139609211Y-44545523D01*
X139705184Y-44698262D01*
X139832738Y-44825816D01*
X139911253Y-44875150D01*
X139957544Y-44927485D01*
X139968192Y-44996538D01*
X139939817Y-45060387D01*
X139881428Y-45098759D01*
X139864679Y-45102617D01*
X139690443Y-45130213D01*
X139521960Y-45184956D01*
X139521957Y-45184957D01*
X139364109Y-45265386D01*
X139282338Y-45324796D01*
X139220786Y-45369517D01*
X139220784Y-45369519D01*
X139220783Y-45369519D01*
X139095519Y-45494783D01*
X139095519Y-45494784D01*
X139095517Y-45494786D01*
X139058407Y-45545864D01*
X138991386Y-45638109D01*
X138910957Y-45795957D01*
X138910956Y-45795960D01*
X138856214Y-45964443D01*
X138828500Y-46139421D01*
X124344951Y-46139421D01*
X124349260Y-46079165D01*
X124391132Y-46023232D01*
X124456596Y-45998815D01*
X124465442Y-45998499D01*
X124487871Y-45998499D01*
X124487872Y-45998499D01*
X124547483Y-45992091D01*
X124682331Y-45941796D01*
X124797546Y-45855546D01*
X124883796Y-45740331D01*
X124934091Y-45605483D01*
X124940500Y-45545873D01*
X124940499Y-42900128D01*
X124934091Y-42840517D01*
X124883796Y-42705669D01*
X124883795Y-42705668D01*
X124883793Y-42705664D01*
X124797547Y-42590455D01*
X124797544Y-42590452D01*
X124682335Y-42504206D01*
X124682328Y-42504202D01*
X124547482Y-42453908D01*
X124547483Y-42453908D01*
X124487883Y-42447501D01*
X124487881Y-42447500D01*
X124487873Y-42447500D01*
X124487864Y-42447500D01*
X121892129Y-42447500D01*
X121892123Y-42447501D01*
X121832516Y-42453908D01*
X121697671Y-42504202D01*
X121697664Y-42504206D01*
X121582455Y-42590452D01*
X121582452Y-42590455D01*
X121496206Y-42705664D01*
X121496202Y-42705671D01*
X121445908Y-42840517D01*
X121439501Y-42900116D01*
X121439501Y-42900123D01*
X121439500Y-42900135D01*
X121439500Y-43316086D01*
X121419815Y-43383125D01*
X121367011Y-43428880D01*
X121297853Y-43438824D01*
X121274545Y-43433128D01*
X121210254Y-43410631D01*
X121210249Y-43410630D01*
X121031004Y-43390435D01*
X121030996Y-43390435D01*
X120851750Y-43410630D01*
X120851745Y-43410631D01*
X120681476Y-43470211D01*
X120528737Y-43566184D01*
X120401184Y-43693737D01*
X120305211Y-43846476D01*
X120245631Y-44016745D01*
X120245630Y-44016750D01*
X120225435Y-44195996D01*
X120225435Y-44196003D01*
X120245630Y-44375249D01*
X120245631Y-44375254D01*
X120305211Y-44545523D01*
X120401184Y-44698262D01*
X120528738Y-44825816D01*
X120607253Y-44875150D01*
X120653544Y-44927485D01*
X120664192Y-44996538D01*
X120635817Y-45060387D01*
X120577428Y-45098759D01*
X120560679Y-45102617D01*
X120386443Y-45130213D01*
X120217960Y-45184956D01*
X120217957Y-45184957D01*
X120060109Y-45265386D01*
X119978338Y-45324796D01*
X119916786Y-45369517D01*
X119916784Y-45369519D01*
X119916783Y-45369519D01*
X119791519Y-45494783D01*
X119791519Y-45494784D01*
X119791517Y-45494786D01*
X119754407Y-45545864D01*
X119687386Y-45638109D01*
X119606957Y-45795957D01*
X119606956Y-45795960D01*
X119552214Y-45964443D01*
X119524500Y-46139421D01*
X105040951Y-46139421D01*
X105045260Y-46079165D01*
X105087132Y-46023232D01*
X105152596Y-45998815D01*
X105161442Y-45998499D01*
X105183871Y-45998499D01*
X105183872Y-45998499D01*
X105243483Y-45992091D01*
X105378331Y-45941796D01*
X105493546Y-45855546D01*
X105579796Y-45740331D01*
X105630091Y-45605483D01*
X105636500Y-45545873D01*
X105636499Y-42900128D01*
X105630091Y-42840517D01*
X105579796Y-42705669D01*
X105579795Y-42705668D01*
X105579793Y-42705664D01*
X105493547Y-42590455D01*
X105493544Y-42590452D01*
X105378335Y-42504206D01*
X105378328Y-42504202D01*
X105243482Y-42453908D01*
X105243483Y-42453908D01*
X105183883Y-42447501D01*
X105183881Y-42447500D01*
X105183873Y-42447500D01*
X105183864Y-42447500D01*
X102588129Y-42447500D01*
X102588123Y-42447501D01*
X102528516Y-42453908D01*
X102393671Y-42504202D01*
X102393664Y-42504206D01*
X102278455Y-42590452D01*
X102278452Y-42590455D01*
X102192206Y-42705664D01*
X102192202Y-42705671D01*
X102141908Y-42840517D01*
X102135501Y-42900116D01*
X102135501Y-42900123D01*
X102135500Y-42900135D01*
X102135500Y-43316086D01*
X102115815Y-43383125D01*
X102063011Y-43428880D01*
X101993853Y-43438824D01*
X101970545Y-43433128D01*
X101906254Y-43410631D01*
X101906249Y-43410630D01*
X101727004Y-43390435D01*
X101726996Y-43390435D01*
X101547750Y-43410630D01*
X101547745Y-43410631D01*
X101377476Y-43470211D01*
X101224737Y-43566184D01*
X101097184Y-43693737D01*
X101001211Y-43846476D01*
X100941631Y-44016745D01*
X100941630Y-44016750D01*
X100921435Y-44195996D01*
X100921435Y-44196003D01*
X100941630Y-44375249D01*
X100941631Y-44375254D01*
X101001211Y-44545523D01*
X101097184Y-44698262D01*
X101224738Y-44825816D01*
X101303253Y-44875150D01*
X101349544Y-44927485D01*
X101360192Y-44996538D01*
X101331817Y-45060387D01*
X101273428Y-45098759D01*
X101256679Y-45102617D01*
X101082443Y-45130213D01*
X100913960Y-45184956D01*
X100913957Y-45184957D01*
X100756109Y-45265386D01*
X100674338Y-45324796D01*
X100612786Y-45369517D01*
X100612784Y-45369519D01*
X100612783Y-45369519D01*
X100487519Y-45494783D01*
X100487519Y-45494784D01*
X100487517Y-45494786D01*
X100450407Y-45545864D01*
X100383386Y-45638109D01*
X100302957Y-45795957D01*
X100302956Y-45795960D01*
X100248214Y-45964443D01*
X100220500Y-46139421D01*
X85693885Y-46139421D01*
X85698194Y-46079165D01*
X85740066Y-46023232D01*
X85805530Y-45998815D01*
X85814376Y-45998499D01*
X85836805Y-45998499D01*
X85836806Y-45998499D01*
X85896417Y-45992091D01*
X86031265Y-45941796D01*
X86146480Y-45855546D01*
X86232730Y-45740331D01*
X86283025Y-45605483D01*
X86289434Y-45545873D01*
X86289433Y-42900128D01*
X86283025Y-42840517D01*
X86232730Y-42705669D01*
X86232729Y-42705668D01*
X86232727Y-42705664D01*
X86146481Y-42590455D01*
X86146478Y-42590452D01*
X86031269Y-42504206D01*
X86031262Y-42504202D01*
X85896416Y-42453908D01*
X85896417Y-42453908D01*
X85836817Y-42447501D01*
X85836815Y-42447500D01*
X85836807Y-42447500D01*
X85836798Y-42447500D01*
X83241063Y-42447500D01*
X83241057Y-42447501D01*
X83181450Y-42453908D01*
X83046605Y-42504202D01*
X83046598Y-42504206D01*
X82931389Y-42590452D01*
X82931386Y-42590455D01*
X82845140Y-42705664D01*
X82845136Y-42705671D01*
X82794842Y-42840517D01*
X82788435Y-42900116D01*
X82788435Y-42900123D01*
X82788434Y-42900135D01*
X82788434Y-43301016D01*
X82768749Y-43368055D01*
X82715945Y-43413810D01*
X82646787Y-43423754D01*
X82623482Y-43418058D01*
X82602264Y-43410634D01*
X82602249Y-43410630D01*
X82423004Y-43390435D01*
X82422996Y-43390435D01*
X82243750Y-43410630D01*
X82243745Y-43410631D01*
X82073476Y-43470211D01*
X81920737Y-43566184D01*
X81793184Y-43693737D01*
X81697211Y-43846476D01*
X81637631Y-44016745D01*
X81637630Y-44016750D01*
X81617435Y-44195996D01*
X81617435Y-44196003D01*
X81637630Y-44375249D01*
X81637631Y-44375254D01*
X81697211Y-44545523D01*
X81793184Y-44698262D01*
X81920738Y-44825816D01*
X81983532Y-44865272D01*
X81996636Y-44873506D01*
X82042927Y-44925841D01*
X82053575Y-44994895D01*
X82025200Y-45058743D01*
X81966810Y-45097115D01*
X81930664Y-45102500D01*
X81910355Y-45102500D01*
X81852029Y-45111738D01*
X81735377Y-45130214D01*
X81566894Y-45184956D01*
X81566891Y-45184957D01*
X81409043Y-45265386D01*
X81327272Y-45324796D01*
X81265720Y-45369517D01*
X81265718Y-45369519D01*
X81265717Y-45369519D01*
X81140453Y-45494783D01*
X81140453Y-45494784D01*
X81140451Y-45494786D01*
X81103341Y-45545864D01*
X81036320Y-45638109D01*
X80955891Y-45795957D01*
X80955890Y-45795960D01*
X80901148Y-45964443D01*
X80873434Y-46139421D01*
X58483500Y-46139421D01*
X58483500Y-41582500D01*
X58503185Y-41515461D01*
X58555989Y-41469706D01*
X58607500Y-41458500D01*
X149560500Y-41458500D01*
X149627539Y-41478185D01*
G37*
G04 #@! TD.AperFunction*
G04 #@! TA.AperFunction,NonConductor*
G36*
X140686540Y-64147185D02*
G01*
X140732295Y-64199989D01*
X140743501Y-64251501D01*
X140743500Y-64471048D01*
X140723815Y-64538087D01*
X140671011Y-64583842D01*
X140601852Y-64593785D01*
X140546616Y-64571366D01*
X140543892Y-64569387D01*
X140386042Y-64488957D01*
X140386039Y-64488956D01*
X140302838Y-64461923D01*
X140245162Y-64422486D01*
X140217964Y-64358127D01*
X140229879Y-64289281D01*
X140277123Y-64237805D01*
X140300213Y-64226947D01*
X140301113Y-64226631D01*
X140303522Y-64225789D01*
X140429700Y-64146505D01*
X140495672Y-64127500D01*
X140619501Y-64127500D01*
X140686540Y-64147185D01*
G37*
G04 #@! TD.AperFunction*
G04 #@! TA.AperFunction,NonConductor*
G36*
X121382540Y-64147185D02*
G01*
X121428295Y-64199989D01*
X121439501Y-64251501D01*
X121439500Y-64471048D01*
X121419815Y-64538087D01*
X121367011Y-64583842D01*
X121297852Y-64593785D01*
X121242616Y-64571366D01*
X121239892Y-64569387D01*
X121082042Y-64488957D01*
X121082039Y-64488956D01*
X120998838Y-64461923D01*
X120941162Y-64422486D01*
X120913964Y-64358127D01*
X120925879Y-64289281D01*
X120973123Y-64237805D01*
X120996213Y-64226947D01*
X120997113Y-64226631D01*
X120999522Y-64225789D01*
X121125700Y-64146505D01*
X121191672Y-64127500D01*
X121315501Y-64127500D01*
X121382540Y-64147185D01*
G37*
G04 #@! TD.AperFunction*
M02*
