G04 #@! TF.GenerationSoftware,KiCad,Pcbnew,8.0.6*
G04 #@! TF.CreationDate,2025-06-28T13:01:24+01:00*
G04 #@! TF.ProjectId,2x4,3278342e-6b69-4636-9164-5f7063625858,0.2*
G04 #@! TF.SameCoordinates,Original*
G04 #@! TF.FileFunction,Soldermask,Bot*
G04 #@! TF.FilePolarity,Negative*
%FSLAX46Y46*%
G04 Gerber Fmt 4.6, Leading zero omitted, Abs format (unit mm)*
G04 Created by KiCad (PCBNEW 8.0.6) date 2025-06-28 13:01:24*
%MOMM*%
%LPD*%
G01*
G04 APERTURE LIST*
%ADD10C,1.750000*%
%ADD11C,3.000000*%
%ADD12C,3.987800*%
%ADD13R,2.500000X2.550000*%
%ADD14O,1.998980X2.748280*%
%ADD15O,2.032000X1.016000*%
%ADD16C,1.143000*%
%ADD17C,0.600000*%
G04 APERTURE END LIST*
D10*
X101346000Y-46228000D03*
D11*
X103886000Y-47498000D03*
D12*
X101346000Y-51308000D03*
D11*
X106426000Y-53848000D03*
D10*
X101346000Y-56388000D03*
D13*
X103886000Y-44223000D03*
X106426000Y-57150000D03*
D10*
X139954000Y-65532000D03*
D11*
X142494000Y-66802000D03*
D12*
X139954000Y-70612000D03*
D11*
X145034000Y-73152000D03*
D10*
X139954000Y-75692000D03*
D13*
X142494000Y-63527000D03*
X145034000Y-76454000D03*
D10*
X120650000Y-46228000D03*
D11*
X123190000Y-47498000D03*
D12*
X120650000Y-51308000D03*
D11*
X125730000Y-53848000D03*
D10*
X120650000Y-56388000D03*
D13*
X123190000Y-44223000D03*
X125730000Y-57150000D03*
D10*
X120650000Y-65532000D03*
D11*
X123190000Y-66802000D03*
D12*
X120650000Y-70612000D03*
D11*
X125730000Y-73152000D03*
D10*
X120650000Y-75692000D03*
D13*
X123190000Y-63527000D03*
X125730000Y-76454000D03*
D10*
X101346000Y-65532000D03*
D11*
X103886000Y-66802000D03*
D12*
X101346000Y-70612000D03*
D11*
X106426000Y-73152000D03*
D10*
X101346000Y-75692000D03*
D13*
X103886000Y-63527000D03*
X106426000Y-76454000D03*
D10*
X81998934Y-46228000D03*
D11*
X84538934Y-47498000D03*
D12*
X81998934Y-51308000D03*
D11*
X87078934Y-53848000D03*
D10*
X81998934Y-56388000D03*
D13*
X84538934Y-44223000D03*
X87078934Y-57150000D03*
D10*
X139954000Y-46228000D03*
D11*
X142494000Y-47498000D03*
D12*
X139954000Y-51308000D03*
D11*
X145034000Y-53848000D03*
D10*
X139954000Y-56388000D03*
D13*
X142494000Y-44223000D03*
X145034000Y-57150000D03*
D10*
X81998934Y-65532000D03*
D11*
X84538934Y-66802000D03*
D12*
X81998934Y-70612000D03*
D11*
X87078934Y-73152000D03*
D10*
X81998934Y-75692000D03*
D13*
X84538934Y-63527000D03*
X87078934Y-76454000D03*
D14*
X61384180Y-52903120D03*
X63924180Y-52903120D03*
X66464180Y-52903120D03*
X69004180Y-52903120D03*
X71544180Y-52903120D03*
X74084180Y-52903120D03*
X76624180Y-52903120D03*
X76624180Y-69067680D03*
X74084180Y-69067680D03*
X71544180Y-69067680D03*
X69004180Y-69067680D03*
X66464180Y-69067680D03*
X63924180Y-69067680D03*
X61384180Y-69067680D03*
D15*
X77702000Y-59770000D03*
X77702000Y-62320000D03*
D16*
X60697813Y-59768803D03*
X60697813Y-62308803D03*
X63237813Y-59768803D03*
X63237813Y-62308803D03*
D17*
X69088000Y-50800000D03*
X82423000Y-44196000D03*
X64008000Y-50800000D03*
X121031000Y-44196000D03*
X140335000Y-44196000D03*
X61468000Y-50800000D03*
X101727000Y-44196000D03*
X66548000Y-50800000D03*
X74168000Y-66802000D03*
X101600000Y-63500000D03*
X76708000Y-66802000D03*
X82296000Y-63500000D03*
X71628000Y-66802000D03*
X120650000Y-63500000D03*
X139954000Y-63500000D03*
X69088000Y-66802000D03*
M02*
