G04 #@! TF.GenerationSoftware,KiCad,Pcbnew,8.0.6*
G04 #@! TF.CreationDate,2025-06-28T13:01:24+01:00*
G04 #@! TF.ProjectId,2x4,3278342e-6b69-4636-9164-5f7063625858,0.2*
G04 #@! TF.SameCoordinates,Original*
G04 #@! TF.FileFunction,Legend,Top*
G04 #@! TF.FilePolarity,Positive*
%FSLAX46Y46*%
G04 Gerber Fmt 4.6, Leading zero omitted, Abs format (unit mm)*
G04 Created by KiCad (PCBNEW 8.0.6) date 2025-06-28 13:01:24*
%MOMM*%
%LPD*%
G01*
G04 APERTURE LIST*
%ADD10C,0.100000*%
G04 APERTURE END LIST*
D10*
X59231884Y-79628419D02*
X59231884Y-78628419D01*
X59708074Y-79628419D02*
X59708074Y-78961752D01*
X59708074Y-79056990D02*
X59755693Y-79009371D01*
X59755693Y-79009371D02*
X59850931Y-78961752D01*
X59850931Y-78961752D02*
X59993788Y-78961752D01*
X59993788Y-78961752D02*
X60089026Y-79009371D01*
X60089026Y-79009371D02*
X60136645Y-79104609D01*
X60136645Y-79104609D02*
X60136645Y-79628419D01*
X60136645Y-79104609D02*
X60184264Y-79009371D01*
X60184264Y-79009371D02*
X60279502Y-78961752D01*
X60279502Y-78961752D02*
X60422359Y-78961752D01*
X60422359Y-78961752D02*
X60517598Y-79009371D01*
X60517598Y-79009371D02*
X60565217Y-79104609D01*
X60565217Y-79104609D02*
X60565217Y-79628419D01*
X60993788Y-79580800D02*
X61136645Y-79628419D01*
X61136645Y-79628419D02*
X61374740Y-79628419D01*
X61374740Y-79628419D02*
X61469978Y-79580800D01*
X61469978Y-79580800D02*
X61517597Y-79533180D01*
X61517597Y-79533180D02*
X61565216Y-79437942D01*
X61565216Y-79437942D02*
X61565216Y-79342704D01*
X61565216Y-79342704D02*
X61517597Y-79247466D01*
X61517597Y-79247466D02*
X61469978Y-79199847D01*
X61469978Y-79199847D02*
X61374740Y-79152228D01*
X61374740Y-79152228D02*
X61184264Y-79104609D01*
X61184264Y-79104609D02*
X61089026Y-79056990D01*
X61089026Y-79056990D02*
X61041407Y-79009371D01*
X61041407Y-79009371D02*
X60993788Y-78914133D01*
X60993788Y-78914133D02*
X60993788Y-78818895D01*
X60993788Y-78818895D02*
X61041407Y-78723657D01*
X61041407Y-78723657D02*
X61089026Y-78676038D01*
X61089026Y-78676038D02*
X61184264Y-78628419D01*
X61184264Y-78628419D02*
X61422359Y-78628419D01*
X61422359Y-78628419D02*
X61565216Y-78676038D01*
X62374740Y-79580800D02*
X62279502Y-79628419D01*
X62279502Y-79628419D02*
X62089026Y-79628419D01*
X62089026Y-79628419D02*
X61993788Y-79580800D01*
X61993788Y-79580800D02*
X61946169Y-79485561D01*
X61946169Y-79485561D02*
X61946169Y-79104609D01*
X61946169Y-79104609D02*
X61993788Y-79009371D01*
X61993788Y-79009371D02*
X62089026Y-78961752D01*
X62089026Y-78961752D02*
X62279502Y-78961752D01*
X62279502Y-78961752D02*
X62374740Y-79009371D01*
X62374740Y-79009371D02*
X62422359Y-79104609D01*
X62422359Y-79104609D02*
X62422359Y-79199847D01*
X62422359Y-79199847D02*
X61946169Y-79295085D01*
X63279502Y-79628419D02*
X63279502Y-79104609D01*
X63279502Y-79104609D02*
X63231883Y-79009371D01*
X63231883Y-79009371D02*
X63136645Y-78961752D01*
X63136645Y-78961752D02*
X62946169Y-78961752D01*
X62946169Y-78961752D02*
X62850931Y-79009371D01*
X63279502Y-79580800D02*
X63184264Y-79628419D01*
X63184264Y-79628419D02*
X62946169Y-79628419D01*
X62946169Y-79628419D02*
X62850931Y-79580800D01*
X62850931Y-79580800D02*
X62803312Y-79485561D01*
X62803312Y-79485561D02*
X62803312Y-79390323D01*
X62803312Y-79390323D02*
X62850931Y-79295085D01*
X62850931Y-79295085D02*
X62946169Y-79247466D01*
X62946169Y-79247466D02*
X63184264Y-79247466D01*
X63184264Y-79247466D02*
X63279502Y-79199847D01*
X63755693Y-78961752D02*
X63755693Y-79628419D01*
X63755693Y-79056990D02*
X63803312Y-79009371D01*
X63803312Y-79009371D02*
X63898550Y-78961752D01*
X63898550Y-78961752D02*
X64041407Y-78961752D01*
X64041407Y-78961752D02*
X64136645Y-79009371D01*
X64136645Y-79009371D02*
X64184264Y-79104609D01*
X64184264Y-79104609D02*
X64184264Y-79628419D01*
X65231883Y-79533180D02*
X65184264Y-79580800D01*
X65184264Y-79580800D02*
X65041407Y-79628419D01*
X65041407Y-79628419D02*
X64946169Y-79628419D01*
X64946169Y-79628419D02*
X64803312Y-79580800D01*
X64803312Y-79580800D02*
X64708074Y-79485561D01*
X64708074Y-79485561D02*
X64660455Y-79390323D01*
X64660455Y-79390323D02*
X64612836Y-79199847D01*
X64612836Y-79199847D02*
X64612836Y-79056990D01*
X64612836Y-79056990D02*
X64660455Y-78866514D01*
X64660455Y-78866514D02*
X64708074Y-78771276D01*
X64708074Y-78771276D02*
X64803312Y-78676038D01*
X64803312Y-78676038D02*
X64946169Y-78628419D01*
X64946169Y-78628419D02*
X65041407Y-78628419D01*
X65041407Y-78628419D02*
X65184264Y-78676038D01*
X65184264Y-78676038D02*
X65231883Y-78723657D01*
X65803312Y-79628419D02*
X65708074Y-79580800D01*
X65708074Y-79580800D02*
X65660455Y-79533180D01*
X65660455Y-79533180D02*
X65612836Y-79437942D01*
X65612836Y-79437942D02*
X65612836Y-79152228D01*
X65612836Y-79152228D02*
X65660455Y-79056990D01*
X65660455Y-79056990D02*
X65708074Y-79009371D01*
X65708074Y-79009371D02*
X65803312Y-78961752D01*
X65803312Y-78961752D02*
X65946169Y-78961752D01*
X65946169Y-78961752D02*
X66041407Y-79009371D01*
X66041407Y-79009371D02*
X66089026Y-79056990D01*
X66089026Y-79056990D02*
X66136645Y-79152228D01*
X66136645Y-79152228D02*
X66136645Y-79437942D01*
X66136645Y-79437942D02*
X66089026Y-79533180D01*
X66089026Y-79533180D02*
X66041407Y-79580800D01*
X66041407Y-79580800D02*
X65946169Y-79628419D01*
X65946169Y-79628419D02*
X65803312Y-79628419D01*
X66565217Y-78961752D02*
X66565217Y-79628419D01*
X66565217Y-79056990D02*
X66612836Y-79009371D01*
X66612836Y-79009371D02*
X66708074Y-78961752D01*
X66708074Y-78961752D02*
X66850931Y-78961752D01*
X66850931Y-78961752D02*
X66946169Y-79009371D01*
X66946169Y-79009371D02*
X66993788Y-79104609D01*
X66993788Y-79104609D02*
X66993788Y-79628419D01*
X67469979Y-79628419D02*
X67469979Y-78961752D01*
X67469979Y-79152228D02*
X67517598Y-79056990D01*
X67517598Y-79056990D02*
X67565217Y-79009371D01*
X67565217Y-79009371D02*
X67660455Y-78961752D01*
X67660455Y-78961752D02*
X67755693Y-78961752D01*
X68231884Y-79628419D02*
X68136646Y-79580800D01*
X68136646Y-79580800D02*
X68089027Y-79533180D01*
X68089027Y-79533180D02*
X68041408Y-79437942D01*
X68041408Y-79437942D02*
X68041408Y-79152228D01*
X68041408Y-79152228D02*
X68089027Y-79056990D01*
X68089027Y-79056990D02*
X68136646Y-79009371D01*
X68136646Y-79009371D02*
X68231884Y-78961752D01*
X68231884Y-78961752D02*
X68374741Y-78961752D01*
X68374741Y-78961752D02*
X68469979Y-79009371D01*
X68469979Y-79009371D02*
X68517598Y-79056990D01*
X68517598Y-79056990D02*
X68565217Y-79152228D01*
X68565217Y-79152228D02*
X68565217Y-79437942D01*
X68565217Y-79437942D02*
X68517598Y-79533180D01*
X68517598Y-79533180D02*
X68469979Y-79580800D01*
X68469979Y-79580800D02*
X68374741Y-79628419D01*
X68374741Y-79628419D02*
X68231884Y-79628419D01*
X68898551Y-78961752D02*
X69136646Y-79628419D01*
X69374741Y-78961752D02*
X69136646Y-79628419D01*
X69136646Y-79628419D02*
X69041408Y-79866514D01*
X69041408Y-79866514D02*
X68993789Y-79914133D01*
X68993789Y-79914133D02*
X68898551Y-79961752D01*
X70469979Y-78580800D02*
X69612837Y-79866514D01*
X70803313Y-79628419D02*
X70803313Y-78628419D01*
X70803313Y-78628419D02*
X71136646Y-79342704D01*
X71136646Y-79342704D02*
X71469979Y-78628419D01*
X71469979Y-78628419D02*
X71469979Y-79628419D01*
X72374741Y-79628419D02*
X72374741Y-79104609D01*
X72374741Y-79104609D02*
X72327122Y-79009371D01*
X72327122Y-79009371D02*
X72231884Y-78961752D01*
X72231884Y-78961752D02*
X72041408Y-78961752D01*
X72041408Y-78961752D02*
X71946170Y-79009371D01*
X72374741Y-79580800D02*
X72279503Y-79628419D01*
X72279503Y-79628419D02*
X72041408Y-79628419D01*
X72041408Y-79628419D02*
X71946170Y-79580800D01*
X71946170Y-79580800D02*
X71898551Y-79485561D01*
X71898551Y-79485561D02*
X71898551Y-79390323D01*
X71898551Y-79390323D02*
X71946170Y-79295085D01*
X71946170Y-79295085D02*
X72041408Y-79247466D01*
X72041408Y-79247466D02*
X72279503Y-79247466D01*
X72279503Y-79247466D02*
X72374741Y-79199847D01*
X73279503Y-79580800D02*
X73184265Y-79628419D01*
X73184265Y-79628419D02*
X72993789Y-79628419D01*
X72993789Y-79628419D02*
X72898551Y-79580800D01*
X72898551Y-79580800D02*
X72850932Y-79533180D01*
X72850932Y-79533180D02*
X72803313Y-79437942D01*
X72803313Y-79437942D02*
X72803313Y-79152228D01*
X72803313Y-79152228D02*
X72850932Y-79056990D01*
X72850932Y-79056990D02*
X72898551Y-79009371D01*
X72898551Y-79009371D02*
X72993789Y-78961752D01*
X72993789Y-78961752D02*
X73184265Y-78961752D01*
X73184265Y-78961752D02*
X73279503Y-79009371D01*
X73708075Y-79628419D02*
X73708075Y-78961752D01*
X73708075Y-79152228D02*
X73755694Y-79056990D01*
X73755694Y-79056990D02*
X73803313Y-79009371D01*
X73803313Y-79009371D02*
X73898551Y-78961752D01*
X73898551Y-78961752D02*
X73993789Y-78961752D01*
X74469980Y-79628419D02*
X74374742Y-79580800D01*
X74374742Y-79580800D02*
X74327123Y-79533180D01*
X74327123Y-79533180D02*
X74279504Y-79437942D01*
X74279504Y-79437942D02*
X74279504Y-79152228D01*
X74279504Y-79152228D02*
X74327123Y-79056990D01*
X74327123Y-79056990D02*
X74374742Y-79009371D01*
X74374742Y-79009371D02*
X74469980Y-78961752D01*
X74469980Y-78961752D02*
X74612837Y-78961752D01*
X74612837Y-78961752D02*
X74708075Y-79009371D01*
X74708075Y-79009371D02*
X74755694Y-79056990D01*
X74755694Y-79056990D02*
X74803313Y-79152228D01*
X74803313Y-79152228D02*
X74803313Y-79437942D01*
X74803313Y-79437942D02*
X74755694Y-79533180D01*
X74755694Y-79533180D02*
X74708075Y-79580800D01*
X74708075Y-79580800D02*
X74612837Y-79628419D01*
X74612837Y-79628419D02*
X74469980Y-79628419D01*
X75231885Y-79247466D02*
X75993790Y-79247466D01*
X76469980Y-79628419D02*
X76469980Y-78628419D01*
X77041408Y-79628419D02*
X76612837Y-79056990D01*
X77041408Y-78628419D02*
X76469980Y-79199847D01*
X77850932Y-79580800D02*
X77755694Y-79628419D01*
X77755694Y-79628419D02*
X77565218Y-79628419D01*
X77565218Y-79628419D02*
X77469980Y-79580800D01*
X77469980Y-79580800D02*
X77422361Y-79485561D01*
X77422361Y-79485561D02*
X77422361Y-79104609D01*
X77422361Y-79104609D02*
X77469980Y-79009371D01*
X77469980Y-79009371D02*
X77565218Y-78961752D01*
X77565218Y-78961752D02*
X77755694Y-78961752D01*
X77755694Y-78961752D02*
X77850932Y-79009371D01*
X77850932Y-79009371D02*
X77898551Y-79104609D01*
X77898551Y-79104609D02*
X77898551Y-79199847D01*
X77898551Y-79199847D02*
X77422361Y-79295085D01*
X78231885Y-78961752D02*
X78469980Y-79628419D01*
X78708075Y-78961752D02*
X78469980Y-79628419D01*
X78469980Y-79628419D02*
X78374742Y-79866514D01*
X78374742Y-79866514D02*
X78327123Y-79914133D01*
X78327123Y-79914133D02*
X78231885Y-79961752D01*
X79089028Y-79628419D02*
X79089028Y-78628419D01*
X79089028Y-79009371D02*
X79184266Y-78961752D01*
X79184266Y-78961752D02*
X79374742Y-78961752D01*
X79374742Y-78961752D02*
X79469980Y-79009371D01*
X79469980Y-79009371D02*
X79517599Y-79056990D01*
X79517599Y-79056990D02*
X79565218Y-79152228D01*
X79565218Y-79152228D02*
X79565218Y-79437942D01*
X79565218Y-79437942D02*
X79517599Y-79533180D01*
X79517599Y-79533180D02*
X79469980Y-79580800D01*
X79469980Y-79580800D02*
X79374742Y-79628419D01*
X79374742Y-79628419D02*
X79184266Y-79628419D01*
X79184266Y-79628419D02*
X79089028Y-79580800D01*
X80136647Y-79628419D02*
X80041409Y-79580800D01*
X80041409Y-79580800D02*
X79993790Y-79533180D01*
X79993790Y-79533180D02*
X79946171Y-79437942D01*
X79946171Y-79437942D02*
X79946171Y-79152228D01*
X79946171Y-79152228D02*
X79993790Y-79056990D01*
X79993790Y-79056990D02*
X80041409Y-79009371D01*
X80041409Y-79009371D02*
X80136647Y-78961752D01*
X80136647Y-78961752D02*
X80279504Y-78961752D01*
X80279504Y-78961752D02*
X80374742Y-79009371D01*
X80374742Y-79009371D02*
X80422361Y-79056990D01*
X80422361Y-79056990D02*
X80469980Y-79152228D01*
X80469980Y-79152228D02*
X80469980Y-79437942D01*
X80469980Y-79437942D02*
X80422361Y-79533180D01*
X80422361Y-79533180D02*
X80374742Y-79580800D01*
X80374742Y-79580800D02*
X80279504Y-79628419D01*
X80279504Y-79628419D02*
X80136647Y-79628419D01*
X81327123Y-79628419D02*
X81327123Y-79104609D01*
X81327123Y-79104609D02*
X81279504Y-79009371D01*
X81279504Y-79009371D02*
X81184266Y-78961752D01*
X81184266Y-78961752D02*
X80993790Y-78961752D01*
X80993790Y-78961752D02*
X80898552Y-79009371D01*
X81327123Y-79580800D02*
X81231885Y-79628419D01*
X81231885Y-79628419D02*
X80993790Y-79628419D01*
X80993790Y-79628419D02*
X80898552Y-79580800D01*
X80898552Y-79580800D02*
X80850933Y-79485561D01*
X80850933Y-79485561D02*
X80850933Y-79390323D01*
X80850933Y-79390323D02*
X80898552Y-79295085D01*
X80898552Y-79295085D02*
X80993790Y-79247466D01*
X80993790Y-79247466D02*
X81231885Y-79247466D01*
X81231885Y-79247466D02*
X81327123Y-79199847D01*
X81803314Y-79628419D02*
X81803314Y-78961752D01*
X81803314Y-79152228D02*
X81850933Y-79056990D01*
X81850933Y-79056990D02*
X81898552Y-79009371D01*
X81898552Y-79009371D02*
X81993790Y-78961752D01*
X81993790Y-78961752D02*
X82089028Y-78961752D01*
X82850933Y-79628419D02*
X82850933Y-78628419D01*
X82850933Y-79580800D02*
X82755695Y-79628419D01*
X82755695Y-79628419D02*
X82565219Y-79628419D01*
X82565219Y-79628419D02*
X82469981Y-79580800D01*
X82469981Y-79580800D02*
X82422362Y-79533180D01*
X82422362Y-79533180D02*
X82374743Y-79437942D01*
X82374743Y-79437942D02*
X82374743Y-79152228D01*
X82374743Y-79152228D02*
X82422362Y-79056990D01*
X82422362Y-79056990D02*
X82469981Y-79009371D01*
X82469981Y-79009371D02*
X82565219Y-78961752D01*
X82565219Y-78961752D02*
X82755695Y-78961752D01*
X82755695Y-78961752D02*
X82850933Y-79009371D01*
X84089029Y-79247466D02*
X84850934Y-79247466D01*
X86517600Y-78961752D02*
X86517600Y-79628419D01*
X86279505Y-78580800D02*
X86041410Y-79295085D01*
X86041410Y-79295085D02*
X86660457Y-79295085D01*
X86946172Y-79628419D02*
X87469981Y-78961752D01*
X86946172Y-78961752D02*
X87469981Y-79628419D01*
X87803315Y-78723657D02*
X87850934Y-78676038D01*
X87850934Y-78676038D02*
X87946172Y-78628419D01*
X87946172Y-78628419D02*
X88184267Y-78628419D01*
X88184267Y-78628419D02*
X88279505Y-78676038D01*
X88279505Y-78676038D02*
X88327124Y-78723657D01*
X88327124Y-78723657D02*
X88374743Y-78818895D01*
X88374743Y-78818895D02*
X88374743Y-78914133D01*
X88374743Y-78914133D02*
X88327124Y-79056990D01*
X88327124Y-79056990D02*
X87755696Y-79628419D01*
X87755696Y-79628419D02*
X88374743Y-79628419D01*
X89850934Y-80009371D02*
X89803315Y-79961752D01*
X89803315Y-79961752D02*
X89708077Y-79818895D01*
X89708077Y-79818895D02*
X89660458Y-79723657D01*
X89660458Y-79723657D02*
X89612839Y-79580800D01*
X89612839Y-79580800D02*
X89565220Y-79342704D01*
X89565220Y-79342704D02*
X89565220Y-79152228D01*
X89565220Y-79152228D02*
X89612839Y-78914133D01*
X89612839Y-78914133D02*
X89660458Y-78771276D01*
X89660458Y-78771276D02*
X89708077Y-78676038D01*
X89708077Y-78676038D02*
X89803315Y-78533180D01*
X89803315Y-78533180D02*
X89850934Y-78485561D01*
X90136649Y-78961752D02*
X90374744Y-79628419D01*
X90374744Y-79628419D02*
X90612839Y-78961752D01*
X91184268Y-78628419D02*
X91279506Y-78628419D01*
X91279506Y-78628419D02*
X91374744Y-78676038D01*
X91374744Y-78676038D02*
X91422363Y-78723657D01*
X91422363Y-78723657D02*
X91469982Y-78818895D01*
X91469982Y-78818895D02*
X91517601Y-79009371D01*
X91517601Y-79009371D02*
X91517601Y-79247466D01*
X91517601Y-79247466D02*
X91469982Y-79437942D01*
X91469982Y-79437942D02*
X91422363Y-79533180D01*
X91422363Y-79533180D02*
X91374744Y-79580800D01*
X91374744Y-79580800D02*
X91279506Y-79628419D01*
X91279506Y-79628419D02*
X91184268Y-79628419D01*
X91184268Y-79628419D02*
X91089030Y-79580800D01*
X91089030Y-79580800D02*
X91041411Y-79533180D01*
X91041411Y-79533180D02*
X90993792Y-79437942D01*
X90993792Y-79437942D02*
X90946173Y-79247466D01*
X90946173Y-79247466D02*
X90946173Y-79009371D01*
X90946173Y-79009371D02*
X90993792Y-78818895D01*
X90993792Y-78818895D02*
X91041411Y-78723657D01*
X91041411Y-78723657D02*
X91089030Y-78676038D01*
X91089030Y-78676038D02*
X91184268Y-78628419D01*
X91946173Y-79533180D02*
X91993792Y-79580800D01*
X91993792Y-79580800D02*
X91946173Y-79628419D01*
X91946173Y-79628419D02*
X91898554Y-79580800D01*
X91898554Y-79580800D02*
X91946173Y-79533180D01*
X91946173Y-79533180D02*
X91946173Y-79628419D01*
X92946172Y-79628419D02*
X92374744Y-79628419D01*
X92660458Y-79628419D02*
X92660458Y-78628419D01*
X92660458Y-78628419D02*
X92565220Y-78771276D01*
X92565220Y-78771276D02*
X92469982Y-78866514D01*
X92469982Y-78866514D02*
X92374744Y-78914133D01*
X93279506Y-80009371D02*
X93327125Y-79961752D01*
X93327125Y-79961752D02*
X93422363Y-79818895D01*
X93422363Y-79818895D02*
X93469982Y-79723657D01*
X93469982Y-79723657D02*
X93517601Y-79580800D01*
X93517601Y-79580800D02*
X93565220Y-79342704D01*
X93565220Y-79342704D02*
X93565220Y-79152228D01*
X93565220Y-79152228D02*
X93517601Y-78914133D01*
X93517601Y-78914133D02*
X93469982Y-78771276D01*
X93469982Y-78771276D02*
X93422363Y-78676038D01*
X93422363Y-78676038D02*
X93327125Y-78533180D01*
X93327125Y-78533180D02*
X93279506Y-78485561D01*
M02*
