G04 #@! TF.GenerationSoftware,KiCad,Pcbnew,8.0.6*
G04 #@! TF.CreationDate,2025-01-18T20:04:13+00:00*
G04 #@! TF.ProjectId,macro-keyboard,6d616372-6f2d-46b6-9579-626f6172642e,rev?*
G04 #@! TF.SameCoordinates,Original*
G04 #@! TF.FileFunction,Legend,Top*
G04 #@! TF.FilePolarity,Positive*
%FSLAX46Y46*%
G04 Gerber Fmt 4.6, Leading zero omitted, Abs format (unit mm)*
G04 Created by KiCad (PCBNEW 8.0.6) date 2025-01-18 20:04:13*
%MOMM*%
%LPD*%
G01*
G04 APERTURE LIST*
%ADD10C,0.100000*%
%ADD11C,0.120000*%
G04 APERTURE END LIST*
D10*
X110303884Y-98262475D02*
X110303884Y-97262475D01*
X110780074Y-98262475D02*
X110780074Y-97595808D01*
X110780074Y-97691046D02*
X110827693Y-97643427D01*
X110827693Y-97643427D02*
X110922931Y-97595808D01*
X110922931Y-97595808D02*
X111065788Y-97595808D01*
X111065788Y-97595808D02*
X111161026Y-97643427D01*
X111161026Y-97643427D02*
X111208645Y-97738665D01*
X111208645Y-97738665D02*
X111208645Y-98262475D01*
X111208645Y-97738665D02*
X111256264Y-97643427D01*
X111256264Y-97643427D02*
X111351502Y-97595808D01*
X111351502Y-97595808D02*
X111494359Y-97595808D01*
X111494359Y-97595808D02*
X111589598Y-97643427D01*
X111589598Y-97643427D02*
X111637217Y-97738665D01*
X111637217Y-97738665D02*
X111637217Y-98262475D01*
X112065788Y-98214856D02*
X112208645Y-98262475D01*
X112208645Y-98262475D02*
X112446740Y-98262475D01*
X112446740Y-98262475D02*
X112541978Y-98214856D01*
X112541978Y-98214856D02*
X112589597Y-98167236D01*
X112589597Y-98167236D02*
X112637216Y-98071998D01*
X112637216Y-98071998D02*
X112637216Y-97976760D01*
X112637216Y-97976760D02*
X112589597Y-97881522D01*
X112589597Y-97881522D02*
X112541978Y-97833903D01*
X112541978Y-97833903D02*
X112446740Y-97786284D01*
X112446740Y-97786284D02*
X112256264Y-97738665D01*
X112256264Y-97738665D02*
X112161026Y-97691046D01*
X112161026Y-97691046D02*
X112113407Y-97643427D01*
X112113407Y-97643427D02*
X112065788Y-97548189D01*
X112065788Y-97548189D02*
X112065788Y-97452951D01*
X112065788Y-97452951D02*
X112113407Y-97357713D01*
X112113407Y-97357713D02*
X112161026Y-97310094D01*
X112161026Y-97310094D02*
X112256264Y-97262475D01*
X112256264Y-97262475D02*
X112494359Y-97262475D01*
X112494359Y-97262475D02*
X112637216Y-97310094D01*
X113446740Y-98214856D02*
X113351502Y-98262475D01*
X113351502Y-98262475D02*
X113161026Y-98262475D01*
X113161026Y-98262475D02*
X113065788Y-98214856D01*
X113065788Y-98214856D02*
X113018169Y-98119617D01*
X113018169Y-98119617D02*
X113018169Y-97738665D01*
X113018169Y-97738665D02*
X113065788Y-97643427D01*
X113065788Y-97643427D02*
X113161026Y-97595808D01*
X113161026Y-97595808D02*
X113351502Y-97595808D01*
X113351502Y-97595808D02*
X113446740Y-97643427D01*
X113446740Y-97643427D02*
X113494359Y-97738665D01*
X113494359Y-97738665D02*
X113494359Y-97833903D01*
X113494359Y-97833903D02*
X113018169Y-97929141D01*
X114351502Y-98262475D02*
X114351502Y-97738665D01*
X114351502Y-97738665D02*
X114303883Y-97643427D01*
X114303883Y-97643427D02*
X114208645Y-97595808D01*
X114208645Y-97595808D02*
X114018169Y-97595808D01*
X114018169Y-97595808D02*
X113922931Y-97643427D01*
X114351502Y-98214856D02*
X114256264Y-98262475D01*
X114256264Y-98262475D02*
X114018169Y-98262475D01*
X114018169Y-98262475D02*
X113922931Y-98214856D01*
X113922931Y-98214856D02*
X113875312Y-98119617D01*
X113875312Y-98119617D02*
X113875312Y-98024379D01*
X113875312Y-98024379D02*
X113922931Y-97929141D01*
X113922931Y-97929141D02*
X114018169Y-97881522D01*
X114018169Y-97881522D02*
X114256264Y-97881522D01*
X114256264Y-97881522D02*
X114351502Y-97833903D01*
X114827693Y-97595808D02*
X114827693Y-98262475D01*
X114827693Y-97691046D02*
X114875312Y-97643427D01*
X114875312Y-97643427D02*
X114970550Y-97595808D01*
X114970550Y-97595808D02*
X115113407Y-97595808D01*
X115113407Y-97595808D02*
X115208645Y-97643427D01*
X115208645Y-97643427D02*
X115256264Y-97738665D01*
X115256264Y-97738665D02*
X115256264Y-98262475D01*
X116303883Y-98167236D02*
X116256264Y-98214856D01*
X116256264Y-98214856D02*
X116113407Y-98262475D01*
X116113407Y-98262475D02*
X116018169Y-98262475D01*
X116018169Y-98262475D02*
X115875312Y-98214856D01*
X115875312Y-98214856D02*
X115780074Y-98119617D01*
X115780074Y-98119617D02*
X115732455Y-98024379D01*
X115732455Y-98024379D02*
X115684836Y-97833903D01*
X115684836Y-97833903D02*
X115684836Y-97691046D01*
X115684836Y-97691046D02*
X115732455Y-97500570D01*
X115732455Y-97500570D02*
X115780074Y-97405332D01*
X115780074Y-97405332D02*
X115875312Y-97310094D01*
X115875312Y-97310094D02*
X116018169Y-97262475D01*
X116018169Y-97262475D02*
X116113407Y-97262475D01*
X116113407Y-97262475D02*
X116256264Y-97310094D01*
X116256264Y-97310094D02*
X116303883Y-97357713D01*
X116875312Y-98262475D02*
X116780074Y-98214856D01*
X116780074Y-98214856D02*
X116732455Y-98167236D01*
X116732455Y-98167236D02*
X116684836Y-98071998D01*
X116684836Y-98071998D02*
X116684836Y-97786284D01*
X116684836Y-97786284D02*
X116732455Y-97691046D01*
X116732455Y-97691046D02*
X116780074Y-97643427D01*
X116780074Y-97643427D02*
X116875312Y-97595808D01*
X116875312Y-97595808D02*
X117018169Y-97595808D01*
X117018169Y-97595808D02*
X117113407Y-97643427D01*
X117113407Y-97643427D02*
X117161026Y-97691046D01*
X117161026Y-97691046D02*
X117208645Y-97786284D01*
X117208645Y-97786284D02*
X117208645Y-98071998D01*
X117208645Y-98071998D02*
X117161026Y-98167236D01*
X117161026Y-98167236D02*
X117113407Y-98214856D01*
X117113407Y-98214856D02*
X117018169Y-98262475D01*
X117018169Y-98262475D02*
X116875312Y-98262475D01*
X117637217Y-97595808D02*
X117637217Y-98262475D01*
X117637217Y-97691046D02*
X117684836Y-97643427D01*
X117684836Y-97643427D02*
X117780074Y-97595808D01*
X117780074Y-97595808D02*
X117922931Y-97595808D01*
X117922931Y-97595808D02*
X118018169Y-97643427D01*
X118018169Y-97643427D02*
X118065788Y-97738665D01*
X118065788Y-97738665D02*
X118065788Y-98262475D01*
X118541979Y-98262475D02*
X118541979Y-97595808D01*
X118541979Y-97786284D02*
X118589598Y-97691046D01*
X118589598Y-97691046D02*
X118637217Y-97643427D01*
X118637217Y-97643427D02*
X118732455Y-97595808D01*
X118732455Y-97595808D02*
X118827693Y-97595808D01*
X119303884Y-98262475D02*
X119208646Y-98214856D01*
X119208646Y-98214856D02*
X119161027Y-98167236D01*
X119161027Y-98167236D02*
X119113408Y-98071998D01*
X119113408Y-98071998D02*
X119113408Y-97786284D01*
X119113408Y-97786284D02*
X119161027Y-97691046D01*
X119161027Y-97691046D02*
X119208646Y-97643427D01*
X119208646Y-97643427D02*
X119303884Y-97595808D01*
X119303884Y-97595808D02*
X119446741Y-97595808D01*
X119446741Y-97595808D02*
X119541979Y-97643427D01*
X119541979Y-97643427D02*
X119589598Y-97691046D01*
X119589598Y-97691046D02*
X119637217Y-97786284D01*
X119637217Y-97786284D02*
X119637217Y-98071998D01*
X119637217Y-98071998D02*
X119589598Y-98167236D01*
X119589598Y-98167236D02*
X119541979Y-98214856D01*
X119541979Y-98214856D02*
X119446741Y-98262475D01*
X119446741Y-98262475D02*
X119303884Y-98262475D01*
X119970551Y-97595808D02*
X120208646Y-98262475D01*
X120446741Y-97595808D02*
X120208646Y-98262475D01*
X120208646Y-98262475D02*
X120113408Y-98500570D01*
X120113408Y-98500570D02*
X120065789Y-98548189D01*
X120065789Y-98548189D02*
X119970551Y-98595808D01*
X121541979Y-97214856D02*
X120684837Y-98500570D01*
X121875313Y-98262475D02*
X121875313Y-97262475D01*
X121875313Y-97262475D02*
X122208646Y-97976760D01*
X122208646Y-97976760D02*
X122541979Y-97262475D01*
X122541979Y-97262475D02*
X122541979Y-98262475D01*
X123446741Y-98262475D02*
X123446741Y-97738665D01*
X123446741Y-97738665D02*
X123399122Y-97643427D01*
X123399122Y-97643427D02*
X123303884Y-97595808D01*
X123303884Y-97595808D02*
X123113408Y-97595808D01*
X123113408Y-97595808D02*
X123018170Y-97643427D01*
X123446741Y-98214856D02*
X123351503Y-98262475D01*
X123351503Y-98262475D02*
X123113408Y-98262475D01*
X123113408Y-98262475D02*
X123018170Y-98214856D01*
X123018170Y-98214856D02*
X122970551Y-98119617D01*
X122970551Y-98119617D02*
X122970551Y-98024379D01*
X122970551Y-98024379D02*
X123018170Y-97929141D01*
X123018170Y-97929141D02*
X123113408Y-97881522D01*
X123113408Y-97881522D02*
X123351503Y-97881522D01*
X123351503Y-97881522D02*
X123446741Y-97833903D01*
X124351503Y-98214856D02*
X124256265Y-98262475D01*
X124256265Y-98262475D02*
X124065789Y-98262475D01*
X124065789Y-98262475D02*
X123970551Y-98214856D01*
X123970551Y-98214856D02*
X123922932Y-98167236D01*
X123922932Y-98167236D02*
X123875313Y-98071998D01*
X123875313Y-98071998D02*
X123875313Y-97786284D01*
X123875313Y-97786284D02*
X123922932Y-97691046D01*
X123922932Y-97691046D02*
X123970551Y-97643427D01*
X123970551Y-97643427D02*
X124065789Y-97595808D01*
X124065789Y-97595808D02*
X124256265Y-97595808D01*
X124256265Y-97595808D02*
X124351503Y-97643427D01*
X124780075Y-98262475D02*
X124780075Y-97595808D01*
X124780075Y-97786284D02*
X124827694Y-97691046D01*
X124827694Y-97691046D02*
X124875313Y-97643427D01*
X124875313Y-97643427D02*
X124970551Y-97595808D01*
X124970551Y-97595808D02*
X125065789Y-97595808D01*
X125541980Y-98262475D02*
X125446742Y-98214856D01*
X125446742Y-98214856D02*
X125399123Y-98167236D01*
X125399123Y-98167236D02*
X125351504Y-98071998D01*
X125351504Y-98071998D02*
X125351504Y-97786284D01*
X125351504Y-97786284D02*
X125399123Y-97691046D01*
X125399123Y-97691046D02*
X125446742Y-97643427D01*
X125446742Y-97643427D02*
X125541980Y-97595808D01*
X125541980Y-97595808D02*
X125684837Y-97595808D01*
X125684837Y-97595808D02*
X125780075Y-97643427D01*
X125780075Y-97643427D02*
X125827694Y-97691046D01*
X125827694Y-97691046D02*
X125875313Y-97786284D01*
X125875313Y-97786284D02*
X125875313Y-98071998D01*
X125875313Y-98071998D02*
X125827694Y-98167236D01*
X125827694Y-98167236D02*
X125780075Y-98214856D01*
X125780075Y-98214856D02*
X125684837Y-98262475D01*
X125684837Y-98262475D02*
X125541980Y-98262475D01*
X126303885Y-97881522D02*
X127065790Y-97881522D01*
X127541980Y-98262475D02*
X127541980Y-97262475D01*
X128113408Y-98262475D02*
X127684837Y-97691046D01*
X128113408Y-97262475D02*
X127541980Y-97833903D01*
X128922932Y-98214856D02*
X128827694Y-98262475D01*
X128827694Y-98262475D02*
X128637218Y-98262475D01*
X128637218Y-98262475D02*
X128541980Y-98214856D01*
X128541980Y-98214856D02*
X128494361Y-98119617D01*
X128494361Y-98119617D02*
X128494361Y-97738665D01*
X128494361Y-97738665D02*
X128541980Y-97643427D01*
X128541980Y-97643427D02*
X128637218Y-97595808D01*
X128637218Y-97595808D02*
X128827694Y-97595808D01*
X128827694Y-97595808D02*
X128922932Y-97643427D01*
X128922932Y-97643427D02*
X128970551Y-97738665D01*
X128970551Y-97738665D02*
X128970551Y-97833903D01*
X128970551Y-97833903D02*
X128494361Y-97929141D01*
X129303885Y-97595808D02*
X129541980Y-98262475D01*
X129780075Y-97595808D02*
X129541980Y-98262475D01*
X129541980Y-98262475D02*
X129446742Y-98500570D01*
X129446742Y-98500570D02*
X129399123Y-98548189D01*
X129399123Y-98548189D02*
X129303885Y-98595808D01*
X130161028Y-98262475D02*
X130161028Y-97262475D01*
X130161028Y-97643427D02*
X130256266Y-97595808D01*
X130256266Y-97595808D02*
X130446742Y-97595808D01*
X130446742Y-97595808D02*
X130541980Y-97643427D01*
X130541980Y-97643427D02*
X130589599Y-97691046D01*
X130589599Y-97691046D02*
X130637218Y-97786284D01*
X130637218Y-97786284D02*
X130637218Y-98071998D01*
X130637218Y-98071998D02*
X130589599Y-98167236D01*
X130589599Y-98167236D02*
X130541980Y-98214856D01*
X130541980Y-98214856D02*
X130446742Y-98262475D01*
X130446742Y-98262475D02*
X130256266Y-98262475D01*
X130256266Y-98262475D02*
X130161028Y-98214856D01*
X131208647Y-98262475D02*
X131113409Y-98214856D01*
X131113409Y-98214856D02*
X131065790Y-98167236D01*
X131065790Y-98167236D02*
X131018171Y-98071998D01*
X131018171Y-98071998D02*
X131018171Y-97786284D01*
X131018171Y-97786284D02*
X131065790Y-97691046D01*
X131065790Y-97691046D02*
X131113409Y-97643427D01*
X131113409Y-97643427D02*
X131208647Y-97595808D01*
X131208647Y-97595808D02*
X131351504Y-97595808D01*
X131351504Y-97595808D02*
X131446742Y-97643427D01*
X131446742Y-97643427D02*
X131494361Y-97691046D01*
X131494361Y-97691046D02*
X131541980Y-97786284D01*
X131541980Y-97786284D02*
X131541980Y-98071998D01*
X131541980Y-98071998D02*
X131494361Y-98167236D01*
X131494361Y-98167236D02*
X131446742Y-98214856D01*
X131446742Y-98214856D02*
X131351504Y-98262475D01*
X131351504Y-98262475D02*
X131208647Y-98262475D01*
X132399123Y-98262475D02*
X132399123Y-97738665D01*
X132399123Y-97738665D02*
X132351504Y-97643427D01*
X132351504Y-97643427D02*
X132256266Y-97595808D01*
X132256266Y-97595808D02*
X132065790Y-97595808D01*
X132065790Y-97595808D02*
X131970552Y-97643427D01*
X132399123Y-98214856D02*
X132303885Y-98262475D01*
X132303885Y-98262475D02*
X132065790Y-98262475D01*
X132065790Y-98262475D02*
X131970552Y-98214856D01*
X131970552Y-98214856D02*
X131922933Y-98119617D01*
X131922933Y-98119617D02*
X131922933Y-98024379D01*
X131922933Y-98024379D02*
X131970552Y-97929141D01*
X131970552Y-97929141D02*
X132065790Y-97881522D01*
X132065790Y-97881522D02*
X132303885Y-97881522D01*
X132303885Y-97881522D02*
X132399123Y-97833903D01*
X132875314Y-98262475D02*
X132875314Y-97595808D01*
X132875314Y-97786284D02*
X132922933Y-97691046D01*
X132922933Y-97691046D02*
X132970552Y-97643427D01*
X132970552Y-97643427D02*
X133065790Y-97595808D01*
X133065790Y-97595808D02*
X133161028Y-97595808D01*
X133922933Y-98262475D02*
X133922933Y-97262475D01*
X133922933Y-98214856D02*
X133827695Y-98262475D01*
X133827695Y-98262475D02*
X133637219Y-98262475D01*
X133637219Y-98262475D02*
X133541981Y-98214856D01*
X133541981Y-98214856D02*
X133494362Y-98167236D01*
X133494362Y-98167236D02*
X133446743Y-98071998D01*
X133446743Y-98071998D02*
X133446743Y-97786284D01*
X133446743Y-97786284D02*
X133494362Y-97691046D01*
X133494362Y-97691046D02*
X133541981Y-97643427D01*
X133541981Y-97643427D02*
X133637219Y-97595808D01*
X133637219Y-97595808D02*
X133827695Y-97595808D01*
X133827695Y-97595808D02*
X133922933Y-97643427D01*
X110256265Y-98967657D02*
X110303884Y-98920038D01*
X110303884Y-98920038D02*
X110399122Y-98872419D01*
X110399122Y-98872419D02*
X110637217Y-98872419D01*
X110637217Y-98872419D02*
X110732455Y-98920038D01*
X110732455Y-98920038D02*
X110780074Y-98967657D01*
X110780074Y-98967657D02*
X110827693Y-99062895D01*
X110827693Y-99062895D02*
X110827693Y-99158133D01*
X110827693Y-99158133D02*
X110780074Y-99300990D01*
X110780074Y-99300990D02*
X110208646Y-99872419D01*
X110208646Y-99872419D02*
X110827693Y-99872419D01*
X111161027Y-99872419D02*
X111684836Y-99205752D01*
X111161027Y-99205752D02*
X111684836Y-99872419D01*
X112494360Y-99205752D02*
X112494360Y-99872419D01*
X112256265Y-98824800D02*
X112018170Y-99539085D01*
X112018170Y-99539085D02*
X112637217Y-99539085D01*
X114065789Y-100253371D02*
X114018170Y-100205752D01*
X114018170Y-100205752D02*
X113922932Y-100062895D01*
X113922932Y-100062895D02*
X113875313Y-99967657D01*
X113875313Y-99967657D02*
X113827694Y-99824800D01*
X113827694Y-99824800D02*
X113780075Y-99586704D01*
X113780075Y-99586704D02*
X113780075Y-99396228D01*
X113780075Y-99396228D02*
X113827694Y-99158133D01*
X113827694Y-99158133D02*
X113875313Y-99015276D01*
X113875313Y-99015276D02*
X113922932Y-98920038D01*
X113922932Y-98920038D02*
X114018170Y-98777180D01*
X114018170Y-98777180D02*
X114065789Y-98729561D01*
X114351504Y-99205752D02*
X114589599Y-99872419D01*
X114589599Y-99872419D02*
X114827694Y-99205752D01*
X115399123Y-98872419D02*
X115494361Y-98872419D01*
X115494361Y-98872419D02*
X115589599Y-98920038D01*
X115589599Y-98920038D02*
X115637218Y-98967657D01*
X115637218Y-98967657D02*
X115684837Y-99062895D01*
X115684837Y-99062895D02*
X115732456Y-99253371D01*
X115732456Y-99253371D02*
X115732456Y-99491466D01*
X115732456Y-99491466D02*
X115684837Y-99681942D01*
X115684837Y-99681942D02*
X115637218Y-99777180D01*
X115637218Y-99777180D02*
X115589599Y-99824800D01*
X115589599Y-99824800D02*
X115494361Y-99872419D01*
X115494361Y-99872419D02*
X115399123Y-99872419D01*
X115399123Y-99872419D02*
X115303885Y-99824800D01*
X115303885Y-99824800D02*
X115256266Y-99777180D01*
X115256266Y-99777180D02*
X115208647Y-99681942D01*
X115208647Y-99681942D02*
X115161028Y-99491466D01*
X115161028Y-99491466D02*
X115161028Y-99253371D01*
X115161028Y-99253371D02*
X115208647Y-99062895D01*
X115208647Y-99062895D02*
X115256266Y-98967657D01*
X115256266Y-98967657D02*
X115303885Y-98920038D01*
X115303885Y-98920038D02*
X115399123Y-98872419D01*
X116161028Y-99777180D02*
X116208647Y-99824800D01*
X116208647Y-99824800D02*
X116161028Y-99872419D01*
X116161028Y-99872419D02*
X116113409Y-99824800D01*
X116113409Y-99824800D02*
X116161028Y-99777180D01*
X116161028Y-99777180D02*
X116161028Y-99872419D01*
X117161027Y-99872419D02*
X116589599Y-99872419D01*
X116875313Y-99872419D02*
X116875313Y-98872419D01*
X116875313Y-98872419D02*
X116780075Y-99015276D01*
X116780075Y-99015276D02*
X116684837Y-99110514D01*
X116684837Y-99110514D02*
X116589599Y-99158133D01*
X117494361Y-100253371D02*
X117541980Y-100205752D01*
X117541980Y-100205752D02*
X117637218Y-100062895D01*
X117637218Y-100062895D02*
X117684837Y-99967657D01*
X117684837Y-99967657D02*
X117732456Y-99824800D01*
X117732456Y-99824800D02*
X117780075Y-99586704D01*
X117780075Y-99586704D02*
X117780075Y-99396228D01*
X117780075Y-99396228D02*
X117732456Y-99158133D01*
X117732456Y-99158133D02*
X117684837Y-99015276D01*
X117684837Y-99015276D02*
X117637218Y-98920038D01*
X117637218Y-98920038D02*
X117541980Y-98777180D01*
X117541980Y-98777180D02*
X117494361Y-98729561D01*
D11*
X110083623Y-101233623D02*
X110083623Y-115433623D01*
X110083623Y-115433623D02*
X124283623Y-115433623D01*
X124283623Y-101233623D02*
X110083623Y-101233623D01*
X124283623Y-115433623D02*
X124283623Y-101233623D01*
X129583623Y-101233623D02*
X129583623Y-115433623D01*
X129583623Y-115433623D02*
X143783623Y-115433623D01*
X143783623Y-101233623D02*
X129583623Y-101233623D01*
X143783623Y-115433623D02*
X143783623Y-101233623D01*
X168583623Y-81733623D02*
X168583623Y-95933623D01*
X168583623Y-95933623D02*
X182783623Y-95933623D01*
X182783623Y-81733623D02*
X168583623Y-81733623D01*
X182783623Y-95933623D02*
X182783623Y-81733623D01*
X110083623Y-81733623D02*
X110083623Y-95933623D01*
X110083623Y-95933623D02*
X124283623Y-95933623D01*
X124283623Y-81733623D02*
X110083623Y-81733623D01*
X124283623Y-95933623D02*
X124283623Y-81733623D01*
X149083623Y-101233623D02*
X149083623Y-115433623D01*
X149083623Y-115433623D02*
X163283623Y-115433623D01*
X163283623Y-101233623D02*
X149083623Y-101233623D01*
X163283623Y-115433623D02*
X163283623Y-101233623D01*
X168583623Y-101233623D02*
X168583623Y-115433623D01*
X168583623Y-115433623D02*
X182783623Y-115433623D01*
X182783623Y-101233623D02*
X168583623Y-101233623D01*
X182783623Y-115433623D02*
X182783623Y-101233623D01*
X149083623Y-81733623D02*
X149083623Y-95933623D01*
X149083623Y-95933623D02*
X163283623Y-95933623D01*
X163283623Y-81733623D02*
X149083623Y-81733623D01*
X163283623Y-95933623D02*
X163283623Y-81733623D01*
X129583623Y-81733623D02*
X129583623Y-95933623D01*
X129583623Y-95933623D02*
X143783623Y-95933623D01*
X143783623Y-81733623D02*
X129583623Y-81733623D01*
X143783623Y-95933623D02*
X143783623Y-81733623D01*
M02*
