M48
; DRILL file {KiCad 8.0.6} date 2025-01-18T20:04:22+0000
; FORMAT={-:-/ absolute / inch / decimal}
; #@! TF.CreationDate,2025-01-18T20:04:22+00:00
; #@! TF.GenerationSoftware,Kicad,Pcbnew,8.0.6
; #@! TF.FileFunction,NonPlated,1,2,NPTH
FMAT,2
INCH
; #@! TA.AperFunction,NonPlated,NPTH,ComponentDrill
T1C0.0256
; #@! TA.AperFunction,NonPlated,NPTH,ComponentDrill
T2C0.0689
; #@! TA.AperFunction,NonPlated,NPTH,ComponentDrill
T3C0.0866
; #@! TA.AperFunction,NonPlated,NPTH,ComponentDrill
T4C0.1575
%
G90
G05
T1
X5.6513Y-3.147
X5.8789Y-3.147
T2
X4.4135Y-3.4974
X4.4135Y-4.2651
X4.8135Y-3.4974
X4.8135Y-4.2651
X5.1812Y-3.4974
X5.1812Y-4.2651
X5.5812Y-3.4974
X5.5812Y-4.2651
X5.949Y-3.4974
X5.949Y-4.2651
X6.349Y-3.4974
X6.349Y-4.2651
X6.7167Y-3.4974
X6.7167Y-4.2651
X7.1167Y-3.4974
X7.1167Y-4.2651
T3
X4.997Y-3.2825
X5.7648Y-4.2904
X6.5325Y-3.2805
T4
X4.6135Y-3.4974
X4.6135Y-4.2651
X5.3812Y-3.4974
X5.3812Y-4.2651
X6.149Y-3.4974
X6.149Y-4.2651
X6.9167Y-3.4974
X6.9167Y-4.2651
M30
