G04 #@! TF.GenerationSoftware,KiCad,Pcbnew,8.0.6*
G04 #@! TF.CreationDate,2025-01-18T20:04:13+00:00*
G04 #@! TF.ProjectId,macro-keyboard,6d616372-6f2d-46b6-9579-626f6172642e,rev?*
G04 #@! TF.SameCoordinates,Original*
G04 #@! TF.FileFunction,Copper,L1,Top*
G04 #@! TF.FilePolarity,Positive*
%FSLAX46Y46*%
G04 Gerber Fmt 4.6, Leading zero omitted, Abs format (unit mm)*
G04 Created by KiCad (PCBNEW 8.0.6) date 2025-01-18 20:04:13*
%MOMM*%
%LPD*%
G01*
G04 APERTURE LIST*
G04 #@! TA.AperFunction,ComponentPad*
%ADD10C,2.500000*%
G04 #@! TD*
G04 #@! TA.AperFunction,ComponentPad*
%ADD11O,1.000000X1.600000*%
G04 #@! TD*
G04 #@! TA.AperFunction,ComponentPad*
%ADD12O,1.000000X2.100000*%
G04 #@! TD*
G04 #@! TA.AperFunction,ViaPad*
%ADD13C,0.600000*%
G04 #@! TD*
G04 #@! TA.AperFunction,Conductor*
%ADD14C,0.381000*%
G04 #@! TD*
G04 #@! TA.AperFunction,Conductor*
%ADD15C,0.200000*%
G04 #@! TD*
G04 APERTURE END LIST*
D10*
X113373623Y-105793623D03*
X119723623Y-103253623D03*
X132873623Y-105793623D03*
X139223623Y-103253623D03*
X171873623Y-86293623D03*
X178223623Y-83753623D03*
X113373623Y-86293623D03*
X119723623Y-83753623D03*
X152373623Y-105793623D03*
X158723623Y-103253623D03*
X171873623Y-105793623D03*
X178223623Y-103253623D03*
X152373623Y-86293623D03*
X158723623Y-83753623D03*
X132873623Y-86293623D03*
X139223623Y-83753623D03*
D11*
X142113623Y-76283623D03*
D12*
X142113623Y-80463623D03*
D11*
X150753623Y-76283623D03*
D12*
X150753623Y-80463623D03*
D13*
X151350000Y-94500000D03*
X149250000Y-92500000D03*
X151350000Y-92500000D03*
X149250000Y-94500000D03*
X164750000Y-93750000D03*
X176100000Y-101500000D03*
X154500000Y-96900000D03*
X163600000Y-108100000D03*
X168000000Y-88000000D03*
X159516377Y-86183623D03*
X134700000Y-94750000D03*
X149533623Y-84733623D03*
X143424123Y-84733623D03*
X155923298Y-101796800D03*
X167500000Y-92100000D03*
D14*
X160394123Y-104894123D02*
X163600000Y-108100000D01*
X164750000Y-91250000D02*
X168000000Y-88000000D01*
X154500000Y-96900000D02*
X154100000Y-97300000D01*
X154100000Y-102100000D02*
X156894123Y-104894123D01*
X154100000Y-97300000D02*
X154100000Y-102100000D01*
X171148521Y-109649123D02*
X172553141Y-108244503D01*
X156894123Y-104894123D02*
X160394123Y-104894123D01*
X172553141Y-107434123D02*
X176100000Y-103887264D01*
X161600000Y-96900000D02*
X164750000Y-93750000D01*
X165149123Y-109649123D02*
X171148521Y-109649123D01*
X176100000Y-103887264D02*
X176100000Y-101500000D01*
X172553141Y-108244503D02*
X172553141Y-107434123D01*
X164750000Y-93750000D02*
X164750000Y-91250000D01*
X154500000Y-96900000D02*
X161600000Y-96900000D01*
X163600000Y-108100000D02*
X165149123Y-109649123D01*
D15*
X149878623Y-89341035D02*
X149878623Y-86596591D01*
X153443623Y-84743623D02*
X154883623Y-86183623D01*
X149250000Y-95500000D02*
X150000000Y-94750000D01*
X151731591Y-84743623D02*
X153443623Y-84743623D01*
X150000000Y-89462412D02*
X149878623Y-89341035D01*
X150000000Y-94750000D02*
X150000000Y-89462412D01*
X149878623Y-86596591D02*
X151731591Y-84743623D01*
X134700000Y-94750000D02*
X135450000Y-95500000D01*
X154883623Y-86183623D02*
X159516377Y-86183623D01*
X135450000Y-95500000D02*
X149250000Y-95500000D01*
D14*
X149533623Y-84733623D02*
X143424123Y-84733623D01*
D15*
X160046377Y-101703623D02*
X167500000Y-94250000D01*
X155923298Y-101796800D02*
X157988414Y-101796800D01*
X158081591Y-101703623D02*
X160046377Y-101703623D01*
X167500000Y-94250000D02*
X167500000Y-92100000D01*
X157988414Y-101796800D02*
X158081591Y-101703623D01*
X114100000Y-87020000D02*
X113373623Y-86293623D01*
X113373623Y-105793623D02*
X114100000Y-105067246D01*
X114100000Y-105067246D02*
X114100000Y-87020000D01*
X132873623Y-105793623D02*
X133600000Y-105067246D01*
X133600000Y-87020000D02*
X132873623Y-86293623D01*
X133600000Y-105067246D02*
X133600000Y-87020000D01*
X152373623Y-89296035D02*
X150750000Y-90919658D01*
X152373623Y-86293623D02*
X152373623Y-89296035D01*
X150750000Y-90919658D02*
X150750000Y-104170000D01*
X150750000Y-104170000D02*
X152373623Y-105793623D01*
X171873623Y-86293623D02*
X172500000Y-86920000D01*
X172500000Y-105167246D02*
X171873623Y-105793623D01*
X172500000Y-86920000D02*
X172500000Y-105167246D01*
G04 #@! TA.AperFunction,Conductor*
G36*
X149821722Y-75353808D02*
G01*
X149867477Y-75406612D01*
X149877421Y-75475770D01*
X149869244Y-75505576D01*
X149792052Y-75691933D01*
X149792050Y-75691941D01*
X149753623Y-75885127D01*
X149753623Y-76033623D01*
X150453623Y-76033623D01*
X150453623Y-76533623D01*
X149753623Y-76533623D01*
X149753623Y-76682118D01*
X149792050Y-76875304D01*
X149792053Y-76875316D01*
X149867430Y-77057294D01*
X149867437Y-77057307D01*
X149976871Y-77221085D01*
X149976874Y-77221089D01*
X150116156Y-77360371D01*
X150116160Y-77360374D01*
X150279938Y-77469808D01*
X150279951Y-77469815D01*
X150461931Y-77545192D01*
X150503623Y-77553485D01*
X150503623Y-76750611D01*
X150513563Y-76767828D01*
X150569418Y-76823683D01*
X150637827Y-76863179D01*
X150714127Y-76883623D01*
X150793119Y-76883623D01*
X150869419Y-76863179D01*
X150937828Y-76823683D01*
X150993683Y-76767828D01*
X151003623Y-76750611D01*
X151003623Y-77553485D01*
X151045313Y-77545192D01*
X151045315Y-77545192D01*
X151161671Y-77496997D01*
X151231140Y-77489528D01*
X151293619Y-77520803D01*
X151329271Y-77580893D01*
X151333123Y-77611558D01*
X151333123Y-78885687D01*
X151313438Y-78952726D01*
X151260634Y-78998481D01*
X151191476Y-79008425D01*
X151161671Y-79000248D01*
X151045314Y-78952052D01*
X151045306Y-78952050D01*
X151003623Y-78943758D01*
X151003623Y-79746634D01*
X150993683Y-79729418D01*
X150937828Y-79673563D01*
X150869419Y-79634067D01*
X150793119Y-79613623D01*
X150714127Y-79613623D01*
X150637827Y-79634067D01*
X150569418Y-79673563D01*
X150513563Y-79729418D01*
X150503623Y-79746634D01*
X150503623Y-78943759D01*
X150503622Y-78943758D01*
X150461939Y-78952050D01*
X150461931Y-78952052D01*
X150279951Y-79027430D01*
X150279938Y-79027437D01*
X150116160Y-79136871D01*
X150116156Y-79136874D01*
X149976871Y-79276159D01*
X149864050Y-79445010D01*
X149862626Y-79444058D01*
X149819365Y-79488074D01*
X149751223Y-79503515D01*
X149685550Y-79479664D01*
X149683530Y-79477929D01*
X149683434Y-79478055D01*
X149676990Y-79473110D01*
X149676988Y-79473108D01*
X149611373Y-79435225D01*
X149545759Y-79397342D01*
X149472573Y-79377732D01*
X149399389Y-79358123D01*
X149247857Y-79358123D01*
X149101486Y-79397342D01*
X148970258Y-79473108D01*
X148970255Y-79473110D01*
X148863110Y-79580255D01*
X148863108Y-79580258D01*
X148787342Y-79711486D01*
X148748123Y-79857857D01*
X148748123Y-80009388D01*
X148787342Y-80155759D01*
X148825225Y-80221373D01*
X148863108Y-80286988D01*
X148970258Y-80394138D01*
X149101488Y-80469904D01*
X149247857Y-80509123D01*
X149247859Y-80509123D01*
X149399387Y-80509123D01*
X149399389Y-80509123D01*
X149545758Y-80469904D01*
X149567622Y-80457280D01*
X149635520Y-80440807D01*
X149701548Y-80463658D01*
X149744740Y-80518578D01*
X149753623Y-80564667D01*
X149753623Y-81112118D01*
X149792050Y-81305304D01*
X149792053Y-81305316D01*
X149867430Y-81487294D01*
X149867437Y-81487307D01*
X149976871Y-81651085D01*
X149976874Y-81651089D01*
X150116156Y-81790371D01*
X150116160Y-81790374D01*
X150279938Y-81899808D01*
X150279951Y-81899815D01*
X150461931Y-81975192D01*
X150503623Y-81983485D01*
X150503623Y-81180611D01*
X150513563Y-81197828D01*
X150569418Y-81253683D01*
X150637827Y-81293179D01*
X150714127Y-81313623D01*
X150793119Y-81313623D01*
X150869419Y-81293179D01*
X150937828Y-81253683D01*
X150993683Y-81197828D01*
X151003623Y-81180611D01*
X151003623Y-81983485D01*
X151045313Y-81975192D01*
X151045315Y-81975192D01*
X151227294Y-81899815D01*
X151227307Y-81899808D01*
X151391085Y-81790374D01*
X151391089Y-81790371D01*
X151530371Y-81651089D01*
X151530374Y-81651085D01*
X151639808Y-81487307D01*
X151639815Y-81487294D01*
X151715192Y-81305316D01*
X151715195Y-81305304D01*
X151753622Y-81112118D01*
X151753623Y-81112115D01*
X151753623Y-80713623D01*
X151053623Y-80713623D01*
X151053623Y-80213623D01*
X151753623Y-80213623D01*
X151753623Y-79958123D01*
X151773308Y-79891084D01*
X151826112Y-79845329D01*
X151877623Y-79834123D01*
X184609123Y-79834123D01*
X184676162Y-79853808D01*
X184721917Y-79906612D01*
X184733123Y-79958123D01*
X184733123Y-117209123D01*
X184713438Y-117276162D01*
X184660634Y-117321917D01*
X184609123Y-117333123D01*
X108258123Y-117333123D01*
X108191084Y-117313438D01*
X108145329Y-117260634D01*
X108134123Y-117209123D01*
X108134123Y-88745044D01*
X110978123Y-88745044D01*
X110978123Y-88922201D01*
X111005837Y-89097179D01*
X111060579Y-89265662D01*
X111060580Y-89265665D01*
X111116336Y-89375090D01*
X111141009Y-89423513D01*
X111245140Y-89566837D01*
X111370409Y-89692106D01*
X111513733Y-89796237D01*
X111582200Y-89831123D01*
X111671580Y-89876665D01*
X111671583Y-89876666D01*
X111755824Y-89904037D01*
X111840068Y-89931409D01*
X112015044Y-89959123D01*
X112015045Y-89959123D01*
X112192201Y-89959123D01*
X112192202Y-89959123D01*
X112367178Y-89931409D01*
X112535665Y-89876665D01*
X112693513Y-89796237D01*
X112836837Y-89692106D01*
X112962106Y-89566837D01*
X113066237Y-89423513D01*
X113146665Y-89265665D01*
X113201409Y-89097178D01*
X113229123Y-88922202D01*
X113229123Y-88745044D01*
X113201409Y-88570068D01*
X113146665Y-88401581D01*
X113146665Y-88401580D01*
X113118813Y-88346918D01*
X113066237Y-88243733D01*
X113065152Y-88242240D01*
X113055825Y-88229401D01*
X113032345Y-88163595D01*
X113048171Y-88095541D01*
X113098277Y-88046846D01*
X113166755Y-88032971D01*
X113174615Y-88033899D01*
X113242441Y-88044123D01*
X113375500Y-88044123D01*
X113442539Y-88063808D01*
X113488294Y-88116612D01*
X113499500Y-88168123D01*
X113499500Y-103919123D01*
X113479815Y-103986162D01*
X113427011Y-104031917D01*
X113375500Y-104043123D01*
X113242435Y-104043123D01*
X113080870Y-104067476D01*
X112983008Y-104082227D01*
X112983005Y-104082228D01*
X112982999Y-104082229D01*
X112732296Y-104159561D01*
X112495926Y-104273390D01*
X112495925Y-104273391D01*
X112495919Y-104273394D01*
X112495919Y-104273395D01*
X112483640Y-104281767D01*
X112279143Y-104421190D01*
X112086821Y-104599637D01*
X111923237Y-104804766D01*
X111792055Y-105031979D01*
X111696205Y-105276201D01*
X111696199Y-105276220D01*
X111637820Y-105531997D01*
X111637819Y-105532002D01*
X111618215Y-105793618D01*
X111618215Y-105793627D01*
X111637819Y-106055243D01*
X111637820Y-106055248D01*
X111696199Y-106311025D01*
X111696201Y-106311034D01*
X111696203Y-106311039D01*
X111792055Y-106555266D01*
X111923237Y-106782480D01*
X111974356Y-106846581D01*
X112086820Y-106987607D01*
X112093000Y-106993340D01*
X112128756Y-107053367D01*
X112126383Y-107123197D01*
X112086634Y-107180658D01*
X112022129Y-107207507D01*
X112018411Y-107207857D01*
X112015051Y-107208121D01*
X111840066Y-107235837D01*
X111671583Y-107290579D01*
X111671580Y-107290580D01*
X111513732Y-107371009D01*
X111435727Y-107427684D01*
X111370409Y-107475140D01*
X111370407Y-107475142D01*
X111370406Y-107475142D01*
X111245142Y-107600406D01*
X111245142Y-107600407D01*
X111245140Y-107600409D01*
X111227637Y-107624500D01*
X111141009Y-107743732D01*
X111060580Y-107901580D01*
X111060579Y-107901583D01*
X111005837Y-108070066D01*
X110978123Y-108245044D01*
X110978123Y-108422201D01*
X111005837Y-108597179D01*
X111060579Y-108765662D01*
X111060580Y-108765665D01*
X111134755Y-108911239D01*
X111141009Y-108923513D01*
X111245140Y-109066837D01*
X111370409Y-109192106D01*
X111513733Y-109296237D01*
X111582200Y-109331123D01*
X111671580Y-109376665D01*
X111671583Y-109376666D01*
X111755824Y-109404037D01*
X111840068Y-109431409D01*
X112015044Y-109459123D01*
X112015045Y-109459123D01*
X112192201Y-109459123D01*
X112192202Y-109459123D01*
X112367178Y-109431409D01*
X112535665Y-109376665D01*
X112693513Y-109296237D01*
X112836837Y-109192106D01*
X112962106Y-109066837D01*
X113066237Y-108923513D01*
X113146665Y-108765665D01*
X113201409Y-108597178D01*
X113229123Y-108422202D01*
X113229123Y-108245044D01*
X113219788Y-108186109D01*
X114933123Y-108186109D01*
X114933123Y-108481136D01*
X114956508Y-108658757D01*
X114971630Y-108773616D01*
X115021068Y-108958123D01*
X115047984Y-109058574D01*
X115047987Y-109058584D01*
X115160877Y-109331123D01*
X115160881Y-109331133D01*
X115308384Y-109586616D01*
X115487975Y-109820663D01*
X115487981Y-109820670D01*
X115696575Y-110029264D01*
X115696582Y-110029270D01*
X115930629Y-110208861D01*
X116186112Y-110356364D01*
X116186113Y-110356364D01*
X116186116Y-110356366D01*
X116458671Y-110469262D01*
X116743630Y-110545616D01*
X117036117Y-110584123D01*
X117036124Y-110584123D01*
X117331122Y-110584123D01*
X117331129Y-110584123D01*
X117623616Y-110545616D01*
X117908575Y-110469262D01*
X118181130Y-110356366D01*
X118436617Y-110208861D01*
X118670665Y-110029269D01*
X118879269Y-109820665D01*
X119058861Y-109586617D01*
X119206366Y-109331130D01*
X119319262Y-109058575D01*
X119395616Y-108773616D01*
X119434123Y-108481129D01*
X119434123Y-108245044D01*
X121138123Y-108245044D01*
X121138123Y-108422201D01*
X121165837Y-108597179D01*
X121220579Y-108765662D01*
X121220580Y-108765665D01*
X121294755Y-108911239D01*
X121301009Y-108923513D01*
X121405140Y-109066837D01*
X121530409Y-109192106D01*
X121673733Y-109296237D01*
X121742200Y-109331123D01*
X121831580Y-109376665D01*
X121831583Y-109376666D01*
X121915824Y-109404037D01*
X122000068Y-109431409D01*
X122175044Y-109459123D01*
X122175045Y-109459123D01*
X122352201Y-109459123D01*
X122352202Y-109459123D01*
X122527178Y-109431409D01*
X122695665Y-109376665D01*
X122853513Y-109296237D01*
X122996837Y-109192106D01*
X123122106Y-109066837D01*
X123226237Y-108923513D01*
X123306665Y-108765665D01*
X123361409Y-108597178D01*
X123389123Y-108422202D01*
X123389123Y-108245044D01*
X123361409Y-108070068D01*
X123306665Y-107901581D01*
X123306665Y-107901580D01*
X123265071Y-107819949D01*
X123226237Y-107743733D01*
X123122106Y-107600409D01*
X122996837Y-107475140D01*
X122853513Y-107371009D01*
X122695665Y-107290580D01*
X122695662Y-107290579D01*
X122527179Y-107235837D01*
X122425232Y-107219690D01*
X122352202Y-107208123D01*
X122175044Y-107208123D01*
X122116718Y-107217361D01*
X122000066Y-107235837D01*
X121831583Y-107290579D01*
X121831580Y-107290580D01*
X121673732Y-107371009D01*
X121595727Y-107427684D01*
X121530409Y-107475140D01*
X121530407Y-107475142D01*
X121530406Y-107475142D01*
X121405142Y-107600406D01*
X121405142Y-107600407D01*
X121405140Y-107600409D01*
X121387637Y-107624500D01*
X121301009Y-107743732D01*
X121220580Y-107901580D01*
X121220579Y-107901583D01*
X121165837Y-108070066D01*
X121138123Y-108245044D01*
X119434123Y-108245044D01*
X119434123Y-108186117D01*
X119395616Y-107893630D01*
X119319262Y-107608671D01*
X119314733Y-107597738D01*
X119263952Y-107475142D01*
X119206366Y-107336116D01*
X119197877Y-107321413D01*
X119058861Y-107080629D01*
X118879270Y-106846582D01*
X118879264Y-106846575D01*
X118670670Y-106637981D01*
X118670663Y-106637975D01*
X118436616Y-106458384D01*
X118181133Y-106310881D01*
X118181123Y-106310877D01*
X117908584Y-106197987D01*
X117908577Y-106197985D01*
X117908575Y-106197984D01*
X117623616Y-106121630D01*
X117574736Y-106115194D01*
X117331136Y-106083123D01*
X117331129Y-106083123D01*
X117036117Y-106083123D01*
X117036109Y-106083123D01*
X116757708Y-106119776D01*
X116743630Y-106121630D01*
X116458671Y-106197984D01*
X116458661Y-106197987D01*
X116186122Y-106310877D01*
X116186112Y-106310881D01*
X115930629Y-106458384D01*
X115696582Y-106637975D01*
X115696575Y-106637981D01*
X115487981Y-106846575D01*
X115487975Y-106846582D01*
X115308384Y-107080629D01*
X115160881Y-107336112D01*
X115160877Y-107336122D01*
X115047987Y-107608661D01*
X115047984Y-107608671D01*
X115011795Y-107743733D01*
X114971631Y-107893627D01*
X114971629Y-107893638D01*
X114933123Y-108186109D01*
X113219788Y-108186109D01*
X113201409Y-108070068D01*
X113146665Y-107901581D01*
X113146665Y-107901580D01*
X113105071Y-107819949D01*
X113066237Y-107743733D01*
X113065152Y-107742240D01*
X113055825Y-107729401D01*
X113032345Y-107663595D01*
X113048171Y-107595541D01*
X113098277Y-107546846D01*
X113166755Y-107532971D01*
X113174615Y-107533899D01*
X113242441Y-107544123D01*
X113504805Y-107544123D01*
X113764238Y-107505019D01*
X114014946Y-107427686D01*
X114216219Y-107330758D01*
X114251319Y-107313855D01*
X114251319Y-107313854D01*
X114251327Y-107313851D01*
X114468102Y-107166056D01*
X114660428Y-106987604D01*
X114824009Y-106782480D01*
X114955191Y-106555266D01*
X115051043Y-106311039D01*
X115109425Y-106055253D01*
X115129031Y-105793623D01*
X115113406Y-105585123D01*
X115109426Y-105532002D01*
X115109425Y-105531997D01*
X115109425Y-105531993D01*
X115051043Y-105276207D01*
X114955191Y-105031980D01*
X114824009Y-104804766D01*
X114824006Y-104804762D01*
X114727553Y-104683812D01*
X114701144Y-104619125D01*
X114700500Y-104606500D01*
X114700500Y-103253618D01*
X117968215Y-103253618D01*
X117968215Y-103253627D01*
X117987819Y-103515243D01*
X117987820Y-103515248D01*
X118046199Y-103771025D01*
X118046201Y-103771034D01*
X118046203Y-103771039D01*
X118142055Y-104015266D01*
X118273237Y-104242480D01*
X118400279Y-104401785D01*
X118436821Y-104447608D01*
X118540748Y-104544037D01*
X118629144Y-104626056D01*
X118845919Y-104773851D01*
X118845924Y-104773853D01*
X118845925Y-104773854D01*
X118845926Y-104773855D01*
X118971466Y-104834311D01*
X119082296Y-104887684D01*
X119082297Y-104887684D01*
X119082300Y-104887686D01*
X119333008Y-104965019D01*
X119592441Y-105004123D01*
X119854805Y-105004123D01*
X120114238Y-104965019D01*
X120364946Y-104887686D01*
X120601327Y-104773851D01*
X120818102Y-104626056D01*
X121010428Y-104447604D01*
X121174009Y-104242480D01*
X121305191Y-104015266D01*
X121401043Y-103771039D01*
X121459425Y-103515253D01*
X121479031Y-103253623D01*
X121459425Y-102991993D01*
X121401043Y-102736207D01*
X121305191Y-102491980D01*
X121174009Y-102264766D01*
X121010428Y-102059642D01*
X121010427Y-102059641D01*
X121010424Y-102059637D01*
X120818102Y-101881190D01*
X120772497Y-101850097D01*
X120601327Y-101733395D01*
X120601323Y-101733393D01*
X120601320Y-101733391D01*
X120601319Y-101733390D01*
X120364948Y-101619561D01*
X120364950Y-101619561D01*
X120114246Y-101542229D01*
X120114242Y-101542228D01*
X120114238Y-101542227D01*
X119989446Y-101523417D01*
X119854810Y-101503123D01*
X119854805Y-101503123D01*
X119592441Y-101503123D01*
X119592435Y-101503123D01*
X119430870Y-101527476D01*
X119333008Y-101542227D01*
X119333005Y-101542228D01*
X119332999Y-101542229D01*
X119082296Y-101619561D01*
X118845926Y-101733390D01*
X118845925Y-101733391D01*
X118629143Y-101881190D01*
X118436821Y-102059637D01*
X118273237Y-102264766D01*
X118142055Y-102491979D01*
X118046205Y-102736201D01*
X118046199Y-102736220D01*
X117987820Y-102991997D01*
X117987819Y-102992002D01*
X117968215Y-103253618D01*
X114700500Y-103253618D01*
X114700500Y-89106054D01*
X114720185Y-89039015D01*
X114772989Y-88993260D01*
X114842147Y-88983316D01*
X114905703Y-89012341D01*
X114943477Y-89071119D01*
X114947439Y-89089869D01*
X114971628Y-89273605D01*
X114971629Y-89273610D01*
X114971630Y-89273616D01*
X115039745Y-89527825D01*
X115047984Y-89558574D01*
X115047987Y-89558584D01*
X115160877Y-89831123D01*
X115160881Y-89831133D01*
X115308384Y-90086616D01*
X115487975Y-90320663D01*
X115487981Y-90320670D01*
X115696575Y-90529264D01*
X115696582Y-90529270D01*
X115930629Y-90708861D01*
X116186112Y-90856364D01*
X116186113Y-90856364D01*
X116186116Y-90856366D01*
X116458671Y-90969262D01*
X116743630Y-91045616D01*
X117036117Y-91084123D01*
X117036124Y-91084123D01*
X117331122Y-91084123D01*
X117331129Y-91084123D01*
X117623616Y-91045616D01*
X117908575Y-90969262D01*
X118181130Y-90856366D01*
X118436617Y-90708861D01*
X118670665Y-90529269D01*
X118879269Y-90320665D01*
X119058861Y-90086617D01*
X119206366Y-89831130D01*
X119319262Y-89558575D01*
X119395616Y-89273616D01*
X119434123Y-88981129D01*
X119434123Y-88745044D01*
X121138123Y-88745044D01*
X121138123Y-88922201D01*
X121165837Y-89097179D01*
X121220579Y-89265662D01*
X121220580Y-89265665D01*
X121276336Y-89375090D01*
X121301009Y-89423513D01*
X121405140Y-89566837D01*
X121530409Y-89692106D01*
X121673733Y-89796237D01*
X121742200Y-89831123D01*
X121831580Y-89876665D01*
X121831583Y-89876666D01*
X121915824Y-89904037D01*
X122000068Y-89931409D01*
X122175044Y-89959123D01*
X122175045Y-89959123D01*
X122352201Y-89959123D01*
X122352202Y-89959123D01*
X122527178Y-89931409D01*
X122695665Y-89876665D01*
X122853513Y-89796237D01*
X122996837Y-89692106D01*
X123122106Y-89566837D01*
X123226237Y-89423513D01*
X123306665Y-89265665D01*
X123361409Y-89097178D01*
X123389123Y-88922202D01*
X123389123Y-88745044D01*
X130478123Y-88745044D01*
X130478123Y-88922201D01*
X130505837Y-89097179D01*
X130560579Y-89265662D01*
X130560580Y-89265665D01*
X130616336Y-89375090D01*
X130641009Y-89423513D01*
X130745140Y-89566837D01*
X130870409Y-89692106D01*
X131013733Y-89796237D01*
X131082200Y-89831123D01*
X131171580Y-89876665D01*
X131171583Y-89876666D01*
X131255824Y-89904037D01*
X131340068Y-89931409D01*
X131515044Y-89959123D01*
X131515045Y-89959123D01*
X131692201Y-89959123D01*
X131692202Y-89959123D01*
X131867178Y-89931409D01*
X132035665Y-89876665D01*
X132193513Y-89796237D01*
X132336837Y-89692106D01*
X132462106Y-89566837D01*
X132566237Y-89423513D01*
X132646665Y-89265665D01*
X132701409Y-89097178D01*
X132729123Y-88922202D01*
X132729123Y-88745044D01*
X132701409Y-88570068D01*
X132646665Y-88401581D01*
X132646665Y-88401580D01*
X132618813Y-88346918D01*
X132566237Y-88243733D01*
X132565152Y-88242240D01*
X132555825Y-88229401D01*
X132532345Y-88163595D01*
X132548171Y-88095541D01*
X132598277Y-88046846D01*
X132666755Y-88032971D01*
X132674615Y-88033899D01*
X132742441Y-88044123D01*
X132875500Y-88044123D01*
X132942539Y-88063808D01*
X132988294Y-88116612D01*
X132999500Y-88168123D01*
X132999500Y-103919123D01*
X132979815Y-103986162D01*
X132927011Y-104031917D01*
X132875500Y-104043123D01*
X132742435Y-104043123D01*
X132580870Y-104067476D01*
X132483008Y-104082227D01*
X132483005Y-104082228D01*
X132482999Y-104082229D01*
X132232296Y-104159561D01*
X131995926Y-104273390D01*
X131995925Y-104273391D01*
X131995919Y-104273394D01*
X131995919Y-104273395D01*
X131983640Y-104281767D01*
X131779143Y-104421190D01*
X131586821Y-104599637D01*
X131423237Y-104804766D01*
X131292055Y-105031979D01*
X131196205Y-105276201D01*
X131196199Y-105276220D01*
X131137820Y-105531997D01*
X131137819Y-105532002D01*
X131118215Y-105793618D01*
X131118215Y-105793627D01*
X131137819Y-106055243D01*
X131137820Y-106055248D01*
X131196199Y-106311025D01*
X131196201Y-106311034D01*
X131196203Y-106311039D01*
X131292055Y-106555266D01*
X131423237Y-106782480D01*
X131474356Y-106846581D01*
X131586820Y-106987607D01*
X131593000Y-106993340D01*
X131628756Y-107053367D01*
X131626383Y-107123197D01*
X131586634Y-107180658D01*
X131522129Y-107207507D01*
X131518411Y-107207857D01*
X131515051Y-107208121D01*
X131340066Y-107235837D01*
X131171583Y-107290579D01*
X131171580Y-107290580D01*
X131013732Y-107371009D01*
X130935727Y-107427684D01*
X130870409Y-107475140D01*
X130870407Y-107475142D01*
X130870406Y-107475142D01*
X130745142Y-107600406D01*
X130745142Y-107600407D01*
X130745140Y-107600409D01*
X130727637Y-107624500D01*
X130641009Y-107743732D01*
X130560580Y-107901580D01*
X130560579Y-107901583D01*
X130505837Y-108070066D01*
X130478123Y-108245044D01*
X130478123Y-108422201D01*
X130505837Y-108597179D01*
X130560579Y-108765662D01*
X130560580Y-108765665D01*
X130634755Y-108911239D01*
X130641009Y-108923513D01*
X130745140Y-109066837D01*
X130870409Y-109192106D01*
X131013733Y-109296237D01*
X131082200Y-109331123D01*
X131171580Y-109376665D01*
X131171583Y-109376666D01*
X131255824Y-109404037D01*
X131340068Y-109431409D01*
X131515044Y-109459123D01*
X131515045Y-109459123D01*
X131692201Y-109459123D01*
X131692202Y-109459123D01*
X131867178Y-109431409D01*
X132035665Y-109376665D01*
X132193513Y-109296237D01*
X132336837Y-109192106D01*
X132462106Y-109066837D01*
X132566237Y-108923513D01*
X132646665Y-108765665D01*
X132701409Y-108597178D01*
X132729123Y-108422202D01*
X132729123Y-108245044D01*
X132719788Y-108186109D01*
X134433123Y-108186109D01*
X134433123Y-108481136D01*
X134456508Y-108658757D01*
X134471630Y-108773616D01*
X134521068Y-108958123D01*
X134547984Y-109058574D01*
X134547987Y-109058584D01*
X134660877Y-109331123D01*
X134660881Y-109331133D01*
X134808384Y-109586616D01*
X134987975Y-109820663D01*
X134987981Y-109820670D01*
X135196575Y-110029264D01*
X135196582Y-110029270D01*
X135430629Y-110208861D01*
X135686112Y-110356364D01*
X135686113Y-110356364D01*
X135686116Y-110356366D01*
X135958671Y-110469262D01*
X136243630Y-110545616D01*
X136536117Y-110584123D01*
X136536124Y-110584123D01*
X136831122Y-110584123D01*
X136831129Y-110584123D01*
X137123616Y-110545616D01*
X137408575Y-110469262D01*
X137681130Y-110356366D01*
X137936617Y-110208861D01*
X138170665Y-110029269D01*
X138379269Y-109820665D01*
X138558861Y-109586617D01*
X138706366Y-109331130D01*
X138819262Y-109058575D01*
X138895616Y-108773616D01*
X138934123Y-108481129D01*
X138934123Y-108245044D01*
X140638123Y-108245044D01*
X140638123Y-108422201D01*
X140665837Y-108597179D01*
X140720579Y-108765662D01*
X140720580Y-108765665D01*
X140794755Y-108911239D01*
X140801009Y-108923513D01*
X140905140Y-109066837D01*
X141030409Y-109192106D01*
X141173733Y-109296237D01*
X141242200Y-109331123D01*
X141331580Y-109376665D01*
X141331583Y-109376666D01*
X141415824Y-109404037D01*
X141500068Y-109431409D01*
X141675044Y-109459123D01*
X141675045Y-109459123D01*
X141852201Y-109459123D01*
X141852202Y-109459123D01*
X142027178Y-109431409D01*
X142195665Y-109376665D01*
X142353513Y-109296237D01*
X142496837Y-109192106D01*
X142622106Y-109066837D01*
X142726237Y-108923513D01*
X142754159Y-108868713D01*
X145074500Y-108868713D01*
X145074500Y-109081287D01*
X145107754Y-109291243D01*
X145135509Y-109376665D01*
X145173444Y-109493414D01*
X145269951Y-109682820D01*
X145394890Y-109854786D01*
X145545213Y-110005109D01*
X145717179Y-110130048D01*
X145717181Y-110130049D01*
X145717184Y-110130051D01*
X145906588Y-110226557D01*
X146108757Y-110292246D01*
X146318713Y-110325500D01*
X146318714Y-110325500D01*
X146531286Y-110325500D01*
X146531287Y-110325500D01*
X146741243Y-110292246D01*
X146943412Y-110226557D01*
X147132816Y-110130051D01*
X147154789Y-110114086D01*
X147304786Y-110005109D01*
X147304788Y-110005106D01*
X147304792Y-110005104D01*
X147455104Y-109854792D01*
X147455106Y-109854788D01*
X147455109Y-109854786D01*
X147580048Y-109682820D01*
X147580047Y-109682820D01*
X147580051Y-109682816D01*
X147676557Y-109493412D01*
X147742246Y-109291243D01*
X147775500Y-109081287D01*
X147775500Y-108868713D01*
X147742246Y-108658757D01*
X147676557Y-108456588D01*
X147580051Y-108267184D01*
X147580049Y-108267181D01*
X147580048Y-108267179D01*
X147455109Y-108095213D01*
X147304786Y-107944890D01*
X147132820Y-107819951D01*
X146943414Y-107723444D01*
X146943413Y-107723443D01*
X146943412Y-107723443D01*
X146741243Y-107657754D01*
X146741241Y-107657753D01*
X146741240Y-107657753D01*
X146579957Y-107632208D01*
X146531287Y-107624500D01*
X146318713Y-107624500D01*
X146270042Y-107632208D01*
X146108760Y-107657753D01*
X145906585Y-107723444D01*
X145717179Y-107819951D01*
X145545213Y-107944890D01*
X145394890Y-108095213D01*
X145269951Y-108267179D01*
X145173444Y-108456585D01*
X145107753Y-108658760D01*
X145078018Y-108846499D01*
X145074500Y-108868713D01*
X142754159Y-108868713D01*
X142806665Y-108765665D01*
X142861409Y-108597178D01*
X142889123Y-108422202D01*
X142889123Y-108245044D01*
X142861409Y-108070068D01*
X142806665Y-107901581D01*
X142806665Y-107901580D01*
X142765071Y-107819949D01*
X142726237Y-107743733D01*
X142622106Y-107600409D01*
X142496837Y-107475140D01*
X142353513Y-107371009D01*
X142195665Y-107290580D01*
X142195662Y-107290579D01*
X142027179Y-107235837D01*
X141925232Y-107219690D01*
X141852202Y-107208123D01*
X141675044Y-107208123D01*
X141616718Y-107217361D01*
X141500066Y-107235837D01*
X141331583Y-107290579D01*
X141331580Y-107290580D01*
X141173732Y-107371009D01*
X141095727Y-107427684D01*
X141030409Y-107475140D01*
X141030407Y-107475142D01*
X141030406Y-107475142D01*
X140905142Y-107600406D01*
X140905142Y-107600407D01*
X140905140Y-107600409D01*
X140887637Y-107624500D01*
X140801009Y-107743732D01*
X140720580Y-107901580D01*
X140720579Y-107901583D01*
X140665837Y-108070066D01*
X140638123Y-108245044D01*
X138934123Y-108245044D01*
X138934123Y-108186117D01*
X138895616Y-107893630D01*
X138819262Y-107608671D01*
X138814733Y-107597738D01*
X138763952Y-107475142D01*
X138706366Y-107336116D01*
X138697877Y-107321413D01*
X138558861Y-107080629D01*
X138379270Y-106846582D01*
X138379264Y-106846575D01*
X138170670Y-106637981D01*
X138170663Y-106637975D01*
X137936616Y-106458384D01*
X137681133Y-106310881D01*
X137681123Y-106310877D01*
X137408584Y-106197987D01*
X137408577Y-106197985D01*
X137408575Y-106197984D01*
X137123616Y-106121630D01*
X137074736Y-106115194D01*
X136831136Y-106083123D01*
X136831129Y-106083123D01*
X136536117Y-106083123D01*
X136536109Y-106083123D01*
X136257708Y-106119776D01*
X136243630Y-106121630D01*
X135958671Y-106197984D01*
X135958661Y-106197987D01*
X135686122Y-106310877D01*
X135686112Y-106310881D01*
X135430629Y-106458384D01*
X135196582Y-106637975D01*
X135196575Y-106637981D01*
X134987981Y-106846575D01*
X134987975Y-106846582D01*
X134808384Y-107080629D01*
X134660881Y-107336112D01*
X134660877Y-107336122D01*
X134547987Y-107608661D01*
X134547984Y-107608671D01*
X134511795Y-107743733D01*
X134471631Y-107893627D01*
X134471629Y-107893638D01*
X134433123Y-108186109D01*
X132719788Y-108186109D01*
X132701409Y-108070068D01*
X132646665Y-107901581D01*
X132646665Y-107901580D01*
X132605071Y-107819949D01*
X132566237Y-107743733D01*
X132565152Y-107742240D01*
X132555825Y-107729401D01*
X132532345Y-107663595D01*
X132548171Y-107595541D01*
X132598277Y-107546846D01*
X132666755Y-107532971D01*
X132674615Y-107533899D01*
X132742441Y-107544123D01*
X133004805Y-107544123D01*
X133264238Y-107505019D01*
X133514946Y-107427686D01*
X133716219Y-107330758D01*
X133751319Y-107313855D01*
X133751319Y-107313854D01*
X133751327Y-107313851D01*
X133968102Y-107166056D01*
X134160428Y-106987604D01*
X134324009Y-106782480D01*
X134455191Y-106555266D01*
X134551043Y-106311039D01*
X134609425Y-106055253D01*
X134629031Y-105793623D01*
X134613406Y-105585123D01*
X134609426Y-105532002D01*
X134609425Y-105531997D01*
X134609425Y-105531993D01*
X134551043Y-105276207D01*
X134455191Y-105031980D01*
X134324009Y-104804766D01*
X134324006Y-104804762D01*
X134227553Y-104683812D01*
X134201144Y-104619125D01*
X134200500Y-104606500D01*
X134200500Y-103253618D01*
X137468215Y-103253618D01*
X137468215Y-103253627D01*
X137487819Y-103515243D01*
X137487820Y-103515248D01*
X137546199Y-103771025D01*
X137546201Y-103771034D01*
X137546203Y-103771039D01*
X137642055Y-104015266D01*
X137773237Y-104242480D01*
X137900279Y-104401785D01*
X137936821Y-104447608D01*
X138040748Y-104544037D01*
X138129144Y-104626056D01*
X138345919Y-104773851D01*
X138345924Y-104773853D01*
X138345925Y-104773854D01*
X138345926Y-104773855D01*
X138471466Y-104834311D01*
X138582296Y-104887684D01*
X138582297Y-104887684D01*
X138582300Y-104887686D01*
X138833008Y-104965019D01*
X139092441Y-105004123D01*
X139354805Y-105004123D01*
X139614238Y-104965019D01*
X139864946Y-104887686D01*
X140101327Y-104773851D01*
X140318102Y-104626056D01*
X140510428Y-104447604D01*
X140674009Y-104242480D01*
X140805191Y-104015266D01*
X140901043Y-103771039D01*
X140959425Y-103515253D01*
X140979031Y-103253623D01*
X140959425Y-102991993D01*
X140901043Y-102736207D01*
X140805191Y-102491980D01*
X140674009Y-102264766D01*
X140510428Y-102059642D01*
X140510427Y-102059641D01*
X140510424Y-102059637D01*
X140318102Y-101881190D01*
X140272497Y-101850097D01*
X140101327Y-101733395D01*
X140101323Y-101733393D01*
X140101320Y-101733391D01*
X140101319Y-101733390D01*
X139864948Y-101619561D01*
X139864950Y-101619561D01*
X139614246Y-101542229D01*
X139614242Y-101542228D01*
X139614238Y-101542227D01*
X139489446Y-101523417D01*
X139354810Y-101503123D01*
X139354805Y-101503123D01*
X139092441Y-101503123D01*
X139092435Y-101503123D01*
X138930870Y-101527476D01*
X138833008Y-101542227D01*
X138833005Y-101542228D01*
X138832999Y-101542229D01*
X138582296Y-101619561D01*
X138345926Y-101733390D01*
X138345925Y-101733391D01*
X138129143Y-101881190D01*
X137936821Y-102059637D01*
X137773237Y-102264766D01*
X137642055Y-102491979D01*
X137546205Y-102736201D01*
X137546199Y-102736220D01*
X137487820Y-102991997D01*
X137487819Y-102992002D01*
X137468215Y-103253618D01*
X134200500Y-103253618D01*
X134200500Y-95598071D01*
X134220185Y-95531032D01*
X134272989Y-95485277D01*
X134342147Y-95475333D01*
X134365455Y-95481030D01*
X134520741Y-95535367D01*
X134520742Y-95535367D01*
X134520745Y-95535368D01*
X134607669Y-95545161D01*
X134672080Y-95572226D01*
X134681465Y-95580700D01*
X134965139Y-95864374D01*
X134965149Y-95864385D01*
X134969479Y-95868715D01*
X134969480Y-95868716D01*
X135081284Y-95980520D01*
X135168095Y-96030639D01*
X135168097Y-96030641D01*
X135206151Y-96052611D01*
X135218215Y-96059577D01*
X135370943Y-96100500D01*
X149163331Y-96100500D01*
X149163347Y-96100501D01*
X149170943Y-96100501D01*
X149329054Y-96100501D01*
X149329057Y-96100501D01*
X149481785Y-96059577D01*
X149531904Y-96030639D01*
X149618716Y-95980520D01*
X149730520Y-95868716D01*
X149730520Y-95868714D01*
X149740728Y-95858507D01*
X149740729Y-95858504D01*
X149937820Y-95661414D01*
X149999142Y-95627930D01*
X150068834Y-95632914D01*
X150124767Y-95674786D01*
X150149184Y-95740250D01*
X150149500Y-95749096D01*
X150149500Y-104083330D01*
X150149499Y-104083348D01*
X150149499Y-104249054D01*
X150149498Y-104249054D01*
X150190423Y-104401785D01*
X150201627Y-104421190D01*
X150201628Y-104421193D01*
X150269475Y-104538709D01*
X150269481Y-104538717D01*
X150388349Y-104657585D01*
X150388355Y-104657590D01*
X150726384Y-104995620D01*
X150759869Y-105056943D01*
X150754885Y-105126635D01*
X150754132Y-105128602D01*
X150696202Y-105276208D01*
X150637820Y-105531997D01*
X150637819Y-105532002D01*
X150618215Y-105793618D01*
X150618215Y-105793627D01*
X150637819Y-106055243D01*
X150637820Y-106055248D01*
X150696199Y-106311025D01*
X150696201Y-106311034D01*
X150696203Y-106311039D01*
X150792055Y-106555266D01*
X150923237Y-106782480D01*
X150974356Y-106846581D01*
X151086820Y-106987607D01*
X151093000Y-106993340D01*
X151128756Y-107053367D01*
X151126383Y-107123197D01*
X151086634Y-107180658D01*
X151022129Y-107207507D01*
X151018411Y-107207857D01*
X151015051Y-107208121D01*
X150840066Y-107235837D01*
X150671583Y-107290579D01*
X150671580Y-107290580D01*
X150513732Y-107371009D01*
X150435727Y-107427684D01*
X150370409Y-107475140D01*
X150370407Y-107475142D01*
X150370406Y-107475142D01*
X150245142Y-107600406D01*
X150245142Y-107600407D01*
X150245140Y-107600409D01*
X150227637Y-107624500D01*
X150141009Y-107743732D01*
X150060580Y-107901580D01*
X150060579Y-107901583D01*
X150005837Y-108070066D01*
X149978123Y-108245044D01*
X149978123Y-108422201D01*
X150005837Y-108597179D01*
X150060579Y-108765662D01*
X150060580Y-108765665D01*
X150134755Y-108911239D01*
X150141009Y-108923513D01*
X150245140Y-109066837D01*
X150370409Y-109192106D01*
X150513733Y-109296237D01*
X150582200Y-109331123D01*
X150671580Y-109376665D01*
X150671583Y-109376666D01*
X150755824Y-109404037D01*
X150840068Y-109431409D01*
X151015044Y-109459123D01*
X151015045Y-109459123D01*
X151192201Y-109459123D01*
X151192202Y-109459123D01*
X151367178Y-109431409D01*
X151535665Y-109376665D01*
X151693513Y-109296237D01*
X151836837Y-109192106D01*
X151962106Y-109066837D01*
X152066237Y-108923513D01*
X152146665Y-108765665D01*
X152201409Y-108597178D01*
X152229123Y-108422202D01*
X152229123Y-108245044D01*
X152219788Y-108186109D01*
X153933123Y-108186109D01*
X153933123Y-108481136D01*
X153956508Y-108658757D01*
X153971630Y-108773616D01*
X154021068Y-108958123D01*
X154047984Y-109058574D01*
X154047987Y-109058584D01*
X154160877Y-109331123D01*
X154160881Y-109331133D01*
X154308384Y-109586616D01*
X154487975Y-109820663D01*
X154487981Y-109820670D01*
X154696575Y-110029264D01*
X154696582Y-110029270D01*
X154930629Y-110208861D01*
X155186112Y-110356364D01*
X155186113Y-110356364D01*
X155186116Y-110356366D01*
X155458671Y-110469262D01*
X155743630Y-110545616D01*
X156036117Y-110584123D01*
X156036124Y-110584123D01*
X156331122Y-110584123D01*
X156331129Y-110584123D01*
X156623616Y-110545616D01*
X156908575Y-110469262D01*
X157181130Y-110356366D01*
X157436617Y-110208861D01*
X157670665Y-110029269D01*
X157879269Y-109820665D01*
X158058861Y-109586617D01*
X158206366Y-109331130D01*
X158319262Y-109058575D01*
X158395616Y-108773616D01*
X158434123Y-108481129D01*
X158434123Y-108186117D01*
X158395616Y-107893630D01*
X158319262Y-107608671D01*
X158314733Y-107597738D01*
X158263952Y-107475142D01*
X158206366Y-107336116D01*
X158197877Y-107321413D01*
X158058861Y-107080629D01*
X157879270Y-106846582D01*
X157879264Y-106846575D01*
X157670670Y-106637981D01*
X157670663Y-106637975D01*
X157436616Y-106458384D01*
X157181133Y-106310881D01*
X157181123Y-106310877D01*
X156908584Y-106197987D01*
X156908577Y-106197985D01*
X156908575Y-106197984D01*
X156623616Y-106121630D01*
X156574736Y-106115194D01*
X156331136Y-106083123D01*
X156331129Y-106083123D01*
X156036117Y-106083123D01*
X156036109Y-106083123D01*
X155757708Y-106119776D01*
X155743630Y-106121630D01*
X155458671Y-106197984D01*
X155458661Y-106197987D01*
X155186122Y-106310877D01*
X155186112Y-106310881D01*
X154930629Y-106458384D01*
X154696582Y-106637975D01*
X154696575Y-106637981D01*
X154487981Y-106846575D01*
X154487975Y-106846582D01*
X154308384Y-107080629D01*
X154160881Y-107336112D01*
X154160877Y-107336122D01*
X154047987Y-107608661D01*
X154047984Y-107608671D01*
X154011795Y-107743733D01*
X153971631Y-107893627D01*
X153971629Y-107893638D01*
X153933123Y-108186109D01*
X152219788Y-108186109D01*
X152201409Y-108070068D01*
X152146665Y-107901581D01*
X152146665Y-107901580D01*
X152105071Y-107819949D01*
X152066237Y-107743733D01*
X152065152Y-107742240D01*
X152055825Y-107729401D01*
X152032345Y-107663595D01*
X152048171Y-107595541D01*
X152098277Y-107546846D01*
X152166755Y-107532971D01*
X152174615Y-107533899D01*
X152242441Y-107544123D01*
X152504805Y-107544123D01*
X152764238Y-107505019D01*
X153014946Y-107427686D01*
X153216219Y-107330758D01*
X153251319Y-107313855D01*
X153251319Y-107313854D01*
X153251327Y-107313851D01*
X153468102Y-107166056D01*
X153660428Y-106987604D01*
X153824009Y-106782480D01*
X153955191Y-106555266D01*
X154051043Y-106311039D01*
X154109425Y-106055253D01*
X154129031Y-105793623D01*
X154113406Y-105585123D01*
X154109426Y-105532002D01*
X154109425Y-105531997D01*
X154109425Y-105531993D01*
X154051043Y-105276207D01*
X153955191Y-105031980D01*
X153824009Y-104804766D01*
X153660428Y-104599642D01*
X153660427Y-104599641D01*
X153660424Y-104599637D01*
X153468102Y-104421190D01*
X153439640Y-104401785D01*
X153251327Y-104273395D01*
X153251323Y-104273393D01*
X153251320Y-104273391D01*
X153251319Y-104273390D01*
X153014948Y-104159561D01*
X153014950Y-104159561D01*
X152764246Y-104082229D01*
X152764242Y-104082228D01*
X152764238Y-104082227D01*
X152626567Y-104061476D01*
X152504810Y-104043123D01*
X152504805Y-104043123D01*
X152242441Y-104043123D01*
X152242435Y-104043123D01*
X152080870Y-104067476D01*
X151983008Y-104082227D01*
X151983005Y-104082228D01*
X151982999Y-104082229D01*
X151732299Y-104159560D01*
X151714708Y-104168032D01*
X151645767Y-104179383D01*
X151581632Y-104151660D01*
X151573227Y-104143992D01*
X151490711Y-104061476D01*
X151386819Y-103957583D01*
X151353334Y-103896260D01*
X151350500Y-103869902D01*
X151350500Y-97231939D01*
X153409000Y-97231939D01*
X153409000Y-97231942D01*
X153409000Y-102168058D01*
X153412200Y-102184141D01*
X153412201Y-102184148D01*
X153412200Y-102184148D01*
X153435553Y-102301549D01*
X153435556Y-102301561D01*
X153487642Y-102427309D01*
X153487644Y-102427312D01*
X153563263Y-102540485D01*
X153563269Y-102540492D01*
X156357389Y-105334610D01*
X156447809Y-105425030D01*
X156453637Y-105430858D01*
X156566805Y-105506475D01*
X156566818Y-105506482D01*
X156692561Y-105558566D01*
X156692566Y-105558568D01*
X156692570Y-105558568D01*
X156692571Y-105558569D01*
X156826062Y-105585123D01*
X156826065Y-105585123D01*
X156826066Y-105585123D01*
X156962180Y-105585123D01*
X160056539Y-105585123D01*
X160123578Y-105604808D01*
X160144220Y-105621442D01*
X161369360Y-106846582D01*
X161532315Y-107009536D01*
X161565800Y-107070859D01*
X161560816Y-107140551D01*
X161518944Y-107196484D01*
X161453480Y-107220901D01*
X161425237Y-107219690D01*
X161352202Y-107208123D01*
X161175044Y-107208123D01*
X161116718Y-107217361D01*
X161000066Y-107235837D01*
X160831583Y-107290579D01*
X160831580Y-107290580D01*
X160673732Y-107371009D01*
X160595727Y-107427684D01*
X160530409Y-107475140D01*
X160530407Y-107475142D01*
X160530406Y-107475142D01*
X160405142Y-107600406D01*
X160405142Y-107600407D01*
X160405140Y-107600409D01*
X160387637Y-107624500D01*
X160301009Y-107743732D01*
X160220580Y-107901580D01*
X160220579Y-107901583D01*
X160165837Y-108070066D01*
X160138123Y-108245044D01*
X160138123Y-108422201D01*
X160165837Y-108597179D01*
X160220579Y-108765662D01*
X160220580Y-108765665D01*
X160294755Y-108911239D01*
X160301009Y-108923513D01*
X160405140Y-109066837D01*
X160530409Y-109192106D01*
X160673733Y-109296237D01*
X160742200Y-109331123D01*
X160831580Y-109376665D01*
X160831583Y-109376666D01*
X160915824Y-109404037D01*
X161000068Y-109431409D01*
X161175044Y-109459123D01*
X161175045Y-109459123D01*
X161352201Y-109459123D01*
X161352202Y-109459123D01*
X161527178Y-109431409D01*
X161695665Y-109376665D01*
X161853513Y-109296237D01*
X161996837Y-109192106D01*
X162122106Y-109066837D01*
X162226237Y-108923513D01*
X162306665Y-108765665D01*
X162361409Y-108597178D01*
X162389123Y-108422202D01*
X162389123Y-108245044D01*
X162377555Y-108172008D01*
X162386509Y-108102716D01*
X162431505Y-108049264D01*
X162498257Y-108028624D01*
X162565571Y-108047349D01*
X162587709Y-108064930D01*
X162801398Y-108278619D01*
X162830758Y-108325345D01*
X162874209Y-108449519D01*
X162874211Y-108449522D01*
X162970184Y-108602262D01*
X163097738Y-108729816D01*
X163250478Y-108825789D01*
X163374651Y-108869238D01*
X163421377Y-108898599D01*
X164708633Y-110185855D01*
X164708637Y-110185858D01*
X164821805Y-110261475D01*
X164821818Y-110261482D01*
X164896090Y-110292246D01*
X164947566Y-110313568D01*
X164947570Y-110313568D01*
X164947571Y-110313569D01*
X165081062Y-110340123D01*
X165081065Y-110340123D01*
X171216581Y-110340123D01*
X171306391Y-110322257D01*
X171350078Y-110313568D01*
X171475832Y-110261479D01*
X171589008Y-110185858D01*
X173089876Y-108684989D01*
X173165497Y-108571814D01*
X173200540Y-108487213D01*
X173244381Y-108432809D01*
X173310675Y-108410744D01*
X173378374Y-108428023D01*
X173425985Y-108479160D01*
X173438040Y-108518479D01*
X173456508Y-108658757D01*
X173471630Y-108773616D01*
X173521068Y-108958123D01*
X173547984Y-109058574D01*
X173547987Y-109058584D01*
X173660877Y-109331123D01*
X173660881Y-109331133D01*
X173808384Y-109586616D01*
X173987975Y-109820663D01*
X173987981Y-109820670D01*
X174196575Y-110029264D01*
X174196582Y-110029270D01*
X174430629Y-110208861D01*
X174686112Y-110356364D01*
X174686113Y-110356364D01*
X174686116Y-110356366D01*
X174958671Y-110469262D01*
X175243630Y-110545616D01*
X175536117Y-110584123D01*
X175536124Y-110584123D01*
X175831122Y-110584123D01*
X175831129Y-110584123D01*
X176123616Y-110545616D01*
X176408575Y-110469262D01*
X176681130Y-110356366D01*
X176936617Y-110208861D01*
X177170665Y-110029269D01*
X177379269Y-109820665D01*
X177558861Y-109586617D01*
X177706366Y-109331130D01*
X177819262Y-109058575D01*
X177895616Y-108773616D01*
X177934123Y-108481129D01*
X177934123Y-108245044D01*
X179638123Y-108245044D01*
X179638123Y-108422201D01*
X179665837Y-108597179D01*
X179720579Y-108765662D01*
X179720580Y-108765665D01*
X179794755Y-108911239D01*
X179801009Y-108923513D01*
X179905140Y-109066837D01*
X180030409Y-109192106D01*
X180173733Y-109296237D01*
X180242200Y-109331123D01*
X180331580Y-109376665D01*
X180331583Y-109376666D01*
X180415824Y-109404037D01*
X180500068Y-109431409D01*
X180675044Y-109459123D01*
X180675045Y-109459123D01*
X180852201Y-109459123D01*
X180852202Y-109459123D01*
X181027178Y-109431409D01*
X181195665Y-109376665D01*
X181353513Y-109296237D01*
X181496837Y-109192106D01*
X181622106Y-109066837D01*
X181726237Y-108923513D01*
X181806665Y-108765665D01*
X181861409Y-108597178D01*
X181889123Y-108422202D01*
X181889123Y-108245044D01*
X181861409Y-108070068D01*
X181806665Y-107901581D01*
X181806665Y-107901580D01*
X181765071Y-107819949D01*
X181726237Y-107743733D01*
X181622106Y-107600409D01*
X181496837Y-107475140D01*
X181353513Y-107371009D01*
X181195665Y-107290580D01*
X181195662Y-107290579D01*
X181027179Y-107235837D01*
X180925232Y-107219690D01*
X180852202Y-107208123D01*
X180675044Y-107208123D01*
X180616718Y-107217361D01*
X180500066Y-107235837D01*
X180331583Y-107290579D01*
X180331580Y-107290580D01*
X180173732Y-107371009D01*
X180095727Y-107427684D01*
X180030409Y-107475140D01*
X180030407Y-107475142D01*
X180030406Y-107475142D01*
X179905142Y-107600406D01*
X179905142Y-107600407D01*
X179905140Y-107600409D01*
X179887637Y-107624500D01*
X179801009Y-107743732D01*
X179720580Y-107901580D01*
X179720579Y-107901583D01*
X179665837Y-108070066D01*
X179638123Y-108245044D01*
X177934123Y-108245044D01*
X177934123Y-108186117D01*
X177895616Y-107893630D01*
X177819262Y-107608671D01*
X177814733Y-107597738D01*
X177763952Y-107475142D01*
X177706366Y-107336116D01*
X177697877Y-107321413D01*
X177558861Y-107080629D01*
X177379270Y-106846582D01*
X177379264Y-106846575D01*
X177170670Y-106637981D01*
X177170663Y-106637975D01*
X176936616Y-106458384D01*
X176681133Y-106310881D01*
X176681123Y-106310877D01*
X176408584Y-106197987D01*
X176408577Y-106197985D01*
X176408575Y-106197984D01*
X176123616Y-106121630D01*
X176074736Y-106115194D01*
X175831136Y-106083123D01*
X175831129Y-106083123D01*
X175536117Y-106083123D01*
X175536109Y-106083123D01*
X175257708Y-106119776D01*
X175243630Y-106121630D01*
X175243623Y-106121632D01*
X175143164Y-106148549D01*
X175073314Y-106146886D01*
X175015452Y-106107723D01*
X174987949Y-106043494D01*
X174999536Y-105974592D01*
X175023388Y-105941097D01*
X176636735Y-104327751D01*
X176636738Y-104327745D01*
X176640595Y-104323047D01*
X176641903Y-104324120D01*
X176689285Y-104284501D01*
X176758608Y-104275776D01*
X176821643Y-104305914D01*
X176835750Y-104320869D01*
X176864872Y-104357386D01*
X176936821Y-104447608D01*
X177040748Y-104544037D01*
X177129144Y-104626056D01*
X177345919Y-104773851D01*
X177345924Y-104773853D01*
X177345925Y-104773854D01*
X177345926Y-104773855D01*
X177471466Y-104834311D01*
X177582296Y-104887684D01*
X177582297Y-104887684D01*
X177582300Y-104887686D01*
X177833008Y-104965019D01*
X178092441Y-105004123D01*
X178354805Y-105004123D01*
X178614238Y-104965019D01*
X178864946Y-104887686D01*
X179101327Y-104773851D01*
X179318102Y-104626056D01*
X179510428Y-104447604D01*
X179674009Y-104242480D01*
X179805191Y-104015266D01*
X179901043Y-103771039D01*
X179959425Y-103515253D01*
X179979031Y-103253623D01*
X179959425Y-102991993D01*
X179901043Y-102736207D01*
X179805191Y-102491980D01*
X179674009Y-102264766D01*
X179510428Y-102059642D01*
X179510427Y-102059641D01*
X179510424Y-102059637D01*
X179318102Y-101881190D01*
X179272497Y-101850097D01*
X179101327Y-101733395D01*
X179101323Y-101733393D01*
X179101320Y-101733391D01*
X179101319Y-101733390D01*
X178864948Y-101619561D01*
X178864950Y-101619561D01*
X178614246Y-101542229D01*
X178614242Y-101542228D01*
X178614238Y-101542227D01*
X178489446Y-101523417D01*
X178354810Y-101503123D01*
X178354805Y-101503123D01*
X178092441Y-101503123D01*
X178092435Y-101503123D01*
X177930870Y-101527476D01*
X177833008Y-101542227D01*
X177833005Y-101542228D01*
X177832999Y-101542229D01*
X177582296Y-101619561D01*
X177345926Y-101733390D01*
X177345925Y-101733391D01*
X177129139Y-101881193D01*
X177030056Y-101973128D01*
X176967524Y-102004296D01*
X176898067Y-101996709D01*
X176843739Y-101952775D01*
X176821788Y-101886443D01*
X176828675Y-101841274D01*
X176885366Y-101679262D01*
X176885369Y-101679249D01*
X176905565Y-101500003D01*
X176905565Y-101499996D01*
X176885369Y-101320750D01*
X176885368Y-101320745D01*
X176841823Y-101196300D01*
X176825789Y-101150478D01*
X176729816Y-100997738D01*
X176602262Y-100870184D01*
X176449523Y-100774211D01*
X176279254Y-100714631D01*
X176279249Y-100714630D01*
X176100004Y-100694435D01*
X176099996Y-100694435D01*
X175920750Y-100714630D01*
X175920745Y-100714631D01*
X175750476Y-100774211D01*
X175597737Y-100870184D01*
X175470184Y-100997737D01*
X175374211Y-101150476D01*
X175314631Y-101320745D01*
X175314630Y-101320750D01*
X175294435Y-101499996D01*
X175294435Y-101500003D01*
X175314630Y-101679249D01*
X175314631Y-101679254D01*
X175374211Y-101849524D01*
X175389993Y-101874639D01*
X175409000Y-101940612D01*
X175409000Y-103549679D01*
X175389315Y-103616718D01*
X175372681Y-103637360D01*
X173736480Y-105273560D01*
X173675157Y-105307045D01*
X173605465Y-105302061D01*
X173549532Y-105260189D01*
X173533373Y-105231184D01*
X173455191Y-105031980D01*
X173324009Y-104804766D01*
X173160428Y-104599642D01*
X173160426Y-104599640D01*
X173160422Y-104599635D01*
X173160420Y-104599633D01*
X173140160Y-104580835D01*
X173104404Y-104520808D01*
X173100500Y-104489936D01*
X173100500Y-88686109D01*
X173433123Y-88686109D01*
X173433123Y-88981136D01*
X173458572Y-89174431D01*
X173471630Y-89273616D01*
X173539745Y-89527825D01*
X173547984Y-89558574D01*
X173547987Y-89558584D01*
X173660877Y-89831123D01*
X173660881Y-89831133D01*
X173808384Y-90086616D01*
X173987975Y-90320663D01*
X173987981Y-90320670D01*
X174196575Y-90529264D01*
X174196582Y-90529270D01*
X174430629Y-90708861D01*
X174686112Y-90856364D01*
X174686113Y-90856364D01*
X174686116Y-90856366D01*
X174958671Y-90969262D01*
X175243630Y-91045616D01*
X175536117Y-91084123D01*
X175536124Y-91084123D01*
X175831122Y-91084123D01*
X175831129Y-91084123D01*
X176123616Y-91045616D01*
X176408575Y-90969262D01*
X176681130Y-90856366D01*
X176936617Y-90708861D01*
X177170665Y-90529269D01*
X177379269Y-90320665D01*
X177558861Y-90086617D01*
X177706366Y-89831130D01*
X177819262Y-89558575D01*
X177895616Y-89273616D01*
X177934123Y-88981129D01*
X177934123Y-88745044D01*
X179638123Y-88745044D01*
X179638123Y-88922201D01*
X179665837Y-89097179D01*
X179720579Y-89265662D01*
X179720580Y-89265665D01*
X179776336Y-89375090D01*
X179801009Y-89423513D01*
X179905140Y-89566837D01*
X180030409Y-89692106D01*
X180173733Y-89796237D01*
X180242200Y-89831123D01*
X180331580Y-89876665D01*
X180331583Y-89876666D01*
X180415824Y-89904037D01*
X180500068Y-89931409D01*
X180675044Y-89959123D01*
X180675045Y-89959123D01*
X180852201Y-89959123D01*
X180852202Y-89959123D01*
X181027178Y-89931409D01*
X181195665Y-89876665D01*
X181353513Y-89796237D01*
X181496837Y-89692106D01*
X181622106Y-89566837D01*
X181726237Y-89423513D01*
X181806665Y-89265665D01*
X181861409Y-89097178D01*
X181889123Y-88922202D01*
X181889123Y-88745044D01*
X181861409Y-88570068D01*
X181806665Y-88401581D01*
X181806665Y-88401580D01*
X181726236Y-88243732D01*
X181715824Y-88229401D01*
X181622106Y-88100409D01*
X181496837Y-87975140D01*
X181353513Y-87871009D01*
X181195665Y-87790580D01*
X181195662Y-87790579D01*
X181027179Y-87735837D01*
X180939690Y-87721980D01*
X180852202Y-87708123D01*
X180675044Y-87708123D01*
X180616718Y-87717361D01*
X180500066Y-87735837D01*
X180331583Y-87790579D01*
X180331580Y-87790580D01*
X180173732Y-87871009D01*
X180115195Y-87913539D01*
X180030409Y-87975140D01*
X180030407Y-87975142D01*
X180030406Y-87975142D01*
X179905142Y-88100406D01*
X179905142Y-88100407D01*
X179905140Y-88100409D01*
X179893368Y-88116612D01*
X179801009Y-88243732D01*
X179720580Y-88401580D01*
X179720579Y-88401583D01*
X179665837Y-88570066D01*
X179638123Y-88745044D01*
X177934123Y-88745044D01*
X177934123Y-88686117D01*
X177895616Y-88393630D01*
X177819262Y-88108671D01*
X177706366Y-87836116D01*
X177697494Y-87820750D01*
X177558861Y-87580629D01*
X177379270Y-87346582D01*
X177379264Y-87346575D01*
X177170670Y-87137981D01*
X177170663Y-87137975D01*
X176936616Y-86958384D01*
X176681133Y-86810881D01*
X176681123Y-86810877D01*
X176408584Y-86697987D01*
X176408577Y-86697985D01*
X176408575Y-86697984D01*
X176123616Y-86621630D01*
X176074736Y-86615194D01*
X175831136Y-86583123D01*
X175831129Y-86583123D01*
X175536117Y-86583123D01*
X175536109Y-86583123D01*
X175257708Y-86619776D01*
X175243630Y-86621630D01*
X174958671Y-86697984D01*
X174958661Y-86697987D01*
X174686122Y-86810877D01*
X174686112Y-86810881D01*
X174430629Y-86958384D01*
X174196582Y-87137975D01*
X174196575Y-87137981D01*
X173987981Y-87346575D01*
X173987975Y-87346582D01*
X173808384Y-87580629D01*
X173660881Y-87836112D01*
X173660877Y-87836122D01*
X173547987Y-88108661D01*
X173547984Y-88108671D01*
X173483449Y-88349523D01*
X173471631Y-88393627D01*
X173471629Y-88393638D01*
X173433123Y-88686109D01*
X173100500Y-88686109D01*
X173100500Y-87597309D01*
X173120185Y-87530270D01*
X173140160Y-87506410D01*
X173160420Y-87487611D01*
X173160428Y-87487604D01*
X173324009Y-87282480D01*
X173455191Y-87055266D01*
X173551043Y-86811039D01*
X173609425Y-86555253D01*
X173609902Y-86548896D01*
X173629031Y-86293622D01*
X173629031Y-86293618D01*
X173609426Y-86032002D01*
X173609425Y-86031997D01*
X173609425Y-86031993D01*
X173551043Y-85776207D01*
X173455191Y-85531980D01*
X173324009Y-85304766D01*
X173160428Y-85099642D01*
X173160427Y-85099641D01*
X173160424Y-85099637D01*
X172968102Y-84921190D01*
X172955921Y-84912885D01*
X172751327Y-84773395D01*
X172751323Y-84773393D01*
X172751320Y-84773391D01*
X172751319Y-84773390D01*
X172514948Y-84659561D01*
X172514950Y-84659561D01*
X172264246Y-84582229D01*
X172264242Y-84582228D01*
X172264238Y-84582227D01*
X172139446Y-84563417D01*
X172004810Y-84543123D01*
X172004805Y-84543123D01*
X171742441Y-84543123D01*
X171742435Y-84543123D01*
X171580870Y-84567476D01*
X171483008Y-84582227D01*
X171483005Y-84582228D01*
X171482999Y-84582229D01*
X171232296Y-84659561D01*
X170995926Y-84773390D01*
X170995925Y-84773391D01*
X170779143Y-84921190D01*
X170586821Y-85099637D01*
X170423237Y-85304766D01*
X170292055Y-85531979D01*
X170196205Y-85776201D01*
X170196199Y-85776220D01*
X170137820Y-86031997D01*
X170137819Y-86032002D01*
X170118215Y-86293618D01*
X170118215Y-86293622D01*
X170137819Y-86555243D01*
X170137820Y-86555248D01*
X170196199Y-86811025D01*
X170196201Y-86811034D01*
X170196203Y-86811039D01*
X170292055Y-87055266D01*
X170423237Y-87282480D01*
X170532871Y-87419956D01*
X170586820Y-87487607D01*
X170593000Y-87493340D01*
X170628756Y-87553367D01*
X170626383Y-87623197D01*
X170586634Y-87680658D01*
X170522129Y-87707507D01*
X170518411Y-87707857D01*
X170515051Y-87708121D01*
X170340066Y-87735837D01*
X170171583Y-87790579D01*
X170171580Y-87790580D01*
X170013732Y-87871009D01*
X169955195Y-87913539D01*
X169870409Y-87975140D01*
X169870407Y-87975142D01*
X169870406Y-87975142D01*
X169745142Y-88100406D01*
X169745142Y-88100407D01*
X169745140Y-88100409D01*
X169733368Y-88116612D01*
X169641009Y-88243732D01*
X169560580Y-88401580D01*
X169560579Y-88401583D01*
X169505837Y-88570066D01*
X169478123Y-88745044D01*
X169478123Y-88922201D01*
X169505837Y-89097179D01*
X169560579Y-89265662D01*
X169560580Y-89265665D01*
X169616336Y-89375090D01*
X169641009Y-89423513D01*
X169745140Y-89566837D01*
X169870409Y-89692106D01*
X170013733Y-89796237D01*
X170082200Y-89831123D01*
X170171580Y-89876665D01*
X170171583Y-89876666D01*
X170255824Y-89904037D01*
X170340068Y-89931409D01*
X170515044Y-89959123D01*
X170515045Y-89959123D01*
X170692201Y-89959123D01*
X170692202Y-89959123D01*
X170867178Y-89931409D01*
X171035665Y-89876665D01*
X171193513Y-89796237D01*
X171336837Y-89692106D01*
X171462106Y-89566837D01*
X171566237Y-89423513D01*
X171646665Y-89265665D01*
X171657569Y-89232107D01*
X171697006Y-89174431D01*
X171761364Y-89147232D01*
X171830211Y-89159146D01*
X171881687Y-89206390D01*
X171899500Y-89270424D01*
X171899500Y-103919123D01*
X171879815Y-103986162D01*
X171827011Y-104031917D01*
X171775500Y-104043123D01*
X171742435Y-104043123D01*
X171580870Y-104067476D01*
X171483008Y-104082227D01*
X171483005Y-104082228D01*
X171482999Y-104082229D01*
X171232296Y-104159561D01*
X170995926Y-104273390D01*
X170995925Y-104273391D01*
X170995919Y-104273394D01*
X170995919Y-104273395D01*
X170983640Y-104281767D01*
X170779143Y-104421190D01*
X170586821Y-104599637D01*
X170423237Y-104804766D01*
X170292055Y-105031979D01*
X170196205Y-105276201D01*
X170196199Y-105276220D01*
X170137820Y-105531997D01*
X170137819Y-105532002D01*
X170118215Y-105793618D01*
X170118215Y-105793627D01*
X170137819Y-106055243D01*
X170137820Y-106055248D01*
X170196199Y-106311025D01*
X170196201Y-106311034D01*
X170196203Y-106311039D01*
X170292055Y-106555266D01*
X170423237Y-106782480D01*
X170474356Y-106846581D01*
X170586820Y-106987607D01*
X170593000Y-106993340D01*
X170628756Y-107053367D01*
X170626383Y-107123197D01*
X170586634Y-107180658D01*
X170522129Y-107207507D01*
X170518411Y-107207857D01*
X170515051Y-107208121D01*
X170340066Y-107235837D01*
X170171583Y-107290579D01*
X170171580Y-107290580D01*
X170013732Y-107371009D01*
X169935727Y-107427684D01*
X169870409Y-107475140D01*
X169870407Y-107475142D01*
X169870406Y-107475142D01*
X169745142Y-107600406D01*
X169745142Y-107600407D01*
X169745140Y-107600409D01*
X169727637Y-107624500D01*
X169641009Y-107743732D01*
X169560580Y-107901580D01*
X169560579Y-107901583D01*
X169505837Y-108070066D01*
X169478123Y-108245044D01*
X169478123Y-108422201D01*
X169505837Y-108597179D01*
X169560579Y-108765662D01*
X169560583Y-108765671D01*
X169566778Y-108777829D01*
X169579674Y-108846499D01*
X169553397Y-108911239D01*
X169496290Y-108951495D01*
X169456293Y-108958123D01*
X165486706Y-108958123D01*
X165419667Y-108938438D01*
X165399025Y-108921804D01*
X164905244Y-108428023D01*
X164398599Y-107921377D01*
X164369238Y-107874650D01*
X164350098Y-107819951D01*
X164325789Y-107750478D01*
X164321548Y-107743729D01*
X164271197Y-107663595D01*
X164229816Y-107597738D01*
X164102262Y-107470184D01*
X163949522Y-107374211D01*
X163949519Y-107374209D01*
X163825345Y-107330758D01*
X163778619Y-107301398D01*
X160834615Y-104357392D01*
X160834608Y-104357386D01*
X160721435Y-104281767D01*
X160721432Y-104281765D01*
X160595684Y-104229679D01*
X160595672Y-104229676D01*
X160519753Y-104214575D01*
X160519752Y-104214574D01*
X160477675Y-104206205D01*
X160462182Y-104203123D01*
X160462181Y-104203123D01*
X160411506Y-104203123D01*
X160344467Y-104183438D01*
X160298712Y-104130634D01*
X160288768Y-104061476D01*
X160303293Y-104019507D01*
X160303176Y-104019451D01*
X160303662Y-104018439D01*
X160304119Y-104017122D01*
X160305191Y-104015266D01*
X160401043Y-103771039D01*
X160459425Y-103515253D01*
X160479031Y-103253623D01*
X160459425Y-102991993D01*
X160401043Y-102736207D01*
X160305191Y-102491980D01*
X160305190Y-102491979D01*
X160305191Y-102491979D01*
X160267855Y-102427312D01*
X160261368Y-102416077D01*
X160244896Y-102348178D01*
X160267748Y-102282151D01*
X160306755Y-102246691D01*
X160342959Y-102225789D01*
X160415093Y-102184143D01*
X160526897Y-102072339D01*
X160526897Y-102072337D01*
X160537101Y-102062134D01*
X160537104Y-102062129D01*
X167980520Y-94618716D01*
X168059577Y-94481784D01*
X168100501Y-94329057D01*
X168100501Y-94170942D01*
X168100501Y-94163347D01*
X168100500Y-94163329D01*
X168100500Y-92682412D01*
X168120185Y-92615373D01*
X168127555Y-92605097D01*
X168129810Y-92602267D01*
X168129816Y-92602262D01*
X168225789Y-92449522D01*
X168285368Y-92279255D01*
X168305565Y-92100000D01*
X168285368Y-91920745D01*
X168225789Y-91750478D01*
X168129816Y-91597738D01*
X168002262Y-91470184D01*
X167849523Y-91374211D01*
X167679254Y-91314631D01*
X167679249Y-91314630D01*
X167500004Y-91294435D01*
X167499996Y-91294435D01*
X167320750Y-91314630D01*
X167320745Y-91314631D01*
X167150476Y-91374211D01*
X166997737Y-91470184D01*
X166870184Y-91597737D01*
X166774211Y-91750476D01*
X166714631Y-91920745D01*
X166714630Y-91920750D01*
X166694435Y-92099996D01*
X166694435Y-92100003D01*
X166714630Y-92279249D01*
X166714631Y-92279254D01*
X166774211Y-92449523D01*
X166870185Y-92602263D01*
X166872445Y-92605097D01*
X166873334Y-92607275D01*
X166873889Y-92608158D01*
X166873734Y-92608255D01*
X166898855Y-92669783D01*
X166899500Y-92682412D01*
X166899500Y-93949902D01*
X166879815Y-94016941D01*
X166863181Y-94037583D01*
X159833961Y-101066804D01*
X159772638Y-101100289D01*
X159746280Y-101103123D01*
X158002534Y-101103123D01*
X157849805Y-101144046D01*
X157841022Y-101149117D01*
X157838666Y-101150478D01*
X157793396Y-101176615D01*
X157788075Y-101179687D01*
X157726075Y-101196300D01*
X156505710Y-101196300D01*
X156438671Y-101176615D01*
X156428395Y-101169245D01*
X156425561Y-101166985D01*
X156425560Y-101166984D01*
X156319416Y-101100289D01*
X156272821Y-101071011D01*
X156102552Y-101011431D01*
X156102547Y-101011430D01*
X155923302Y-100991235D01*
X155923294Y-100991235D01*
X155744048Y-101011430D01*
X155744043Y-101011431D01*
X155573774Y-101071011D01*
X155421035Y-101166984D01*
X155293482Y-101294537D01*
X155197509Y-101447276D01*
X155137929Y-101617545D01*
X155137929Y-101617547D01*
X155117733Y-101796796D01*
X155117733Y-101796803D01*
X155121700Y-101832013D01*
X155109645Y-101900835D01*
X155062296Y-101952214D01*
X154994686Y-101969838D01*
X154928280Y-101948111D01*
X154910799Y-101933577D01*
X154827319Y-101850097D01*
X154793834Y-101788774D01*
X154791000Y-101762416D01*
X154791000Y-97731093D01*
X154810685Y-97664054D01*
X154849030Y-97626098D01*
X154874643Y-97610005D01*
X154940613Y-97591000D01*
X161668060Y-97591000D01*
X161757870Y-97573134D01*
X161801557Y-97564445D01*
X161927311Y-97512356D01*
X161943473Y-97501557D01*
X162040487Y-97436735D01*
X164928622Y-94548597D01*
X164975346Y-94519239D01*
X165099522Y-94475789D01*
X165252262Y-94379816D01*
X165379816Y-94252262D01*
X165475789Y-94099522D01*
X165535368Y-93929255D01*
X165535369Y-93929249D01*
X165555565Y-93750003D01*
X165555565Y-93749996D01*
X165535369Y-93570750D01*
X165535366Y-93570737D01*
X165475790Y-93400480D01*
X165475787Y-93400476D01*
X165460005Y-93375357D01*
X165441000Y-93309387D01*
X165441000Y-91587583D01*
X165460685Y-91520544D01*
X165477314Y-91499907D01*
X168178623Y-88798597D01*
X168225345Y-88769239D01*
X168349522Y-88725789D01*
X168502262Y-88629816D01*
X168629816Y-88502262D01*
X168725789Y-88349522D01*
X168785368Y-88179255D01*
X168785369Y-88179249D01*
X168805565Y-88000003D01*
X168805565Y-87999996D01*
X168785369Y-87820750D01*
X168785368Y-87820745D01*
X168731240Y-87666056D01*
X168725789Y-87650478D01*
X168629816Y-87497738D01*
X168502262Y-87370184D01*
X168464689Y-87346575D01*
X168349523Y-87274211D01*
X168179254Y-87214631D01*
X168179249Y-87214630D01*
X168000004Y-87194435D01*
X167999996Y-87194435D01*
X167820750Y-87214630D01*
X167820745Y-87214631D01*
X167650476Y-87274211D01*
X167497737Y-87370184D01*
X167370184Y-87497737D01*
X167274212Y-87650475D01*
X167274211Y-87650476D01*
X167230760Y-87774651D01*
X167201400Y-87821376D01*
X164213269Y-90809507D01*
X164213263Y-90809514D01*
X164137644Y-90922687D01*
X164137642Y-90922690D01*
X164085556Y-91048438D01*
X164085553Y-91048448D01*
X164059000Y-91181939D01*
X164059000Y-93309387D01*
X164039995Y-93375357D01*
X164024211Y-93400476D01*
X164024210Y-93400479D01*
X163980761Y-93524651D01*
X163951400Y-93571377D01*
X161350097Y-96172681D01*
X161288774Y-96206166D01*
X161262416Y-96209000D01*
X154940613Y-96209000D01*
X154874641Y-96189994D01*
X154849523Y-96174211D01*
X154679254Y-96114631D01*
X154679249Y-96114630D01*
X154500004Y-96094435D01*
X154499996Y-96094435D01*
X154320750Y-96114630D01*
X154320745Y-96114631D01*
X154150476Y-96174211D01*
X153997737Y-96270184D01*
X153870184Y-96397737D01*
X153774212Y-96550475D01*
X153774210Y-96550479D01*
X153730761Y-96674649D01*
X153701402Y-96721375D01*
X153563264Y-96859514D01*
X153536212Y-96899999D01*
X153536213Y-96900000D01*
X153487641Y-96972692D01*
X153435556Y-97098438D01*
X153435553Y-97098448D01*
X153409000Y-97231939D01*
X151350500Y-97231939D01*
X151350500Y-91219755D01*
X151370185Y-91152716D01*
X151386819Y-91132074D01*
X151989629Y-90529264D01*
X152854143Y-89664751D01*
X152933200Y-89527819D01*
X152974124Y-89375092D01*
X152974124Y-89216977D01*
X152974124Y-89209382D01*
X152974123Y-89209364D01*
X152974123Y-88025259D01*
X152993808Y-87958220D01*
X153044321Y-87913539D01*
X153237001Y-87820750D01*
X153251319Y-87813855D01*
X153251319Y-87813854D01*
X153251327Y-87813851D01*
X153468102Y-87666056D01*
X153654246Y-87493340D01*
X153660424Y-87487608D01*
X153660424Y-87487606D01*
X153660428Y-87487604D01*
X153824009Y-87282480D01*
X153955191Y-87055266D01*
X154051043Y-86811039D01*
X154109425Y-86555253D01*
X154109901Y-86548894D01*
X154134536Y-86483513D01*
X154190608Y-86441828D01*
X154260316Y-86437075D01*
X154321236Y-86470472D01*
X154334277Y-86483513D01*
X154514907Y-86664143D01*
X154514909Y-86664144D01*
X154514913Y-86664147D01*
X154573527Y-86697987D01*
X154651839Y-86743200D01*
X154804566Y-86784124D01*
X154804569Y-86784124D01*
X154809207Y-86784735D01*
X154873104Y-86813001D01*
X154911576Y-86871325D01*
X154912408Y-86941189D01*
X154875336Y-87000413D01*
X154868510Y-87006049D01*
X154696585Y-87137973D01*
X154696575Y-87137981D01*
X154487981Y-87346575D01*
X154487975Y-87346582D01*
X154308384Y-87580629D01*
X154160881Y-87836112D01*
X154160877Y-87836122D01*
X154047987Y-88108661D01*
X154047984Y-88108671D01*
X153983449Y-88349523D01*
X153971631Y-88393627D01*
X153971629Y-88393638D01*
X153933123Y-88686109D01*
X153933123Y-88981136D01*
X153958572Y-89174431D01*
X153971630Y-89273616D01*
X154039745Y-89527825D01*
X154047984Y-89558574D01*
X154047987Y-89558584D01*
X154160877Y-89831123D01*
X154160881Y-89831133D01*
X154308384Y-90086616D01*
X154487975Y-90320663D01*
X154487981Y-90320670D01*
X154696575Y-90529264D01*
X154696582Y-90529270D01*
X154930629Y-90708861D01*
X155186112Y-90856364D01*
X155186113Y-90856364D01*
X155186116Y-90856366D01*
X155458671Y-90969262D01*
X155743630Y-91045616D01*
X156036117Y-91084123D01*
X156036124Y-91084123D01*
X156331122Y-91084123D01*
X156331129Y-91084123D01*
X156623616Y-91045616D01*
X156908575Y-90969262D01*
X157181130Y-90856366D01*
X157436617Y-90708861D01*
X157670665Y-90529269D01*
X157879269Y-90320665D01*
X158058861Y-90086617D01*
X158206366Y-89831130D01*
X158319262Y-89558575D01*
X158395616Y-89273616D01*
X158434123Y-88981129D01*
X158434123Y-88745044D01*
X160138123Y-88745044D01*
X160138123Y-88922201D01*
X160165837Y-89097179D01*
X160220579Y-89265662D01*
X160220580Y-89265665D01*
X160276336Y-89375090D01*
X160301009Y-89423513D01*
X160405140Y-89566837D01*
X160530409Y-89692106D01*
X160673733Y-89796237D01*
X160742200Y-89831123D01*
X160831580Y-89876665D01*
X160831583Y-89876666D01*
X160915824Y-89904037D01*
X161000068Y-89931409D01*
X161175044Y-89959123D01*
X161175045Y-89959123D01*
X161352201Y-89959123D01*
X161352202Y-89959123D01*
X161527178Y-89931409D01*
X161695665Y-89876665D01*
X161853513Y-89796237D01*
X161996837Y-89692106D01*
X162122106Y-89566837D01*
X162226237Y-89423513D01*
X162306665Y-89265665D01*
X162361409Y-89097178D01*
X162389123Y-88922202D01*
X162389123Y-88745044D01*
X162361409Y-88570068D01*
X162306665Y-88401581D01*
X162306665Y-88401580D01*
X162226236Y-88243732D01*
X162215824Y-88229401D01*
X162122106Y-88100409D01*
X161996837Y-87975140D01*
X161853513Y-87871009D01*
X161695665Y-87790580D01*
X161695662Y-87790579D01*
X161527179Y-87735837D01*
X161439690Y-87721980D01*
X161352202Y-87708123D01*
X161175044Y-87708123D01*
X161116718Y-87717361D01*
X161000066Y-87735837D01*
X160831583Y-87790579D01*
X160831580Y-87790580D01*
X160673732Y-87871009D01*
X160615195Y-87913539D01*
X160530409Y-87975140D01*
X160530407Y-87975142D01*
X160530406Y-87975142D01*
X160405142Y-88100406D01*
X160405142Y-88100407D01*
X160405140Y-88100409D01*
X160393368Y-88116612D01*
X160301009Y-88243732D01*
X160220580Y-88401580D01*
X160220579Y-88401583D01*
X160165837Y-88570066D01*
X160138123Y-88745044D01*
X158434123Y-88745044D01*
X158434123Y-88686117D01*
X158395616Y-88393630D01*
X158319262Y-88108671D01*
X158206366Y-87836116D01*
X158197494Y-87820750D01*
X158058861Y-87580629D01*
X157879270Y-87346582D01*
X157879264Y-87346575D01*
X157670670Y-87137981D01*
X157499320Y-87006499D01*
X157458118Y-86950071D01*
X157453963Y-86880325D01*
X157488176Y-86819404D01*
X157549893Y-86786652D01*
X157574807Y-86784123D01*
X158933965Y-86784123D01*
X159001004Y-86803808D01*
X159011280Y-86811178D01*
X159014113Y-86813437D01*
X159014115Y-86813439D01*
X159166855Y-86909412D01*
X159283052Y-86950071D01*
X159337122Y-86968991D01*
X159337127Y-86968992D01*
X159516373Y-86989188D01*
X159516377Y-86989188D01*
X159516381Y-86989188D01*
X159695626Y-86968992D01*
X159695629Y-86968991D01*
X159695632Y-86968991D01*
X159865899Y-86909412D01*
X160018639Y-86813439D01*
X160146193Y-86685885D01*
X160242166Y-86533145D01*
X160301745Y-86362878D01*
X160309548Y-86293623D01*
X160321942Y-86183626D01*
X160321942Y-86183619D01*
X160301746Y-86004373D01*
X160301745Y-86004368D01*
X160242165Y-85834099D01*
X160146192Y-85681360D01*
X160018639Y-85553807D01*
X159865896Y-85457832D01*
X159744576Y-85415380D01*
X159687800Y-85374659D01*
X159662053Y-85309706D01*
X159675509Y-85241144D01*
X159715677Y-85195888D01*
X159818102Y-85126056D01*
X160010428Y-84947604D01*
X160174009Y-84742480D01*
X160305191Y-84515266D01*
X160401043Y-84271039D01*
X160459425Y-84015253D01*
X160465959Y-83928058D01*
X160479031Y-83753627D01*
X160479031Y-83753618D01*
X160459426Y-83492002D01*
X160459425Y-83491997D01*
X160459425Y-83491993D01*
X160401043Y-83236207D01*
X160394177Y-83218713D01*
X164574500Y-83218713D01*
X164574500Y-83431286D01*
X164607753Y-83641239D01*
X164673444Y-83843414D01*
X164769951Y-84032820D01*
X164894890Y-84204786D01*
X165045213Y-84355109D01*
X165217179Y-84480048D01*
X165217181Y-84480049D01*
X165217184Y-84480051D01*
X165406588Y-84576557D01*
X165608757Y-84642246D01*
X165818713Y-84675500D01*
X165818714Y-84675500D01*
X166031286Y-84675500D01*
X166031287Y-84675500D01*
X166241243Y-84642246D01*
X166443412Y-84576557D01*
X166632816Y-84480051D01*
X166735966Y-84405109D01*
X166804786Y-84355109D01*
X166804788Y-84355106D01*
X166804792Y-84355104D01*
X166955104Y-84204792D01*
X166955106Y-84204788D01*
X166955109Y-84204786D01*
X167080048Y-84032820D01*
X167080047Y-84032820D01*
X167080051Y-84032816D01*
X167176557Y-83843412D01*
X167205733Y-83753618D01*
X176468215Y-83753618D01*
X176468215Y-83753627D01*
X176487819Y-84015243D01*
X176487820Y-84015248D01*
X176546199Y-84271025D01*
X176546201Y-84271034D01*
X176546203Y-84271039D01*
X176642055Y-84515266D01*
X176773237Y-84742480D01*
X176905359Y-84908156D01*
X176936821Y-84947608D01*
X177053779Y-85056128D01*
X177129144Y-85126056D01*
X177345919Y-85273851D01*
X177345924Y-85273853D01*
X177345925Y-85273854D01*
X177345926Y-85273855D01*
X177471466Y-85334311D01*
X177582296Y-85387684D01*
X177582297Y-85387684D01*
X177582300Y-85387686D01*
X177833008Y-85465019D01*
X178092441Y-85504123D01*
X178354805Y-85504123D01*
X178614238Y-85465019D01*
X178864946Y-85387686D01*
X179101327Y-85273851D01*
X179318102Y-85126056D01*
X179510428Y-84947604D01*
X179674009Y-84742480D01*
X179805191Y-84515266D01*
X179901043Y-84271039D01*
X179959425Y-84015253D01*
X179965959Y-83928058D01*
X179979031Y-83753627D01*
X179979031Y-83753618D01*
X179959426Y-83492002D01*
X179959425Y-83491997D01*
X179959425Y-83491993D01*
X179901043Y-83236207D01*
X179805191Y-82991980D01*
X179674009Y-82764766D01*
X179510428Y-82559642D01*
X179510427Y-82559641D01*
X179510424Y-82559637D01*
X179318102Y-82381190D01*
X179101327Y-82233395D01*
X179101323Y-82233393D01*
X179101320Y-82233391D01*
X179101319Y-82233390D01*
X178864948Y-82119561D01*
X178864950Y-82119561D01*
X178614246Y-82042229D01*
X178614242Y-82042228D01*
X178614238Y-82042227D01*
X178489446Y-82023417D01*
X178354810Y-82003123D01*
X178354805Y-82003123D01*
X178092441Y-82003123D01*
X178092435Y-82003123D01*
X177930870Y-82027476D01*
X177833008Y-82042227D01*
X177833005Y-82042228D01*
X177832999Y-82042229D01*
X177582296Y-82119561D01*
X177345926Y-82233390D01*
X177345925Y-82233391D01*
X177129143Y-82381190D01*
X176936821Y-82559637D01*
X176773237Y-82764766D01*
X176642055Y-82991979D01*
X176546205Y-83236201D01*
X176546199Y-83236220D01*
X176487820Y-83491997D01*
X176487819Y-83492002D01*
X176468215Y-83753618D01*
X167205733Y-83753618D01*
X167242246Y-83641243D01*
X167275500Y-83431287D01*
X167275500Y-83218713D01*
X167242246Y-83008757D01*
X167176557Y-82806588D01*
X167080051Y-82617184D01*
X167080049Y-82617181D01*
X167080048Y-82617179D01*
X166955109Y-82445213D01*
X166804786Y-82294890D01*
X166632820Y-82169951D01*
X166443414Y-82073444D01*
X166443413Y-82073443D01*
X166443412Y-82073443D01*
X166241243Y-82007754D01*
X166241241Y-82007753D01*
X166241240Y-82007753D01*
X166079957Y-81982208D01*
X166031287Y-81974500D01*
X165818713Y-81974500D01*
X165770042Y-81982208D01*
X165608760Y-82007753D01*
X165406585Y-82073444D01*
X165217179Y-82169951D01*
X165045213Y-82294890D01*
X164894890Y-82445213D01*
X164769951Y-82617179D01*
X164673444Y-82806585D01*
X164607753Y-83008760D01*
X164574500Y-83218713D01*
X160394177Y-83218713D01*
X160305191Y-82991980D01*
X160174009Y-82764766D01*
X160010428Y-82559642D01*
X160010427Y-82559641D01*
X160010424Y-82559637D01*
X159818102Y-82381190D01*
X159601327Y-82233395D01*
X159601323Y-82233393D01*
X159601320Y-82233391D01*
X159601319Y-82233390D01*
X159364948Y-82119561D01*
X159364950Y-82119561D01*
X159114246Y-82042229D01*
X159114242Y-82042228D01*
X159114238Y-82042227D01*
X158989446Y-82023417D01*
X158854810Y-82003123D01*
X158854805Y-82003123D01*
X158592441Y-82003123D01*
X158592435Y-82003123D01*
X158430870Y-82027476D01*
X158333008Y-82042227D01*
X158333005Y-82042228D01*
X158332999Y-82042229D01*
X158082296Y-82119561D01*
X157845926Y-82233390D01*
X157845925Y-82233391D01*
X157629143Y-82381190D01*
X157436821Y-82559637D01*
X157273237Y-82764766D01*
X157142055Y-82991979D01*
X157046205Y-83236201D01*
X157046199Y-83236220D01*
X156987820Y-83491997D01*
X156987819Y-83492002D01*
X156968215Y-83753618D01*
X156968215Y-83753627D01*
X156987819Y-84015243D01*
X156987820Y-84015248D01*
X157046199Y-84271025D01*
X157046201Y-84271034D01*
X157046203Y-84271039D01*
X157142055Y-84515266D01*
X157273237Y-84742480D01*
X157405359Y-84908156D01*
X157436821Y-84947608D01*
X157553779Y-85056128D01*
X157629144Y-85126056D01*
X157845919Y-85273851D01*
X157845924Y-85273853D01*
X157845925Y-85273854D01*
X157845926Y-85273855D01*
X157998651Y-85347403D01*
X158050511Y-85394225D01*
X158068824Y-85461652D01*
X158047776Y-85528276D01*
X157994050Y-85572945D01*
X157944850Y-85583123D01*
X155183721Y-85583123D01*
X155116682Y-85563438D01*
X155096040Y-85546804D01*
X153931213Y-84381978D01*
X153931211Y-84381975D01*
X153812340Y-84263104D01*
X153812339Y-84263103D01*
X153725527Y-84212983D01*
X153725527Y-84212982D01*
X153725523Y-84212981D01*
X153675408Y-84184046D01*
X153522680Y-84143122D01*
X153364566Y-84143122D01*
X153356970Y-84143122D01*
X153356954Y-84143123D01*
X151652531Y-84143123D01*
X151611610Y-84154087D01*
X151611610Y-84154088D01*
X151574342Y-84164074D01*
X151499805Y-84184046D01*
X151499800Y-84184049D01*
X151362881Y-84263098D01*
X151362873Y-84263104D01*
X151251069Y-84374909D01*
X150491014Y-85134963D01*
X150429691Y-85168448D01*
X150359999Y-85163464D01*
X150304066Y-85121592D01*
X150279649Y-85056128D01*
X150286292Y-85006327D01*
X150318989Y-84912885D01*
X150318992Y-84912872D01*
X150339188Y-84733626D01*
X150339188Y-84733619D01*
X150318992Y-84554373D01*
X150318991Y-84554368D01*
X150259411Y-84384099D01*
X150220205Y-84321703D01*
X150163439Y-84231361D01*
X150035885Y-84103807D01*
X149883146Y-84007834D01*
X149712877Y-83948254D01*
X149712872Y-83948253D01*
X149533627Y-83928058D01*
X149533619Y-83928058D01*
X149354373Y-83948253D01*
X149354368Y-83948254D01*
X149184099Y-84007834D01*
X149158982Y-84023617D01*
X149093010Y-84042623D01*
X143864736Y-84042623D01*
X143798764Y-84023617D01*
X143773646Y-84007834D01*
X143603377Y-83948254D01*
X143603372Y-83948253D01*
X143424127Y-83928058D01*
X143424119Y-83928058D01*
X143244873Y-83948253D01*
X143244868Y-83948254D01*
X143074599Y-84007834D01*
X142921860Y-84103807D01*
X142794307Y-84231360D01*
X142698334Y-84384099D01*
X142638754Y-84554368D01*
X142638753Y-84554373D01*
X142618558Y-84733619D01*
X142618558Y-84733626D01*
X142638753Y-84912872D01*
X142638754Y-84912877D01*
X142698334Y-85083146D01*
X142725297Y-85126057D01*
X142794307Y-85235885D01*
X142921861Y-85363439D01*
X143004525Y-85415380D01*
X143072089Y-85457834D01*
X143074601Y-85459412D01*
X143151420Y-85486292D01*
X143244868Y-85518991D01*
X143244873Y-85518992D01*
X143424119Y-85539188D01*
X143424123Y-85539188D01*
X143424127Y-85539188D01*
X143603372Y-85518992D01*
X143603375Y-85518991D01*
X143603378Y-85518991D01*
X143773645Y-85459412D01*
X143785422Y-85452011D01*
X143798764Y-85443629D01*
X143864736Y-85424623D01*
X149093010Y-85424623D01*
X149158982Y-85443629D01*
X149184099Y-85459411D01*
X149184101Y-85459412D01*
X149260920Y-85486292D01*
X149354368Y-85518991D01*
X149354373Y-85518992D01*
X149533619Y-85539188D01*
X149533623Y-85539188D01*
X149533627Y-85539188D01*
X149712872Y-85518992D01*
X149712874Y-85518991D01*
X149712878Y-85518991D01*
X149712881Y-85518989D01*
X149712885Y-85518989D01*
X149806327Y-85486292D01*
X149876105Y-85482729D01*
X149936733Y-85517458D01*
X149968960Y-85579451D01*
X149962556Y-85649027D01*
X149934963Y-85691014D01*
X149509909Y-86116069D01*
X149398104Y-86227873D01*
X149398100Y-86227878D01*
X149360144Y-86293622D01*
X149360144Y-86293623D01*
X149319046Y-86364805D01*
X149319046Y-86364806D01*
X149278122Y-86517534D01*
X149278122Y-86517536D01*
X149278122Y-86685637D01*
X149278123Y-86685650D01*
X149278123Y-89254365D01*
X149278122Y-89254383D01*
X149278122Y-89420089D01*
X149278121Y-89420089D01*
X149319046Y-89572820D01*
X149347981Y-89622935D01*
X149347982Y-89622939D01*
X149382887Y-89683397D01*
X149399500Y-89745396D01*
X149399500Y-94449903D01*
X149379815Y-94516942D01*
X149363181Y-94537584D01*
X149037584Y-94863181D01*
X148976261Y-94896666D01*
X148949903Y-94899500D01*
X135750097Y-94899500D01*
X135683058Y-94879815D01*
X135662416Y-94863181D01*
X135530700Y-94731465D01*
X135497215Y-94670142D01*
X135495163Y-94657686D01*
X135485368Y-94570745D01*
X135425789Y-94400478D01*
X135329816Y-94247738D01*
X135202262Y-94120184D01*
X135169379Y-94099522D01*
X135049523Y-94024211D01*
X134879254Y-93964631D01*
X134879249Y-93964630D01*
X134700004Y-93944435D01*
X134699996Y-93944435D01*
X134520750Y-93964630D01*
X134520742Y-93964632D01*
X134365454Y-94018970D01*
X134295676Y-94022531D01*
X134235048Y-93987802D01*
X134202821Y-93925809D01*
X134200500Y-93901928D01*
X134200500Y-89106054D01*
X134220185Y-89039015D01*
X134272989Y-88993260D01*
X134342147Y-88983316D01*
X134405703Y-89012341D01*
X134443477Y-89071119D01*
X134447439Y-89089869D01*
X134471628Y-89273605D01*
X134471629Y-89273610D01*
X134471630Y-89273616D01*
X134539745Y-89527825D01*
X134547984Y-89558574D01*
X134547987Y-89558584D01*
X134660877Y-89831123D01*
X134660881Y-89831133D01*
X134808384Y-90086616D01*
X134987975Y-90320663D01*
X134987981Y-90320670D01*
X135196575Y-90529264D01*
X135196582Y-90529270D01*
X135430629Y-90708861D01*
X135686112Y-90856364D01*
X135686113Y-90856364D01*
X135686116Y-90856366D01*
X135958671Y-90969262D01*
X136243630Y-91045616D01*
X136536117Y-91084123D01*
X136536124Y-91084123D01*
X136831122Y-91084123D01*
X136831129Y-91084123D01*
X137123616Y-91045616D01*
X137408575Y-90969262D01*
X137681130Y-90856366D01*
X137936617Y-90708861D01*
X138170665Y-90529269D01*
X138379269Y-90320665D01*
X138558861Y-90086617D01*
X138706366Y-89831130D01*
X138819262Y-89558575D01*
X138895616Y-89273616D01*
X138934123Y-88981129D01*
X138934123Y-88745044D01*
X140638123Y-88745044D01*
X140638123Y-88922201D01*
X140665837Y-89097179D01*
X140720579Y-89265662D01*
X140720580Y-89265665D01*
X140776336Y-89375090D01*
X140801009Y-89423513D01*
X140905140Y-89566837D01*
X141030409Y-89692106D01*
X141173733Y-89796237D01*
X141242200Y-89831123D01*
X141331580Y-89876665D01*
X141331583Y-89876666D01*
X141415824Y-89904037D01*
X141500068Y-89931409D01*
X141675044Y-89959123D01*
X141675045Y-89959123D01*
X141852201Y-89959123D01*
X141852202Y-89959123D01*
X142027178Y-89931409D01*
X142195665Y-89876665D01*
X142353513Y-89796237D01*
X142496837Y-89692106D01*
X142622106Y-89566837D01*
X142726237Y-89423513D01*
X142806665Y-89265665D01*
X142861409Y-89097178D01*
X142889123Y-88922202D01*
X142889123Y-88745044D01*
X142861409Y-88570068D01*
X142806665Y-88401581D01*
X142806665Y-88401580D01*
X142726236Y-88243732D01*
X142715824Y-88229401D01*
X142622106Y-88100409D01*
X142496837Y-87975140D01*
X142353513Y-87871009D01*
X142195665Y-87790580D01*
X142195662Y-87790579D01*
X142027179Y-87735837D01*
X141939690Y-87721980D01*
X141852202Y-87708123D01*
X141675044Y-87708123D01*
X141616718Y-87717361D01*
X141500066Y-87735837D01*
X141331583Y-87790579D01*
X141331580Y-87790580D01*
X141173732Y-87871009D01*
X141115195Y-87913539D01*
X141030409Y-87975140D01*
X141030407Y-87975142D01*
X141030406Y-87975142D01*
X140905142Y-88100406D01*
X140905142Y-88100407D01*
X140905140Y-88100409D01*
X140893368Y-88116612D01*
X140801009Y-88243732D01*
X140720580Y-88401580D01*
X140720579Y-88401583D01*
X140665837Y-88570066D01*
X140638123Y-88745044D01*
X138934123Y-88745044D01*
X138934123Y-88686117D01*
X138895616Y-88393630D01*
X138819262Y-88108671D01*
X138706366Y-87836116D01*
X138697494Y-87820750D01*
X138558861Y-87580629D01*
X138379270Y-87346582D01*
X138379264Y-87346575D01*
X138170670Y-87137981D01*
X138170663Y-87137975D01*
X137936616Y-86958384D01*
X137681133Y-86810881D01*
X137681123Y-86810877D01*
X137408584Y-86697987D01*
X137408577Y-86697985D01*
X137408575Y-86697984D01*
X137123616Y-86621630D01*
X137074736Y-86615194D01*
X136831136Y-86583123D01*
X136831129Y-86583123D01*
X136536117Y-86583123D01*
X136536109Y-86583123D01*
X136257708Y-86619776D01*
X136243630Y-86621630D01*
X135958671Y-86697984D01*
X135958661Y-86697987D01*
X135686122Y-86810877D01*
X135686112Y-86810881D01*
X135430629Y-86958384D01*
X135196582Y-87137975D01*
X135196575Y-87137981D01*
X134987981Y-87346575D01*
X134987975Y-87346582D01*
X134808384Y-87580629D01*
X134660881Y-87836112D01*
X134660877Y-87836122D01*
X134547987Y-88108661D01*
X134547984Y-88108671D01*
X134483449Y-88349523D01*
X134471631Y-88393627D01*
X134471629Y-88393638D01*
X134447439Y-88577377D01*
X134419172Y-88641273D01*
X134360848Y-88679744D01*
X134290983Y-88680575D01*
X134231760Y-88643503D01*
X134201981Y-88580297D01*
X134200500Y-88561191D01*
X134200500Y-87480744D01*
X134220185Y-87413705D01*
X134227548Y-87403437D01*
X134324009Y-87282480D01*
X134455191Y-87055266D01*
X134551043Y-86811039D01*
X134609425Y-86555253D01*
X134609902Y-86548896D01*
X134629031Y-86293622D01*
X134629031Y-86293618D01*
X134609426Y-86032002D01*
X134609425Y-86031997D01*
X134609425Y-86031993D01*
X134551043Y-85776207D01*
X134455191Y-85531980D01*
X134324009Y-85304766D01*
X134160428Y-85099642D01*
X134160427Y-85099641D01*
X134160424Y-85099637D01*
X133968102Y-84921190D01*
X133955921Y-84912885D01*
X133751327Y-84773395D01*
X133751323Y-84773393D01*
X133751320Y-84773391D01*
X133751319Y-84773390D01*
X133514948Y-84659561D01*
X133514950Y-84659561D01*
X133264246Y-84582229D01*
X133264242Y-84582228D01*
X133264238Y-84582227D01*
X133139446Y-84563417D01*
X133004810Y-84543123D01*
X133004805Y-84543123D01*
X132742441Y-84543123D01*
X132742435Y-84543123D01*
X132580870Y-84567476D01*
X132483008Y-84582227D01*
X132483005Y-84582228D01*
X132482999Y-84582229D01*
X132232296Y-84659561D01*
X131995926Y-84773390D01*
X131995925Y-84773391D01*
X131779143Y-84921190D01*
X131586821Y-85099637D01*
X131423237Y-85304766D01*
X131292055Y-85531979D01*
X131196205Y-85776201D01*
X131196199Y-85776220D01*
X131137820Y-86031997D01*
X131137819Y-86032002D01*
X131118215Y-86293618D01*
X131118215Y-86293622D01*
X131137819Y-86555243D01*
X131137820Y-86555248D01*
X131196199Y-86811025D01*
X131196201Y-86811034D01*
X131196203Y-86811039D01*
X131292055Y-87055266D01*
X131423237Y-87282480D01*
X131532871Y-87419956D01*
X131586820Y-87487607D01*
X131593000Y-87493340D01*
X131628756Y-87553367D01*
X131626383Y-87623197D01*
X131586634Y-87680658D01*
X131522129Y-87707507D01*
X131518411Y-87707857D01*
X131515051Y-87708121D01*
X131340066Y-87735837D01*
X131171583Y-87790579D01*
X131171580Y-87790580D01*
X131013732Y-87871009D01*
X130955195Y-87913539D01*
X130870409Y-87975140D01*
X130870407Y-87975142D01*
X130870406Y-87975142D01*
X130745142Y-88100406D01*
X130745142Y-88100407D01*
X130745140Y-88100409D01*
X130733368Y-88116612D01*
X130641009Y-88243732D01*
X130560580Y-88401580D01*
X130560579Y-88401583D01*
X130505837Y-88570066D01*
X130478123Y-88745044D01*
X123389123Y-88745044D01*
X123361409Y-88570068D01*
X123306665Y-88401581D01*
X123306665Y-88401580D01*
X123226236Y-88243732D01*
X123215824Y-88229401D01*
X123122106Y-88100409D01*
X122996837Y-87975140D01*
X122853513Y-87871009D01*
X122695665Y-87790580D01*
X122695662Y-87790579D01*
X122527179Y-87735837D01*
X122439690Y-87721980D01*
X122352202Y-87708123D01*
X122175044Y-87708123D01*
X122116718Y-87717361D01*
X122000066Y-87735837D01*
X121831583Y-87790579D01*
X121831580Y-87790580D01*
X121673732Y-87871009D01*
X121615195Y-87913539D01*
X121530409Y-87975140D01*
X121530407Y-87975142D01*
X121530406Y-87975142D01*
X121405142Y-88100406D01*
X121405142Y-88100407D01*
X121405140Y-88100409D01*
X121393368Y-88116612D01*
X121301009Y-88243732D01*
X121220580Y-88401580D01*
X121220579Y-88401583D01*
X121165837Y-88570066D01*
X121138123Y-88745044D01*
X119434123Y-88745044D01*
X119434123Y-88686117D01*
X119395616Y-88393630D01*
X119319262Y-88108671D01*
X119206366Y-87836116D01*
X119197494Y-87820750D01*
X119058861Y-87580629D01*
X118879270Y-87346582D01*
X118879264Y-87346575D01*
X118670670Y-87137981D01*
X118670663Y-87137975D01*
X118436616Y-86958384D01*
X118181133Y-86810881D01*
X118181123Y-86810877D01*
X117908584Y-86697987D01*
X117908577Y-86697985D01*
X117908575Y-86697984D01*
X117623616Y-86621630D01*
X117574736Y-86615194D01*
X117331136Y-86583123D01*
X117331129Y-86583123D01*
X117036117Y-86583123D01*
X117036109Y-86583123D01*
X116757708Y-86619776D01*
X116743630Y-86621630D01*
X116458671Y-86697984D01*
X116458661Y-86697987D01*
X116186122Y-86810877D01*
X116186112Y-86810881D01*
X115930629Y-86958384D01*
X115696582Y-87137975D01*
X115696575Y-87137981D01*
X115487981Y-87346575D01*
X115487975Y-87346582D01*
X115308384Y-87580629D01*
X115160881Y-87836112D01*
X115160877Y-87836122D01*
X115047987Y-88108661D01*
X115047984Y-88108671D01*
X114983449Y-88349523D01*
X114971631Y-88393627D01*
X114971629Y-88393638D01*
X114947439Y-88577377D01*
X114919172Y-88641273D01*
X114860848Y-88679744D01*
X114790983Y-88680575D01*
X114731760Y-88643503D01*
X114701981Y-88580297D01*
X114700500Y-88561191D01*
X114700500Y-87480744D01*
X114720185Y-87413705D01*
X114727548Y-87403437D01*
X114824009Y-87282480D01*
X114955191Y-87055266D01*
X115051043Y-86811039D01*
X115109425Y-86555253D01*
X115109902Y-86548896D01*
X115129031Y-86293622D01*
X115129031Y-86293618D01*
X115109426Y-86032002D01*
X115109425Y-86031997D01*
X115109425Y-86031993D01*
X115051043Y-85776207D01*
X114955191Y-85531980D01*
X114824009Y-85304766D01*
X114660428Y-85099642D01*
X114660427Y-85099641D01*
X114660424Y-85099637D01*
X114468102Y-84921190D01*
X114455921Y-84912885D01*
X114251327Y-84773395D01*
X114251323Y-84773393D01*
X114251320Y-84773391D01*
X114251319Y-84773390D01*
X114014948Y-84659561D01*
X114014950Y-84659561D01*
X113764246Y-84582229D01*
X113764242Y-84582228D01*
X113764238Y-84582227D01*
X113639446Y-84563417D01*
X113504810Y-84543123D01*
X113504805Y-84543123D01*
X113242441Y-84543123D01*
X113242435Y-84543123D01*
X113080870Y-84567476D01*
X112983008Y-84582227D01*
X112983005Y-84582228D01*
X112982999Y-84582229D01*
X112732296Y-84659561D01*
X112495926Y-84773390D01*
X112495925Y-84773391D01*
X112279143Y-84921190D01*
X112086821Y-85099637D01*
X111923237Y-85304766D01*
X111792055Y-85531979D01*
X111696205Y-85776201D01*
X111696199Y-85776220D01*
X111637820Y-86031997D01*
X111637819Y-86032002D01*
X111618215Y-86293618D01*
X111618215Y-86293622D01*
X111637819Y-86555243D01*
X111637820Y-86555248D01*
X111696199Y-86811025D01*
X111696201Y-86811034D01*
X111696203Y-86811039D01*
X111792055Y-87055266D01*
X111923237Y-87282480D01*
X112032871Y-87419956D01*
X112086820Y-87487607D01*
X112093000Y-87493340D01*
X112128756Y-87553367D01*
X112126383Y-87623197D01*
X112086634Y-87680658D01*
X112022129Y-87707507D01*
X112018411Y-87707857D01*
X112015051Y-87708121D01*
X111840066Y-87735837D01*
X111671583Y-87790579D01*
X111671580Y-87790580D01*
X111513732Y-87871009D01*
X111455195Y-87913539D01*
X111370409Y-87975140D01*
X111370407Y-87975142D01*
X111370406Y-87975142D01*
X111245142Y-88100406D01*
X111245142Y-88100407D01*
X111245140Y-88100409D01*
X111233368Y-88116612D01*
X111141009Y-88243732D01*
X111060580Y-88401580D01*
X111060579Y-88401583D01*
X111005837Y-88570066D01*
X110978123Y-88745044D01*
X108134123Y-88745044D01*
X108134123Y-83753618D01*
X117968215Y-83753618D01*
X117968215Y-83753627D01*
X117987819Y-84015243D01*
X117987820Y-84015248D01*
X118046199Y-84271025D01*
X118046201Y-84271034D01*
X118046203Y-84271039D01*
X118142055Y-84515266D01*
X118273237Y-84742480D01*
X118405359Y-84908156D01*
X118436821Y-84947608D01*
X118553779Y-85056128D01*
X118629144Y-85126056D01*
X118845919Y-85273851D01*
X118845924Y-85273853D01*
X118845925Y-85273854D01*
X118845926Y-85273855D01*
X118971466Y-85334311D01*
X119082296Y-85387684D01*
X119082297Y-85387684D01*
X119082300Y-85387686D01*
X119333008Y-85465019D01*
X119592441Y-85504123D01*
X119854805Y-85504123D01*
X120114238Y-85465019D01*
X120364946Y-85387686D01*
X120601327Y-85273851D01*
X120818102Y-85126056D01*
X121010428Y-84947604D01*
X121174009Y-84742480D01*
X121305191Y-84515266D01*
X121401043Y-84271039D01*
X121459425Y-84015253D01*
X121465959Y-83928058D01*
X121479031Y-83753627D01*
X121479031Y-83753618D01*
X121459426Y-83492002D01*
X121459425Y-83491997D01*
X121459425Y-83491993D01*
X121408462Y-83268713D01*
X125574500Y-83268713D01*
X125574500Y-83481286D01*
X125607753Y-83691239D01*
X125673444Y-83893414D01*
X125769951Y-84082820D01*
X125894890Y-84254786D01*
X126045213Y-84405109D01*
X126217179Y-84530048D01*
X126217181Y-84530049D01*
X126217184Y-84530051D01*
X126406588Y-84626557D01*
X126608757Y-84692246D01*
X126818713Y-84725500D01*
X126818714Y-84725500D01*
X127031286Y-84725500D01*
X127031287Y-84725500D01*
X127241243Y-84692246D01*
X127443412Y-84626557D01*
X127632816Y-84530051D01*
X127701640Y-84480048D01*
X127804786Y-84405109D01*
X127804788Y-84405106D01*
X127804792Y-84405104D01*
X127955104Y-84254792D01*
X127955106Y-84254788D01*
X127955109Y-84254786D01*
X128080048Y-84082820D01*
X128080047Y-84082820D01*
X128080051Y-84082816D01*
X128176557Y-83893412D01*
X128221979Y-83753618D01*
X137468215Y-83753618D01*
X137468215Y-83753627D01*
X137487819Y-84015243D01*
X137487820Y-84015248D01*
X137546199Y-84271025D01*
X137546201Y-84271034D01*
X137546203Y-84271039D01*
X137642055Y-84515266D01*
X137773237Y-84742480D01*
X137905359Y-84908156D01*
X137936821Y-84947608D01*
X138053779Y-85056128D01*
X138129144Y-85126056D01*
X138345919Y-85273851D01*
X138345924Y-85273853D01*
X138345925Y-85273854D01*
X138345926Y-85273855D01*
X138471466Y-85334311D01*
X138582296Y-85387684D01*
X138582297Y-85387684D01*
X138582300Y-85387686D01*
X138833008Y-85465019D01*
X139092441Y-85504123D01*
X139354805Y-85504123D01*
X139614238Y-85465019D01*
X139864946Y-85387686D01*
X140101327Y-85273851D01*
X140318102Y-85126056D01*
X140510428Y-84947604D01*
X140674009Y-84742480D01*
X140805191Y-84515266D01*
X140901043Y-84271039D01*
X140959425Y-84015253D01*
X140965959Y-83928058D01*
X140979031Y-83753627D01*
X140979031Y-83753618D01*
X140959426Y-83492002D01*
X140959425Y-83491997D01*
X140959425Y-83491993D01*
X140901043Y-83236207D01*
X140805191Y-82991980D01*
X140674009Y-82764766D01*
X140510428Y-82559642D01*
X140510427Y-82559641D01*
X140510424Y-82559637D01*
X140318102Y-82381190D01*
X140101327Y-82233395D01*
X140101323Y-82233393D01*
X140101320Y-82233391D01*
X140101319Y-82233390D01*
X139864948Y-82119561D01*
X139864950Y-82119561D01*
X139614246Y-82042229D01*
X139614242Y-82042228D01*
X139614238Y-82042227D01*
X139489446Y-82023417D01*
X139354810Y-82003123D01*
X139354805Y-82003123D01*
X139092441Y-82003123D01*
X139092435Y-82003123D01*
X138930870Y-82027476D01*
X138833008Y-82042227D01*
X138833005Y-82042228D01*
X138832999Y-82042229D01*
X138582296Y-82119561D01*
X138345926Y-82233390D01*
X138345925Y-82233391D01*
X138129143Y-82381190D01*
X137936821Y-82559637D01*
X137773237Y-82764766D01*
X137642055Y-82991979D01*
X137546205Y-83236201D01*
X137546199Y-83236220D01*
X137487820Y-83491997D01*
X137487819Y-83492002D01*
X137468215Y-83753618D01*
X128221979Y-83753618D01*
X128242246Y-83691243D01*
X128275500Y-83481287D01*
X128275500Y-83268713D01*
X128242246Y-83058757D01*
X128176557Y-82856588D01*
X128080051Y-82667184D01*
X128080049Y-82667181D01*
X128080048Y-82667179D01*
X127955109Y-82495213D01*
X127804786Y-82344890D01*
X127632820Y-82219951D01*
X127443414Y-82123444D01*
X127443413Y-82123443D01*
X127443412Y-82123443D01*
X127241243Y-82057754D01*
X127241241Y-82057753D01*
X127241240Y-82057753D01*
X127079957Y-82032208D01*
X127031287Y-82024500D01*
X126818713Y-82024500D01*
X126770042Y-82032208D01*
X126608760Y-82057753D01*
X126406585Y-82123444D01*
X126217179Y-82219951D01*
X126045213Y-82344890D01*
X125894890Y-82495213D01*
X125769951Y-82667179D01*
X125673444Y-82856585D01*
X125607753Y-83058760D01*
X125574500Y-83268713D01*
X121408462Y-83268713D01*
X121401043Y-83236207D01*
X121305191Y-82991980D01*
X121174009Y-82764766D01*
X121010428Y-82559642D01*
X121010427Y-82559641D01*
X121010424Y-82559637D01*
X120818102Y-82381190D01*
X120601327Y-82233395D01*
X120601323Y-82233393D01*
X120601320Y-82233391D01*
X120601319Y-82233390D01*
X120364948Y-82119561D01*
X120364950Y-82119561D01*
X120114246Y-82042229D01*
X120114242Y-82042228D01*
X120114238Y-82042227D01*
X119989446Y-82023417D01*
X119854810Y-82003123D01*
X119854805Y-82003123D01*
X119592441Y-82003123D01*
X119592435Y-82003123D01*
X119430870Y-82027476D01*
X119333008Y-82042227D01*
X119333005Y-82042228D01*
X119332999Y-82042229D01*
X119082296Y-82119561D01*
X118845926Y-82233390D01*
X118845925Y-82233391D01*
X118629143Y-82381190D01*
X118436821Y-82559637D01*
X118273237Y-82764766D01*
X118142055Y-82991979D01*
X118046205Y-83236201D01*
X118046199Y-83236220D01*
X117987820Y-83491997D01*
X117987819Y-83492002D01*
X117968215Y-83753618D01*
X108134123Y-83753618D01*
X108134123Y-79958123D01*
X108153808Y-79891084D01*
X108206612Y-79845329D01*
X108258123Y-79834123D01*
X140989623Y-79834123D01*
X141056662Y-79853808D01*
X141102417Y-79906612D01*
X141113623Y-79958123D01*
X141113623Y-80213623D01*
X141813623Y-80213623D01*
X141813623Y-80713623D01*
X141113623Y-80713623D01*
X141113623Y-81112118D01*
X141152050Y-81305304D01*
X141152053Y-81305316D01*
X141227430Y-81487294D01*
X141227437Y-81487307D01*
X141336871Y-81651085D01*
X141336874Y-81651089D01*
X141476156Y-81790371D01*
X141476160Y-81790374D01*
X141639938Y-81899808D01*
X141639951Y-81899815D01*
X141821931Y-81975192D01*
X141863623Y-81983485D01*
X141863623Y-81180611D01*
X141873563Y-81197828D01*
X141929418Y-81253683D01*
X141997827Y-81293179D01*
X142074127Y-81313623D01*
X142153119Y-81313623D01*
X142229419Y-81293179D01*
X142297828Y-81253683D01*
X142353683Y-81197828D01*
X142363623Y-81180611D01*
X142363623Y-81983485D01*
X142405313Y-81975192D01*
X142405315Y-81975192D01*
X142587294Y-81899815D01*
X142587307Y-81899808D01*
X142751085Y-81790374D01*
X142751089Y-81790371D01*
X142890371Y-81651089D01*
X142890374Y-81651085D01*
X142999808Y-81487307D01*
X142999815Y-81487294D01*
X143075192Y-81305316D01*
X143075195Y-81305304D01*
X143113622Y-81112118D01*
X143113623Y-81112115D01*
X143113623Y-80564667D01*
X143133308Y-80497628D01*
X143186112Y-80451873D01*
X143255270Y-80441929D01*
X143299623Y-80457280D01*
X143321488Y-80469904D01*
X143467857Y-80509123D01*
X143467859Y-80509123D01*
X143619387Y-80509123D01*
X143619389Y-80509123D01*
X143765758Y-80469904D01*
X143896988Y-80394138D01*
X144004138Y-80286988D01*
X144079904Y-80155758D01*
X144119123Y-80009389D01*
X144119123Y-79857857D01*
X144079904Y-79711488D01*
X144004138Y-79580258D01*
X143896988Y-79473108D01*
X143831373Y-79435225D01*
X143765759Y-79397342D01*
X143692573Y-79377732D01*
X143619389Y-79358123D01*
X143467857Y-79358123D01*
X143321486Y-79397342D01*
X143190258Y-79473108D01*
X143183812Y-79478055D01*
X143181722Y-79475332D01*
X143133840Y-79501089D01*
X143064181Y-79495666D01*
X143008511Y-79453444D01*
X143002922Y-79444599D01*
X142890374Y-79276160D01*
X142890371Y-79276156D01*
X142751089Y-79136874D01*
X142751085Y-79136871D01*
X142587307Y-79027437D01*
X142587294Y-79027430D01*
X142405314Y-78952052D01*
X142405306Y-78952050D01*
X142363623Y-78943758D01*
X142363623Y-79746634D01*
X142353683Y-79729418D01*
X142297828Y-79673563D01*
X142229419Y-79634067D01*
X142153119Y-79613623D01*
X142074127Y-79613623D01*
X141997827Y-79634067D01*
X141929418Y-79673563D01*
X141873563Y-79729418D01*
X141863623Y-79746634D01*
X141863623Y-78943759D01*
X141863622Y-78943758D01*
X141821939Y-78952050D01*
X141821931Y-78952052D01*
X141705575Y-79000248D01*
X141636105Y-79007717D01*
X141573626Y-78976441D01*
X141537975Y-78916352D01*
X141534123Y-78885687D01*
X141534123Y-77611558D01*
X141553808Y-77544519D01*
X141606612Y-77498764D01*
X141675770Y-77488820D01*
X141705575Y-77496997D01*
X141821931Y-77545192D01*
X141863623Y-77553485D01*
X141863623Y-76750611D01*
X141873563Y-76767828D01*
X141929418Y-76823683D01*
X141997827Y-76863179D01*
X142074127Y-76883623D01*
X142153119Y-76883623D01*
X142229419Y-76863179D01*
X142297828Y-76823683D01*
X142353683Y-76767828D01*
X142363623Y-76750611D01*
X142363623Y-77553485D01*
X142405313Y-77545192D01*
X142405315Y-77545192D01*
X142587294Y-77469815D01*
X142587307Y-77469808D01*
X142751085Y-77360374D01*
X142751089Y-77360371D01*
X142890371Y-77221089D01*
X142890374Y-77221085D01*
X142999808Y-77057307D01*
X142999815Y-77057294D01*
X143075192Y-76875316D01*
X143075195Y-76875304D01*
X143113622Y-76682118D01*
X143113623Y-76682115D01*
X143113623Y-76533623D01*
X142413623Y-76533623D01*
X142413623Y-76033623D01*
X143113623Y-76033623D01*
X143113623Y-75885131D01*
X143113622Y-75885127D01*
X143075195Y-75691941D01*
X143075193Y-75691933D01*
X142998002Y-75505576D01*
X142990533Y-75436106D01*
X143021808Y-75373627D01*
X143081897Y-75337975D01*
X143112563Y-75334123D01*
X149754683Y-75334123D01*
X149821722Y-75353808D01*
G37*
G04 #@! TD.AperFunction*
M02*
