G04 #@! TF.GenerationSoftware,KiCad,Pcbnew,8.0.6*
G04 #@! TF.CreationDate,2025-01-18T20:04:13+00:00*
G04 #@! TF.ProjectId,macro-keyboard,6d616372-6f2d-46b6-9579-626f6172642e,rev?*
G04 #@! TF.SameCoordinates,Original*
G04 #@! TF.FileFunction,Copper,L2,Bot*
G04 #@! TF.FilePolarity,Positive*
%FSLAX46Y46*%
G04 Gerber Fmt 4.6, Leading zero omitted, Abs format (unit mm)*
G04 Created by KiCad (PCBNEW 8.0.6) date 2025-01-18 20:04:13*
%MOMM*%
%LPD*%
G01*
G04 APERTURE LIST*
G04 Aperture macros list*
%AMRoundRect*
0 Rectangle with rounded corners*
0 $1 Rounding radius*
0 $2 $3 $4 $5 $6 $7 $8 $9 X,Y pos of 4 corners*
0 Add a 4 corners polygon primitive as box body*
4,1,4,$2,$3,$4,$5,$6,$7,$8,$9,$2,$3,0*
0 Add four circle primitives for the rounded corners*
1,1,$1+$1,$2,$3*
1,1,$1+$1,$4,$5*
1,1,$1+$1,$6,$7*
1,1,$1+$1,$8,$9*
0 Add four rect primitives between the rounded corners*
20,1,$1+$1,$2,$3,$4,$5,0*
20,1,$1+$1,$4,$5,$6,$7,0*
20,1,$1+$1,$6,$7,$8,$9,0*
20,1,$1+$1,$8,$9,$2,$3,0*%
%AMRotRect*
0 Rectangle, with rotation*
0 The origin of the aperture is its center*
0 $1 length*
0 $2 width*
0 $3 Rotation angle, in degrees counterclockwise*
0 Add horizontal line*
21,1,$1,$2,0,0,$3*%
G04 Aperture macros list end*
G04 #@! TA.AperFunction,ComponentPad*
%ADD10C,2.500000*%
G04 #@! TD*
G04 #@! TA.AperFunction,SMDPad,CuDef*
%ADD11RoundRect,0.225000X0.375000X-0.225000X0.375000X0.225000X-0.375000X0.225000X-0.375000X-0.225000X0*%
G04 #@! TD*
G04 #@! TA.AperFunction,SMDPad,CuDef*
%ADD12RoundRect,0.250000X-0.350000X-0.450000X0.350000X-0.450000X0.350000X0.450000X-0.350000X0.450000X0*%
G04 #@! TD*
G04 #@! TA.AperFunction,SMDPad,CuDef*
%ADD13RoundRect,0.250000X-0.574524X-0.097227X-0.097227X-0.574524X0.574524X0.097227X0.097227X0.574524X0*%
G04 #@! TD*
G04 #@! TA.AperFunction,SMDPad,CuDef*
%ADD14RoundRect,0.250000X0.565685X0.070711X0.070711X0.565685X-0.565685X-0.070711X-0.070711X-0.565685X0*%
G04 #@! TD*
G04 #@! TA.AperFunction,SMDPad,CuDef*
%ADD15RoundRect,0.250000X0.070711X-0.565685X0.565685X-0.070711X-0.070711X0.565685X-0.565685X0.070711X0*%
G04 #@! TD*
G04 #@! TA.AperFunction,SMDPad,CuDef*
%ADD16RoundRect,0.250000X0.574524X0.097227X0.097227X0.574524X-0.574524X-0.097227X-0.097227X-0.574524X0*%
G04 #@! TD*
G04 #@! TA.AperFunction,SMDPad,CuDef*
%ADD17RotRect,2.100000X1.800000X45.000000*%
G04 #@! TD*
G04 #@! TA.AperFunction,SMDPad,CuDef*
%ADD18R,0.600000X2.450000*%
G04 #@! TD*
G04 #@! TA.AperFunction,SMDPad,CuDef*
%ADD19R,0.300000X2.450000*%
G04 #@! TD*
G04 #@! TA.AperFunction,ComponentPad*
%ADD20O,1.000000X1.600000*%
G04 #@! TD*
G04 #@! TA.AperFunction,ComponentPad*
%ADD21O,1.000000X2.100000*%
G04 #@! TD*
G04 #@! TA.AperFunction,SMDPad,CuDef*
%ADD22RotRect,1.500000X0.550000X315.000000*%
G04 #@! TD*
G04 #@! TA.AperFunction,SMDPad,CuDef*
%ADD23RotRect,1.500000X0.550000X225.000000*%
G04 #@! TD*
G04 #@! TA.AperFunction,SMDPad,CuDef*
%ADD24RoundRect,0.250000X0.350000X0.450000X-0.350000X0.450000X-0.350000X-0.450000X0.350000X-0.450000X0*%
G04 #@! TD*
G04 #@! TA.AperFunction,SMDPad,CuDef*
%ADD25R,0.700000X1.000000*%
G04 #@! TD*
G04 #@! TA.AperFunction,SMDPad,CuDef*
%ADD26R,0.700000X0.600000*%
G04 #@! TD*
G04 #@! TA.AperFunction,SMDPad,CuDef*
%ADD27RoundRect,0.250001X0.624999X-0.462499X0.624999X0.462499X-0.624999X0.462499X-0.624999X-0.462499X0*%
G04 #@! TD*
G04 #@! TA.AperFunction,SMDPad,CuDef*
%ADD28R,1.800000X1.100000*%
G04 #@! TD*
G04 #@! TA.AperFunction,SMDPad,CuDef*
%ADD29RoundRect,0.250000X0.097227X-0.574524X0.574524X-0.097227X-0.097227X0.574524X-0.574524X0.097227X0*%
G04 #@! TD*
G04 #@! TA.AperFunction,ViaPad*
%ADD30C,0.600000*%
G04 #@! TD*
G04 #@! TA.AperFunction,Conductor*
%ADD31C,0.381000*%
G04 #@! TD*
G04 #@! TA.AperFunction,Conductor*
%ADD32C,0.200000*%
G04 #@! TD*
G04 APERTURE END LIST*
D10*
X113373623Y-105793623D03*
X119723623Y-103253623D03*
X132873623Y-105793623D03*
X139223623Y-103253623D03*
X171873623Y-86293623D03*
X178223623Y-83753623D03*
X113373623Y-86293623D03*
X119723623Y-83753623D03*
X152373623Y-105793623D03*
X158723623Y-103253623D03*
X171873623Y-105793623D03*
X178223623Y-103253623D03*
X152373623Y-86293623D03*
X158723623Y-83753623D03*
X132873623Y-86293623D03*
X139223623Y-83753623D03*
D11*
X142133623Y-114283623D03*
X142133623Y-110983623D03*
X181233623Y-86183623D03*
X181233623Y-82883623D03*
D12*
X142433623Y-86533623D03*
X144433623Y-86533623D03*
D13*
X172366377Y-90166377D03*
X173833623Y-91633623D03*
X155400000Y-97800000D03*
X156867246Y-99267246D03*
D14*
X155007107Y-100907107D03*
X153592893Y-99492893D03*
D11*
X131200000Y-94750000D03*
X131200000Y-91450000D03*
D15*
X166885786Y-108614214D03*
X168300000Y-107200000D03*
D16*
X164633623Y-107133623D03*
X163166377Y-105666377D03*
D11*
X161633623Y-86183623D03*
X161633623Y-82883623D03*
D17*
X176123044Y-94024264D03*
X178173654Y-91973654D03*
X179800000Y-93600000D03*
X177749390Y-95650610D03*
D18*
X143208623Y-81878623D03*
X143983623Y-81878623D03*
D19*
X144683623Y-81878623D03*
X145183623Y-81878623D03*
X145683623Y-81878623D03*
X146183623Y-81878623D03*
X146683623Y-81878623D03*
X147183623Y-81878623D03*
X147683623Y-81878623D03*
X148183623Y-81878623D03*
D18*
X148883623Y-81878623D03*
X149658623Y-81878623D03*
D20*
X142113623Y-76283623D03*
D21*
X142113623Y-80463623D03*
D20*
X150753623Y-76283623D03*
D21*
X150753623Y-80463623D03*
D11*
X161733623Y-114383623D03*
X161733623Y-111083623D03*
X122700000Y-94800000D03*
X122700000Y-91500000D03*
D22*
X159874687Y-96231541D03*
X160440373Y-95665856D03*
X161006058Y-95100171D03*
X161571743Y-94534485D03*
X162137429Y-93968800D03*
X162703114Y-93403114D03*
X163268800Y-92837429D03*
X163834485Y-92271743D03*
X164400171Y-91706058D03*
X164965856Y-91140373D03*
X165531541Y-90574687D03*
D23*
X167935705Y-90574687D03*
X168501390Y-91140373D03*
X169067075Y-91706058D03*
X169632761Y-92271743D03*
X170198446Y-92837429D03*
X170764132Y-93403114D03*
X171329817Y-93968800D03*
X171895503Y-94534485D03*
X172461188Y-95100171D03*
X173026873Y-95665856D03*
X173592559Y-96231541D03*
D22*
X173592559Y-98635705D03*
X173026873Y-99201390D03*
X172461188Y-99767075D03*
X171895503Y-100332761D03*
X171329817Y-100898446D03*
X170764132Y-101464132D03*
X170198446Y-102029817D03*
X169632761Y-102595503D03*
X169067075Y-103161188D03*
X168501390Y-103726873D03*
X167935705Y-104292559D03*
D23*
X165531541Y-104292559D03*
X164965856Y-103726873D03*
X164400171Y-103161188D03*
X163834485Y-102595503D03*
X163268800Y-102029817D03*
X162703114Y-101464132D03*
X162137429Y-100898446D03*
X161571743Y-100332761D03*
X161006058Y-99767075D03*
X160440373Y-99201390D03*
X159874687Y-98635705D03*
D24*
X157233623Y-92433623D03*
X155233623Y-92433623D03*
D25*
X147433623Y-89033623D03*
D26*
X147433623Y-90733623D03*
X145433623Y-90733623D03*
X145433623Y-88833623D03*
D11*
X181233623Y-114383623D03*
X181233623Y-111083623D03*
D27*
X143433623Y-94008623D03*
X143433623Y-91033623D03*
D11*
X122683623Y-114283623D03*
X122683623Y-110983623D03*
D28*
X143300000Y-101200000D03*
X149500000Y-101200000D03*
X143300000Y-97500000D03*
X149500000Y-97500000D03*
D13*
X181689421Y-95490641D03*
X183156667Y-96957887D03*
D24*
X149933623Y-86533623D03*
X147933623Y-86533623D03*
D29*
X175200000Y-100467246D03*
X176667246Y-99000000D03*
D24*
X157233623Y-94640730D03*
X155233623Y-94640730D03*
D13*
X179689421Y-97490641D03*
X181156667Y-98957887D03*
X159300000Y-90700000D03*
X160767246Y-92167246D03*
D30*
X151350000Y-94500000D03*
X149250000Y-92500000D03*
X151350000Y-92500000D03*
X149250000Y-94500000D03*
X164750000Y-93750000D03*
X176100000Y-101500000D03*
X154500000Y-96900000D03*
X163600000Y-108100000D03*
X168000000Y-88000000D03*
X159516377Y-86183623D03*
X134700000Y-94750000D03*
X149533623Y-84733623D03*
X143424123Y-84733623D03*
X155923298Y-101796800D03*
X167500000Y-92100000D03*
D31*
X176123044Y-94024264D02*
X175400000Y-94747308D01*
X175400000Y-95800000D02*
X177200000Y-97600000D01*
X175400000Y-94747308D02*
X175400000Y-95800000D01*
X179580062Y-97600000D02*
X179689421Y-97490641D01*
X177200000Y-97600000D02*
X179580062Y-97600000D01*
X162970882Y-96670882D02*
X166175947Y-99875947D01*
X166175947Y-99875947D02*
X166175947Y-102925000D01*
X166885786Y-108614214D02*
X166820421Y-108548849D01*
X166820421Y-108548849D02*
X166820421Y-103569474D01*
X166820421Y-103569474D02*
X166175947Y-102925000D01*
X165767729Y-102925000D02*
X164965856Y-103726873D01*
X166175947Y-102925000D02*
X165767729Y-102925000D01*
D32*
X146208623Y-83834287D02*
X146208623Y-90091377D01*
X145683623Y-81878623D02*
X145683623Y-83309287D01*
X146403623Y-83633623D02*
X146403623Y-83639287D01*
X146403623Y-83639287D02*
X146208623Y-83834287D01*
X154183622Y-94640730D02*
X153305068Y-93762176D01*
X146683623Y-83353623D02*
X146683623Y-81878623D01*
X146943976Y-93762176D02*
X146208623Y-93026823D01*
X145683623Y-83309287D02*
X146208623Y-83834287D01*
X146208623Y-91508623D02*
X145433623Y-90733623D01*
X153305068Y-93762176D02*
X146943976Y-93762176D01*
X146208623Y-90091377D02*
X145566377Y-90733623D01*
X146208623Y-93026823D02*
X146208623Y-91533623D01*
X145566377Y-90733623D02*
X145433623Y-90733623D01*
X155233623Y-94640730D02*
X154183622Y-94640730D01*
X146208623Y-91533623D02*
X146208623Y-91945152D01*
X146208623Y-91945152D02*
X146208623Y-91508623D01*
X146403623Y-83633623D02*
X146683623Y-83353623D01*
D31*
X175724264Y-94024264D02*
X176123044Y-94024264D01*
X173235331Y-93434545D02*
X175134545Y-93434545D01*
X175134545Y-93434545D02*
X175724264Y-94024264D01*
X172500786Y-92700000D02*
X173235331Y-93434545D01*
X171467246Y-92700000D02*
X172500786Y-92700000D01*
X170764132Y-93403114D02*
X171467246Y-92700000D01*
D32*
X179800000Y-93601220D02*
X179800000Y-93600000D01*
D31*
X172722444Y-92100000D02*
X173475989Y-92853545D01*
X170198446Y-92837429D02*
X170935875Y-92100000D01*
X178804296Y-90204296D02*
X180600000Y-92000000D01*
X181689421Y-95490641D02*
X181689421Y-95489421D01*
X181689421Y-95489421D02*
X179800000Y-93600000D01*
X180600000Y-92800000D02*
X179800000Y-93600000D01*
X173475989Y-92853545D02*
X175146455Y-92853545D01*
X170935875Y-92100000D02*
X172722444Y-92100000D01*
X175146455Y-92853545D02*
X177795704Y-90204296D01*
X177795704Y-90204296D02*
X178804296Y-90204296D01*
X180600000Y-92000000D02*
X180600000Y-92800000D01*
X155246190Y-99267246D02*
X154556718Y-99956718D01*
X173592559Y-98635705D02*
X174128264Y-98100000D01*
X151350000Y-92500000D02*
X149250000Y-92500000D01*
X142166377Y-86533623D02*
X142433623Y-86533623D01*
X142113623Y-79786377D02*
X142113623Y-80463623D01*
X150119408Y-97500000D02*
X150590500Y-97971092D01*
X142433623Y-84043965D02*
X142433623Y-86533623D01*
X150590500Y-99690500D02*
X151603976Y-100703976D01*
X174128264Y-98100000D02*
X175767246Y-98100000D01*
X181156667Y-97259107D02*
X181156667Y-98957887D01*
X150590500Y-97971092D02*
X150590500Y-99690500D01*
X149700000Y-78700000D02*
X143200000Y-78700000D01*
X179850610Y-95650610D02*
X177749390Y-95650610D01*
X143208623Y-81878623D02*
X143208623Y-83268965D01*
X178030642Y-92116666D02*
X178030642Y-95369358D01*
X180614554Y-99500000D02*
X181156667Y-98957887D01*
X181157887Y-96957887D02*
X181157887Y-97257887D01*
X162970882Y-94802253D02*
X162970882Y-96670882D01*
X143200000Y-78700000D02*
X142113623Y-79786377D01*
X178173654Y-91973654D02*
X178030642Y-92116666D01*
X181157887Y-97257887D02*
X181156667Y-97259107D01*
X143208623Y-83268965D02*
X142433623Y-84043965D01*
X149500000Y-97500000D02*
X143300000Y-97500000D01*
X153809460Y-100703976D02*
X154556718Y-99956718D01*
X159890774Y-99750989D02*
X157350989Y-99750989D01*
X162970882Y-96670882D02*
X171627736Y-96670882D01*
X143208623Y-81558623D02*
X142113623Y-80463623D01*
X172415856Y-91500000D02*
X170404504Y-91500000D01*
X164965856Y-103734144D02*
X163166377Y-105533623D01*
X178030642Y-95369358D02*
X177749390Y-95650610D01*
X156867246Y-99267246D02*
X155246190Y-99267246D01*
X150753623Y-80463623D02*
X150753623Y-79753623D01*
X162137429Y-93968800D02*
X160767246Y-92598617D01*
X160767246Y-92598617D02*
X160767246Y-92167246D01*
X149250000Y-94500000D02*
X151350000Y-94500000D01*
X149933623Y-86533623D02*
X147433623Y-89033623D01*
X183156667Y-96957887D02*
X181157887Y-96957887D01*
X150753623Y-79753623D02*
X149700000Y-78700000D01*
X163166377Y-105533623D02*
X163166377Y-105666377D01*
X171627736Y-96670882D02*
X173592559Y-98635705D01*
X175767246Y-98100000D02*
X176667246Y-99000000D01*
X149658623Y-83358623D02*
X150233623Y-83933623D01*
X178200000Y-98300000D02*
X179400000Y-99500000D01*
X149658623Y-81878623D02*
X149658623Y-83358623D01*
X149658623Y-81558623D02*
X150753623Y-80463623D01*
X164965856Y-103726873D02*
X164965856Y-103734144D01*
X143300000Y-97500000D02*
X140448123Y-94648123D01*
X149658623Y-81878623D02*
X149658623Y-81558623D01*
X151603976Y-100703976D02*
X153809460Y-100703976D01*
X143208623Y-81878623D02*
X143208623Y-81558623D01*
X166630208Y-93011555D02*
X168892949Y-93011555D01*
X140448123Y-88251877D02*
X142166377Y-86533623D01*
X162137429Y-93968800D02*
X162970882Y-94802253D01*
X157350989Y-99750989D02*
X156867246Y-99267246D01*
X173300000Y-91100000D02*
X172815856Y-91100000D01*
X150233623Y-86233623D02*
X149933623Y-86533623D01*
X150233623Y-83933623D02*
X150233623Y-86233623D01*
X179400000Y-99500000D02*
X180614554Y-99500000D01*
X176667246Y-99000000D02*
X177367246Y-98300000D01*
X181157887Y-96957887D02*
X179850610Y-95650610D01*
X173833623Y-91633623D02*
X173300000Y-91100000D01*
X170404504Y-91500000D02*
X169632761Y-92271743D01*
X159890774Y-99750989D02*
X160440373Y-99201390D01*
X177367246Y-98300000D02*
X178200000Y-98300000D01*
X140448123Y-94648123D02*
X140448123Y-88251877D01*
X150753623Y-80463623D02*
X150753623Y-76283623D01*
X149500000Y-97500000D02*
X150119408Y-97500000D01*
X162970882Y-96670882D02*
X166630208Y-93011555D01*
X160440373Y-99201390D02*
X162970882Y-96670882D01*
X142113623Y-80463623D02*
X142113623Y-76283623D01*
X172815856Y-91100000D02*
X172415856Y-91500000D01*
X168892949Y-93011555D02*
X169632761Y-92271743D01*
X164600000Y-105224100D02*
X164600000Y-107100000D01*
X170075979Y-90166377D02*
X172366377Y-90166377D01*
X175200000Y-100467246D02*
X174292729Y-100467246D01*
X164181371Y-93750000D02*
X163268800Y-92837429D01*
X160989971Y-96729169D02*
X159919140Y-97800000D01*
X164600000Y-107100000D02*
X164633623Y-107133623D01*
X168000000Y-88090398D02*
X170075979Y-90166377D01*
X164750000Y-93750000D02*
X164181371Y-93750000D01*
X157000000Y-97800000D02*
X157300000Y-97800000D01*
X173026873Y-99201390D02*
X174292729Y-100467246D01*
X169854133Y-90919000D02*
X171613754Y-90919000D01*
X165531541Y-104292559D02*
X164600000Y-105224100D01*
X152800000Y-95200000D02*
X144625000Y-95200000D01*
X176100000Y-101367246D02*
X175200000Y-100467246D01*
X155400000Y-97800000D02*
X154500000Y-96900000D01*
X155400000Y-97800000D02*
X155285786Y-97800000D01*
X169067075Y-91706058D02*
X169854133Y-90919000D01*
X154500000Y-96900000D02*
X152800000Y-95200000D01*
X159874687Y-98635705D02*
X158135705Y-98635705D01*
X155366377Y-97766377D02*
X155319409Y-97766377D01*
X176100000Y-101500000D02*
X176100000Y-101367246D01*
X155400000Y-97800000D02*
X157000000Y-97800000D01*
X164566377Y-107133623D02*
X163600000Y-108100000D01*
X160989971Y-96215454D02*
X160989971Y-96729169D01*
X159919140Y-97800000D02*
X157000000Y-97800000D01*
X160440373Y-95665856D02*
X160989971Y-96215454D01*
X168000000Y-88000000D02*
X168000000Y-88090398D01*
X155285786Y-97800000D02*
X153592893Y-99492893D01*
X157300000Y-97800000D02*
X158135705Y-98635705D01*
X171613754Y-90919000D02*
X172366377Y-90166377D01*
X164633623Y-107133623D02*
X164566377Y-107133623D01*
X144625000Y-95200000D02*
X143433623Y-94008623D01*
D32*
X161900000Y-92600000D02*
X162703114Y-93403114D01*
X160749570Y-90700000D02*
X161900000Y-91850430D01*
X159300000Y-90700000D02*
X160749570Y-90700000D01*
X161900000Y-91850430D02*
X161900000Y-92600000D01*
X134700000Y-94750000D02*
X131200000Y-94750000D01*
X167935705Y-90574687D02*
X163544641Y-86183623D01*
X122750000Y-94750000D02*
X122700000Y-94800000D01*
X170800000Y-83050000D02*
X174450000Y-83050000D01*
X131200000Y-94750000D02*
X122750000Y-94750000D01*
X163544641Y-86183623D02*
X167666377Y-86183623D01*
X174450000Y-83050000D02*
X177583623Y-86183623D01*
X161633623Y-86183623D02*
X159516377Y-86183623D01*
X167666377Y-86183623D02*
X170800000Y-83050000D01*
X159500000Y-86200000D02*
X159516377Y-86183623D01*
X161633623Y-86183623D02*
X163516377Y-86183623D01*
X163544641Y-86183623D02*
X161633623Y-86183623D01*
X177583623Y-86183623D02*
X181233623Y-86183623D01*
X122700000Y-91500000D02*
X119723623Y-88523623D01*
X119723623Y-88523623D02*
X119723623Y-83753623D01*
X130378623Y-90628623D02*
X130378623Y-86596591D01*
X131200000Y-91450000D02*
X130378623Y-90628623D01*
X130378623Y-86596591D02*
X133221591Y-83753623D01*
X133221591Y-83753623D02*
X139223623Y-83753623D01*
X141250000Y-113400000D02*
X123567246Y-113400000D01*
X169500000Y-113400000D02*
X170000000Y-113400000D01*
X142133623Y-114283623D02*
X143017246Y-113400000D01*
X169378623Y-107826211D02*
X169378623Y-112778623D01*
X162717246Y-113400000D02*
X169500000Y-113400000D01*
X169700000Y-104925483D02*
X169700000Y-107504834D01*
X170000000Y-113400000D02*
X180250000Y-113400000D01*
X169700000Y-107504834D02*
X169378623Y-107826211D01*
X169378623Y-112778623D02*
X170000000Y-113400000D01*
X160750000Y-113400000D02*
X161733623Y-114383623D01*
X142133623Y-114283623D02*
X141250000Y-113400000D01*
X168501390Y-103726873D02*
X169700000Y-104925483D01*
X161733623Y-114383623D02*
X162717246Y-113400000D01*
X180250000Y-113400000D02*
X181233623Y-114383623D01*
X143017246Y-113400000D02*
X160750000Y-113400000D01*
X123567246Y-113400000D02*
X122683623Y-114283623D01*
X161633623Y-82883623D02*
X159593623Y-82883623D01*
X159593623Y-82883623D02*
X158723623Y-83753623D01*
X179093623Y-82883623D02*
X178223623Y-83753623D01*
X181233623Y-82883623D02*
X179093623Y-82883623D01*
X119723623Y-108023623D02*
X119723623Y-103253623D01*
X122683623Y-110983623D02*
X119723623Y-108023623D01*
X142133623Y-110983623D02*
X139223623Y-108073623D01*
X139223623Y-108073623D02*
X139223623Y-103253623D01*
X158723623Y-108073623D02*
X158723623Y-103253623D01*
X161733623Y-111083623D02*
X158723623Y-108073623D01*
X178223623Y-108073623D02*
X178223623Y-103253623D01*
X181233623Y-111083623D02*
X178223623Y-108073623D01*
D31*
X143424123Y-84733623D02*
X143424123Y-84044123D01*
X149417965Y-83939623D02*
X149533623Y-84055281D01*
X149533623Y-84055281D02*
X149533623Y-84733623D01*
X144033623Y-88833623D02*
X143424123Y-88224123D01*
X144033623Y-88833623D02*
X143433623Y-89433623D01*
X145433623Y-88833623D02*
X144033623Y-88833623D01*
X148883623Y-83405281D02*
X149417965Y-83939623D01*
X143433623Y-89433623D02*
X143433623Y-91033623D01*
X148883623Y-81878623D02*
X148883623Y-83405281D01*
X143424123Y-88224123D02*
X143424123Y-84733623D01*
X143424123Y-84044123D02*
X143983623Y-83484623D01*
X143983623Y-83484623D02*
X143983623Y-81878623D01*
D32*
X153064126Y-101200000D02*
X153072038Y-101207912D01*
X153072038Y-101207912D02*
X154706302Y-101207912D01*
X167500000Y-92100000D02*
X167541763Y-92100000D01*
X154706302Y-101207912D02*
X155007107Y-100907107D01*
X143300000Y-101200000D02*
X149500000Y-101200000D01*
X155033605Y-100907107D02*
X155007107Y-100907107D01*
X167541763Y-92100000D02*
X168501390Y-91140373D01*
X149500000Y-101200000D02*
X153064126Y-101200000D01*
X155923298Y-101796800D02*
X155033605Y-100907107D01*
X148183623Y-86283623D02*
X147933623Y-86533623D01*
X148183623Y-81878623D02*
X148183623Y-86283623D01*
X145183623Y-81878623D02*
X145183623Y-83353623D01*
X144433623Y-84103623D02*
X144433623Y-86533623D01*
X145183623Y-83353623D02*
X144433623Y-84103623D01*
X157333623Y-94640730D02*
X157233623Y-94640730D01*
X159911997Y-93758623D02*
X158533623Y-93758623D01*
X158530070Y-93762176D02*
X158212177Y-93762176D01*
X161006058Y-95100171D02*
X161006058Y-94852684D01*
X158533623Y-93758623D02*
X158530070Y-93762176D01*
X161006058Y-94852684D02*
X159911997Y-93758623D01*
X158212177Y-93762176D02*
X157333623Y-94640730D01*
X146658623Y-84008623D02*
X147183623Y-83483623D01*
X147130377Y-93312177D02*
X146658623Y-92840423D01*
X146658623Y-91945152D02*
X146658623Y-91508623D01*
X147433623Y-90733623D02*
X147333623Y-90733623D01*
X147183623Y-83483623D02*
X147183623Y-81878623D01*
X146658623Y-91533623D02*
X146658623Y-91945152D01*
X146913623Y-80133623D02*
X146453623Y-80133623D01*
X147333623Y-90733623D02*
X146658623Y-90058623D01*
X146658623Y-90058623D02*
X146658623Y-84008623D01*
X146658623Y-92840423D02*
X146658623Y-91533623D01*
X147183623Y-80403623D02*
X146913623Y-80133623D01*
X146658623Y-91508623D02*
X147433623Y-90733623D01*
X146453623Y-80133623D02*
X146183623Y-80403623D01*
X146183623Y-80403623D02*
X146183623Y-81878623D01*
X147183623Y-81878623D02*
X147183623Y-80403623D01*
X154183622Y-92433623D02*
X153305068Y-93312177D01*
X155233623Y-92433623D02*
X154183622Y-92433623D01*
X153305068Y-93312177D02*
X147130377Y-93312177D01*
X158357863Y-93312177D02*
X158212177Y-93312177D01*
X161571743Y-94534485D02*
X161324257Y-94534485D01*
X161324257Y-94534485D02*
X160098395Y-93308623D01*
X158361417Y-93308623D02*
X158357863Y-93312177D01*
X157333623Y-92433623D02*
X157233623Y-92433623D01*
X160098395Y-93308623D02*
X158361417Y-93308623D01*
X158212177Y-93312177D02*
X157333623Y-92433623D01*
X168300000Y-107200000D02*
X168300000Y-104656854D01*
X168300000Y-104656854D02*
X167935705Y-104292559D01*
X142165686Y-102600000D02*
X140869309Y-101303623D01*
X117863623Y-101303623D02*
X113373623Y-105793623D01*
X161571743Y-100332761D02*
X161112645Y-100791859D01*
X155968628Y-102600000D02*
X142165686Y-102600000D01*
X160545918Y-100791859D02*
X160537777Y-100800000D01*
X161112645Y-100791859D02*
X160545918Y-100791859D01*
X140869309Y-101303623D02*
X117863623Y-101303623D01*
X157768628Y-100800000D02*
X155968628Y-102600000D01*
X160537777Y-100800000D02*
X157768628Y-100800000D01*
X142000000Y-103000000D02*
X140703623Y-101703623D01*
X159657545Y-101357545D02*
X159500000Y-101200000D01*
X162137429Y-100898446D02*
X161678330Y-101357545D01*
X136963623Y-101703623D02*
X132873623Y-105793623D01*
X161678330Y-101357545D02*
X159657545Y-101357545D01*
X140703623Y-101703623D02*
X136963623Y-101703623D01*
X157934314Y-101200000D02*
X156134314Y-103000000D01*
X159500000Y-101200000D02*
X157934314Y-101200000D01*
X156134314Y-103000000D02*
X142000000Y-103000000D01*
X162703114Y-101464132D02*
X162244016Y-101923230D01*
X162244016Y-101923230D02*
X159623230Y-101923230D01*
X159300000Y-101600000D02*
X158100000Y-101600000D01*
X153906377Y-105793623D02*
X152373623Y-105793623D01*
X158100000Y-101600000D02*
X153906377Y-105793623D01*
X159623230Y-101923230D02*
X159300000Y-101600000D01*
X171493623Y-105793623D02*
X171873623Y-105793623D01*
X169067075Y-103367075D02*
X171493623Y-105793623D01*
X169067075Y-103161188D02*
X169067075Y-103367075D01*
X170198446Y-102029817D02*
X170301849Y-102029817D01*
G04 #@! TA.AperFunction,Conductor*
G36*
X141056662Y-79853808D02*
G01*
X141102417Y-79906612D01*
X141113623Y-79958123D01*
X141113623Y-80213623D01*
X141813623Y-80213623D01*
X141813623Y-80713623D01*
X141113623Y-80713623D01*
X141113623Y-81112118D01*
X141152050Y-81305304D01*
X141152053Y-81305316D01*
X141227430Y-81487294D01*
X141227437Y-81487307D01*
X141336871Y-81651085D01*
X141336874Y-81651089D01*
X141476156Y-81790371D01*
X141476160Y-81790374D01*
X141639938Y-81899808D01*
X141639951Y-81899815D01*
X141821931Y-81975192D01*
X141863623Y-81983485D01*
X141863623Y-81180611D01*
X141873563Y-81197828D01*
X141929418Y-81253683D01*
X141997827Y-81293179D01*
X142074127Y-81313623D01*
X142153119Y-81313623D01*
X142229419Y-81293179D01*
X142297828Y-81253683D01*
X142353683Y-81197828D01*
X142363623Y-81180611D01*
X142363623Y-81983702D01*
X142402622Y-82040957D01*
X142408623Y-82079064D01*
X142408623Y-83151467D01*
X142415024Y-83210995D01*
X142415026Y-83211002D01*
X142465268Y-83345709D01*
X142465272Y-83345716D01*
X142551432Y-83460810D01*
X142551435Y-83460813D01*
X142666529Y-83546973D01*
X142666538Y-83546978D01*
X142732859Y-83571714D01*
X142788793Y-83613585D01*
X142813211Y-83679049D01*
X142804088Y-83735348D01*
X142759679Y-83842561D01*
X142759676Y-83842571D01*
X142733123Y-83976062D01*
X142733123Y-84293010D01*
X142714118Y-84358980D01*
X142698332Y-84384103D01*
X142638756Y-84554360D01*
X142638753Y-84554373D01*
X142618558Y-84733619D01*
X142618558Y-84733626D01*
X142638753Y-84912872D01*
X142638754Y-84912877D01*
X142698334Y-85083147D01*
X142714116Y-85108262D01*
X142733123Y-85174235D01*
X142733123Y-85232761D01*
X142713438Y-85299800D01*
X142696804Y-85320442D01*
X142683623Y-85333623D01*
X142683623Y-86659623D01*
X142663938Y-86726662D01*
X142611134Y-86772417D01*
X142559623Y-86783623D01*
X141333624Y-86783623D01*
X141333624Y-87033609D01*
X141344117Y-87136320D01*
X141399264Y-87302742D01*
X141399266Y-87302747D01*
X141491307Y-87451968D01*
X141565477Y-87526138D01*
X141598962Y-87587461D01*
X141593978Y-87657153D01*
X141552106Y-87713086D01*
X141504445Y-87733228D01*
X141504799Y-87734701D01*
X141500069Y-87735836D01*
X141331583Y-87790579D01*
X141331580Y-87790580D01*
X141173732Y-87871009D01*
X141116079Y-87912897D01*
X141030409Y-87975140D01*
X141030407Y-87975142D01*
X141030406Y-87975142D01*
X140905142Y-88100406D01*
X140905142Y-88100407D01*
X140905140Y-88100409D01*
X140892440Y-88117889D01*
X140801009Y-88243732D01*
X140720580Y-88401580D01*
X140720579Y-88401583D01*
X140665837Y-88570066D01*
X140638123Y-88745044D01*
X140638123Y-88922201D01*
X140665837Y-89097179D01*
X140720579Y-89265662D01*
X140720580Y-89265665D01*
X140801009Y-89423513D01*
X140905140Y-89566837D01*
X141030409Y-89692106D01*
X141173733Y-89796237D01*
X141224798Y-89822256D01*
X141331580Y-89876665D01*
X141331583Y-89876666D01*
X141393563Y-89896804D01*
X141500068Y-89931409D01*
X141675044Y-89959123D01*
X141675045Y-89959123D01*
X141852201Y-89959123D01*
X141852202Y-89959123D01*
X142027178Y-89931409D01*
X142074070Y-89916172D01*
X142143911Y-89914178D01*
X142203744Y-89950258D01*
X142234572Y-90012959D01*
X142226607Y-90082373D01*
X142217927Y-90099201D01*
X142123808Y-90251790D01*
X142068624Y-90418326D01*
X142068623Y-90418327D01*
X142058123Y-90521107D01*
X142058123Y-91546138D01*
X142068623Y-91648918D01*
X142068624Y-91648920D01*
X142084941Y-91698161D01*
X142123809Y-91815458D01*
X142123810Y-91815460D01*
X142215909Y-91964774D01*
X142215912Y-91964778D01*
X142339967Y-92088833D01*
X142339971Y-92088836D01*
X142489285Y-92180935D01*
X142489287Y-92180936D01*
X142489289Y-92180937D01*
X142655826Y-92236122D01*
X142758615Y-92246623D01*
X142758620Y-92246623D01*
X144108626Y-92246623D01*
X144108631Y-92246623D01*
X144211420Y-92236122D01*
X144377957Y-92180937D01*
X144527278Y-92088834D01*
X144651334Y-91964778D01*
X144743437Y-91815457D01*
X144798622Y-91648920D01*
X144800754Y-91628051D01*
X144827150Y-91563359D01*
X144884331Y-91523208D01*
X144954142Y-91520344D01*
X144967440Y-91524469D01*
X144976140Y-91527714D01*
X145035750Y-91534123D01*
X145333525Y-91534122D01*
X145400564Y-91553806D01*
X145421206Y-91570441D01*
X145571804Y-91721039D01*
X145605289Y-91782362D01*
X145608123Y-91808720D01*
X145608123Y-92940153D01*
X145608122Y-92940171D01*
X145608122Y-93105877D01*
X145608121Y-93105877D01*
X145649046Y-93258609D01*
X145649047Y-93258610D01*
X145669498Y-93294032D01*
X145726825Y-93393326D01*
X145728104Y-93395540D01*
X145846972Y-93514408D01*
X145846978Y-93514413D01*
X146459115Y-94126550D01*
X146459125Y-94126561D01*
X146463455Y-94130891D01*
X146463456Y-94130892D01*
X146575260Y-94242696D01*
X146635739Y-94277613D01*
X146683954Y-94328179D01*
X146697178Y-94396786D01*
X146671210Y-94461651D01*
X146614297Y-94502180D01*
X146573739Y-94509000D01*
X144962584Y-94509000D01*
X144895545Y-94489315D01*
X144874901Y-94472680D01*
X144845440Y-94443218D01*
X144811956Y-94381894D01*
X144809123Y-94355538D01*
X144809123Y-93496120D01*
X144809122Y-93496107D01*
X144808841Y-93493360D01*
X144798622Y-93393326D01*
X144743437Y-93226789D01*
X144739595Y-93220561D01*
X144651336Y-93077471D01*
X144651333Y-93077467D01*
X144527278Y-92953412D01*
X144527274Y-92953409D01*
X144377960Y-92861310D01*
X144377958Y-92861309D01*
X144270762Y-92825788D01*
X144211420Y-92806124D01*
X144211418Y-92806123D01*
X144108638Y-92795623D01*
X144108631Y-92795623D01*
X142758615Y-92795623D01*
X142758607Y-92795623D01*
X142655827Y-92806123D01*
X142655826Y-92806124D01*
X142489287Y-92861309D01*
X142489285Y-92861310D01*
X142339971Y-92953409D01*
X142339967Y-92953412D01*
X142215912Y-93077467D01*
X142215909Y-93077471D01*
X142123810Y-93226785D01*
X142123809Y-93226787D01*
X142068624Y-93393326D01*
X142068623Y-93393327D01*
X142058123Y-93496107D01*
X142058123Y-94521138D01*
X142068623Y-94623918D01*
X142068624Y-94623920D01*
X142073173Y-94637648D01*
X142123809Y-94790458D01*
X142123810Y-94790460D01*
X142215909Y-94939774D01*
X142215912Y-94939778D01*
X142339967Y-95063833D01*
X142339971Y-95063836D01*
X142489285Y-95155935D01*
X142489287Y-95155936D01*
X142489289Y-95155937D01*
X142655826Y-95211122D01*
X142758615Y-95221623D01*
X143618040Y-95221623D01*
X143685079Y-95241308D01*
X143705721Y-95257942D01*
X144184510Y-95736732D01*
X144184515Y-95736736D01*
X144203587Y-95749479D01*
X144241734Y-95774968D01*
X144297689Y-95812356D01*
X144297691Y-95812357D01*
X144297695Y-95812359D01*
X144394919Y-95852630D01*
X144423443Y-95864445D01*
X144423447Y-95864445D01*
X144423448Y-95864446D01*
X144556939Y-95891000D01*
X144556942Y-95891000D01*
X144556943Y-95891000D01*
X144693057Y-95891000D01*
X152462416Y-95891000D01*
X152529455Y-95910685D01*
X152550097Y-95927319D01*
X153701400Y-97078622D01*
X153730760Y-97125348D01*
X153774210Y-97249520D01*
X153774212Y-97249524D01*
X153870184Y-97402262D01*
X153997740Y-97529818D01*
X154047504Y-97561086D01*
X154093796Y-97613420D01*
X154104445Y-97682474D01*
X154102190Y-97694677D01*
X154074976Y-97809498D01*
X154074975Y-97809509D01*
X154074975Y-97982226D01*
X154055290Y-98049265D01*
X154038660Y-98069902D01*
X153967834Y-98140729D01*
X153946202Y-98162361D01*
X153884878Y-98195845D01*
X153829923Y-98195336D01*
X153818282Y-98192576D01*
X153751330Y-98176707D01*
X153751325Y-98176707D01*
X153575883Y-98176707D01*
X153575881Y-98176707D01*
X153575875Y-98176708D01*
X153405172Y-98217166D01*
X153328375Y-98255735D01*
X153248389Y-98295905D01*
X153248388Y-98295906D01*
X153248382Y-98295910D01*
X153168292Y-98361153D01*
X153168274Y-98361169D01*
X152461167Y-99068278D01*
X152461158Y-99068288D01*
X152395904Y-99148390D01*
X152317166Y-99305172D01*
X152276708Y-99475875D01*
X152276707Y-99475886D01*
X152276707Y-99651321D01*
X152276708Y-99651332D01*
X152317166Y-99822034D01*
X152317168Y-99822037D01*
X152395905Y-99978818D01*
X152395907Y-99978821D01*
X152395909Y-99978824D01*
X152448173Y-100042981D01*
X152461162Y-100058926D01*
X152461167Y-100058931D01*
X152461168Y-100058932D01*
X152790056Y-100387819D01*
X152823541Y-100449142D01*
X152818557Y-100518833D01*
X152776686Y-100574767D01*
X152711221Y-100599184D01*
X152702375Y-100599500D01*
X151001440Y-100599500D01*
X150934401Y-100579815D01*
X150888646Y-100527011D01*
X150885258Y-100518833D01*
X150843797Y-100407671D01*
X150843793Y-100407664D01*
X150757547Y-100292455D01*
X150757544Y-100292452D01*
X150642335Y-100206206D01*
X150642328Y-100206202D01*
X150507482Y-100155908D01*
X150499938Y-100154126D01*
X150500441Y-100151994D01*
X150446184Y-100129513D01*
X150406342Y-100072117D01*
X150400000Y-100032970D01*
X150400000Y-98666524D01*
X150419685Y-98599485D01*
X150472489Y-98553730D01*
X150500020Y-98546179D01*
X150499832Y-98545380D01*
X150507379Y-98543596D01*
X150642086Y-98493354D01*
X150642093Y-98493350D01*
X150757187Y-98407190D01*
X150757190Y-98407187D01*
X150843350Y-98292093D01*
X150843354Y-98292086D01*
X150893596Y-98157379D01*
X150893598Y-98157372D01*
X150899999Y-98097844D01*
X150900000Y-98097827D01*
X150900000Y-97750000D01*
X148100000Y-97750000D01*
X148100000Y-97926000D01*
X148080315Y-97993039D01*
X148027511Y-98038794D01*
X147976000Y-98050000D01*
X147400000Y-98050000D01*
X147400000Y-100475500D01*
X147380315Y-100542539D01*
X147327511Y-100588294D01*
X147276000Y-100599500D01*
X145524000Y-100599500D01*
X145456961Y-100579815D01*
X145411206Y-100527011D01*
X145400000Y-100475500D01*
X145400000Y-98050000D01*
X144824000Y-98050000D01*
X144756961Y-98030315D01*
X144711206Y-97977511D01*
X144700000Y-97926000D01*
X144700000Y-97750000D01*
X141900000Y-97750000D01*
X141900000Y-98097844D01*
X141906401Y-98157372D01*
X141906403Y-98157379D01*
X141956645Y-98292086D01*
X141956649Y-98292093D01*
X142042809Y-98407187D01*
X142042812Y-98407190D01*
X142157906Y-98493350D01*
X142157913Y-98493354D01*
X142292620Y-98543596D01*
X142300168Y-98545380D01*
X142299655Y-98547548D01*
X142353786Y-98569956D01*
X142393646Y-98627340D01*
X142400000Y-98666524D01*
X142400000Y-100032969D01*
X142380315Y-100100008D01*
X142327511Y-100145763D01*
X142299883Y-100153345D01*
X142300068Y-100154124D01*
X142292520Y-100155907D01*
X142157671Y-100206202D01*
X142157664Y-100206206D01*
X142042455Y-100292452D01*
X142042452Y-100292455D01*
X141956206Y-100407664D01*
X141956202Y-100407671D01*
X141905908Y-100542517D01*
X141899501Y-100602116D01*
X141899500Y-100602135D01*
X141899500Y-101185217D01*
X141879815Y-101252256D01*
X141827011Y-101298011D01*
X141757853Y-101307955D01*
X141694297Y-101278930D01*
X141687819Y-101272898D01*
X141356899Y-100941978D01*
X141356897Y-100941975D01*
X141238026Y-100823104D01*
X141238025Y-100823103D01*
X141143653Y-100768618D01*
X141143652Y-100768617D01*
X141101092Y-100744045D01*
X141045190Y-100729066D01*
X140948366Y-100703122D01*
X140790252Y-100703122D01*
X140782656Y-100703122D01*
X140782640Y-100703123D01*
X117950292Y-100703123D01*
X117950276Y-100703122D01*
X117942680Y-100703122D01*
X117784566Y-100703122D01*
X117704633Y-100724540D01*
X117631839Y-100744045D01*
X117589277Y-100768619D01*
X117589276Y-100768618D01*
X117494910Y-100823100D01*
X117494905Y-100823104D01*
X117383101Y-100934909D01*
X114174018Y-104143991D01*
X114112695Y-104177476D01*
X114043003Y-104172492D01*
X114032539Y-104168032D01*
X114014947Y-104159560D01*
X113764246Y-104082229D01*
X113764242Y-104082228D01*
X113764238Y-104082227D01*
X113639446Y-104063417D01*
X113504810Y-104043123D01*
X113504805Y-104043123D01*
X113242441Y-104043123D01*
X113242435Y-104043123D01*
X113080870Y-104067476D01*
X112983008Y-104082227D01*
X112983005Y-104082228D01*
X112982999Y-104082229D01*
X112732296Y-104159561D01*
X112495926Y-104273390D01*
X112495925Y-104273391D01*
X112279143Y-104421190D01*
X112086821Y-104599637D01*
X111923237Y-104804766D01*
X111792055Y-105031979D01*
X111696205Y-105276201D01*
X111696199Y-105276220D01*
X111637820Y-105531997D01*
X111637819Y-105532002D01*
X111618215Y-105793618D01*
X111618215Y-105793627D01*
X111637819Y-106055243D01*
X111637820Y-106055248D01*
X111696199Y-106311025D01*
X111696201Y-106311034D01*
X111696203Y-106311039D01*
X111792055Y-106555266D01*
X111923237Y-106782480D01*
X111974356Y-106846581D01*
X112086820Y-106987607D01*
X112093000Y-106993340D01*
X112128756Y-107053367D01*
X112126383Y-107123197D01*
X112086634Y-107180658D01*
X112022129Y-107207507D01*
X112018411Y-107207857D01*
X112015051Y-107208121D01*
X111840066Y-107235837D01*
X111671583Y-107290579D01*
X111671580Y-107290580D01*
X111513732Y-107371009D01*
X111449541Y-107417647D01*
X111370409Y-107475140D01*
X111370407Y-107475142D01*
X111370406Y-107475142D01*
X111245142Y-107600406D01*
X111245142Y-107600407D01*
X111245140Y-107600409D01*
X111203477Y-107657753D01*
X111141009Y-107743732D01*
X111060580Y-107901580D01*
X111060579Y-107901583D01*
X111005837Y-108070066D01*
X110987456Y-108186117D01*
X110978123Y-108245044D01*
X110978123Y-108422202D01*
X110983896Y-108458648D01*
X111005837Y-108597179D01*
X111060579Y-108765662D01*
X111060580Y-108765665D01*
X111131864Y-108905565D01*
X111141009Y-108923513D01*
X111245140Y-109066837D01*
X111370409Y-109192106D01*
X111513733Y-109296237D01*
X111582200Y-109331123D01*
X111671580Y-109376665D01*
X111671583Y-109376666D01*
X111737229Y-109397995D01*
X111840068Y-109431409D01*
X112015044Y-109459123D01*
X112015045Y-109459123D01*
X112192201Y-109459123D01*
X112192202Y-109459123D01*
X112367178Y-109431409D01*
X112535665Y-109376665D01*
X112693513Y-109296237D01*
X112836837Y-109192106D01*
X112962106Y-109066837D01*
X113066237Y-108923513D01*
X113146665Y-108765665D01*
X113201409Y-108597178D01*
X113229123Y-108422202D01*
X113229123Y-108245044D01*
X113201409Y-108070068D01*
X113160737Y-107944890D01*
X113146666Y-107901583D01*
X113146665Y-107901580D01*
X113100617Y-107811207D01*
X113066237Y-107743733D01*
X113065152Y-107742240D01*
X113055825Y-107729401D01*
X113032345Y-107663595D01*
X113048171Y-107595541D01*
X113098277Y-107546846D01*
X113166755Y-107532971D01*
X113174615Y-107533899D01*
X113242441Y-107544123D01*
X113504805Y-107544123D01*
X113764238Y-107505019D01*
X114014946Y-107427686D01*
X114251327Y-107313851D01*
X114468102Y-107166056D01*
X114660428Y-106987604D01*
X114824009Y-106782480D01*
X114955191Y-106555266D01*
X115051043Y-106311039D01*
X115109425Y-106055253D01*
X115129031Y-105793623D01*
X115120212Y-105675943D01*
X115109426Y-105532002D01*
X115109425Y-105531997D01*
X115109425Y-105531993D01*
X115051043Y-105276207D01*
X114993111Y-105128599D01*
X114986943Y-105059007D01*
X115019381Y-104997123D01*
X115020798Y-104995681D01*
X118076039Y-101940442D01*
X118137362Y-101906957D01*
X118163720Y-101904123D01*
X118303352Y-101904123D01*
X118370391Y-101923808D01*
X118416146Y-101976612D01*
X118426090Y-102045770D01*
X118400299Y-102105434D01*
X118379586Y-102131409D01*
X118273237Y-102264766D01*
X118142055Y-102491979D01*
X118046205Y-102736201D01*
X118046199Y-102736220D01*
X117987820Y-102991997D01*
X117987819Y-102992002D01*
X117968215Y-103253618D01*
X117968215Y-103253627D01*
X117987819Y-103515243D01*
X117987820Y-103515248D01*
X118046199Y-103771025D01*
X118046201Y-103771034D01*
X118046203Y-103771039D01*
X118142055Y-104015266D01*
X118273237Y-104242480D01*
X118405359Y-104408156D01*
X118436821Y-104447608D01*
X118548757Y-104551468D01*
X118629144Y-104626056D01*
X118845919Y-104773851D01*
X118845924Y-104773853D01*
X118845925Y-104773854D01*
X118845926Y-104773855D01*
X118965072Y-104831232D01*
X119052924Y-104873539D01*
X119104784Y-104920361D01*
X119123123Y-104985259D01*
X119123123Y-106799084D01*
X119103438Y-106866123D01*
X119050634Y-106911878D01*
X118981476Y-106921822D01*
X118917920Y-106892797D01*
X118900748Y-106874572D01*
X118879267Y-106846578D01*
X118670670Y-106637981D01*
X118670663Y-106637975D01*
X118436616Y-106458384D01*
X118181133Y-106310881D01*
X118181123Y-106310877D01*
X117908584Y-106197987D01*
X117908577Y-106197985D01*
X117908575Y-106197984D01*
X117623616Y-106121630D01*
X117574736Y-106115194D01*
X117331136Y-106083123D01*
X117331129Y-106083123D01*
X117036117Y-106083123D01*
X117036109Y-106083123D01*
X116768065Y-106118413D01*
X116743630Y-106121630D01*
X116678599Y-106139055D01*
X116458671Y-106197984D01*
X116458661Y-106197987D01*
X116186122Y-106310877D01*
X116186112Y-106310881D01*
X115930629Y-106458384D01*
X115696582Y-106637975D01*
X115696575Y-106637981D01*
X115487981Y-106846575D01*
X115487975Y-106846582D01*
X115308384Y-107080629D01*
X115160881Y-107336112D01*
X115160877Y-107336122D01*
X115047987Y-107608661D01*
X115047984Y-107608671D01*
X115011795Y-107743733D01*
X114971631Y-107893627D01*
X114971629Y-107893638D01*
X114933123Y-108186109D01*
X114933123Y-108481136D01*
X114954063Y-108640186D01*
X114971630Y-108773616D01*
X115047984Y-109058574D01*
X115047987Y-109058584D01*
X115160877Y-109331123D01*
X115160881Y-109331133D01*
X115308384Y-109586616D01*
X115487975Y-109820663D01*
X115487981Y-109820670D01*
X115696575Y-110029264D01*
X115696582Y-110029270D01*
X115930629Y-110208861D01*
X116186112Y-110356364D01*
X116186113Y-110356364D01*
X116186116Y-110356366D01*
X116458671Y-110469262D01*
X116743630Y-110545616D01*
X117036117Y-110584123D01*
X117036124Y-110584123D01*
X117331122Y-110584123D01*
X117331129Y-110584123D01*
X117623616Y-110545616D01*
X117908575Y-110469262D01*
X118181130Y-110356366D01*
X118436617Y-110208861D01*
X118670665Y-110029269D01*
X118879269Y-109820665D01*
X119058861Y-109586617D01*
X119206366Y-109331130D01*
X119319262Y-109058575D01*
X119388372Y-108800650D01*
X119424737Y-108740990D01*
X119487584Y-108710461D01*
X119556960Y-108718756D01*
X119595828Y-108745063D01*
X121546804Y-110696039D01*
X121580289Y-110757362D01*
X121583123Y-110783720D01*
X121583123Y-111256960D01*
X121583124Y-111256978D01*
X121593273Y-111356330D01*
X121593274Y-111356333D01*
X121646619Y-111517317D01*
X121646624Y-111517328D01*
X121735652Y-111661663D01*
X121735655Y-111661667D01*
X121855578Y-111781590D01*
X121855582Y-111781593D01*
X121999917Y-111870621D01*
X121999920Y-111870622D01*
X121999926Y-111870626D01*
X122160915Y-111923972D01*
X122260278Y-111934123D01*
X123106967Y-111934122D01*
X123106975Y-111934121D01*
X123106978Y-111934121D01*
X123161383Y-111928563D01*
X123206331Y-111923972D01*
X123367320Y-111870626D01*
X123511667Y-111781591D01*
X123631591Y-111661667D01*
X123720626Y-111517320D01*
X123773972Y-111356331D01*
X123784123Y-111256968D01*
X123784122Y-110710279D01*
X123782667Y-110696039D01*
X123773972Y-110610915D01*
X123773971Y-110610912D01*
X123752334Y-110545616D01*
X123720626Y-110449926D01*
X123720622Y-110449920D01*
X123720621Y-110449917D01*
X123631593Y-110305582D01*
X123631590Y-110305578D01*
X123511667Y-110185655D01*
X123511663Y-110185652D01*
X123367328Y-110096624D01*
X123367322Y-110096621D01*
X123367320Y-110096620D01*
X123367317Y-110096619D01*
X123206332Y-110043274D01*
X123106975Y-110033123D01*
X123106968Y-110033123D01*
X122633720Y-110033123D01*
X122566681Y-110013438D01*
X122546039Y-109996804D01*
X122220039Y-109670804D01*
X122186554Y-109609481D01*
X122191538Y-109539789D01*
X122233410Y-109483856D01*
X122298874Y-109459439D01*
X122307720Y-109459123D01*
X122352201Y-109459123D01*
X122352202Y-109459123D01*
X122527178Y-109431409D01*
X122695665Y-109376665D01*
X122853513Y-109296237D01*
X122996837Y-109192106D01*
X123122106Y-109066837D01*
X123226237Y-108923513D01*
X123306665Y-108765665D01*
X123361409Y-108597178D01*
X123389123Y-108422202D01*
X123389123Y-108245044D01*
X123361409Y-108070068D01*
X123320737Y-107944890D01*
X123306666Y-107901583D01*
X123306665Y-107901580D01*
X123260617Y-107811207D01*
X123226237Y-107743733D01*
X123122106Y-107600409D01*
X122996837Y-107475140D01*
X122853513Y-107371009D01*
X122790616Y-107338961D01*
X122695665Y-107290580D01*
X122695662Y-107290579D01*
X122527179Y-107235837D01*
X122408311Y-107217010D01*
X122352202Y-107208123D01*
X122175044Y-107208123D01*
X122118935Y-107217010D01*
X122000066Y-107235837D01*
X121831583Y-107290579D01*
X121831580Y-107290580D01*
X121673732Y-107371009D01*
X121609541Y-107417647D01*
X121530409Y-107475140D01*
X121530407Y-107475142D01*
X121530406Y-107475142D01*
X121405142Y-107600406D01*
X121405142Y-107600407D01*
X121405140Y-107600409D01*
X121363477Y-107657753D01*
X121301009Y-107743732D01*
X121220580Y-107901580D01*
X121220579Y-107901583D01*
X121165837Y-108070066D01*
X121138123Y-108245044D01*
X121138123Y-108289526D01*
X121118438Y-108356565D01*
X121065634Y-108402320D01*
X120996476Y-108412264D01*
X120932920Y-108383239D01*
X120926442Y-108377207D01*
X120360442Y-107811207D01*
X120326957Y-107749884D01*
X120324123Y-107723526D01*
X120324123Y-104985259D01*
X120343808Y-104918220D01*
X120394321Y-104873539D01*
X120586218Y-104781127D01*
X120601319Y-104773855D01*
X120601319Y-104773854D01*
X120601327Y-104773851D01*
X120818102Y-104626056D01*
X121010428Y-104447604D01*
X121174009Y-104242480D01*
X121305191Y-104015266D01*
X121401043Y-103771039D01*
X121459425Y-103515253D01*
X121470406Y-103368716D01*
X121479031Y-103253627D01*
X121479031Y-103253618D01*
X121459426Y-102992002D01*
X121459425Y-102991997D01*
X121459425Y-102991993D01*
X121401043Y-102736207D01*
X121305191Y-102491980D01*
X121174009Y-102264766D01*
X121046946Y-102105434D01*
X121020539Y-102040749D01*
X121033295Y-101972054D01*
X121081165Y-101921160D01*
X121143894Y-101904123D01*
X135614526Y-101904123D01*
X135681565Y-101923808D01*
X135727320Y-101976612D01*
X135737264Y-102045770D01*
X135708239Y-102109326D01*
X135702207Y-102115804D01*
X133674018Y-104143991D01*
X133612695Y-104177476D01*
X133543003Y-104172492D01*
X133532539Y-104168032D01*
X133514947Y-104159560D01*
X133264246Y-104082229D01*
X133264242Y-104082228D01*
X133264238Y-104082227D01*
X133139446Y-104063417D01*
X133004810Y-104043123D01*
X133004805Y-104043123D01*
X132742441Y-104043123D01*
X132742435Y-104043123D01*
X132580870Y-104067476D01*
X132483008Y-104082227D01*
X132483005Y-104082228D01*
X132482999Y-104082229D01*
X132232296Y-104159561D01*
X131995926Y-104273390D01*
X131995925Y-104273391D01*
X131779143Y-104421190D01*
X131586821Y-104599637D01*
X131423237Y-104804766D01*
X131292055Y-105031979D01*
X131196205Y-105276201D01*
X131196199Y-105276220D01*
X131137820Y-105531997D01*
X131137819Y-105532002D01*
X131118215Y-105793618D01*
X131118215Y-105793627D01*
X131137819Y-106055243D01*
X131137820Y-106055248D01*
X131196199Y-106311025D01*
X131196201Y-106311034D01*
X131196203Y-106311039D01*
X131292055Y-106555266D01*
X131423237Y-106782480D01*
X131474356Y-106846581D01*
X131586820Y-106987607D01*
X131593000Y-106993340D01*
X131628756Y-107053367D01*
X131626383Y-107123197D01*
X131586634Y-107180658D01*
X131522129Y-107207507D01*
X131518411Y-107207857D01*
X131515051Y-107208121D01*
X131340066Y-107235837D01*
X131171583Y-107290579D01*
X131171580Y-107290580D01*
X131013732Y-107371009D01*
X130949541Y-107417647D01*
X130870409Y-107475140D01*
X130870407Y-107475142D01*
X130870406Y-107475142D01*
X130745142Y-107600406D01*
X130745142Y-107600407D01*
X130745140Y-107600409D01*
X130703477Y-107657753D01*
X130641009Y-107743732D01*
X130560580Y-107901580D01*
X130560579Y-107901583D01*
X130505837Y-108070066D01*
X130487456Y-108186117D01*
X130478123Y-108245044D01*
X130478123Y-108422202D01*
X130483896Y-108458648D01*
X130505837Y-108597179D01*
X130560579Y-108765662D01*
X130560580Y-108765665D01*
X130631864Y-108905565D01*
X130641009Y-108923513D01*
X130745140Y-109066837D01*
X130870409Y-109192106D01*
X131013733Y-109296237D01*
X131082200Y-109331123D01*
X131171580Y-109376665D01*
X131171583Y-109376666D01*
X131237229Y-109397995D01*
X131340068Y-109431409D01*
X131515044Y-109459123D01*
X131515045Y-109459123D01*
X131692201Y-109459123D01*
X131692202Y-109459123D01*
X131867178Y-109431409D01*
X132035665Y-109376665D01*
X132193513Y-109296237D01*
X132336837Y-109192106D01*
X132462106Y-109066837D01*
X132566237Y-108923513D01*
X132646665Y-108765665D01*
X132701409Y-108597178D01*
X132729123Y-108422202D01*
X132729123Y-108245044D01*
X132701409Y-108070068D01*
X132660737Y-107944890D01*
X132646666Y-107901583D01*
X132646665Y-107901580D01*
X132600617Y-107811207D01*
X132566237Y-107743733D01*
X132565152Y-107742240D01*
X132555825Y-107729401D01*
X132532345Y-107663595D01*
X132548171Y-107595541D01*
X132598277Y-107546846D01*
X132666755Y-107532971D01*
X132674615Y-107533899D01*
X132742441Y-107544123D01*
X133004805Y-107544123D01*
X133264238Y-107505019D01*
X133514946Y-107427686D01*
X133751327Y-107313851D01*
X133968102Y-107166056D01*
X134160428Y-106987604D01*
X134324009Y-106782480D01*
X134455191Y-106555266D01*
X134551043Y-106311039D01*
X134609425Y-106055253D01*
X134629031Y-105793623D01*
X134620212Y-105675943D01*
X134609426Y-105532002D01*
X134609425Y-105531997D01*
X134609425Y-105531993D01*
X134551043Y-105276207D01*
X134493111Y-105128599D01*
X134486943Y-105059007D01*
X134519381Y-104997123D01*
X134520798Y-104995681D01*
X137176039Y-102340442D01*
X137237362Y-102306957D01*
X137263720Y-102304123D01*
X137535740Y-102304123D01*
X137602779Y-102323808D01*
X137648534Y-102376612D01*
X137658478Y-102445770D01*
X137643952Y-102487738D01*
X137644070Y-102487795D01*
X137643583Y-102488806D01*
X137643127Y-102490124D01*
X137642053Y-102491982D01*
X137546205Y-102736201D01*
X137546199Y-102736220D01*
X137487820Y-102991997D01*
X137487819Y-102992002D01*
X137468215Y-103253618D01*
X137468215Y-103253627D01*
X137487819Y-103515243D01*
X137487820Y-103515248D01*
X137546199Y-103771025D01*
X137546201Y-103771034D01*
X137546203Y-103771039D01*
X137642055Y-104015266D01*
X137773237Y-104242480D01*
X137905359Y-104408156D01*
X137936821Y-104447608D01*
X138048757Y-104551468D01*
X138129144Y-104626056D01*
X138345919Y-104773851D01*
X138345924Y-104773853D01*
X138345925Y-104773854D01*
X138345926Y-104773855D01*
X138465072Y-104831232D01*
X138552924Y-104873539D01*
X138604784Y-104920361D01*
X138623123Y-104985259D01*
X138623123Y-106799084D01*
X138603438Y-106866123D01*
X138550634Y-106911878D01*
X138481476Y-106921822D01*
X138417920Y-106892797D01*
X138400748Y-106874572D01*
X138379267Y-106846578D01*
X138170670Y-106637981D01*
X138170663Y-106637975D01*
X137936616Y-106458384D01*
X137681133Y-106310881D01*
X137681123Y-106310877D01*
X137408584Y-106197987D01*
X137408577Y-106197985D01*
X137408575Y-106197984D01*
X137123616Y-106121630D01*
X137074736Y-106115194D01*
X136831136Y-106083123D01*
X136831129Y-106083123D01*
X136536117Y-106083123D01*
X136536109Y-106083123D01*
X136268065Y-106118413D01*
X136243630Y-106121630D01*
X136178599Y-106139055D01*
X135958671Y-106197984D01*
X135958661Y-106197987D01*
X135686122Y-106310877D01*
X135686112Y-106310881D01*
X135430629Y-106458384D01*
X135196582Y-106637975D01*
X135196575Y-106637981D01*
X134987981Y-106846575D01*
X134987975Y-106846582D01*
X134808384Y-107080629D01*
X134660881Y-107336112D01*
X134660877Y-107336122D01*
X134547987Y-107608661D01*
X134547984Y-107608671D01*
X134511795Y-107743733D01*
X134471631Y-107893627D01*
X134471629Y-107893638D01*
X134433123Y-108186109D01*
X134433123Y-108481136D01*
X134454063Y-108640186D01*
X134471630Y-108773616D01*
X134547984Y-109058574D01*
X134547987Y-109058584D01*
X134660877Y-109331123D01*
X134660881Y-109331133D01*
X134808384Y-109586616D01*
X134987975Y-109820663D01*
X134987981Y-109820670D01*
X135196575Y-110029264D01*
X135196582Y-110029270D01*
X135430629Y-110208861D01*
X135686112Y-110356364D01*
X135686113Y-110356364D01*
X135686116Y-110356366D01*
X135958671Y-110469262D01*
X136243630Y-110545616D01*
X136536117Y-110584123D01*
X136536124Y-110584123D01*
X136831122Y-110584123D01*
X136831129Y-110584123D01*
X137123616Y-110545616D01*
X137408575Y-110469262D01*
X137681130Y-110356366D01*
X137936617Y-110208861D01*
X138170665Y-110029269D01*
X138379269Y-109820665D01*
X138558861Y-109586617D01*
X138706366Y-109331130D01*
X138819262Y-109058575D01*
X138877806Y-108840080D01*
X138914170Y-108780423D01*
X138977017Y-108749894D01*
X139046392Y-108758188D01*
X139085261Y-108784496D01*
X140996804Y-110696039D01*
X141030289Y-110757362D01*
X141033123Y-110783720D01*
X141033123Y-111256960D01*
X141033124Y-111256978D01*
X141043273Y-111356330D01*
X141043274Y-111356333D01*
X141096619Y-111517317D01*
X141096624Y-111517328D01*
X141185652Y-111661663D01*
X141185655Y-111661667D01*
X141305578Y-111781590D01*
X141305582Y-111781593D01*
X141449917Y-111870621D01*
X141449920Y-111870622D01*
X141449926Y-111870626D01*
X141610915Y-111923972D01*
X141710278Y-111934123D01*
X142556967Y-111934122D01*
X142556975Y-111934121D01*
X142556978Y-111934121D01*
X142611383Y-111928563D01*
X142656331Y-111923972D01*
X142817320Y-111870626D01*
X142961667Y-111781591D01*
X143081591Y-111661667D01*
X143170626Y-111517320D01*
X143223972Y-111356331D01*
X143234123Y-111256968D01*
X143234122Y-110710279D01*
X143232667Y-110696039D01*
X143223972Y-110610915D01*
X143223971Y-110610912D01*
X143202334Y-110545616D01*
X143170626Y-110449926D01*
X143170622Y-110449920D01*
X143170621Y-110449917D01*
X143081593Y-110305582D01*
X143081590Y-110305578D01*
X142961667Y-110185655D01*
X142961663Y-110185652D01*
X142817328Y-110096624D01*
X142817322Y-110096621D01*
X142817320Y-110096620D01*
X142817317Y-110096619D01*
X142656332Y-110043274D01*
X142556975Y-110033123D01*
X142556968Y-110033123D01*
X142083720Y-110033123D01*
X142016681Y-110013438D01*
X141996039Y-109996804D01*
X141670039Y-109670804D01*
X141636554Y-109609481D01*
X141641538Y-109539789D01*
X141683410Y-109483856D01*
X141748874Y-109459439D01*
X141757720Y-109459123D01*
X141852201Y-109459123D01*
X141852202Y-109459123D01*
X142027178Y-109431409D01*
X142195665Y-109376665D01*
X142353513Y-109296237D01*
X142496837Y-109192106D01*
X142622106Y-109066837D01*
X142726237Y-108923513D01*
X142754159Y-108868713D01*
X145074500Y-108868713D01*
X145074500Y-109081287D01*
X145107754Y-109291243D01*
X145169394Y-109480952D01*
X145173444Y-109493414D01*
X145269951Y-109682820D01*
X145394890Y-109854786D01*
X145545213Y-110005109D01*
X145717179Y-110130048D01*
X145717181Y-110130049D01*
X145717184Y-110130051D01*
X145906588Y-110226557D01*
X146108757Y-110292246D01*
X146318713Y-110325500D01*
X146318714Y-110325500D01*
X146531286Y-110325500D01*
X146531287Y-110325500D01*
X146741243Y-110292246D01*
X146943412Y-110226557D01*
X147132816Y-110130051D01*
X147178832Y-110096619D01*
X147304786Y-110005109D01*
X147304788Y-110005106D01*
X147304792Y-110005104D01*
X147455104Y-109854792D01*
X147455106Y-109854788D01*
X147455109Y-109854786D01*
X147580048Y-109682820D01*
X147580047Y-109682820D01*
X147580051Y-109682816D01*
X147676557Y-109493412D01*
X147742246Y-109291243D01*
X147775500Y-109081287D01*
X147775500Y-108868713D01*
X147742246Y-108658757D01*
X147676557Y-108456588D01*
X147580051Y-108267184D01*
X147580049Y-108267181D01*
X147580048Y-108267179D01*
X147455109Y-108095213D01*
X147304786Y-107944890D01*
X147132820Y-107819951D01*
X146943414Y-107723444D01*
X146943413Y-107723443D01*
X146943412Y-107723443D01*
X146741243Y-107657754D01*
X146741241Y-107657753D01*
X146741240Y-107657753D01*
X146579957Y-107632208D01*
X146531287Y-107624500D01*
X146318713Y-107624500D01*
X146270042Y-107632208D01*
X146108760Y-107657753D01*
X145906585Y-107723444D01*
X145717179Y-107819951D01*
X145545213Y-107944890D01*
X145394890Y-108095213D01*
X145269951Y-108267179D01*
X145173444Y-108456585D01*
X145107753Y-108658760D01*
X145079034Y-108840084D01*
X145074500Y-108868713D01*
X142754159Y-108868713D01*
X142806665Y-108765665D01*
X142861409Y-108597178D01*
X142889123Y-108422202D01*
X142889123Y-108245044D01*
X142861409Y-108070068D01*
X142820737Y-107944890D01*
X142806666Y-107901583D01*
X142806665Y-107901580D01*
X142760617Y-107811207D01*
X142726237Y-107743733D01*
X142622106Y-107600409D01*
X142496837Y-107475140D01*
X142353513Y-107371009D01*
X142290616Y-107338961D01*
X142195665Y-107290580D01*
X142195662Y-107290579D01*
X142027179Y-107235837D01*
X141908311Y-107217010D01*
X141852202Y-107208123D01*
X141675044Y-107208123D01*
X141618935Y-107217010D01*
X141500066Y-107235837D01*
X141331583Y-107290579D01*
X141331580Y-107290580D01*
X141173732Y-107371009D01*
X141109541Y-107417647D01*
X141030409Y-107475140D01*
X141030407Y-107475142D01*
X141030406Y-107475142D01*
X140905142Y-107600406D01*
X140905142Y-107600407D01*
X140905140Y-107600409D01*
X140863477Y-107657753D01*
X140801009Y-107743732D01*
X140720580Y-107901580D01*
X140720579Y-107901583D01*
X140665837Y-108070066D01*
X140638123Y-108245044D01*
X140638123Y-108339526D01*
X140618438Y-108406565D01*
X140565634Y-108452320D01*
X140496476Y-108462264D01*
X140432920Y-108433239D01*
X140426442Y-108427207D01*
X139860442Y-107861207D01*
X139826957Y-107799884D01*
X139824123Y-107773526D01*
X139824123Y-104985259D01*
X139843808Y-104918220D01*
X139894321Y-104873539D01*
X140086218Y-104781127D01*
X140101319Y-104773855D01*
X140101319Y-104773854D01*
X140101327Y-104773851D01*
X140318102Y-104626056D01*
X140510428Y-104447604D01*
X140674009Y-104242480D01*
X140805191Y-104015266D01*
X140901043Y-103771039D01*
X140959425Y-103515253D01*
X140970406Y-103368716D01*
X140979031Y-103253627D01*
X140979031Y-103253619D01*
X140969547Y-103127064D01*
X140984166Y-103058740D01*
X141033403Y-103009167D01*
X141101626Y-102994084D01*
X141167173Y-103018278D01*
X141180881Y-103030116D01*
X141515139Y-103364374D01*
X141515149Y-103364385D01*
X141519479Y-103368715D01*
X141519480Y-103368716D01*
X141631284Y-103480520D01*
X141691444Y-103515253D01*
X141768215Y-103559577D01*
X141920943Y-103600501D01*
X141920946Y-103600501D01*
X142086653Y-103600501D01*
X142086669Y-103600500D01*
X154950903Y-103600500D01*
X155017942Y-103620185D01*
X155063697Y-103672989D01*
X155073641Y-103742147D01*
X155044616Y-103805703D01*
X155038584Y-103812181D01*
X154019530Y-104831232D01*
X153958207Y-104864717D01*
X153888515Y-104859733D01*
X153832582Y-104817861D01*
X153824462Y-104805551D01*
X153824009Y-104804766D01*
X153660428Y-104599642D01*
X153660427Y-104599641D01*
X153660424Y-104599637D01*
X153468102Y-104421190D01*
X153420790Y-104388933D01*
X153251327Y-104273395D01*
X153251321Y-104273392D01*
X153251320Y-104273391D01*
X153251319Y-104273390D01*
X153014948Y-104159561D01*
X153014950Y-104159561D01*
X152764246Y-104082229D01*
X152764242Y-104082228D01*
X152764238Y-104082227D01*
X152639446Y-104063417D01*
X152504810Y-104043123D01*
X152504805Y-104043123D01*
X152242441Y-104043123D01*
X152242435Y-104043123D01*
X152080870Y-104067476D01*
X151983008Y-104082227D01*
X151983005Y-104082228D01*
X151982999Y-104082229D01*
X151732296Y-104159561D01*
X151495926Y-104273390D01*
X151495925Y-104273391D01*
X151279143Y-104421190D01*
X151086821Y-104599637D01*
X150923237Y-104804766D01*
X150792055Y-105031979D01*
X150696205Y-105276201D01*
X150696199Y-105276220D01*
X150637820Y-105531997D01*
X150637819Y-105532002D01*
X150618215Y-105793618D01*
X150618215Y-105793627D01*
X150637819Y-106055243D01*
X150637820Y-106055248D01*
X150696199Y-106311025D01*
X150696201Y-106311034D01*
X150696203Y-106311039D01*
X150792055Y-106555266D01*
X150923237Y-106782480D01*
X150974356Y-106846581D01*
X151086820Y-106987607D01*
X151093000Y-106993340D01*
X151128756Y-107053367D01*
X151126383Y-107123197D01*
X151086634Y-107180658D01*
X151022129Y-107207507D01*
X151018411Y-107207857D01*
X151015051Y-107208121D01*
X150840066Y-107235837D01*
X150671583Y-107290579D01*
X150671580Y-107290580D01*
X150513732Y-107371009D01*
X150449541Y-107417647D01*
X150370409Y-107475140D01*
X150370407Y-107475142D01*
X150370406Y-107475142D01*
X150245142Y-107600406D01*
X150245142Y-107600407D01*
X150245140Y-107600409D01*
X150203477Y-107657753D01*
X150141009Y-107743732D01*
X150060580Y-107901580D01*
X150060579Y-107901583D01*
X150005837Y-108070066D01*
X149987456Y-108186117D01*
X149978123Y-108245044D01*
X149978123Y-108422202D01*
X149983896Y-108458648D01*
X150005837Y-108597179D01*
X150060579Y-108765662D01*
X150060580Y-108765665D01*
X150131864Y-108905565D01*
X150141009Y-108923513D01*
X150245140Y-109066837D01*
X150370409Y-109192106D01*
X150513733Y-109296237D01*
X150582200Y-109331123D01*
X150671580Y-109376665D01*
X150671583Y-109376666D01*
X150737229Y-109397995D01*
X150840068Y-109431409D01*
X151015044Y-109459123D01*
X151015045Y-109459123D01*
X151192201Y-109459123D01*
X151192202Y-109459123D01*
X151367178Y-109431409D01*
X151535665Y-109376665D01*
X151693513Y-109296237D01*
X151836837Y-109192106D01*
X151962106Y-109066837D01*
X152066237Y-108923513D01*
X152146665Y-108765665D01*
X152201409Y-108597178D01*
X152229123Y-108422202D01*
X152229123Y-108245044D01*
X152201409Y-108070068D01*
X152160737Y-107944890D01*
X152146666Y-107901583D01*
X152146665Y-107901580D01*
X152100617Y-107811207D01*
X152066237Y-107743733D01*
X152065152Y-107742240D01*
X152055825Y-107729401D01*
X152032345Y-107663595D01*
X152048171Y-107595541D01*
X152098277Y-107546846D01*
X152166755Y-107532971D01*
X152174615Y-107533899D01*
X152242441Y-107544123D01*
X152504805Y-107544123D01*
X152764238Y-107505019D01*
X153014946Y-107427686D01*
X153251327Y-107313851D01*
X153468102Y-107166056D01*
X153660428Y-106987604D01*
X153824009Y-106782480D01*
X153955191Y-106555266D01*
X153987959Y-106471772D01*
X153999443Y-106442513D01*
X154042258Y-106387299D01*
X154082777Y-106368040D01*
X154138162Y-106353200D01*
X154188281Y-106324262D01*
X154275093Y-106274143D01*
X154386897Y-106162339D01*
X154386897Y-106162337D01*
X154397105Y-106152130D01*
X154397106Y-106152127D01*
X156837754Y-103711480D01*
X156899075Y-103677997D01*
X156968767Y-103682981D01*
X157024700Y-103724853D01*
X157044121Y-103766813D01*
X157044832Y-103766594D01*
X157046201Y-103771033D01*
X157046203Y-103771039D01*
X157142055Y-104015266D01*
X157273237Y-104242480D01*
X157405359Y-104408156D01*
X157436821Y-104447608D01*
X157548757Y-104551468D01*
X157629144Y-104626056D01*
X157845919Y-104773851D01*
X157845924Y-104773853D01*
X157845925Y-104773854D01*
X157845926Y-104773855D01*
X157965072Y-104831232D01*
X158052924Y-104873539D01*
X158104784Y-104920361D01*
X158123123Y-104985259D01*
X158123123Y-106799084D01*
X158103438Y-106866123D01*
X158050634Y-106911878D01*
X157981476Y-106921822D01*
X157917920Y-106892797D01*
X157900748Y-106874572D01*
X157879267Y-106846578D01*
X157670670Y-106637981D01*
X157670663Y-106637975D01*
X157436616Y-106458384D01*
X157181133Y-106310881D01*
X157181123Y-106310877D01*
X156908584Y-106197987D01*
X156908577Y-106197985D01*
X156908575Y-106197984D01*
X156623616Y-106121630D01*
X156574736Y-106115194D01*
X156331136Y-106083123D01*
X156331129Y-106083123D01*
X156036117Y-106083123D01*
X156036109Y-106083123D01*
X155768065Y-106118413D01*
X155743630Y-106121630D01*
X155678599Y-106139055D01*
X155458671Y-106197984D01*
X155458661Y-106197987D01*
X155186122Y-106310877D01*
X155186112Y-106310881D01*
X154930629Y-106458384D01*
X154696582Y-106637975D01*
X154696575Y-106637981D01*
X154487981Y-106846575D01*
X154487975Y-106846582D01*
X154308384Y-107080629D01*
X154160881Y-107336112D01*
X154160877Y-107336122D01*
X154047987Y-107608661D01*
X154047984Y-107608671D01*
X154011795Y-107743733D01*
X153971631Y-107893627D01*
X153971629Y-107893638D01*
X153933123Y-108186109D01*
X153933123Y-108481136D01*
X153954063Y-108640186D01*
X153971630Y-108773616D01*
X154047984Y-109058574D01*
X154047987Y-109058584D01*
X154160877Y-109331123D01*
X154160881Y-109331133D01*
X154308384Y-109586616D01*
X154487975Y-109820663D01*
X154487981Y-109820670D01*
X154696575Y-110029264D01*
X154696582Y-110029270D01*
X154930629Y-110208861D01*
X155186112Y-110356364D01*
X155186113Y-110356364D01*
X155186116Y-110356366D01*
X155458671Y-110469262D01*
X155743630Y-110545616D01*
X156036117Y-110584123D01*
X156036124Y-110584123D01*
X156331122Y-110584123D01*
X156331129Y-110584123D01*
X156623616Y-110545616D01*
X156908575Y-110469262D01*
X157181130Y-110356366D01*
X157436617Y-110208861D01*
X157670665Y-110029269D01*
X157879269Y-109820665D01*
X158058861Y-109586617D01*
X158206366Y-109331130D01*
X158319262Y-109058575D01*
X158377806Y-108840080D01*
X158414170Y-108780423D01*
X158477017Y-108749894D01*
X158546392Y-108758188D01*
X158585261Y-108784496D01*
X160596804Y-110796039D01*
X160630289Y-110857362D01*
X160633123Y-110883720D01*
X160633123Y-111356960D01*
X160633124Y-111356978D01*
X160643273Y-111456330D01*
X160643274Y-111456333D01*
X160696619Y-111617317D01*
X160696624Y-111617328D01*
X160785652Y-111761663D01*
X160785655Y-111761667D01*
X160905578Y-111881590D01*
X160905582Y-111881593D01*
X161049917Y-111970621D01*
X161049920Y-111970622D01*
X161049926Y-111970626D01*
X161210915Y-112023972D01*
X161310278Y-112034123D01*
X162156967Y-112034122D01*
X162156975Y-112034121D01*
X162156978Y-112034121D01*
X162211383Y-112028563D01*
X162256331Y-112023972D01*
X162417320Y-111970626D01*
X162561667Y-111881591D01*
X162681591Y-111761667D01*
X162770626Y-111617320D01*
X162823972Y-111456331D01*
X162834123Y-111356968D01*
X162834122Y-110810279D01*
X162832667Y-110796039D01*
X162823972Y-110710915D01*
X162823971Y-110710912D01*
X162819043Y-110696039D01*
X162770626Y-110549926D01*
X162770622Y-110549920D01*
X162770621Y-110549917D01*
X162681593Y-110405582D01*
X162681590Y-110405578D01*
X162561667Y-110285655D01*
X162561663Y-110285652D01*
X162417328Y-110196624D01*
X162417322Y-110196621D01*
X162417320Y-110196620D01*
X162384230Y-110185655D01*
X162256332Y-110143274D01*
X162156975Y-110133123D01*
X162156968Y-110133123D01*
X161683720Y-110133123D01*
X161616681Y-110113438D01*
X161596039Y-110096804D01*
X161170039Y-109670804D01*
X161136554Y-109609481D01*
X161139463Y-109568806D01*
X166284745Y-109568806D01*
X166284745Y-109568807D01*
X166461499Y-109745561D01*
X166461520Y-109745580D01*
X166541551Y-109810776D01*
X166541557Y-109810780D01*
X166698235Y-109889466D01*
X166868837Y-109929900D01*
X167044157Y-109929900D01*
X167214758Y-109889466D01*
X167371435Y-109810780D01*
X167451472Y-109745581D01*
X167451477Y-109745577D01*
X167557537Y-109639517D01*
X166885787Y-108967767D01*
X166885786Y-108967767D01*
X166284745Y-109568806D01*
X161139463Y-109568806D01*
X161141538Y-109539789D01*
X161183410Y-109483856D01*
X161248874Y-109459439D01*
X161257720Y-109459123D01*
X161352201Y-109459123D01*
X161352202Y-109459123D01*
X161527178Y-109431409D01*
X161695665Y-109376665D01*
X161853513Y-109296237D01*
X161996837Y-109192106D01*
X162122106Y-109066837D01*
X162226237Y-108923513D01*
X162306665Y-108765665D01*
X162361409Y-108597178D01*
X162389123Y-108422202D01*
X162389123Y-108245044D01*
X162361409Y-108070068D01*
X162320737Y-107944890D01*
X162306666Y-107901583D01*
X162306665Y-107901580D01*
X162260617Y-107811207D01*
X162226237Y-107743733D01*
X162122106Y-107600409D01*
X161996837Y-107475140D01*
X161853513Y-107371009D01*
X161790616Y-107338961D01*
X161695665Y-107290580D01*
X161695662Y-107290579D01*
X161527179Y-107235837D01*
X161408311Y-107217010D01*
X161352202Y-107208123D01*
X161175044Y-107208123D01*
X161118935Y-107217010D01*
X161000066Y-107235837D01*
X160831583Y-107290579D01*
X160831580Y-107290580D01*
X160673732Y-107371009D01*
X160609541Y-107417647D01*
X160530409Y-107475140D01*
X160530407Y-107475142D01*
X160530406Y-107475142D01*
X160405142Y-107600406D01*
X160405142Y-107600407D01*
X160405140Y-107600409D01*
X160363477Y-107657753D01*
X160301009Y-107743732D01*
X160220580Y-107901580D01*
X160220579Y-107901583D01*
X160165837Y-108070066D01*
X160138123Y-108245044D01*
X160138123Y-108339526D01*
X160118438Y-108406565D01*
X160065634Y-108452320D01*
X159996476Y-108462264D01*
X159932920Y-108433239D01*
X159926442Y-108427207D01*
X159360442Y-107861207D01*
X159326957Y-107799884D01*
X159324123Y-107773526D01*
X159324123Y-105675943D01*
X161841852Y-105675943D01*
X161841852Y-105851264D01*
X161882286Y-106021868D01*
X161960971Y-106178544D01*
X162026172Y-106258582D01*
X162026179Y-106258590D01*
X162123394Y-106355805D01*
X162812824Y-105666377D01*
X162812824Y-105666376D01*
X162220622Y-105074175D01*
X162026182Y-105268617D01*
X162026172Y-105268628D01*
X161960976Y-105348659D01*
X161960967Y-105348672D01*
X161882286Y-105505339D01*
X161841852Y-105675943D01*
X159324123Y-105675943D01*
X159324123Y-104985259D01*
X159343808Y-104918220D01*
X159394321Y-104873539D01*
X159586218Y-104781127D01*
X159601319Y-104773855D01*
X159601319Y-104773854D01*
X159601327Y-104773851D01*
X159818102Y-104626056D01*
X160010428Y-104447604D01*
X160174009Y-104242480D01*
X160305191Y-104015266D01*
X160401043Y-103771039D01*
X160459425Y-103515253D01*
X160470406Y-103368716D01*
X160479031Y-103253627D01*
X160479031Y-103253618D01*
X160459426Y-102992002D01*
X160459425Y-102991997D01*
X160459425Y-102991993D01*
X160401043Y-102736207D01*
X160384097Y-102693031D01*
X160377929Y-102623435D01*
X160410367Y-102561552D01*
X160471112Y-102527029D01*
X160499526Y-102523730D01*
X161942877Y-102523730D01*
X162009916Y-102543415D01*
X162030558Y-102560049D01*
X162047173Y-102576664D01*
X162047185Y-102576675D01*
X162097209Y-102616989D01*
X162115952Y-102635732D01*
X162118637Y-102639064D01*
X162118638Y-102639066D01*
X162140513Y-102666211D01*
X162156255Y-102685746D01*
X162156259Y-102685750D01*
X162612859Y-103142349D01*
X162612862Y-103142351D01*
X162612869Y-103142358D01*
X162658875Y-103179434D01*
X162662890Y-103182670D01*
X162681631Y-103201412D01*
X162721938Y-103251429D01*
X162721944Y-103251436D01*
X163178544Y-103708035D01*
X163178556Y-103708046D01*
X163228580Y-103748360D01*
X163247323Y-103767103D01*
X163250008Y-103770435D01*
X163250009Y-103770437D01*
X163271413Y-103796997D01*
X163287626Y-103817117D01*
X163287630Y-103817121D01*
X163646666Y-104176156D01*
X163680151Y-104237479D01*
X163675167Y-104307170D01*
X163633296Y-104363104D01*
X163567831Y-104387521D01*
X163529320Y-104382145D01*
X163528893Y-104383951D01*
X163351264Y-104341852D01*
X163175944Y-104341852D01*
X163005339Y-104382286D01*
X162848672Y-104460967D01*
X162848665Y-104460972D01*
X162768618Y-104526178D01*
X162768602Y-104526193D01*
X162574175Y-104720620D01*
X162574175Y-104720621D01*
X163166377Y-105312823D01*
X163166378Y-105312823D01*
X163698071Y-104781127D01*
X163698072Y-104781126D01*
X163698072Y-104692466D01*
X163717757Y-104625427D01*
X163734390Y-104604785D01*
X163787705Y-104551468D01*
X163805476Y-104490943D01*
X163858279Y-104445187D01*
X163903915Y-104435258D01*
X163918337Y-104420836D01*
X163979659Y-104387350D01*
X164023662Y-104385777D01*
X164064295Y-104391619D01*
X164152142Y-104378989D01*
X164221299Y-104388933D01*
X164274103Y-104434688D01*
X164293787Y-104501728D01*
X164274102Y-104568767D01*
X164257468Y-104589408D01*
X164063266Y-104783610D01*
X164000842Y-104877036D01*
X163987643Y-104896788D01*
X163987642Y-104896790D01*
X163935556Y-105022538D01*
X163935553Y-105022548D01*
X163909000Y-105156039D01*
X163909000Y-105225945D01*
X163889315Y-105292984D01*
X163872681Y-105313626D01*
X162476948Y-106709358D01*
X162574162Y-106806571D01*
X162574173Y-106806581D01*
X162654204Y-106871777D01*
X162654217Y-106871786D01*
X162810885Y-106950467D01*
X162981490Y-106990902D01*
X163156810Y-106990902D01*
X163160231Y-106990091D01*
X163162656Y-106990219D01*
X163163985Y-106990064D01*
X163164011Y-106990290D01*
X163230003Y-106993779D01*
X163286706Y-107034603D01*
X163312335Y-107099602D01*
X163309496Y-107139335D01*
X163308599Y-107143117D01*
X163308598Y-107143132D01*
X163308598Y-107269158D01*
X163288913Y-107336197D01*
X163250571Y-107374151D01*
X163097739Y-107470182D01*
X162970184Y-107597737D01*
X162874211Y-107750476D01*
X162814631Y-107920745D01*
X162814630Y-107920750D01*
X162794435Y-108099996D01*
X162794435Y-108100003D01*
X162814630Y-108279249D01*
X162814631Y-108279254D01*
X162874211Y-108449523D01*
X162966990Y-108597179D01*
X162970184Y-108602262D01*
X163097738Y-108729816D01*
X163250478Y-108825789D01*
X163291331Y-108840084D01*
X163420745Y-108885368D01*
X163420750Y-108885369D01*
X163599996Y-108905565D01*
X163600000Y-108905565D01*
X163600004Y-108905565D01*
X163779249Y-108885369D01*
X163779252Y-108885368D01*
X163779255Y-108885368D01*
X163949522Y-108825789D01*
X164102262Y-108729816D01*
X164229816Y-108602262D01*
X164289503Y-108507269D01*
X164341836Y-108460979D01*
X164410889Y-108450330D01*
X164423094Y-108452585D01*
X164448669Y-108458647D01*
X164448672Y-108458647D01*
X164448675Y-108458648D01*
X164448678Y-108458648D01*
X164624114Y-108458648D01*
X164624117Y-108458648D01*
X164794829Y-108418187D01*
X164951610Y-108339449D01*
X165031718Y-108274193D01*
X165774191Y-107531718D01*
X165839449Y-107451610D01*
X165918187Y-107294829D01*
X165958648Y-107124117D01*
X165958648Y-106948675D01*
X165940422Y-106871777D01*
X165918187Y-106777961D01*
X165839451Y-106621185D01*
X165839449Y-106621181D01*
X165774193Y-106541074D01*
X165543996Y-106310877D01*
X165327319Y-106094200D01*
X165293834Y-106032877D01*
X165291000Y-106006519D01*
X165291000Y-105603719D01*
X165310685Y-105536680D01*
X165363488Y-105490925D01*
X165370142Y-105487886D01*
X165469038Y-105442721D01*
X165515721Y-105405102D01*
X166644082Y-104276739D01*
X166644086Y-104276733D01*
X166645940Y-104274880D01*
X166707263Y-104241395D01*
X166776954Y-104246379D01*
X166821302Y-104274880D01*
X167663181Y-105116756D01*
X167696666Y-105178079D01*
X167699500Y-105204437D01*
X167699500Y-106051374D01*
X167679815Y-106118413D01*
X167663181Y-106139055D01*
X167168278Y-106633959D01*
X167168267Y-106633971D01*
X167103014Y-106714072D01*
X167103013Y-106714073D01*
X167024273Y-106870858D01*
X166983815Y-107041560D01*
X166983814Y-107041571D01*
X166983814Y-107174528D01*
X166964129Y-107241567D01*
X166911325Y-107287322D01*
X166859814Y-107298528D01*
X166727415Y-107298528D01*
X166556813Y-107338961D01*
X166400136Y-107417647D01*
X166320099Y-107482846D01*
X166320084Y-107482859D01*
X165754438Y-108048506D01*
X165754419Y-108048527D01*
X165689223Y-108128558D01*
X165689219Y-108128564D01*
X165610533Y-108285241D01*
X165570100Y-108455842D01*
X165570100Y-108631163D01*
X165610533Y-108801764D01*
X165689219Y-108958442D01*
X165754418Y-109038479D01*
X165754431Y-109038494D01*
X165931192Y-109215254D01*
X165931193Y-109215254D01*
X166798105Y-108348342D01*
X166859428Y-108314857D01*
X166929120Y-108319841D01*
X166973467Y-108348342D01*
X167911090Y-109285965D01*
X168017133Y-109179921D01*
X168017152Y-109179900D01*
X168082348Y-109099869D01*
X168082352Y-109099863D01*
X168161038Y-108943186D01*
X168201472Y-108772585D01*
X168201472Y-108640186D01*
X168221157Y-108573147D01*
X168273961Y-108527392D01*
X168325472Y-108516186D01*
X168458429Y-108516186D01*
X168458432Y-108516186D01*
X168527308Y-108499861D01*
X168625526Y-108476583D01*
X168695298Y-108480276D01*
X168751997Y-108521104D01*
X168777622Y-108586105D01*
X168778123Y-108597240D01*
X168778123Y-112675500D01*
X168758438Y-112742539D01*
X168705634Y-112788294D01*
X168654123Y-112799500D01*
X162803915Y-112799500D01*
X162803899Y-112799499D01*
X162796303Y-112799499D01*
X162638189Y-112799499D01*
X162530833Y-112828265D01*
X162485456Y-112840424D01*
X162485455Y-112840425D01*
X162435342Y-112869359D01*
X162435341Y-112869360D01*
X162391935Y-112894420D01*
X162348531Y-112919479D01*
X162348528Y-112919481D01*
X161871206Y-113396804D01*
X161809883Y-113430289D01*
X161783525Y-113433123D01*
X161683720Y-113433123D01*
X161616681Y-113413438D01*
X161596039Y-113396804D01*
X161237590Y-113038355D01*
X161237588Y-113038352D01*
X161118717Y-112919481D01*
X161118716Y-112919480D01*
X161031904Y-112869360D01*
X161031904Y-112869359D01*
X161031900Y-112869358D01*
X160981785Y-112840423D01*
X160829057Y-112799499D01*
X160670943Y-112799499D01*
X160663347Y-112799499D01*
X160663331Y-112799500D01*
X143103916Y-112799500D01*
X143103900Y-112799499D01*
X143096304Y-112799499D01*
X142938189Y-112799499D01*
X142861825Y-112819961D01*
X142785460Y-112840423D01*
X142785455Y-112840426D01*
X142648536Y-112919475D01*
X142648528Y-112919481D01*
X142271206Y-113296804D01*
X142209883Y-113330289D01*
X142183525Y-113333123D01*
X142083721Y-113333123D01*
X142016682Y-113313438D01*
X141996040Y-113296804D01*
X141737590Y-113038355D01*
X141737588Y-113038352D01*
X141618717Y-112919481D01*
X141618716Y-112919480D01*
X141531904Y-112869360D01*
X141531904Y-112869359D01*
X141531900Y-112869358D01*
X141481785Y-112840423D01*
X141329057Y-112799499D01*
X141170943Y-112799499D01*
X141163347Y-112799499D01*
X141163331Y-112799500D01*
X123653916Y-112799500D01*
X123653900Y-112799499D01*
X123646304Y-112799499D01*
X123488189Y-112799499D01*
X123411825Y-112819961D01*
X123335460Y-112840423D01*
X123335455Y-112840426D01*
X123198536Y-112919475D01*
X123198528Y-112919481D01*
X122821205Y-113296804D01*
X122759882Y-113330289D01*
X122733524Y-113333123D01*
X122260285Y-113333123D01*
X122260267Y-113333124D01*
X122160915Y-113343273D01*
X122160912Y-113343274D01*
X121999928Y-113396619D01*
X121999917Y-113396624D01*
X121855582Y-113485652D01*
X121855578Y-113485655D01*
X121735655Y-113605578D01*
X121735652Y-113605582D01*
X121646624Y-113749917D01*
X121646619Y-113749928D01*
X121593274Y-113910913D01*
X121583123Y-114010270D01*
X121583123Y-114556960D01*
X121583124Y-114556978D01*
X121593273Y-114656330D01*
X121593274Y-114656333D01*
X121646619Y-114817317D01*
X121646624Y-114817328D01*
X121735652Y-114961663D01*
X121735655Y-114961667D01*
X121855578Y-115081590D01*
X121855582Y-115081593D01*
X121999917Y-115170621D01*
X121999920Y-115170622D01*
X121999926Y-115170626D01*
X122160915Y-115223972D01*
X122260278Y-115234123D01*
X123106967Y-115234122D01*
X123106975Y-115234121D01*
X123106978Y-115234121D01*
X123161383Y-115228563D01*
X123206331Y-115223972D01*
X123367320Y-115170626D01*
X123511667Y-115081591D01*
X123631591Y-114961667D01*
X123720626Y-114817320D01*
X123773972Y-114656331D01*
X123784123Y-114556968D01*
X123784122Y-114124499D01*
X123803806Y-114057461D01*
X123856610Y-114011706D01*
X123908122Y-114000500D01*
X140909123Y-114000500D01*
X140976162Y-114020185D01*
X141021917Y-114072989D01*
X141033123Y-114124500D01*
X141033123Y-114556960D01*
X141033124Y-114556978D01*
X141043273Y-114656330D01*
X141043274Y-114656333D01*
X141096619Y-114817317D01*
X141096624Y-114817328D01*
X141185652Y-114961663D01*
X141185655Y-114961667D01*
X141305578Y-115081590D01*
X141305582Y-115081593D01*
X141449917Y-115170621D01*
X141449920Y-115170622D01*
X141449926Y-115170626D01*
X141610915Y-115223972D01*
X141710278Y-115234123D01*
X142556967Y-115234122D01*
X142556975Y-115234121D01*
X142556978Y-115234121D01*
X142611383Y-115228563D01*
X142656331Y-115223972D01*
X142817320Y-115170626D01*
X142961667Y-115081591D01*
X143081591Y-114961667D01*
X143170626Y-114817320D01*
X143223972Y-114656331D01*
X143234123Y-114556968D01*
X143234122Y-114124499D01*
X143253806Y-114057461D01*
X143306610Y-114011706D01*
X143358122Y-114000500D01*
X160449903Y-114000500D01*
X160516942Y-114020185D01*
X160537584Y-114036819D01*
X160596804Y-114096039D01*
X160630289Y-114157362D01*
X160633123Y-114183720D01*
X160633123Y-114656960D01*
X160633124Y-114656978D01*
X160643273Y-114756330D01*
X160643274Y-114756333D01*
X160696619Y-114917317D01*
X160696624Y-114917328D01*
X160785652Y-115061663D01*
X160785655Y-115061667D01*
X160905578Y-115181590D01*
X160905582Y-115181593D01*
X161049917Y-115270621D01*
X161049920Y-115270622D01*
X161049926Y-115270626D01*
X161210915Y-115323972D01*
X161310278Y-115334123D01*
X162156967Y-115334122D01*
X162156975Y-115334121D01*
X162156978Y-115334121D01*
X162211383Y-115328563D01*
X162256331Y-115323972D01*
X162417320Y-115270626D01*
X162561667Y-115181591D01*
X162681591Y-115061667D01*
X162770626Y-114917320D01*
X162823972Y-114756331D01*
X162834123Y-114656968D01*
X162834122Y-114183720D01*
X162853806Y-114116682D01*
X162870441Y-114096039D01*
X162929663Y-114036818D01*
X162990987Y-114003334D01*
X163017344Y-114000500D01*
X169420943Y-114000500D01*
X169913331Y-114000500D01*
X169913347Y-114000501D01*
X169920943Y-114000501D01*
X170086654Y-114000501D01*
X170086670Y-114000500D01*
X179949903Y-114000500D01*
X180016942Y-114020185D01*
X180037584Y-114036819D01*
X180096804Y-114096039D01*
X180130289Y-114157362D01*
X180133123Y-114183720D01*
X180133123Y-114656960D01*
X180133124Y-114656978D01*
X180143273Y-114756330D01*
X180143274Y-114756333D01*
X180196619Y-114917317D01*
X180196624Y-114917328D01*
X180285652Y-115061663D01*
X180285655Y-115061667D01*
X180405578Y-115181590D01*
X180405582Y-115181593D01*
X180549917Y-115270621D01*
X180549920Y-115270622D01*
X180549926Y-115270626D01*
X180710915Y-115323972D01*
X180810278Y-115334123D01*
X181656967Y-115334122D01*
X181656975Y-115334121D01*
X181656978Y-115334121D01*
X181711383Y-115328563D01*
X181756331Y-115323972D01*
X181917320Y-115270626D01*
X182061667Y-115181591D01*
X182181591Y-115061667D01*
X182270626Y-114917320D01*
X182323972Y-114756331D01*
X182334123Y-114656968D01*
X182334122Y-114110279D01*
X182332667Y-114096039D01*
X182323972Y-114010915D01*
X182323971Y-114010912D01*
X182320521Y-114000500D01*
X182270626Y-113849926D01*
X182270622Y-113849920D01*
X182270621Y-113849917D01*
X182181593Y-113705582D01*
X182181590Y-113705578D01*
X182061667Y-113585655D01*
X182061663Y-113585652D01*
X181917328Y-113496624D01*
X181917322Y-113496621D01*
X181917320Y-113496620D01*
X181884230Y-113485655D01*
X181756332Y-113443274D01*
X181656975Y-113433123D01*
X181656968Y-113433123D01*
X181183720Y-113433123D01*
X181116681Y-113413438D01*
X181096039Y-113396804D01*
X180737590Y-113038355D01*
X180737588Y-113038352D01*
X180618717Y-112919481D01*
X180618716Y-112919480D01*
X180531904Y-112869360D01*
X180531904Y-112869359D01*
X180531900Y-112869358D01*
X180481785Y-112840423D01*
X180329057Y-112799499D01*
X180170943Y-112799499D01*
X180163347Y-112799499D01*
X180163331Y-112799500D01*
X170300098Y-112799500D01*
X170233059Y-112779815D01*
X170212417Y-112763181D01*
X170015442Y-112566206D01*
X169981957Y-112504883D01*
X169979123Y-112478525D01*
X169979123Y-109480952D01*
X169998808Y-109413913D01*
X170051612Y-109368158D01*
X170120770Y-109358214D01*
X170159418Y-109370467D01*
X170171581Y-109376665D01*
X170171583Y-109376666D01*
X170237229Y-109397995D01*
X170340068Y-109431409D01*
X170515044Y-109459123D01*
X170515045Y-109459123D01*
X170692201Y-109459123D01*
X170692202Y-109459123D01*
X170867178Y-109431409D01*
X171035665Y-109376665D01*
X171193513Y-109296237D01*
X171336837Y-109192106D01*
X171462106Y-109066837D01*
X171566237Y-108923513D01*
X171646665Y-108765665D01*
X171701409Y-108597178D01*
X171729123Y-108422202D01*
X171729123Y-108245044D01*
X171701409Y-108070068D01*
X171660737Y-107944890D01*
X171646666Y-107901583D01*
X171646665Y-107901580D01*
X171600617Y-107811207D01*
X171566237Y-107743733D01*
X171565152Y-107742240D01*
X171555825Y-107729401D01*
X171532345Y-107663595D01*
X171548171Y-107595541D01*
X171598277Y-107546846D01*
X171666755Y-107532971D01*
X171674615Y-107533899D01*
X171742441Y-107544123D01*
X172004805Y-107544123D01*
X172264238Y-107505019D01*
X172514946Y-107427686D01*
X172751327Y-107313851D01*
X172968102Y-107166056D01*
X173160428Y-106987604D01*
X173324009Y-106782480D01*
X173455191Y-106555266D01*
X173551043Y-106311039D01*
X173609425Y-106055253D01*
X173629031Y-105793623D01*
X173620212Y-105675943D01*
X173609426Y-105532002D01*
X173609425Y-105531997D01*
X173609425Y-105531993D01*
X173551043Y-105276207D01*
X173455191Y-105031980D01*
X173324009Y-104804766D01*
X173160428Y-104599642D01*
X173160427Y-104599641D01*
X173160424Y-104599637D01*
X172968102Y-104421190D01*
X172920790Y-104388933D01*
X172751327Y-104273395D01*
X172751321Y-104273392D01*
X172751320Y-104273391D01*
X172751319Y-104273390D01*
X172514948Y-104159561D01*
X172514950Y-104159561D01*
X172264246Y-104082229D01*
X172264242Y-104082228D01*
X172264238Y-104082227D01*
X172139446Y-104063417D01*
X172004810Y-104043123D01*
X172004805Y-104043123D01*
X171742441Y-104043123D01*
X171742435Y-104043123D01*
X171580870Y-104067476D01*
X171483008Y-104082227D01*
X171483005Y-104082228D01*
X171482999Y-104082229D01*
X171232296Y-104159561D01*
X170995924Y-104273392D01*
X170995914Y-104273397D01*
X170977764Y-104285772D01*
X170911285Y-104307271D01*
X170843735Y-104289416D01*
X170820233Y-104270998D01*
X170360667Y-103811432D01*
X170327182Y-103750109D01*
X170332166Y-103680417D01*
X170360665Y-103636071D01*
X170745302Y-103251434D01*
X170782923Y-103204752D01*
X170782924Y-103204749D01*
X170785617Y-103201408D01*
X170804362Y-103182663D01*
X170807689Y-103179981D01*
X170807695Y-103179979D01*
X170854377Y-103142360D01*
X171310987Y-102685748D01*
X171348608Y-102639066D01*
X171348607Y-102639066D01*
X171351299Y-102635727D01*
X171370042Y-102616984D01*
X171373378Y-102614294D01*
X171373381Y-102614294D01*
X171420063Y-102576675D01*
X171876673Y-102120063D01*
X171914294Y-102073381D01*
X171914295Y-102073378D01*
X171916988Y-102070037D01*
X171935733Y-102051292D01*
X171939060Y-102048610D01*
X171939066Y-102048608D01*
X171985748Y-102010989D01*
X172442358Y-101554377D01*
X172479979Y-101507695D01*
X172479978Y-101507695D01*
X172482670Y-101504356D01*
X172501413Y-101485613D01*
X172504749Y-101482923D01*
X172504752Y-101482923D01*
X172551434Y-101445304D01*
X173008044Y-100988692D01*
X173045665Y-100942010D01*
X173045666Y-100942007D01*
X173048359Y-100938666D01*
X173067103Y-100919922D01*
X173070432Y-100917239D01*
X173070437Y-100917237D01*
X173117119Y-100879618D01*
X173334820Y-100661914D01*
X173396139Y-100628432D01*
X173465831Y-100633416D01*
X173510179Y-100661917D01*
X173852239Y-101003978D01*
X173852243Y-101003981D01*
X173935773Y-101059794D01*
X173935775Y-101059796D01*
X173965415Y-101079600D01*
X173965422Y-101079604D01*
X174079357Y-101126797D01*
X174091172Y-101131691D01*
X174091176Y-101131691D01*
X174091177Y-101131692D01*
X174224668Y-101158246D01*
X174224671Y-101158246D01*
X174224672Y-101158246D01*
X174300974Y-101158246D01*
X174368013Y-101177931D01*
X174388655Y-101194565D01*
X174801905Y-101607814D01*
X174853757Y-101650054D01*
X174882010Y-101673070D01*
X174882018Y-101673075D01*
X175038794Y-101751810D01*
X175209506Y-101792271D01*
X175269705Y-101792271D01*
X175336744Y-101811956D01*
X175374699Y-101850299D01*
X175408519Y-101904123D01*
X175470184Y-102002262D01*
X175597738Y-102129816D01*
X175630512Y-102150409D01*
X175717462Y-102205044D01*
X175750478Y-102225789D01*
X175861868Y-102264766D01*
X175920745Y-102285368D01*
X175920750Y-102285369D01*
X176099996Y-102305565D01*
X176100000Y-102305565D01*
X176100004Y-102305565D01*
X176279249Y-102285369D01*
X176279252Y-102285368D01*
X176279255Y-102285368D01*
X176449522Y-102225789D01*
X176569488Y-102150408D01*
X176636724Y-102131409D01*
X176703560Y-102151777D01*
X176748774Y-102205044D01*
X176758012Y-102274301D01*
X176742847Y-102317403D01*
X176642055Y-102491979D01*
X176546205Y-102736201D01*
X176546199Y-102736220D01*
X176487820Y-102991997D01*
X176487819Y-102992002D01*
X176468215Y-103253618D01*
X176468215Y-103253627D01*
X176487819Y-103515243D01*
X176487820Y-103515248D01*
X176546199Y-103771025D01*
X176546201Y-103771034D01*
X176546203Y-103771039D01*
X176642055Y-104015266D01*
X176773237Y-104242480D01*
X176905359Y-104408156D01*
X176936821Y-104447608D01*
X177048757Y-104551468D01*
X177129144Y-104626056D01*
X177345919Y-104773851D01*
X177345924Y-104773853D01*
X177345925Y-104773854D01*
X177345926Y-104773855D01*
X177465072Y-104831232D01*
X177552924Y-104873539D01*
X177604784Y-104920361D01*
X177623123Y-104985259D01*
X177623123Y-106799084D01*
X177603438Y-106866123D01*
X177550634Y-106911878D01*
X177481476Y-106921822D01*
X177417920Y-106892797D01*
X177400748Y-106874572D01*
X177379267Y-106846578D01*
X177170670Y-106637981D01*
X177170663Y-106637975D01*
X176936616Y-106458384D01*
X176681133Y-106310881D01*
X176681123Y-106310877D01*
X176408584Y-106197987D01*
X176408577Y-106197985D01*
X176408575Y-106197984D01*
X176123616Y-106121630D01*
X176074736Y-106115194D01*
X175831136Y-106083123D01*
X175831129Y-106083123D01*
X175536117Y-106083123D01*
X175536109Y-106083123D01*
X175268065Y-106118413D01*
X175243630Y-106121630D01*
X175178599Y-106139055D01*
X174958671Y-106197984D01*
X174958661Y-106197987D01*
X174686122Y-106310877D01*
X174686112Y-106310881D01*
X174430629Y-106458384D01*
X174196582Y-106637975D01*
X174196575Y-106637981D01*
X173987981Y-106846575D01*
X173987975Y-106846582D01*
X173808384Y-107080629D01*
X173660881Y-107336112D01*
X173660877Y-107336122D01*
X173547987Y-107608661D01*
X173547984Y-107608671D01*
X173511795Y-107743733D01*
X173471631Y-107893627D01*
X173471629Y-107893638D01*
X173433123Y-108186109D01*
X173433123Y-108481136D01*
X173454063Y-108640186D01*
X173471630Y-108773616D01*
X173547984Y-109058574D01*
X173547987Y-109058584D01*
X173660877Y-109331123D01*
X173660881Y-109331133D01*
X173808384Y-109586616D01*
X173987975Y-109820663D01*
X173987981Y-109820670D01*
X174196575Y-110029264D01*
X174196582Y-110029270D01*
X174430629Y-110208861D01*
X174686112Y-110356364D01*
X174686113Y-110356364D01*
X174686116Y-110356366D01*
X174958671Y-110469262D01*
X175243630Y-110545616D01*
X175536117Y-110584123D01*
X175536124Y-110584123D01*
X175831122Y-110584123D01*
X175831129Y-110584123D01*
X176123616Y-110545616D01*
X176408575Y-110469262D01*
X176681130Y-110356366D01*
X176936617Y-110208861D01*
X177170665Y-110029269D01*
X177379269Y-109820665D01*
X177558861Y-109586617D01*
X177706366Y-109331130D01*
X177819262Y-109058575D01*
X177877806Y-108840080D01*
X177914170Y-108780423D01*
X177977017Y-108749894D01*
X178046392Y-108758188D01*
X178085261Y-108784496D01*
X180096804Y-110796039D01*
X180130289Y-110857362D01*
X180133123Y-110883720D01*
X180133123Y-111356960D01*
X180133124Y-111356978D01*
X180143273Y-111456330D01*
X180143274Y-111456333D01*
X180196619Y-111617317D01*
X180196624Y-111617328D01*
X180285652Y-111761663D01*
X180285655Y-111761667D01*
X180405578Y-111881590D01*
X180405582Y-111881593D01*
X180549917Y-111970621D01*
X180549920Y-111970622D01*
X180549926Y-111970626D01*
X180710915Y-112023972D01*
X180810278Y-112034123D01*
X181656967Y-112034122D01*
X181656975Y-112034121D01*
X181656978Y-112034121D01*
X181711383Y-112028563D01*
X181756331Y-112023972D01*
X181917320Y-111970626D01*
X182061667Y-111881591D01*
X182181591Y-111761667D01*
X182270626Y-111617320D01*
X182323972Y-111456331D01*
X182334123Y-111356968D01*
X182334122Y-110810279D01*
X182332667Y-110796039D01*
X182323972Y-110710915D01*
X182323971Y-110710912D01*
X182319043Y-110696039D01*
X182270626Y-110549926D01*
X182270622Y-110549920D01*
X182270621Y-110549917D01*
X182181593Y-110405582D01*
X182181590Y-110405578D01*
X182061667Y-110285655D01*
X182061663Y-110285652D01*
X181917328Y-110196624D01*
X181917322Y-110196621D01*
X181917320Y-110196620D01*
X181884230Y-110185655D01*
X181756332Y-110143274D01*
X181656975Y-110133123D01*
X181656968Y-110133123D01*
X181183720Y-110133123D01*
X181116681Y-110113438D01*
X181096039Y-110096804D01*
X180670039Y-109670804D01*
X180636554Y-109609481D01*
X180641538Y-109539789D01*
X180683410Y-109483856D01*
X180748874Y-109459439D01*
X180757720Y-109459123D01*
X180852201Y-109459123D01*
X180852202Y-109459123D01*
X181027178Y-109431409D01*
X181195665Y-109376665D01*
X181353513Y-109296237D01*
X181496837Y-109192106D01*
X181622106Y-109066837D01*
X181726237Y-108923513D01*
X181806665Y-108765665D01*
X181861409Y-108597178D01*
X181889123Y-108422202D01*
X181889123Y-108245044D01*
X181861409Y-108070068D01*
X181820737Y-107944890D01*
X181806666Y-107901583D01*
X181806665Y-107901580D01*
X181760617Y-107811207D01*
X181726237Y-107743733D01*
X181622106Y-107600409D01*
X181496837Y-107475140D01*
X181353513Y-107371009D01*
X181290616Y-107338961D01*
X181195665Y-107290580D01*
X181195662Y-107290579D01*
X181027179Y-107235837D01*
X180908311Y-107217010D01*
X180852202Y-107208123D01*
X180675044Y-107208123D01*
X180618935Y-107217010D01*
X180500066Y-107235837D01*
X180331583Y-107290579D01*
X180331580Y-107290580D01*
X180173732Y-107371009D01*
X180109541Y-107417647D01*
X180030409Y-107475140D01*
X180030407Y-107475142D01*
X180030406Y-107475142D01*
X179905142Y-107600406D01*
X179905142Y-107600407D01*
X179905140Y-107600409D01*
X179863477Y-107657753D01*
X179801009Y-107743732D01*
X179720580Y-107901580D01*
X179720579Y-107901583D01*
X179665837Y-108070066D01*
X179638123Y-108245044D01*
X179638123Y-108339526D01*
X179618438Y-108406565D01*
X179565634Y-108452320D01*
X179496476Y-108462264D01*
X179432920Y-108433239D01*
X179426442Y-108427207D01*
X178860442Y-107861207D01*
X178826957Y-107799884D01*
X178824123Y-107773526D01*
X178824123Y-104985259D01*
X178843808Y-104918220D01*
X178894321Y-104873539D01*
X179086218Y-104781127D01*
X179101319Y-104773855D01*
X179101319Y-104773854D01*
X179101327Y-104773851D01*
X179318102Y-104626056D01*
X179510428Y-104447604D01*
X179674009Y-104242480D01*
X179805191Y-104015266D01*
X179901043Y-103771039D01*
X179959425Y-103515253D01*
X179970406Y-103368716D01*
X179979031Y-103253627D01*
X179979031Y-103253618D01*
X179959426Y-102992002D01*
X179959425Y-102991997D01*
X179959425Y-102991993D01*
X179901043Y-102736207D01*
X179805191Y-102491980D01*
X179674009Y-102264766D01*
X179510428Y-102059642D01*
X179510427Y-102059641D01*
X179510424Y-102059637D01*
X179318102Y-101881190D01*
X179272793Y-101850299D01*
X179101327Y-101733395D01*
X179101323Y-101733393D01*
X179101320Y-101733391D01*
X179101319Y-101733390D01*
X178864948Y-101619561D01*
X178864950Y-101619561D01*
X178614246Y-101542229D01*
X178614242Y-101542228D01*
X178614238Y-101542227D01*
X178489446Y-101523417D01*
X178354810Y-101503123D01*
X178354805Y-101503123D01*
X178092441Y-101503123D01*
X178092435Y-101503123D01*
X177930870Y-101527476D01*
X177833008Y-101542227D01*
X177833005Y-101542228D01*
X177832999Y-101542229D01*
X177582296Y-101619561D01*
X177345926Y-101733390D01*
X177345925Y-101733391D01*
X177129143Y-101881190D01*
X177030058Y-101973128D01*
X176967525Y-102004296D01*
X176898069Y-101996709D01*
X176843740Y-101952775D01*
X176821789Y-101886444D01*
X176828675Y-101841274D01*
X176840174Y-101808412D01*
X176885368Y-101679255D01*
X176885369Y-101679249D01*
X176905565Y-101500003D01*
X176905565Y-101499996D01*
X176885369Y-101320750D01*
X176885368Y-101320745D01*
X176853758Y-101230408D01*
X176825789Y-101150478D01*
X176822980Y-101146008D01*
X176733739Y-101003982D01*
X176729816Y-100997738D01*
X176602262Y-100870184D01*
X176577911Y-100854883D01*
X176565221Y-100846909D01*
X176518930Y-100794574D01*
X176508283Y-100725521D01*
X176510534Y-100713328D01*
X176525025Y-100652194D01*
X176525025Y-100476752D01*
X176524128Y-100472967D01*
X176524269Y-100470292D01*
X176524186Y-100469577D01*
X176524308Y-100469562D01*
X176527820Y-100403196D01*
X176568648Y-100346496D01*
X176633648Y-100320870D01*
X176673388Y-100323713D01*
X176676813Y-100324525D01*
X176852133Y-100324525D01*
X177022737Y-100284090D01*
X177179413Y-100205405D01*
X177259457Y-100140199D01*
X177259463Y-100140194D01*
X177356674Y-100042981D01*
X177314561Y-100000868D01*
X180467238Y-100000868D01*
X180564452Y-100098081D01*
X180564463Y-100098091D01*
X180644494Y-100163287D01*
X180644507Y-100163296D01*
X180801175Y-100241977D01*
X180971780Y-100282412D01*
X181147100Y-100282412D01*
X181317704Y-100241977D01*
X181474371Y-100163296D01*
X181474378Y-100163291D01*
X181554420Y-100098089D01*
X181554435Y-100098075D01*
X181748868Y-99903642D01*
X181748868Y-99903641D01*
X181156668Y-99311440D01*
X181156667Y-99311440D01*
X180467238Y-100000868D01*
X177314561Y-100000868D01*
X175624264Y-98310571D01*
X175527051Y-98407785D01*
X175527041Y-98407796D01*
X175461845Y-98487827D01*
X175461836Y-98487840D01*
X175383155Y-98644508D01*
X175342721Y-98815112D01*
X175342721Y-98990434D01*
X175343534Y-98993865D01*
X175343405Y-98996293D01*
X175343559Y-98997608D01*
X175343334Y-98997634D01*
X175339840Y-99063637D01*
X175299010Y-99120335D01*
X175234009Y-99145959D01*
X175194285Y-99143119D01*
X175190499Y-99142222D01*
X175190497Y-99142221D01*
X175190494Y-99142221D01*
X175015052Y-99142221D01*
X175015050Y-99142221D01*
X174967551Y-99153479D01*
X174897779Y-99149785D01*
X174841080Y-99108956D01*
X174815456Y-99043955D01*
X174816217Y-99015174D01*
X174822484Y-98971580D01*
X174802024Y-98829267D01*
X174802023Y-98829262D01*
X174742297Y-98698483D01*
X174704717Y-98651848D01*
X174704713Y-98651844D01*
X174317344Y-98264474D01*
X174317343Y-98264474D01*
X173839691Y-98742124D01*
X173778368Y-98775609D01*
X173708676Y-98770625D01*
X173664329Y-98742124D01*
X173334655Y-98412451D01*
X173011053Y-98088849D01*
X173011046Y-98088843D01*
X172964374Y-98051230D01*
X172964368Y-98051227D01*
X172833453Y-97991439D01*
X172833454Y-97991439D01*
X172690997Y-97970959D01*
X172690994Y-97970959D01*
X172650368Y-97976799D01*
X172581209Y-97966854D01*
X172545043Y-97941742D01*
X172531899Y-97928598D01*
X172480404Y-97980092D01*
X172480390Y-97980107D01*
X172441550Y-98028306D01*
X172422806Y-98047050D01*
X172370957Y-98088833D01*
X172370939Y-98088849D01*
X171914340Y-98545449D01*
X171914337Y-98545453D01*
X171914332Y-98545458D01*
X171914332Y-98545459D01*
X171904930Y-98557125D01*
X171874020Y-98595480D01*
X171855279Y-98614220D01*
X171805263Y-98654526D01*
X171805254Y-98654534D01*
X171348655Y-99111134D01*
X171348642Y-99111149D01*
X171308331Y-99161168D01*
X171289591Y-99179908D01*
X171239578Y-99220211D01*
X171239569Y-99220220D01*
X170782970Y-99676820D01*
X170782967Y-99676824D01*
X170742650Y-99726851D01*
X170723908Y-99745592D01*
X170673890Y-99785899D01*
X170673883Y-99785905D01*
X170217284Y-100242505D01*
X170217271Y-100242520D01*
X170176960Y-100292539D01*
X170158220Y-100311279D01*
X170108207Y-100351582D01*
X170108198Y-100351591D01*
X169651599Y-100808191D01*
X169651596Y-100808195D01*
X169651594Y-100808198D01*
X169651591Y-100808201D01*
X169639581Y-100823104D01*
X169611279Y-100858222D01*
X169592537Y-100876963D01*
X169542519Y-100917270D01*
X169542512Y-100917276D01*
X169085913Y-101373876D01*
X169085900Y-101373891D01*
X169045589Y-101423910D01*
X169026849Y-101442650D01*
X168976836Y-101482953D01*
X168976827Y-101482962D01*
X168520228Y-101939562D01*
X168520225Y-101939566D01*
X168479908Y-101989593D01*
X168461166Y-102008334D01*
X168411148Y-102048641D01*
X168411141Y-102048647D01*
X167954542Y-102505247D01*
X167954539Y-102505251D01*
X167914222Y-102555278D01*
X167895481Y-102574018D01*
X167845465Y-102614324D01*
X167845456Y-102614332D01*
X167388857Y-103070932D01*
X167388844Y-103070947D01*
X167348533Y-103120966D01*
X167329793Y-103139706D01*
X167279780Y-103180009D01*
X167279771Y-103180018D01*
X166821304Y-103638486D01*
X166759981Y-103671971D01*
X166690289Y-103666987D01*
X166645942Y-103638486D01*
X166187481Y-103180026D01*
X166187469Y-103180015D01*
X166135611Y-103138223D01*
X166116868Y-103119479D01*
X166078021Y-103071273D01*
X166078019Y-103071270D01*
X166026516Y-103019766D01*
X166026515Y-103019766D01*
X166013367Y-103032913D01*
X165952044Y-103066397D01*
X165908044Y-103067968D01*
X165867420Y-103062128D01*
X165867416Y-103062128D01*
X165754793Y-103078319D01*
X165685635Y-103068375D01*
X165632832Y-103022619D01*
X165613148Y-102955579D01*
X165614410Y-102937935D01*
X165630602Y-102825312D01*
X165624760Y-102784681D01*
X165634703Y-102715528D01*
X165659819Y-102679354D01*
X165672961Y-102666211D01*
X165621468Y-102614718D01*
X165621453Y-102614704D01*
X165573250Y-102575860D01*
X165554505Y-102557115D01*
X165512725Y-102505269D01*
X165512711Y-102505254D01*
X165056111Y-102048655D01*
X165056099Y-102048645D01*
X165043773Y-102038711D01*
X165006078Y-102008332D01*
X164987336Y-101989590D01*
X164947031Y-101939576D01*
X164947025Y-101939569D01*
X164490425Y-101482970D01*
X164490413Y-101482959D01*
X164440395Y-101442650D01*
X164421652Y-101423907D01*
X164418962Y-101420569D01*
X164418962Y-101420568D01*
X164381343Y-101373886D01*
X164280355Y-101272898D01*
X163924740Y-100917284D01*
X163924728Y-100917274D01*
X163912402Y-100907340D01*
X163874707Y-100876961D01*
X163855965Y-100858219D01*
X163815660Y-100808205D01*
X163815654Y-100808198D01*
X163359054Y-100351599D01*
X163359042Y-100351588D01*
X163309024Y-100311279D01*
X163290281Y-100292536D01*
X163287591Y-100289198D01*
X163287591Y-100289197D01*
X163249972Y-100242515D01*
X163136970Y-100129513D01*
X162793369Y-99785913D01*
X162793357Y-99785903D01*
X162780298Y-99775378D01*
X162743336Y-99745590D01*
X162724594Y-99726848D01*
X162684289Y-99676834D01*
X162684283Y-99676827D01*
X162227683Y-99220228D01*
X162227671Y-99220217D01*
X162177653Y-99179908D01*
X162158910Y-99161165D01*
X162156220Y-99157827D01*
X162156220Y-99157826D01*
X162118601Y-99111144D01*
X162005065Y-98997608D01*
X161661998Y-98654542D01*
X161661986Y-98654532D01*
X161633049Y-98631211D01*
X161610126Y-98612737D01*
X161591383Y-98593994D01*
X161552533Y-98545784D01*
X161501033Y-98494283D01*
X161501032Y-98494283D01*
X161487885Y-98507429D01*
X161426562Y-98540913D01*
X161382562Y-98542484D01*
X161341937Y-98536644D01*
X161341933Y-98536644D01*
X161229309Y-98552835D01*
X161160151Y-98542891D01*
X161107347Y-98497135D01*
X161087664Y-98430095D01*
X161088926Y-98412451D01*
X161105118Y-98299829D01*
X161099277Y-98259201D01*
X161109221Y-98190044D01*
X161134336Y-98153873D01*
X161147479Y-98140729D01*
X161095985Y-98089235D01*
X161095970Y-98089221D01*
X161047767Y-98050377D01*
X161029023Y-98031634D01*
X160987235Y-97979780D01*
X160987227Y-97979771D01*
X160939589Y-97932133D01*
X160906104Y-97870810D01*
X160911088Y-97801118D01*
X160939587Y-97756773D01*
X161526706Y-97169655D01*
X161602327Y-97056480D01*
X161654416Y-96930726D01*
X161671940Y-96842627D01*
X161674065Y-96831945D01*
X161674065Y-96831942D01*
X161680971Y-96797227D01*
X161680971Y-96245093D01*
X161700656Y-96178054D01*
X161717290Y-96157412D01*
X162118590Y-95756111D01*
X162118589Y-95756111D01*
X162118599Y-95756102D01*
X162156220Y-95709420D01*
X162156221Y-95709417D01*
X162158914Y-95706076D01*
X162177659Y-95687331D01*
X162180986Y-95684649D01*
X162180992Y-95684647D01*
X162227674Y-95647028D01*
X162684284Y-95190416D01*
X162721905Y-95143734D01*
X162721904Y-95143734D01*
X162726079Y-95138555D01*
X162744823Y-95119812D01*
X162793028Y-95080965D01*
X162793041Y-95080954D01*
X162844536Y-95029460D01*
X162831390Y-95016314D01*
X162797905Y-94954991D01*
X162796333Y-94910986D01*
X162802174Y-94870361D01*
X162785982Y-94757736D01*
X162795926Y-94688579D01*
X162841681Y-94635775D01*
X162908721Y-94616091D01*
X162926363Y-94617352D01*
X163038990Y-94633545D01*
X163079616Y-94627704D01*
X163148774Y-94637648D01*
X163184943Y-94662761D01*
X163198089Y-94675907D01*
X163249583Y-94624412D01*
X163249584Y-94624410D01*
X163288441Y-94576192D01*
X163307188Y-94557445D01*
X163312359Y-94553277D01*
X163312363Y-94553276D01*
X163359045Y-94515657D01*
X163577424Y-94297274D01*
X163638746Y-94263791D01*
X163708438Y-94268775D01*
X163735249Y-94284200D01*
X163735818Y-94283350D01*
X163740883Y-94286734D01*
X163740884Y-94286735D01*
X163849221Y-94359123D01*
X163854060Y-94362356D01*
X163979814Y-94414445D01*
X163979818Y-94414445D01*
X163979819Y-94414446D01*
X164113310Y-94441000D01*
X164113313Y-94441000D01*
X164309387Y-94441000D01*
X164375359Y-94460006D01*
X164395530Y-94472680D01*
X164400478Y-94475789D01*
X164514414Y-94515657D01*
X164570745Y-94535368D01*
X164570750Y-94535369D01*
X164749996Y-94555565D01*
X164750000Y-94555565D01*
X164750004Y-94555565D01*
X164929249Y-94535369D01*
X164929252Y-94535368D01*
X164929255Y-94535368D01*
X165099522Y-94475789D01*
X165252262Y-94379816D01*
X165379816Y-94252262D01*
X165475789Y-94099522D01*
X165535368Y-93929255D01*
X165535369Y-93929249D01*
X165555565Y-93750003D01*
X165555565Y-93749996D01*
X165535369Y-93570750D01*
X165535368Y-93570745D01*
X165523622Y-93537176D01*
X165475789Y-93400478D01*
X165379816Y-93247738D01*
X165252262Y-93120184D01*
X165184280Y-93077468D01*
X165099516Y-93024207D01*
X165093247Y-93021188D01*
X165094012Y-93019599D01*
X165044542Y-92984121D01*
X165018791Y-92919170D01*
X165032243Y-92850608D01*
X165054587Y-92820115D01*
X165056096Y-92818605D01*
X165056102Y-92818601D01*
X165512712Y-92361989D01*
X165550333Y-92315307D01*
X165550333Y-92315305D01*
X165553025Y-92311966D01*
X165571770Y-92293222D01*
X165575103Y-92290535D01*
X165575105Y-92290535D01*
X165621787Y-92252916D01*
X166078397Y-91796304D01*
X166116018Y-91749622D01*
X166116019Y-91749619D01*
X166118712Y-91746278D01*
X166137457Y-91727533D01*
X166140784Y-91724851D01*
X166140790Y-91724849D01*
X166187472Y-91687230D01*
X166644082Y-91230618D01*
X166644081Y-91230618D01*
X166645941Y-91228759D01*
X166707264Y-91195274D01*
X166776955Y-91200258D01*
X166821303Y-91228758D01*
X166823157Y-91230612D01*
X166823162Y-91230618D01*
X166942553Y-91350009D01*
X166976037Y-91411329D01*
X166971053Y-91481021D01*
X166942553Y-91525369D01*
X166870183Y-91597739D01*
X166774211Y-91750476D01*
X166714631Y-91920745D01*
X166714630Y-91920750D01*
X166694435Y-92099996D01*
X166694435Y-92100003D01*
X166714630Y-92279249D01*
X166714631Y-92279254D01*
X166774211Y-92449523D01*
X166863540Y-92591688D01*
X166870184Y-92602262D01*
X166997738Y-92729816D01*
X167150478Y-92825789D01*
X167259639Y-92863986D01*
X167320745Y-92885368D01*
X167320750Y-92885369D01*
X167499996Y-92905565D01*
X167500000Y-92905565D01*
X167500004Y-92905565D01*
X167679249Y-92885369D01*
X167679252Y-92885368D01*
X167679255Y-92885368D01*
X167849522Y-92825789D01*
X168002262Y-92729816D01*
X168074630Y-92657448D01*
X168135953Y-92623963D01*
X168205645Y-92628947D01*
X168249992Y-92657448D01*
X168411138Y-92818594D01*
X168411143Y-92818598D01*
X168411144Y-92818599D01*
X168420066Y-92825789D01*
X168463010Y-92860398D01*
X168481751Y-92879140D01*
X168520600Y-92927348D01*
X168520606Y-92927355D01*
X168572100Y-92978849D01*
X168585243Y-92965707D01*
X168646565Y-92932220D01*
X168690572Y-92930648D01*
X168731199Y-92936489D01*
X168843823Y-92920297D01*
X168912980Y-92930241D01*
X168965784Y-92975996D01*
X168985468Y-93043036D01*
X168984206Y-93060680D01*
X168968015Y-93173303D01*
X168968015Y-93173307D01*
X168973855Y-93213932D01*
X168963910Y-93283090D01*
X168938800Y-93319255D01*
X168925654Y-93332401D01*
X168925654Y-93332402D01*
X168977155Y-93383903D01*
X169025364Y-93422752D01*
X169044110Y-93441498D01*
X169085901Y-93493358D01*
X169085905Y-93493362D01*
X169542505Y-93949961D01*
X169542517Y-93949972D01*
X169592541Y-93990286D01*
X169611284Y-94009029D01*
X169613969Y-94012361D01*
X169613970Y-94012363D01*
X169615296Y-94014008D01*
X169651587Y-94059043D01*
X169651591Y-94059047D01*
X170108191Y-94515646D01*
X170108194Y-94515648D01*
X170108201Y-94515655D01*
X170154207Y-94552731D01*
X170158222Y-94555967D01*
X170176963Y-94574709D01*
X170217270Y-94624726D01*
X170217276Y-94624733D01*
X170673876Y-95081332D01*
X170673888Y-95081343D01*
X170723912Y-95121657D01*
X170742655Y-95140400D01*
X170745340Y-95143732D01*
X170745341Y-95143734D01*
X170755174Y-95155936D01*
X170782958Y-95190414D01*
X170782962Y-95190418D01*
X171239562Y-95647017D01*
X171239565Y-95647019D01*
X171239572Y-95647026D01*
X171275023Y-95675596D01*
X171289593Y-95687338D01*
X171308334Y-95706080D01*
X171348641Y-95756097D01*
X171348647Y-95756104D01*
X171805247Y-96212703D01*
X171805259Y-96212714D01*
X171855280Y-96253026D01*
X171874023Y-96271769D01*
X171914328Y-96321785D01*
X171914332Y-96321789D01*
X172370932Y-96778388D01*
X172370944Y-96778399D01*
X172420968Y-96818713D01*
X172439711Y-96837456D01*
X172442396Y-96840788D01*
X172442397Y-96840790D01*
X172457303Y-96859287D01*
X172480014Y-96887470D01*
X172938839Y-97346295D01*
X172972324Y-97407618D01*
X172967340Y-97477310D01*
X172938840Y-97521657D01*
X172885452Y-97575045D01*
X173592559Y-98282152D01*
X173963790Y-97910921D01*
X173574527Y-97521658D01*
X173541042Y-97460335D01*
X173546026Y-97390643D01*
X173574527Y-97346296D01*
X174405387Y-96515435D01*
X174684118Y-96236702D01*
X174745441Y-96203218D01*
X174815132Y-96208202D01*
X174859480Y-96236703D01*
X176208260Y-97585481D01*
X176241745Y-97646804D01*
X176236761Y-97716495D01*
X176194890Y-97772429D01*
X176176231Y-97783972D01*
X176155077Y-97794595D01*
X176075040Y-97859795D01*
X176075032Y-97859802D01*
X175977817Y-97957017D01*
X176667246Y-98646447D01*
X177710226Y-99689428D01*
X177710227Y-99689428D01*
X177807436Y-99592219D01*
X177807445Y-99592209D01*
X177872646Y-99512172D01*
X177872655Y-99512159D01*
X177951336Y-99355491D01*
X177991771Y-99184887D01*
X177991771Y-99009566D01*
X177951336Y-98838962D01*
X177872655Y-98682295D01*
X177872650Y-98682288D01*
X177815650Y-98612315D01*
X177788571Y-98547906D01*
X177800613Y-98479082D01*
X177847953Y-98427694D01*
X177911789Y-98410000D01*
X178824300Y-98410000D01*
X178891339Y-98429685D01*
X178911981Y-98446319D01*
X179006576Y-98540913D01*
X179096872Y-98631209D01*
X179096880Y-98631215D01*
X179096885Y-98631220D01*
X179176971Y-98696461D01*
X179176975Y-98696463D01*
X179176979Y-98696467D01*
X179176981Y-98696468D01*
X179176984Y-98696470D01*
X179333759Y-98775205D01*
X179452436Y-98803332D01*
X179504473Y-98815666D01*
X179504476Y-98815666D01*
X179679912Y-98815666D01*
X179679915Y-98815666D01*
X179683695Y-98814770D01*
X179686368Y-98814911D01*
X179687090Y-98814827D01*
X179687104Y-98814950D01*
X179753467Y-98818460D01*
X179810168Y-98859287D01*
X179835796Y-98924287D01*
X179832955Y-98964018D01*
X179832142Y-98967448D01*
X179832142Y-99142774D01*
X179872576Y-99313378D01*
X179951261Y-99470054D01*
X180016462Y-99550092D01*
X180016478Y-99550110D01*
X180113684Y-99647316D01*
X180803114Y-98957887D01*
X181510220Y-98957887D01*
X182102421Y-99550088D01*
X182296852Y-99355656D01*
X182296871Y-99355635D01*
X182362067Y-99275604D01*
X182362076Y-99275591D01*
X182440757Y-99118924D01*
X182481192Y-98948320D01*
X182481192Y-98772999D01*
X182440757Y-98602395D01*
X182362072Y-98445719D01*
X182296871Y-98365681D01*
X182296865Y-98365674D01*
X182199648Y-98268458D01*
X182160139Y-98307969D01*
X182160138Y-98307969D01*
X181510220Y-98957887D01*
X180803114Y-98957887D01*
X181156667Y-98604334D01*
X181760131Y-98000868D01*
X182467238Y-98000868D01*
X182564452Y-98098081D01*
X182564463Y-98098091D01*
X182644494Y-98163287D01*
X182644507Y-98163296D01*
X182801175Y-98241977D01*
X182971780Y-98282412D01*
X183147100Y-98282412D01*
X183317704Y-98241977D01*
X183474371Y-98163296D01*
X183474378Y-98163291D01*
X183554420Y-98098089D01*
X183554435Y-98098075D01*
X183748868Y-97903642D01*
X183748868Y-97903641D01*
X183156668Y-97311440D01*
X183156667Y-97311440D01*
X182467238Y-98000868D01*
X181760131Y-98000868D01*
X181846095Y-97914904D01*
X181748881Y-97817692D01*
X181748870Y-97817682D01*
X181668839Y-97752486D01*
X181668826Y-97752477D01*
X181512158Y-97673796D01*
X181341554Y-97633362D01*
X181166229Y-97633362D01*
X181162798Y-97634175D01*
X181160372Y-97634046D01*
X181159059Y-97634200D01*
X181159032Y-97633975D01*
X181093027Y-97630480D01*
X181036329Y-97589649D01*
X181010707Y-97524647D01*
X181013550Y-97484915D01*
X181014445Y-97481138D01*
X181014446Y-97481135D01*
X181014446Y-97305693D01*
X180982204Y-97169658D01*
X180973985Y-97134979D01*
X180895249Y-96978203D01*
X180895247Y-96978199D01*
X180856575Y-96930726D01*
X180829998Y-96898100D01*
X180829984Y-96898085D01*
X180281977Y-96350080D01*
X180281970Y-96350073D01*
X180281962Y-96350066D01*
X180281956Y-96350061D01*
X180201870Y-96284820D01*
X180201857Y-96284811D01*
X180045082Y-96206076D01*
X179874376Y-96165617D01*
X179874371Y-96165616D01*
X179874369Y-96165616D01*
X179698927Y-96165616D01*
X179698925Y-96165616D01*
X179698919Y-96165617D01*
X179528218Y-96206075D01*
X179502962Y-96218759D01*
X179434218Y-96231254D01*
X179369633Y-96204600D01*
X179329710Y-96147259D01*
X179327125Y-96077437D01*
X179359632Y-96020265D01*
X179515624Y-95864273D01*
X179553202Y-95817641D01*
X179612928Y-95686862D01*
X179612929Y-95686857D01*
X179627716Y-95584007D01*
X179656740Y-95520451D01*
X179715518Y-95482676D01*
X179732796Y-95478917D01*
X179836391Y-95464023D01*
X179967307Y-95404235D01*
X180013990Y-95366616D01*
X180214011Y-95166593D01*
X180275332Y-95133110D01*
X180345024Y-95138094D01*
X180389372Y-95166595D01*
X180390804Y-95168027D01*
X180424289Y-95229350D01*
X180419305Y-95299042D01*
X180413936Y-95311354D01*
X180404856Y-95329434D01*
X180364397Y-95500139D01*
X180364396Y-95500150D01*
X180364396Y-95675585D01*
X180364397Y-95675596D01*
X180404856Y-95846302D01*
X180483592Y-96003078D01*
X180483596Y-96003084D01*
X180548843Y-96083181D01*
X180548848Y-96083186D01*
X180548851Y-96083190D01*
X181096872Y-96631209D01*
X181096880Y-96631215D01*
X181096885Y-96631220D01*
X181176971Y-96696461D01*
X181176975Y-96696463D01*
X181176979Y-96696467D01*
X181176981Y-96696468D01*
X181176984Y-96696470D01*
X181333759Y-96775205D01*
X181426675Y-96797227D01*
X181504473Y-96815666D01*
X181504476Y-96815666D01*
X181679912Y-96815666D01*
X181679915Y-96815666D01*
X181683695Y-96814770D01*
X181686368Y-96814911D01*
X181687090Y-96814827D01*
X181687104Y-96814950D01*
X181753467Y-96818460D01*
X181810168Y-96859287D01*
X181835796Y-96924287D01*
X181832955Y-96964018D01*
X181832142Y-96967448D01*
X181832142Y-97142774D01*
X181872576Y-97313378D01*
X181951261Y-97470054D01*
X182016462Y-97550092D01*
X182016468Y-97550099D01*
X182113683Y-97647313D01*
X182153193Y-97607804D01*
X182153201Y-97607799D01*
X182803115Y-96957886D01*
X183510220Y-96957886D01*
X183510220Y-96957887D01*
X184102420Y-97550088D01*
X184296852Y-97355656D01*
X184296871Y-97355635D01*
X184362067Y-97275604D01*
X184362076Y-97275591D01*
X184440757Y-97118924D01*
X184481192Y-96948320D01*
X184481192Y-96772999D01*
X184440757Y-96602395D01*
X184362072Y-96445719D01*
X184296871Y-96365681D01*
X184296855Y-96365663D01*
X184199649Y-96268457D01*
X184199648Y-96268457D01*
X183510220Y-96957886D01*
X182803115Y-96957886D01*
X183156667Y-96604334D01*
X183846095Y-95914904D01*
X183748881Y-95817692D01*
X183748870Y-95817682D01*
X183668839Y-95752486D01*
X183668826Y-95752477D01*
X183512158Y-95673796D01*
X183341554Y-95633362D01*
X183166229Y-95633362D01*
X183162798Y-95634175D01*
X183160372Y-95634046D01*
X183159059Y-95634200D01*
X183159032Y-95633975D01*
X183093027Y-95630480D01*
X183036329Y-95589649D01*
X183010707Y-95524647D01*
X183013550Y-95484915D01*
X183014445Y-95481138D01*
X183014446Y-95481135D01*
X183014446Y-95305693D01*
X182987126Y-95190425D01*
X182973985Y-95134979D01*
X182895249Y-94978203D01*
X182895247Y-94978199D01*
X182829991Y-94898092D01*
X182281970Y-94350073D01*
X182281962Y-94350066D01*
X182281956Y-94350061D01*
X182201870Y-94284820D01*
X182201857Y-94284811D01*
X182045082Y-94206076D01*
X181874376Y-94165617D01*
X181874371Y-94165616D01*
X181874369Y-94165616D01*
X181698927Y-94165616D01*
X181698925Y-94165616D01*
X181698919Y-94165617D01*
X181528215Y-94206076D01*
X181511760Y-94214340D01*
X181443016Y-94226835D01*
X181378431Y-94200180D01*
X181368407Y-94191185D01*
X181366570Y-94189347D01*
X181333102Y-94128015D01*
X181338105Y-94058325D01*
X181366589Y-94014014D01*
X181566615Y-93813990D01*
X181604235Y-93767307D01*
X181664023Y-93636391D01*
X181684505Y-93493934D01*
X181664023Y-93351477D01*
X181621611Y-93258608D01*
X181604236Y-93220563D01*
X181604235Y-93220562D01*
X181604235Y-93220561D01*
X181566616Y-93173878D01*
X181566611Y-93173873D01*
X181566607Y-93173868D01*
X181327319Y-92934580D01*
X181293834Y-92873257D01*
X181291000Y-92846899D01*
X181291000Y-91931939D01*
X181264446Y-91798448D01*
X181264445Y-91798447D01*
X181264445Y-91798443D01*
X181244577Y-91750478D01*
X181212359Y-91672695D01*
X181212357Y-91672691D01*
X181212356Y-91672689D01*
X181174352Y-91615812D01*
X181136735Y-91559514D01*
X181136733Y-91559511D01*
X181136732Y-91559510D01*
X179244788Y-89667565D01*
X179244781Y-89667559D01*
X179131608Y-89591940D01*
X179131605Y-89591938D01*
X179005857Y-89539852D01*
X179005853Y-89539851D01*
X178965378Y-89531800D01*
X178965377Y-89531799D01*
X178965376Y-89531799D01*
X178872356Y-89513296D01*
X178872354Y-89513296D01*
X177992994Y-89513296D01*
X177925955Y-89493611D01*
X177880200Y-89440807D01*
X177870256Y-89371649D01*
X177873219Y-89357203D01*
X177876688Y-89344256D01*
X177895616Y-89273616D01*
X177934123Y-88981129D01*
X177934123Y-88745044D01*
X179638123Y-88745044D01*
X179638123Y-88922201D01*
X179665837Y-89097179D01*
X179720579Y-89265662D01*
X179720580Y-89265665D01*
X179801009Y-89423513D01*
X179905140Y-89566837D01*
X180030409Y-89692106D01*
X180173733Y-89796237D01*
X180224798Y-89822256D01*
X180331580Y-89876665D01*
X180331583Y-89876666D01*
X180393563Y-89896804D01*
X180500068Y-89931409D01*
X180675044Y-89959123D01*
X180675045Y-89959123D01*
X180852201Y-89959123D01*
X180852202Y-89959123D01*
X181027178Y-89931409D01*
X181195665Y-89876665D01*
X181353513Y-89796237D01*
X181496837Y-89692106D01*
X181622106Y-89566837D01*
X181726237Y-89423513D01*
X181806665Y-89265665D01*
X181861409Y-89097178D01*
X181889123Y-88922202D01*
X181889123Y-88745044D01*
X181861409Y-88570068D01*
X181826922Y-88463927D01*
X181806666Y-88401583D01*
X181806665Y-88401580D01*
X181742111Y-88274887D01*
X181726237Y-88243733D01*
X181622106Y-88100409D01*
X181496837Y-87975140D01*
X181353513Y-87871009D01*
X181195665Y-87790580D01*
X181195662Y-87790579D01*
X181027179Y-87735837D01*
X180931855Y-87720739D01*
X180852202Y-87708123D01*
X180675044Y-87708123D01*
X180616718Y-87717361D01*
X180500066Y-87735837D01*
X180331583Y-87790579D01*
X180331580Y-87790580D01*
X180173732Y-87871009D01*
X180116079Y-87912897D01*
X180030409Y-87975140D01*
X180030407Y-87975142D01*
X180030406Y-87975142D01*
X179905142Y-88100406D01*
X179905142Y-88100407D01*
X179905140Y-88100409D01*
X179892440Y-88117889D01*
X179801009Y-88243732D01*
X179720580Y-88401580D01*
X179720579Y-88401583D01*
X179665837Y-88570066D01*
X179638123Y-88745044D01*
X177934123Y-88745044D01*
X177934123Y-88686117D01*
X177895616Y-88393630D01*
X177819262Y-88108671D01*
X177706366Y-87836116D01*
X177697494Y-87820750D01*
X177558861Y-87580629D01*
X177379270Y-87346582D01*
X177379264Y-87346575D01*
X177170670Y-87137981D01*
X177170663Y-87137975D01*
X176936616Y-86958384D01*
X176681133Y-86810881D01*
X176681123Y-86810877D01*
X176408584Y-86697987D01*
X176408577Y-86697985D01*
X176408575Y-86697984D01*
X176123616Y-86621630D01*
X176074736Y-86615194D01*
X175831136Y-86583123D01*
X175831129Y-86583123D01*
X175536117Y-86583123D01*
X175536109Y-86583123D01*
X175257708Y-86619776D01*
X175243630Y-86621630D01*
X174958682Y-86697981D01*
X174958671Y-86697984D01*
X174958661Y-86697987D01*
X174686122Y-86810877D01*
X174686112Y-86810881D01*
X174430629Y-86958384D01*
X174196582Y-87137975D01*
X174196575Y-87137981D01*
X173987981Y-87346575D01*
X173987975Y-87346582D01*
X173808384Y-87580629D01*
X173660881Y-87836112D01*
X173660877Y-87836122D01*
X173547987Y-88108661D01*
X173547984Y-88108671D01*
X173483449Y-88349523D01*
X173471631Y-88393627D01*
X173471629Y-88393638D01*
X173433123Y-88686109D01*
X173433123Y-88981122D01*
X173433124Y-88981139D01*
X173464111Y-89216507D01*
X173453345Y-89285542D01*
X173406965Y-89337798D01*
X173339697Y-89356683D01*
X173272896Y-89336202D01*
X173253491Y-89320373D01*
X172958933Y-89025816D01*
X172958926Y-89025809D01*
X172958918Y-89025802D01*
X172958912Y-89025797D01*
X172878826Y-88960556D01*
X172878813Y-88960547D01*
X172722038Y-88881812D01*
X172551332Y-88841353D01*
X172551327Y-88841352D01*
X172551325Y-88841352D01*
X172375883Y-88841352D01*
X172375881Y-88841352D01*
X172375875Y-88841353D01*
X172205171Y-88881812D01*
X172205170Y-88881812D01*
X172048391Y-88960549D01*
X172048390Y-88960550D01*
X171968285Y-89025803D01*
X171968269Y-89025818D01*
X171934471Y-89059616D01*
X171873147Y-89093101D01*
X171803456Y-89088115D01*
X171747523Y-89046243D01*
X171723107Y-88980778D01*
X171724317Y-88952540D01*
X171729123Y-88922202D01*
X171729123Y-88745044D01*
X171701409Y-88570068D01*
X171666922Y-88463927D01*
X171646666Y-88401583D01*
X171646665Y-88401580D01*
X171600616Y-88311206D01*
X171566237Y-88243733D01*
X171565152Y-88242240D01*
X171555825Y-88229401D01*
X171532345Y-88163595D01*
X171548171Y-88095541D01*
X171598277Y-88046846D01*
X171666755Y-88032971D01*
X171674615Y-88033899D01*
X171742441Y-88044123D01*
X172004805Y-88044123D01*
X172264238Y-88005019D01*
X172514946Y-87927686D01*
X172737001Y-87820750D01*
X172751319Y-87813855D01*
X172751319Y-87813854D01*
X172751327Y-87813851D01*
X172968102Y-87666056D01*
X173160428Y-87487604D01*
X173324009Y-87282480D01*
X173455191Y-87055266D01*
X173551043Y-86811039D01*
X173609425Y-86555253D01*
X173609644Y-86552339D01*
X173629031Y-86293622D01*
X173629031Y-86293618D01*
X173609426Y-86032002D01*
X173609425Y-86031997D01*
X173609425Y-86031993D01*
X173551043Y-85776207D01*
X173455191Y-85531980D01*
X173324009Y-85304766D01*
X173160428Y-85099642D01*
X173160427Y-85099641D01*
X173160424Y-85099637D01*
X172968102Y-84921190D01*
X172751327Y-84773395D01*
X172751323Y-84773393D01*
X172751320Y-84773391D01*
X172751319Y-84773390D01*
X172514948Y-84659561D01*
X172514950Y-84659561D01*
X172264246Y-84582229D01*
X172264242Y-84582228D01*
X172264238Y-84582227D01*
X172139446Y-84563417D01*
X172004810Y-84543123D01*
X172004805Y-84543123D01*
X171742441Y-84543123D01*
X171742435Y-84543123D01*
X171580870Y-84567476D01*
X171483008Y-84582227D01*
X171483005Y-84582228D01*
X171482999Y-84582229D01*
X171232296Y-84659561D01*
X170995926Y-84773390D01*
X170995925Y-84773391D01*
X170779143Y-84921190D01*
X170586821Y-85099637D01*
X170423237Y-85304766D01*
X170292055Y-85531979D01*
X170196205Y-85776201D01*
X170196199Y-85776220D01*
X170137820Y-86031997D01*
X170137819Y-86032002D01*
X170118215Y-86293618D01*
X170118215Y-86293622D01*
X170137819Y-86555243D01*
X170137820Y-86555248D01*
X170196199Y-86811025D01*
X170196201Y-86811034D01*
X170196203Y-86811039D01*
X170292055Y-87055266D01*
X170423237Y-87282480D01*
X170526429Y-87411878D01*
X170586820Y-87487607D01*
X170593000Y-87493340D01*
X170628756Y-87553367D01*
X170626383Y-87623197D01*
X170586634Y-87680658D01*
X170522129Y-87707507D01*
X170518411Y-87707857D01*
X170515051Y-87708121D01*
X170340066Y-87735837D01*
X170171583Y-87790579D01*
X170171580Y-87790580D01*
X170013732Y-87871009D01*
X169956079Y-87912897D01*
X169870409Y-87975140D01*
X169870407Y-87975142D01*
X169870406Y-87975142D01*
X169745142Y-88100406D01*
X169745142Y-88100407D01*
X169745140Y-88100409D01*
X169732440Y-88117889D01*
X169641009Y-88243732D01*
X169560580Y-88401580D01*
X169556362Y-88414565D01*
X169516923Y-88472240D01*
X169452565Y-88499438D01*
X169383718Y-88487523D01*
X169350750Y-88463927D01*
X168825927Y-87939104D01*
X168792442Y-87877781D01*
X168790390Y-87865322D01*
X168785368Y-87820745D01*
X168725789Y-87650478D01*
X168629816Y-87497738D01*
X168502262Y-87370184D01*
X168464698Y-87346581D01*
X168349523Y-87274211D01*
X168179254Y-87214631D01*
X168179249Y-87214630D01*
X168000004Y-87194435D01*
X167999996Y-87194435D01*
X167820750Y-87214630D01*
X167820745Y-87214631D01*
X167650476Y-87274211D01*
X167497737Y-87370184D01*
X167370184Y-87497737D01*
X167274211Y-87650476D01*
X167214631Y-87820745D01*
X167214630Y-87820750D01*
X167194435Y-87999996D01*
X167194435Y-88000003D01*
X167214630Y-88179249D01*
X167214631Y-88179254D01*
X167274211Y-88349523D01*
X167306923Y-88401583D01*
X167370184Y-88502262D01*
X167497738Y-88629816D01*
X167650478Y-88725789D01*
X167650479Y-88725789D01*
X167656375Y-88729494D01*
X167655754Y-88730480D01*
X167680211Y-88747831D01*
X167962786Y-89030406D01*
X168118165Y-89185784D01*
X168151650Y-89247107D01*
X168146666Y-89316798D01*
X168104795Y-89372732D01*
X168081996Y-89386259D01*
X167998210Y-89424523D01*
X167951515Y-89462152D01*
X167899640Y-89514027D01*
X167838317Y-89547511D01*
X167768625Y-89542526D01*
X167724279Y-89514026D01*
X165206057Y-86995804D01*
X165172572Y-86934481D01*
X165177556Y-86864789D01*
X165219428Y-86808856D01*
X165284892Y-86784439D01*
X165293738Y-86784123D01*
X167579708Y-86784123D01*
X167579724Y-86784124D01*
X167587320Y-86784124D01*
X167745431Y-86784124D01*
X167745434Y-86784124D01*
X167898162Y-86743200D01*
X167976478Y-86697984D01*
X168035093Y-86664143D01*
X168146897Y-86552339D01*
X168146897Y-86552337D01*
X168157101Y-86542134D01*
X168157104Y-86542129D01*
X171012416Y-83686819D01*
X171073739Y-83653334D01*
X171100097Y-83650500D01*
X174149903Y-83650500D01*
X174216942Y-83670185D01*
X174237584Y-83686819D01*
X177098762Y-86547997D01*
X177098772Y-86548008D01*
X177103102Y-86552338D01*
X177103103Y-86552339D01*
X177214907Y-86664143D01*
X177273522Y-86697984D01*
X177335286Y-86733643D01*
X177351834Y-86743198D01*
X177351838Y-86743200D01*
X177504566Y-86784123D01*
X180168619Y-86784123D01*
X180235658Y-86803808D01*
X180274157Y-86843026D01*
X180279718Y-86852041D01*
X180285654Y-86861666D01*
X180405578Y-86981590D01*
X180405582Y-86981593D01*
X180549917Y-87070621D01*
X180549920Y-87070622D01*
X180549926Y-87070626D01*
X180710915Y-87123972D01*
X180810278Y-87134123D01*
X181656967Y-87134122D01*
X181656975Y-87134121D01*
X181656978Y-87134121D01*
X181711383Y-87128563D01*
X181756331Y-87123972D01*
X181917320Y-87070626D01*
X182061667Y-86981591D01*
X182181591Y-86861667D01*
X182270626Y-86717320D01*
X182323972Y-86556331D01*
X182334123Y-86456968D01*
X182334122Y-85910279D01*
X182323972Y-85810915D01*
X182270626Y-85649926D01*
X182270622Y-85649920D01*
X182270621Y-85649917D01*
X182181593Y-85505582D01*
X182181590Y-85505578D01*
X182061667Y-85385655D01*
X182061663Y-85385652D01*
X181917328Y-85296624D01*
X181917322Y-85296621D01*
X181917320Y-85296620D01*
X181890443Y-85287714D01*
X181756332Y-85243274D01*
X181656969Y-85233123D01*
X180810285Y-85233123D01*
X180810267Y-85233124D01*
X180710915Y-85243273D01*
X180710912Y-85243274D01*
X180549928Y-85296619D01*
X180549917Y-85296624D01*
X180405582Y-85385652D01*
X180405578Y-85385655D01*
X180285654Y-85505579D01*
X180274158Y-85524219D01*
X180222211Y-85570944D01*
X180168619Y-85583123D01*
X179002396Y-85583123D01*
X178935357Y-85563438D01*
X178889602Y-85510634D01*
X178879658Y-85441476D01*
X178908683Y-85377920D01*
X178948595Y-85347403D01*
X179101319Y-85273855D01*
X179101319Y-85273854D01*
X179101327Y-85273851D01*
X179318102Y-85126056D01*
X179510428Y-84947604D01*
X179674009Y-84742480D01*
X179805191Y-84515266D01*
X179901043Y-84271039D01*
X179959425Y-84015253D01*
X179966307Y-83923422D01*
X179979031Y-83753627D01*
X179979031Y-83753619D01*
X179968822Y-83617390D01*
X179983441Y-83549066D01*
X180032678Y-83499493D01*
X180092475Y-83484123D01*
X180168619Y-83484123D01*
X180235658Y-83503808D01*
X180274157Y-83543026D01*
X180279705Y-83552021D01*
X180285654Y-83561666D01*
X180405578Y-83681590D01*
X180405582Y-83681593D01*
X180549917Y-83770621D01*
X180549920Y-83770622D01*
X180549926Y-83770626D01*
X180710915Y-83823972D01*
X180810278Y-83834123D01*
X181656967Y-83834122D01*
X181656975Y-83834121D01*
X181656978Y-83834121D01*
X181711383Y-83828563D01*
X181756331Y-83823972D01*
X181917320Y-83770626D01*
X182061667Y-83681591D01*
X182181591Y-83561667D01*
X182270626Y-83417320D01*
X182323972Y-83256331D01*
X182334123Y-83156968D01*
X182334122Y-82610279D01*
X182329954Y-82569481D01*
X182323972Y-82510914D01*
X182323971Y-82510912D01*
X182303621Y-82449499D01*
X182270626Y-82349926D01*
X182270622Y-82349920D01*
X182270621Y-82349917D01*
X182181593Y-82205582D01*
X182181590Y-82205578D01*
X182061667Y-82085655D01*
X182061663Y-82085652D01*
X181917328Y-81996624D01*
X181917322Y-81996621D01*
X181917320Y-81996620D01*
X181850566Y-81974500D01*
X181756332Y-81943274D01*
X181656969Y-81933123D01*
X180810285Y-81933123D01*
X180810267Y-81933124D01*
X180710915Y-81943273D01*
X180710912Y-81943274D01*
X180549928Y-81996619D01*
X180549917Y-81996624D01*
X180405582Y-82085652D01*
X180405578Y-82085655D01*
X180285654Y-82205579D01*
X180274158Y-82224219D01*
X180222211Y-82270944D01*
X180168619Y-82283123D01*
X179212513Y-82283123D01*
X179145474Y-82263438D01*
X179142697Y-82261600D01*
X179101327Y-82233395D01*
X179101323Y-82233393D01*
X179101320Y-82233391D01*
X179101319Y-82233390D01*
X178864948Y-82119561D01*
X178864950Y-82119561D01*
X178614246Y-82042229D01*
X178614242Y-82042228D01*
X178614238Y-82042227D01*
X178489446Y-82023417D01*
X178354810Y-82003123D01*
X178354805Y-82003123D01*
X178092441Y-82003123D01*
X178092435Y-82003123D01*
X177930870Y-82027476D01*
X177833008Y-82042227D01*
X177833005Y-82042228D01*
X177832999Y-82042229D01*
X177582296Y-82119561D01*
X177345926Y-82233390D01*
X177345925Y-82233391D01*
X177129143Y-82381190D01*
X176936821Y-82559637D01*
X176773237Y-82764766D01*
X176642055Y-82991979D01*
X176546205Y-83236201D01*
X176546199Y-83236220D01*
X176487820Y-83491997D01*
X176487819Y-83492002D01*
X176468215Y-83753618D01*
X176468215Y-83753627D01*
X176480938Y-83923422D01*
X176466318Y-83991745D01*
X176417081Y-84041318D01*
X176348859Y-84056401D01*
X176283312Y-84032207D01*
X176269604Y-84020369D01*
X174937590Y-82688355D01*
X174937588Y-82688352D01*
X174818717Y-82569481D01*
X174818712Y-82569477D01*
X174717278Y-82510915D01*
X174717277Y-82510914D01*
X174681790Y-82490425D01*
X174681789Y-82490424D01*
X174669263Y-82487067D01*
X174529057Y-82449499D01*
X174370943Y-82449499D01*
X174363347Y-82449499D01*
X174363331Y-82449500D01*
X170879057Y-82449500D01*
X170720943Y-82449500D01*
X170568215Y-82490423D01*
X170568214Y-82490423D01*
X170568212Y-82490424D01*
X170568209Y-82490425D01*
X170532723Y-82510914D01*
X170532722Y-82510915D01*
X170431287Y-82569477D01*
X170431282Y-82569481D01*
X170333585Y-82667179D01*
X170319480Y-82681284D01*
X170319478Y-82681286D01*
X168884228Y-84116537D01*
X167453961Y-85546804D01*
X167392638Y-85580289D01*
X167366280Y-85583123D01*
X163631310Y-85583123D01*
X163631294Y-85583122D01*
X163623698Y-85583122D01*
X163465584Y-85583122D01*
X163457988Y-85583122D01*
X163457972Y-85583123D01*
X162698627Y-85583123D01*
X162631588Y-85563438D01*
X162593088Y-85524219D01*
X162592834Y-85523808D01*
X162581591Y-85505579D01*
X162461667Y-85385655D01*
X162461663Y-85385652D01*
X162317328Y-85296624D01*
X162317322Y-85296621D01*
X162317320Y-85296620D01*
X162290443Y-85287714D01*
X162156332Y-85243274D01*
X162056969Y-85233123D01*
X161210285Y-85233123D01*
X161210267Y-85233124D01*
X161110915Y-85243273D01*
X161110912Y-85243274D01*
X160949928Y-85296619D01*
X160949917Y-85296624D01*
X160805582Y-85385652D01*
X160805578Y-85385655D01*
X160685654Y-85505579D01*
X160674158Y-85524219D01*
X160622211Y-85570944D01*
X160568619Y-85583123D01*
X160098789Y-85583123D01*
X160031750Y-85563438D01*
X160021474Y-85556068D01*
X160018640Y-85553808D01*
X160018639Y-85553807D01*
X159877329Y-85465016D01*
X159865896Y-85457832D01*
X159744576Y-85415380D01*
X159687800Y-85374659D01*
X159662053Y-85309706D01*
X159675509Y-85241144D01*
X159715677Y-85195888D01*
X159818102Y-85126056D01*
X160010428Y-84947604D01*
X160174009Y-84742480D01*
X160305191Y-84515266D01*
X160401043Y-84271039D01*
X160459425Y-84015253D01*
X160466307Y-83923422D01*
X160479031Y-83753627D01*
X160479031Y-83753619D01*
X160471716Y-83656010D01*
X160486335Y-83587687D01*
X160535572Y-83538114D01*
X160603794Y-83523030D01*
X160669341Y-83547224D01*
X160683050Y-83559062D01*
X160805578Y-83681590D01*
X160805582Y-83681593D01*
X160949917Y-83770621D01*
X160949920Y-83770622D01*
X160949926Y-83770626D01*
X161110915Y-83823972D01*
X161210278Y-83834123D01*
X162056967Y-83834122D01*
X162056975Y-83834121D01*
X162056978Y-83834121D01*
X162111383Y-83828563D01*
X162156331Y-83823972D01*
X162317320Y-83770626D01*
X162461667Y-83681591D01*
X162581591Y-83561667D01*
X162670626Y-83417320D01*
X162723972Y-83256331D01*
X162727815Y-83218713D01*
X164574500Y-83218713D01*
X164574500Y-83431287D01*
X164582419Y-83481286D01*
X164601797Y-83603636D01*
X164607754Y-83641243D01*
X164673166Y-83842561D01*
X164673444Y-83843414D01*
X164769951Y-84032820D01*
X164894890Y-84204786D01*
X165045213Y-84355109D01*
X165217179Y-84480048D01*
X165217181Y-84480049D01*
X165217184Y-84480051D01*
X165406588Y-84576557D01*
X165608757Y-84642246D01*
X165818713Y-84675500D01*
X165818714Y-84675500D01*
X166031286Y-84675500D01*
X166031287Y-84675500D01*
X166241243Y-84642246D01*
X166443412Y-84576557D01*
X166632816Y-84480051D01*
X166697823Y-84432821D01*
X166804786Y-84355109D01*
X166804788Y-84355106D01*
X166804792Y-84355104D01*
X166955104Y-84204792D01*
X166955106Y-84204788D01*
X166955109Y-84204786D01*
X167080048Y-84032820D01*
X167080047Y-84032820D01*
X167080051Y-84032816D01*
X167176557Y-83843412D01*
X167242246Y-83641243D01*
X167275500Y-83431287D01*
X167275500Y-83218713D01*
X167242246Y-83008757D01*
X167176557Y-82806588D01*
X167080051Y-82617184D01*
X167080049Y-82617181D01*
X167080048Y-82617179D01*
X166955109Y-82445213D01*
X166804786Y-82294890D01*
X166632820Y-82169951D01*
X166443414Y-82073444D01*
X166443413Y-82073443D01*
X166443412Y-82073443D01*
X166241243Y-82007754D01*
X166241241Y-82007753D01*
X166241240Y-82007753D01*
X166079957Y-81982208D01*
X166031287Y-81974500D01*
X165818713Y-81974500D01*
X165770042Y-81982208D01*
X165608760Y-82007753D01*
X165406585Y-82073444D01*
X165217179Y-82169951D01*
X165045213Y-82294890D01*
X164894890Y-82445213D01*
X164769951Y-82617179D01*
X164673444Y-82806585D01*
X164607753Y-83008760D01*
X164584278Y-83156975D01*
X164574500Y-83218713D01*
X162727815Y-83218713D01*
X162734123Y-83156968D01*
X162734122Y-82610279D01*
X162729954Y-82569481D01*
X162723972Y-82510914D01*
X162723971Y-82510912D01*
X162703621Y-82449499D01*
X162670626Y-82349926D01*
X162670622Y-82349920D01*
X162670621Y-82349917D01*
X162581593Y-82205582D01*
X162581590Y-82205578D01*
X162461667Y-82085655D01*
X162461663Y-82085652D01*
X162317328Y-81996624D01*
X162317322Y-81996621D01*
X162317320Y-81996620D01*
X162250566Y-81974500D01*
X162156332Y-81943274D01*
X162056969Y-81933123D01*
X161210285Y-81933123D01*
X161210267Y-81933124D01*
X161110915Y-81943273D01*
X161110912Y-81943274D01*
X160949928Y-81996619D01*
X160949917Y-81996624D01*
X160805582Y-82085652D01*
X160805578Y-82085655D01*
X160685654Y-82205579D01*
X160674158Y-82224219D01*
X160622211Y-82270944D01*
X160568619Y-82283123D01*
X159712513Y-82283123D01*
X159645474Y-82263438D01*
X159642697Y-82261600D01*
X159601327Y-82233395D01*
X159601323Y-82233393D01*
X159601320Y-82233391D01*
X159601319Y-82233390D01*
X159364948Y-82119561D01*
X159364950Y-82119561D01*
X159114246Y-82042229D01*
X159114242Y-82042228D01*
X159114238Y-82042227D01*
X158989446Y-82023417D01*
X158854810Y-82003123D01*
X158854805Y-82003123D01*
X158592441Y-82003123D01*
X158592435Y-82003123D01*
X158430870Y-82027476D01*
X158333008Y-82042227D01*
X158333005Y-82042228D01*
X158332999Y-82042229D01*
X158082296Y-82119561D01*
X157845926Y-82233390D01*
X157845925Y-82233391D01*
X157629143Y-82381190D01*
X157436821Y-82559637D01*
X157273237Y-82764766D01*
X157142055Y-82991979D01*
X157046205Y-83236201D01*
X157046199Y-83236220D01*
X156987820Y-83491997D01*
X156987819Y-83492002D01*
X156968215Y-83753618D01*
X156968215Y-83753627D01*
X156987819Y-84015243D01*
X156987820Y-84015248D01*
X157046199Y-84271025D01*
X157046201Y-84271034D01*
X157046203Y-84271039D01*
X157142055Y-84515266D01*
X157273237Y-84742480D01*
X157405359Y-84908156D01*
X157436821Y-84947608D01*
X157509865Y-85015382D01*
X157629144Y-85126056D01*
X157845919Y-85273851D01*
X157845924Y-85273853D01*
X157845925Y-85273854D01*
X157845926Y-85273855D01*
X157942666Y-85320442D01*
X158082296Y-85387684D01*
X158082297Y-85387684D01*
X158082300Y-85387686D01*
X158333008Y-85465019D01*
X158592441Y-85504123D01*
X158773566Y-85504123D01*
X158840605Y-85523808D01*
X158886360Y-85576612D01*
X158896304Y-85645770D01*
X158878560Y-85694095D01*
X158790588Y-85834100D01*
X158731008Y-86004368D01*
X158731007Y-86004373D01*
X158710812Y-86183619D01*
X158710812Y-86183626D01*
X158731007Y-86362872D01*
X158731008Y-86362877D01*
X158790588Y-86533146D01*
X158872900Y-86664144D01*
X158886561Y-86685885D01*
X159014115Y-86813439D01*
X159166855Y-86909412D01*
X159306809Y-86958384D01*
X159337122Y-86968991D01*
X159337127Y-86968992D01*
X159516373Y-86989188D01*
X159516377Y-86989188D01*
X159516381Y-86989188D01*
X159695626Y-86968992D01*
X159695629Y-86968991D01*
X159695632Y-86968991D01*
X159865899Y-86909412D01*
X160018639Y-86813439D01*
X160018644Y-86813433D01*
X160021474Y-86811178D01*
X160023652Y-86810288D01*
X160024535Y-86809734D01*
X160024632Y-86809888D01*
X160086160Y-86784768D01*
X160098789Y-86784123D01*
X160568619Y-86784123D01*
X160635658Y-86803808D01*
X160674157Y-86843026D01*
X160679718Y-86852041D01*
X160685654Y-86861666D01*
X160805578Y-86981590D01*
X160805582Y-86981593D01*
X160949917Y-87070621D01*
X160949920Y-87070622D01*
X160949926Y-87070626D01*
X161110915Y-87123972D01*
X161210278Y-87134123D01*
X162056967Y-87134122D01*
X162056975Y-87134121D01*
X162056978Y-87134121D01*
X162111383Y-87128563D01*
X162156331Y-87123972D01*
X162317320Y-87070626D01*
X162461667Y-86981591D01*
X162581591Y-86861667D01*
X162593088Y-86843026D01*
X162645035Y-86796302D01*
X162698627Y-86784123D01*
X163244544Y-86784123D01*
X163311583Y-86803808D01*
X163332225Y-86820442D01*
X166875045Y-90363262D01*
X166908530Y-90424585D01*
X166903546Y-90494277D01*
X166875046Y-90538623D01*
X166821306Y-90592364D01*
X166759983Y-90625850D01*
X166690292Y-90620866D01*
X166645943Y-90592365D01*
X165515724Y-89462149D01*
X165515718Y-89462144D01*
X165515714Y-89462140D01*
X165469042Y-89424527D01*
X165469036Y-89424524D01*
X165338121Y-89364736D01*
X165338122Y-89364736D01*
X165195665Y-89344256D01*
X165053209Y-89364736D01*
X165053205Y-89364737D01*
X164922294Y-89424523D01*
X164922289Y-89424526D01*
X164875614Y-89462140D01*
X164875607Y-89462146D01*
X164419008Y-89918746D01*
X164418995Y-89918761D01*
X164378684Y-89968780D01*
X164359944Y-89987520D01*
X164309931Y-90027823D01*
X164309922Y-90027832D01*
X163853323Y-90484432D01*
X163853320Y-90484436D01*
X163813003Y-90534463D01*
X163794262Y-90553203D01*
X163744246Y-90593509D01*
X163744237Y-90593517D01*
X163287638Y-91050117D01*
X163287635Y-91050121D01*
X163287630Y-91050126D01*
X163287630Y-91050127D01*
X163269346Y-91072815D01*
X163247318Y-91100148D01*
X163228576Y-91118889D01*
X163178558Y-91159196D01*
X163178551Y-91159202D01*
X162721952Y-91615802D01*
X162721939Y-91615817D01*
X162681628Y-91665836D01*
X162662883Y-91684580D01*
X162658496Y-91688115D01*
X162593943Y-91714851D01*
X162525184Y-91702443D01*
X162474049Y-91654831D01*
X162460919Y-91623655D01*
X162459577Y-91618646D01*
X162452811Y-91606926D01*
X162380524Y-91481720D01*
X162380518Y-91481712D01*
X161237160Y-90338355D01*
X161237158Y-90338352D01*
X161118287Y-90219481D01*
X161118282Y-90219477D01*
X161054808Y-90182831D01*
X161006593Y-90132265D01*
X160993369Y-90063658D01*
X161019337Y-89998793D01*
X161076251Y-89958264D01*
X161136204Y-89952971D01*
X161175044Y-89959123D01*
X161175046Y-89959123D01*
X161352201Y-89959123D01*
X161352202Y-89959123D01*
X161527178Y-89931409D01*
X161695665Y-89876665D01*
X161853513Y-89796237D01*
X161996837Y-89692106D01*
X162122106Y-89566837D01*
X162226237Y-89423513D01*
X162306665Y-89265665D01*
X162361409Y-89097178D01*
X162389123Y-88922202D01*
X162389123Y-88745044D01*
X162361409Y-88570068D01*
X162326922Y-88463927D01*
X162306666Y-88401583D01*
X162306665Y-88401580D01*
X162242111Y-88274887D01*
X162226237Y-88243733D01*
X162122106Y-88100409D01*
X161996837Y-87975140D01*
X161853513Y-87871009D01*
X161695665Y-87790580D01*
X161695662Y-87790579D01*
X161527179Y-87735837D01*
X161431855Y-87720739D01*
X161352202Y-87708123D01*
X161175044Y-87708123D01*
X161116718Y-87717361D01*
X161000066Y-87735837D01*
X160831583Y-87790579D01*
X160831580Y-87790580D01*
X160673732Y-87871009D01*
X160616079Y-87912897D01*
X160530409Y-87975140D01*
X160530407Y-87975142D01*
X160530406Y-87975142D01*
X160405142Y-88100406D01*
X160405142Y-88100407D01*
X160405140Y-88100409D01*
X160392440Y-88117889D01*
X160301009Y-88243732D01*
X160220580Y-88401580D01*
X160220579Y-88401583D01*
X160165837Y-88570066D01*
X160138123Y-88745044D01*
X160138123Y-88922201D01*
X160165837Y-89097179D01*
X160220579Y-89265662D01*
X160220580Y-89265665D01*
X160301009Y-89423513D01*
X160405140Y-89566837D01*
X160530409Y-89692106D01*
X160673733Y-89796237D01*
X160808715Y-89865014D01*
X160859511Y-89912989D01*
X160876306Y-89980810D01*
X160853768Y-90046945D01*
X160799053Y-90090396D01*
X160752420Y-90099499D01*
X160662917Y-90099499D01*
X160662901Y-90099500D01*
X160483981Y-90099500D01*
X160416942Y-90079815D01*
X160396300Y-90063181D01*
X159892556Y-89559439D01*
X159892549Y-89559432D01*
X159892541Y-89559425D01*
X159892535Y-89559420D01*
X159812449Y-89494179D01*
X159812436Y-89494170D01*
X159655661Y-89415435D01*
X159484955Y-89374976D01*
X159484950Y-89374975D01*
X159484948Y-89374975D01*
X159309506Y-89374975D01*
X159309504Y-89374975D01*
X159309498Y-89374976D01*
X159138794Y-89415435D01*
X159138793Y-89415435D01*
X158982014Y-89494172D01*
X158982013Y-89494173D01*
X158901908Y-89559426D01*
X158901892Y-89559441D01*
X158293394Y-90167941D01*
X158232071Y-90201426D01*
X158162380Y-90196442D01*
X158106446Y-90154571D01*
X158082029Y-90089106D01*
X158096881Y-90020833D01*
X158098297Y-90018310D01*
X158206366Y-89831130D01*
X158319262Y-89558575D01*
X158395616Y-89273616D01*
X158434123Y-88981129D01*
X158434123Y-88686117D01*
X158395616Y-88393630D01*
X158319262Y-88108671D01*
X158206366Y-87836116D01*
X158197494Y-87820750D01*
X158058861Y-87580629D01*
X157879270Y-87346582D01*
X157879264Y-87346575D01*
X157670670Y-87137981D01*
X157670663Y-87137975D01*
X157436616Y-86958384D01*
X157181133Y-86810881D01*
X157181123Y-86810877D01*
X156908584Y-86697987D01*
X156908577Y-86697985D01*
X156908575Y-86697984D01*
X156623616Y-86621630D01*
X156574736Y-86615194D01*
X156331136Y-86583123D01*
X156331129Y-86583123D01*
X156036117Y-86583123D01*
X156036109Y-86583123D01*
X155757708Y-86619776D01*
X155743630Y-86621630D01*
X155458682Y-86697981D01*
X155458671Y-86697984D01*
X155458661Y-86697987D01*
X155186122Y-86810877D01*
X155186112Y-86810881D01*
X154930629Y-86958384D01*
X154696582Y-87137975D01*
X154696575Y-87137981D01*
X154487981Y-87346575D01*
X154487975Y-87346582D01*
X154308384Y-87580629D01*
X154160881Y-87836112D01*
X154160877Y-87836122D01*
X154047987Y-88108661D01*
X154047984Y-88108671D01*
X153983449Y-88349523D01*
X153971631Y-88393627D01*
X153971629Y-88393638D01*
X153933123Y-88686109D01*
X153933123Y-88981136D01*
X153963315Y-89210461D01*
X153971630Y-89273616D01*
X154047984Y-89558574D01*
X154047987Y-89558584D01*
X154160877Y-89831123D01*
X154160881Y-89831133D01*
X154308384Y-90086616D01*
X154487975Y-90320663D01*
X154487981Y-90320670D01*
X154696575Y-90529264D01*
X154696582Y-90529270D01*
X154930629Y-90708861D01*
X155186112Y-90856364D01*
X155186113Y-90856364D01*
X155186116Y-90856366D01*
X155280104Y-90895297D01*
X155451505Y-90966294D01*
X155458671Y-90969262D01*
X155533636Y-90989348D01*
X155593296Y-91025713D01*
X155623825Y-91088560D01*
X155615530Y-91157935D01*
X155571045Y-91211813D01*
X155504493Y-91233088D01*
X155501542Y-91233123D01*
X154833621Y-91233123D01*
X154833603Y-91233124D01*
X154730826Y-91243623D01*
X154730823Y-91243624D01*
X154564291Y-91298808D01*
X154564286Y-91298810D01*
X154414965Y-91390912D01*
X154290912Y-91514965D01*
X154198810Y-91664286D01*
X154198809Y-91664289D01*
X154167625Y-91758395D01*
X154127851Y-91815840D01*
X154082013Y-91839164D01*
X154076777Y-91840568D01*
X153951832Y-91874047D01*
X153951831Y-91874048D01*
X153901718Y-91902982D01*
X153901717Y-91902983D01*
X153858311Y-91928043D01*
X153814907Y-91953102D01*
X153814904Y-91953104D01*
X153750512Y-92017497D01*
X153703102Y-92064907D01*
X153703100Y-92064909D01*
X153381007Y-92387003D01*
X153092652Y-92675358D01*
X153031329Y-92708843D01*
X153004971Y-92711677D01*
X147430474Y-92711677D01*
X147363435Y-92691992D01*
X147342793Y-92675358D01*
X147295442Y-92628007D01*
X147261957Y-92566684D01*
X147259123Y-92540326D01*
X147259123Y-91808720D01*
X147278808Y-91741681D01*
X147295442Y-91721039D01*
X147446040Y-91570441D01*
X147507363Y-91536956D01*
X147533721Y-91534122D01*
X147831494Y-91534122D01*
X147831495Y-91534122D01*
X147891106Y-91527714D01*
X148025954Y-91477419D01*
X148141169Y-91391169D01*
X148227419Y-91275954D01*
X148277714Y-91141106D01*
X148284123Y-91081496D01*
X148284122Y-90385751D01*
X148278267Y-90331284D01*
X148277714Y-90326139D01*
X148227420Y-90191294D01*
X148227416Y-90191287D01*
X148141170Y-90076078D01*
X148136039Y-90070947D01*
X148102554Y-90009624D01*
X148107538Y-89939932D01*
X148136039Y-89895585D01*
X148140813Y-89890810D01*
X148226973Y-89775716D01*
X148226977Y-89775709D01*
X148277219Y-89641002D01*
X148277221Y-89640995D01*
X148283622Y-89581467D01*
X148283623Y-89581450D01*
X148283623Y-89283623D01*
X147383123Y-89283623D01*
X147316084Y-89263938D01*
X147270329Y-89211134D01*
X147259123Y-89159623D01*
X147259123Y-88783623D01*
X147683623Y-88783623D01*
X148283623Y-88783623D01*
X148283623Y-88485795D01*
X148283622Y-88485778D01*
X148277221Y-88426250D01*
X148277219Y-88426243D01*
X148226977Y-88291536D01*
X148226973Y-88291529D01*
X148140813Y-88176435D01*
X148140810Y-88176432D01*
X148025716Y-88090272D01*
X148025709Y-88090268D01*
X147891002Y-88040026D01*
X147890995Y-88040024D01*
X147831467Y-88033623D01*
X147683623Y-88033623D01*
X147683623Y-88783623D01*
X147259123Y-88783623D01*
X147259123Y-87838445D01*
X147278808Y-87771406D01*
X147331612Y-87725651D01*
X147400770Y-87715707D01*
X147422122Y-87720737D01*
X147430826Y-87723622D01*
X147533614Y-87734123D01*
X148333631Y-87734122D01*
X148333639Y-87734121D01*
X148333642Y-87734121D01*
X148389925Y-87728371D01*
X148436420Y-87723622D01*
X148602957Y-87668437D01*
X148752279Y-87576335D01*
X148846298Y-87482315D01*
X148907617Y-87448833D01*
X148977309Y-87453817D01*
X149021657Y-87482318D01*
X149115277Y-87575938D01*
X149264498Y-87667979D01*
X149264503Y-87667981D01*
X149430925Y-87723128D01*
X149430932Y-87723129D01*
X149533642Y-87733622D01*
X149683622Y-87733622D01*
X149683623Y-87733621D01*
X149683623Y-86407623D01*
X149703308Y-86340584D01*
X149756112Y-86294829D01*
X149807623Y-86283623D01*
X150059623Y-86283623D01*
X150126662Y-86303308D01*
X150172417Y-86356112D01*
X150183623Y-86407623D01*
X150183623Y-87733622D01*
X150321198Y-87733622D01*
X150388237Y-87753307D01*
X150433992Y-87806111D01*
X150443936Y-87875269D01*
X150414911Y-87938825D01*
X150394083Y-87957940D01*
X150370412Y-87975137D01*
X150370406Y-87975142D01*
X150245142Y-88100406D01*
X150245142Y-88100407D01*
X150245140Y-88100409D01*
X150232440Y-88117889D01*
X150141009Y-88243732D01*
X150060580Y-88401580D01*
X150060579Y-88401583D01*
X150005837Y-88570066D01*
X149978123Y-88745044D01*
X149978123Y-88922201D01*
X150005837Y-89097179D01*
X150060579Y-89265662D01*
X150060580Y-89265665D01*
X150141009Y-89423513D01*
X150245140Y-89566837D01*
X150370409Y-89692106D01*
X150513733Y-89796237D01*
X150564798Y-89822256D01*
X150671580Y-89876665D01*
X150671583Y-89876666D01*
X150733563Y-89896804D01*
X150840068Y-89931409D01*
X151015044Y-89959123D01*
X151015045Y-89959123D01*
X151192201Y-89959123D01*
X151192202Y-89959123D01*
X151367178Y-89931409D01*
X151535665Y-89876665D01*
X151693513Y-89796237D01*
X151836837Y-89692106D01*
X151962106Y-89566837D01*
X152066237Y-89423513D01*
X152146665Y-89265665D01*
X152201409Y-89097178D01*
X152229123Y-88922202D01*
X152229123Y-88745044D01*
X152201409Y-88570068D01*
X152166922Y-88463927D01*
X152146666Y-88401583D01*
X152146665Y-88401580D01*
X152100616Y-88311206D01*
X152066237Y-88243733D01*
X152065152Y-88242240D01*
X152055825Y-88229401D01*
X152032345Y-88163595D01*
X152048171Y-88095541D01*
X152098277Y-88046846D01*
X152166755Y-88032971D01*
X152174615Y-88033899D01*
X152242441Y-88044123D01*
X152504805Y-88044123D01*
X152764238Y-88005019D01*
X153014946Y-87927686D01*
X153237001Y-87820750D01*
X153251319Y-87813855D01*
X153251319Y-87813854D01*
X153251327Y-87813851D01*
X153468102Y-87666056D01*
X153660428Y-87487604D01*
X153824009Y-87282480D01*
X153955191Y-87055266D01*
X154051043Y-86811039D01*
X154109425Y-86555253D01*
X154109644Y-86552339D01*
X154129031Y-86293622D01*
X154129031Y-86293618D01*
X154109426Y-86032002D01*
X154109425Y-86031997D01*
X154109425Y-86031993D01*
X154051043Y-85776207D01*
X153955191Y-85531980D01*
X153824009Y-85304766D01*
X153660428Y-85099642D01*
X153660427Y-85099641D01*
X153660424Y-85099637D01*
X153468102Y-84921190D01*
X153251327Y-84773395D01*
X153251323Y-84773393D01*
X153251320Y-84773391D01*
X153251319Y-84773390D01*
X153014948Y-84659561D01*
X153014950Y-84659561D01*
X152764246Y-84582229D01*
X152764242Y-84582228D01*
X152764238Y-84582227D01*
X152639446Y-84563417D01*
X152504810Y-84543123D01*
X152504805Y-84543123D01*
X152242441Y-84543123D01*
X152242435Y-84543123D01*
X152080870Y-84567476D01*
X151983008Y-84582227D01*
X151983005Y-84582228D01*
X151982999Y-84582229D01*
X151732296Y-84659561D01*
X151495926Y-84773390D01*
X151495925Y-84773391D01*
X151279143Y-84921190D01*
X151086821Y-85099637D01*
X150929734Y-85296619D01*
X150923237Y-85304766D01*
X150906576Y-85333624D01*
X150862674Y-85409664D01*
X150812106Y-85457879D01*
X150743499Y-85471101D01*
X150690190Y-85453202D01*
X150602747Y-85399266D01*
X150602742Y-85399264D01*
X150436320Y-85344117D01*
X150436313Y-85344116D01*
X150333609Y-85333623D01*
X150326388Y-85333623D01*
X150259349Y-85313938D01*
X150213594Y-85261134D01*
X150203650Y-85191976D01*
X150221394Y-85143651D01*
X150249049Y-85099637D01*
X150259412Y-85083145D01*
X150318991Y-84912878D01*
X150334707Y-84773395D01*
X150339188Y-84733626D01*
X150339188Y-84733619D01*
X150318992Y-84554373D01*
X150318989Y-84554360D01*
X150259413Y-84384103D01*
X150243628Y-84358980D01*
X150224623Y-84293010D01*
X150224623Y-83987220D01*
X150198069Y-83853729D01*
X150198068Y-83853728D01*
X150198068Y-83853724D01*
X150198066Y-83853719D01*
X150145980Y-83727971D01*
X150143109Y-83722600D01*
X150144661Y-83721770D01*
X150126278Y-83663045D01*
X150144767Y-83595666D01*
X150193361Y-83552021D01*
X150192927Y-83551227D01*
X150196291Y-83549389D01*
X150196749Y-83548979D01*
X150198071Y-83548418D01*
X150200716Y-83546973D01*
X150315810Y-83460813D01*
X150315813Y-83460810D01*
X150401973Y-83345716D01*
X150401977Y-83345709D01*
X150452219Y-83211002D01*
X150452221Y-83210995D01*
X150458622Y-83151467D01*
X150458623Y-83151450D01*
X150458623Y-82079064D01*
X150478308Y-82012025D01*
X150503623Y-81983587D01*
X150503623Y-81180611D01*
X150513563Y-81197828D01*
X150569418Y-81253683D01*
X150637827Y-81293179D01*
X150714127Y-81313623D01*
X150793119Y-81313623D01*
X150869419Y-81293179D01*
X150937828Y-81253683D01*
X150993683Y-81197828D01*
X151003623Y-81180611D01*
X151003623Y-81983485D01*
X151045313Y-81975192D01*
X151045315Y-81975192D01*
X151227294Y-81899815D01*
X151227307Y-81899808D01*
X151391085Y-81790374D01*
X151391089Y-81790371D01*
X151530371Y-81651089D01*
X151530374Y-81651085D01*
X151639808Y-81487307D01*
X151639815Y-81487294D01*
X151715192Y-81305316D01*
X151715195Y-81305304D01*
X151753622Y-81112118D01*
X151753623Y-81112115D01*
X151753623Y-80713623D01*
X151053623Y-80713623D01*
X151053623Y-80213623D01*
X151753623Y-80213623D01*
X151753623Y-79958123D01*
X151773308Y-79891084D01*
X151826112Y-79845329D01*
X151877623Y-79834123D01*
X184609123Y-79834123D01*
X184676162Y-79853808D01*
X184721917Y-79906612D01*
X184733123Y-79958123D01*
X184733123Y-117209123D01*
X184713438Y-117276162D01*
X184660634Y-117321917D01*
X184609123Y-117333123D01*
X108258123Y-117333123D01*
X108191084Y-117313438D01*
X108145329Y-117260634D01*
X108134123Y-117209123D01*
X108134123Y-96902155D01*
X141900000Y-96902155D01*
X141900000Y-97250000D01*
X143050000Y-97250000D01*
X143550000Y-97250000D01*
X144700000Y-97250000D01*
X144700000Y-96902172D01*
X144699999Y-96902155D01*
X148100000Y-96902155D01*
X148100000Y-97250000D01*
X149250000Y-97250000D01*
X149750000Y-97250000D01*
X150900000Y-97250000D01*
X150900000Y-96902172D01*
X150899999Y-96902155D01*
X150893598Y-96842627D01*
X150893596Y-96842620D01*
X150843354Y-96707913D01*
X150843350Y-96707906D01*
X150757190Y-96592812D01*
X150757187Y-96592809D01*
X150642093Y-96506649D01*
X150642086Y-96506645D01*
X150507379Y-96456403D01*
X150507372Y-96456401D01*
X150447844Y-96450000D01*
X149750000Y-96450000D01*
X149750000Y-97250000D01*
X149250000Y-97250000D01*
X149250000Y-96450000D01*
X148552155Y-96450000D01*
X148492627Y-96456401D01*
X148492620Y-96456403D01*
X148357913Y-96506645D01*
X148357906Y-96506649D01*
X148242812Y-96592809D01*
X148242809Y-96592812D01*
X148156649Y-96707906D01*
X148156645Y-96707913D01*
X148106403Y-96842620D01*
X148106401Y-96842627D01*
X148100000Y-96902155D01*
X144699999Y-96902155D01*
X144693598Y-96842627D01*
X144693596Y-96842620D01*
X144643354Y-96707913D01*
X144643350Y-96707906D01*
X144557190Y-96592812D01*
X144557187Y-96592809D01*
X144442093Y-96506649D01*
X144442086Y-96506645D01*
X144307379Y-96456403D01*
X144307372Y-96456401D01*
X144247844Y-96450000D01*
X143550000Y-96450000D01*
X143550000Y-97250000D01*
X143050000Y-97250000D01*
X143050000Y-96450000D01*
X142352155Y-96450000D01*
X142292627Y-96456401D01*
X142292620Y-96456403D01*
X142157913Y-96506645D01*
X142157906Y-96506649D01*
X142042812Y-96592809D01*
X142042809Y-96592812D01*
X141956649Y-96707906D01*
X141956645Y-96707913D01*
X141906403Y-96842620D01*
X141906401Y-96842627D01*
X141900000Y-96902155D01*
X108134123Y-96902155D01*
X108134123Y-94526647D01*
X121599500Y-94526647D01*
X121599500Y-95073337D01*
X121599501Y-95073355D01*
X121609650Y-95172707D01*
X121609651Y-95172710D01*
X121662996Y-95333694D01*
X121663001Y-95333705D01*
X121752029Y-95478040D01*
X121752032Y-95478044D01*
X121871955Y-95597967D01*
X121871959Y-95597970D01*
X122016294Y-95686998D01*
X122016297Y-95686999D01*
X122016303Y-95687003D01*
X122177292Y-95740349D01*
X122276655Y-95750500D01*
X123123344Y-95750499D01*
X123123352Y-95750498D01*
X123123355Y-95750498D01*
X123177760Y-95744940D01*
X123222708Y-95740349D01*
X123383697Y-95687003D01*
X123528044Y-95597968D01*
X123647968Y-95478044D01*
X123690307Y-95409403D01*
X123742255Y-95362678D01*
X123795845Y-95350500D01*
X130134996Y-95350500D01*
X130202035Y-95370185D01*
X130240535Y-95409404D01*
X130252031Y-95428043D01*
X130371955Y-95547967D01*
X130371959Y-95547970D01*
X130516294Y-95636998D01*
X130516297Y-95636999D01*
X130516303Y-95637003D01*
X130677292Y-95690349D01*
X130776655Y-95700500D01*
X131623344Y-95700499D01*
X131623352Y-95700498D01*
X131623355Y-95700498D01*
X131677760Y-95694940D01*
X131722708Y-95690349D01*
X131883697Y-95637003D01*
X132028044Y-95547968D01*
X132147968Y-95428044D01*
X132159465Y-95409403D01*
X132211412Y-95362679D01*
X132265004Y-95350500D01*
X134117588Y-95350500D01*
X134184627Y-95370185D01*
X134194903Y-95377555D01*
X134197736Y-95379814D01*
X134197738Y-95379816D01*
X134311270Y-95451152D01*
X134331752Y-95464023D01*
X134350478Y-95475789D01*
X134420098Y-95500150D01*
X134520745Y-95535368D01*
X134520750Y-95535369D01*
X134699996Y-95555565D01*
X134700000Y-95555565D01*
X134700004Y-95555565D01*
X134879249Y-95535369D01*
X134879252Y-95535368D01*
X134879255Y-95535368D01*
X135049522Y-95475789D01*
X135202262Y-95379816D01*
X135329816Y-95252262D01*
X135425789Y-95099522D01*
X135485368Y-94929255D01*
X135485369Y-94929249D01*
X135505565Y-94750003D01*
X135505565Y-94749996D01*
X135485369Y-94570750D01*
X135485368Y-94570745D01*
X135452141Y-94475788D01*
X135425789Y-94400478D01*
X135402036Y-94362676D01*
X135353113Y-94284815D01*
X135329816Y-94247738D01*
X135202262Y-94120184D01*
X135125508Y-94071956D01*
X135049523Y-94024211D01*
X134879254Y-93964631D01*
X134879249Y-93964630D01*
X134700004Y-93944435D01*
X134699996Y-93944435D01*
X134520750Y-93964630D01*
X134520745Y-93964631D01*
X134350476Y-94024211D01*
X134197736Y-94120185D01*
X134194903Y-94122445D01*
X134192724Y-94123334D01*
X134191842Y-94123889D01*
X134191744Y-94123734D01*
X134130217Y-94148855D01*
X134117588Y-94149500D01*
X132265004Y-94149500D01*
X132197965Y-94129815D01*
X132159465Y-94090596D01*
X132147968Y-94071956D01*
X132028044Y-93952032D01*
X132028040Y-93952029D01*
X131883705Y-93863001D01*
X131883699Y-93862998D01*
X131883697Y-93862997D01*
X131873596Y-93859650D01*
X131722709Y-93809651D01*
X131623346Y-93799500D01*
X130776662Y-93799500D01*
X130776644Y-93799501D01*
X130677292Y-93809650D01*
X130677289Y-93809651D01*
X130516305Y-93862996D01*
X130516294Y-93863001D01*
X130371959Y-93952029D01*
X130371955Y-93952032D01*
X130252031Y-94071956D01*
X130240535Y-94090596D01*
X130188588Y-94137321D01*
X130134996Y-94149500D01*
X123726874Y-94149500D01*
X123659835Y-94129815D01*
X123639193Y-94113181D01*
X123528044Y-94002032D01*
X123528040Y-94002029D01*
X123383705Y-93913001D01*
X123383699Y-93912998D01*
X123383697Y-93912997D01*
X123383694Y-93912996D01*
X123222709Y-93859651D01*
X123123346Y-93849500D01*
X122276662Y-93849500D01*
X122276644Y-93849501D01*
X122177292Y-93859650D01*
X122177289Y-93859651D01*
X122016305Y-93912996D01*
X122016294Y-93913001D01*
X121871959Y-94002029D01*
X121871955Y-94002032D01*
X121752032Y-94121955D01*
X121752029Y-94121959D01*
X121663001Y-94266294D01*
X121662996Y-94266305D01*
X121609651Y-94427290D01*
X121599500Y-94526647D01*
X108134123Y-94526647D01*
X108134123Y-88745044D01*
X110978123Y-88745044D01*
X110978123Y-88922201D01*
X111005837Y-89097179D01*
X111060579Y-89265662D01*
X111060580Y-89265665D01*
X111141009Y-89423513D01*
X111245140Y-89566837D01*
X111370409Y-89692106D01*
X111513733Y-89796237D01*
X111564798Y-89822256D01*
X111671580Y-89876665D01*
X111671583Y-89876666D01*
X111733563Y-89896804D01*
X111840068Y-89931409D01*
X112015044Y-89959123D01*
X112015045Y-89959123D01*
X112192201Y-89959123D01*
X112192202Y-89959123D01*
X112367178Y-89931409D01*
X112535665Y-89876665D01*
X112693513Y-89796237D01*
X112836837Y-89692106D01*
X112962106Y-89566837D01*
X113066237Y-89423513D01*
X113146665Y-89265665D01*
X113201409Y-89097178D01*
X113229123Y-88922202D01*
X113229123Y-88745044D01*
X113219788Y-88686109D01*
X114933123Y-88686109D01*
X114933123Y-88981136D01*
X114963315Y-89210461D01*
X114971630Y-89273616D01*
X115047984Y-89558574D01*
X115047987Y-89558584D01*
X115160877Y-89831123D01*
X115160881Y-89831133D01*
X115308384Y-90086616D01*
X115487975Y-90320663D01*
X115487981Y-90320670D01*
X115696575Y-90529264D01*
X115696582Y-90529270D01*
X115930629Y-90708861D01*
X116186112Y-90856364D01*
X116186113Y-90856364D01*
X116186116Y-90856366D01*
X116280104Y-90895297D01*
X116451505Y-90966294D01*
X116458671Y-90969262D01*
X116743630Y-91045616D01*
X116998587Y-91079182D01*
X117035896Y-91084094D01*
X117036117Y-91084123D01*
X117036124Y-91084123D01*
X117331122Y-91084123D01*
X117331129Y-91084123D01*
X117623616Y-91045616D01*
X117908575Y-90969262D01*
X118181130Y-90856366D01*
X118436617Y-90708861D01*
X118670665Y-90529269D01*
X118879269Y-90320665D01*
X119058861Y-90086617D01*
X119206366Y-89831130D01*
X119319262Y-89558575D01*
X119388372Y-89300650D01*
X119424737Y-89240990D01*
X119487584Y-89210461D01*
X119556960Y-89218756D01*
X119595828Y-89245063D01*
X121563181Y-91212416D01*
X121596666Y-91273739D01*
X121599500Y-91300097D01*
X121599500Y-91773337D01*
X121599501Y-91773355D01*
X121609650Y-91872707D01*
X121609651Y-91872710D01*
X121662996Y-92033694D01*
X121663001Y-92033705D01*
X121752029Y-92178040D01*
X121752032Y-92178044D01*
X121871955Y-92297967D01*
X121871959Y-92297970D01*
X122016294Y-92386998D01*
X122016297Y-92386999D01*
X122016303Y-92387003D01*
X122177292Y-92440349D01*
X122276655Y-92450500D01*
X123123344Y-92450499D01*
X123123352Y-92450498D01*
X123123355Y-92450498D01*
X123177760Y-92444940D01*
X123222708Y-92440349D01*
X123383697Y-92387003D01*
X123528044Y-92297968D01*
X123647968Y-92178044D01*
X123737003Y-92033697D01*
X123790349Y-91872708D01*
X123800500Y-91773345D01*
X123800499Y-91226656D01*
X123800408Y-91225770D01*
X123790349Y-91127292D01*
X123790348Y-91127289D01*
X123778481Y-91091476D01*
X123737003Y-90966303D01*
X123736999Y-90966297D01*
X123736998Y-90966294D01*
X123647970Y-90821959D01*
X123647967Y-90821955D01*
X123533689Y-90707677D01*
X129778121Y-90707677D01*
X129817962Y-90856366D01*
X129819046Y-90860408D01*
X129839189Y-90895296D01*
X129893950Y-90990146D01*
X129898102Y-90997337D01*
X129898104Y-90997340D01*
X130016972Y-91116208D01*
X130016978Y-91116213D01*
X130063181Y-91162416D01*
X130096666Y-91223739D01*
X130099500Y-91250097D01*
X130099500Y-91723337D01*
X130099501Y-91723355D01*
X130109650Y-91822707D01*
X130109651Y-91822710D01*
X130162996Y-91983694D01*
X130163001Y-91983705D01*
X130252029Y-92128040D01*
X130252032Y-92128044D01*
X130371955Y-92247967D01*
X130371959Y-92247970D01*
X130516294Y-92336998D01*
X130516297Y-92336999D01*
X130516303Y-92337003D01*
X130677292Y-92390349D01*
X130776655Y-92400500D01*
X131623344Y-92400499D01*
X131623352Y-92400498D01*
X131623355Y-92400498D01*
X131677760Y-92394940D01*
X131722708Y-92390349D01*
X131883697Y-92337003D01*
X132028044Y-92247968D01*
X132147968Y-92128044D01*
X132237003Y-91983697D01*
X132290349Y-91822708D01*
X132300500Y-91723345D01*
X132300499Y-91176656D01*
X132299044Y-91162416D01*
X132290349Y-91077292D01*
X132290348Y-91077289D01*
X132281347Y-91050127D01*
X132237003Y-90916303D01*
X132236999Y-90916297D01*
X132236998Y-90916294D01*
X132147970Y-90771959D01*
X132147967Y-90771955D01*
X132028044Y-90652032D01*
X132028040Y-90652029D01*
X131883705Y-90563001D01*
X131883699Y-90562998D01*
X131883697Y-90562997D01*
X131873599Y-90559651D01*
X131722709Y-90509651D01*
X131623352Y-90499500D01*
X131623345Y-90499500D01*
X131150097Y-90499500D01*
X131083058Y-90479815D01*
X131062416Y-90463181D01*
X131015442Y-90416207D01*
X130981957Y-90354884D01*
X130979123Y-90328526D01*
X130979123Y-89980952D01*
X130998808Y-89913913D01*
X131051612Y-89868158D01*
X131120770Y-89858214D01*
X131159418Y-89870467D01*
X131171581Y-89876665D01*
X131171583Y-89876666D01*
X131233563Y-89896804D01*
X131340068Y-89931409D01*
X131515044Y-89959123D01*
X131515045Y-89959123D01*
X131692201Y-89959123D01*
X131692202Y-89959123D01*
X131867178Y-89931409D01*
X132035665Y-89876665D01*
X132193513Y-89796237D01*
X132336837Y-89692106D01*
X132462106Y-89566837D01*
X132566237Y-89423513D01*
X132646665Y-89265665D01*
X132701409Y-89097178D01*
X132729123Y-88922202D01*
X132729123Y-88745044D01*
X132719788Y-88686109D01*
X134433123Y-88686109D01*
X134433123Y-88981136D01*
X134463315Y-89210461D01*
X134471630Y-89273616D01*
X134547984Y-89558574D01*
X134547987Y-89558584D01*
X134660877Y-89831123D01*
X134660881Y-89831133D01*
X134808384Y-90086616D01*
X134987975Y-90320663D01*
X134987981Y-90320670D01*
X135196575Y-90529264D01*
X135196582Y-90529270D01*
X135430629Y-90708861D01*
X135686112Y-90856364D01*
X135686113Y-90856364D01*
X135686116Y-90856366D01*
X135780104Y-90895297D01*
X135951505Y-90966294D01*
X135958671Y-90969262D01*
X136243630Y-91045616D01*
X136498587Y-91079182D01*
X136535896Y-91084094D01*
X136536117Y-91084123D01*
X136536124Y-91084123D01*
X136831122Y-91084123D01*
X136831129Y-91084123D01*
X137123616Y-91045616D01*
X137408575Y-90969262D01*
X137681130Y-90856366D01*
X137936617Y-90708861D01*
X138170665Y-90529269D01*
X138379269Y-90320665D01*
X138558861Y-90086617D01*
X138706366Y-89831130D01*
X138819262Y-89558575D01*
X138895616Y-89273616D01*
X138934123Y-88981129D01*
X138934123Y-88686117D01*
X138895616Y-88393630D01*
X138819262Y-88108671D01*
X138706366Y-87836116D01*
X138697494Y-87820750D01*
X138558861Y-87580629D01*
X138379270Y-87346582D01*
X138379264Y-87346575D01*
X138170670Y-87137981D01*
X138170663Y-87137975D01*
X137936616Y-86958384D01*
X137681133Y-86810881D01*
X137681123Y-86810877D01*
X137408584Y-86697987D01*
X137408577Y-86697985D01*
X137408575Y-86697984D01*
X137123616Y-86621630D01*
X137074736Y-86615194D01*
X136831136Y-86583123D01*
X136831129Y-86583123D01*
X136536117Y-86583123D01*
X136536109Y-86583123D01*
X136257708Y-86619776D01*
X136243630Y-86621630D01*
X135958682Y-86697981D01*
X135958671Y-86697984D01*
X135958661Y-86697987D01*
X135686122Y-86810877D01*
X135686112Y-86810881D01*
X135430629Y-86958384D01*
X135196582Y-87137975D01*
X135196575Y-87137981D01*
X134987981Y-87346575D01*
X134987975Y-87346582D01*
X134808384Y-87580629D01*
X134660881Y-87836112D01*
X134660877Y-87836122D01*
X134547987Y-88108661D01*
X134547984Y-88108671D01*
X134483449Y-88349523D01*
X134471631Y-88393627D01*
X134471629Y-88393638D01*
X134433123Y-88686109D01*
X132719788Y-88686109D01*
X132701409Y-88570068D01*
X132666922Y-88463927D01*
X132646666Y-88401583D01*
X132646665Y-88401580D01*
X132600616Y-88311206D01*
X132566237Y-88243733D01*
X132565152Y-88242240D01*
X132555825Y-88229401D01*
X132532345Y-88163595D01*
X132548171Y-88095541D01*
X132598277Y-88046846D01*
X132666755Y-88032971D01*
X132674615Y-88033899D01*
X132742441Y-88044123D01*
X133004805Y-88044123D01*
X133264238Y-88005019D01*
X133514946Y-87927686D01*
X133737001Y-87820750D01*
X133751319Y-87813855D01*
X133751319Y-87813854D01*
X133751327Y-87813851D01*
X133968102Y-87666056D01*
X134160428Y-87487604D01*
X134324009Y-87282480D01*
X134455191Y-87055266D01*
X134551043Y-86811039D01*
X134609425Y-86555253D01*
X134609644Y-86552339D01*
X134629031Y-86293622D01*
X134629031Y-86293618D01*
X134609548Y-86033636D01*
X141333623Y-86033636D01*
X141333623Y-86283623D01*
X142183623Y-86283623D01*
X142183623Y-85333623D01*
X142033650Y-85333623D01*
X142033635Y-85333624D01*
X141930925Y-85344117D01*
X141764503Y-85399264D01*
X141764498Y-85399266D01*
X141615277Y-85491307D01*
X141491307Y-85615277D01*
X141399266Y-85764498D01*
X141399264Y-85764503D01*
X141344117Y-85930925D01*
X141344116Y-85930932D01*
X141333623Y-86033636D01*
X134609548Y-86033636D01*
X134609426Y-86032002D01*
X134609425Y-86031997D01*
X134609425Y-86031993D01*
X134551043Y-85776207D01*
X134455191Y-85531980D01*
X134324009Y-85304766D01*
X134160428Y-85099642D01*
X134160427Y-85099641D01*
X134160424Y-85099637D01*
X133968102Y-84921190D01*
X133751327Y-84773395D01*
X133751323Y-84773393D01*
X133751320Y-84773391D01*
X133751319Y-84773390D01*
X133514948Y-84659561D01*
X133514950Y-84659561D01*
X133458815Y-84642246D01*
X133444056Y-84637693D01*
X133385798Y-84599123D01*
X133357640Y-84535179D01*
X133368524Y-84466162D01*
X133392925Y-84431523D01*
X133434008Y-84390441D01*
X133495331Y-84356956D01*
X133521688Y-84354123D01*
X137494270Y-84354123D01*
X137561309Y-84373808D01*
X137607064Y-84426612D01*
X137609681Y-84432780D01*
X137642055Y-84515266D01*
X137642057Y-84515269D01*
X137642058Y-84515272D01*
X137680716Y-84582229D01*
X137773237Y-84742480D01*
X137905359Y-84908156D01*
X137936821Y-84947608D01*
X138009865Y-85015382D01*
X138129144Y-85126056D01*
X138345919Y-85273851D01*
X138345924Y-85273853D01*
X138345925Y-85273854D01*
X138345926Y-85273855D01*
X138442666Y-85320442D01*
X138582296Y-85387684D01*
X138582297Y-85387684D01*
X138582300Y-85387686D01*
X138833008Y-85465019D01*
X139092441Y-85504123D01*
X139354805Y-85504123D01*
X139614238Y-85465019D01*
X139864946Y-85387686D01*
X140101327Y-85273851D01*
X140318102Y-85126056D01*
X140510428Y-84947604D01*
X140674009Y-84742480D01*
X140805191Y-84515266D01*
X140901043Y-84271039D01*
X140959425Y-84015253D01*
X140966307Y-83923422D01*
X140979031Y-83753627D01*
X140979031Y-83753618D01*
X140959426Y-83492002D01*
X140959425Y-83491997D01*
X140959425Y-83491993D01*
X140901043Y-83236207D01*
X140805191Y-82991980D01*
X140674009Y-82764766D01*
X140510428Y-82559642D01*
X140510427Y-82559641D01*
X140510424Y-82559637D01*
X140318102Y-82381190D01*
X140272233Y-82349917D01*
X140101327Y-82233395D01*
X140101323Y-82233393D01*
X140101320Y-82233391D01*
X140101319Y-82233390D01*
X139864948Y-82119561D01*
X139864950Y-82119561D01*
X139614246Y-82042229D01*
X139614242Y-82042228D01*
X139614238Y-82042227D01*
X139489446Y-82023417D01*
X139354810Y-82003123D01*
X139354805Y-82003123D01*
X139092441Y-82003123D01*
X139092435Y-82003123D01*
X138930870Y-82027476D01*
X138833008Y-82042227D01*
X138833005Y-82042228D01*
X138832999Y-82042229D01*
X138582296Y-82119561D01*
X138345926Y-82233390D01*
X138345925Y-82233391D01*
X138129143Y-82381190D01*
X137936821Y-82559637D01*
X137773237Y-82764766D01*
X137642058Y-82991973D01*
X137642055Y-82991978D01*
X137642055Y-82991980D01*
X137609696Y-83074428D01*
X137566883Y-83129639D01*
X137501013Y-83152940D01*
X137494270Y-83153123D01*
X133308260Y-83153123D01*
X133308244Y-83153122D01*
X133300648Y-83153122D01*
X133142534Y-83153122D01*
X132989806Y-83194046D01*
X132989805Y-83194046D01*
X132989803Y-83194047D01*
X132960259Y-83211105D01*
X132960258Y-83211106D01*
X132916759Y-83236220D01*
X132852876Y-83273102D01*
X132852873Y-83273104D01*
X129898104Y-86227873D01*
X129898100Y-86227878D01*
X129860144Y-86293622D01*
X129860144Y-86293623D01*
X129819046Y-86364805D01*
X129819046Y-86364806D01*
X129778122Y-86517534D01*
X129778122Y-86517536D01*
X129778122Y-86685637D01*
X129778123Y-86685650D01*
X129778123Y-90541953D01*
X129778122Y-90541971D01*
X129778122Y-90707677D01*
X129778121Y-90707677D01*
X123533689Y-90707677D01*
X123528044Y-90702032D01*
X123528040Y-90702029D01*
X123383705Y-90613001D01*
X123383699Y-90612998D01*
X123383697Y-90612997D01*
X123324886Y-90593509D01*
X123222709Y-90559651D01*
X123123352Y-90549500D01*
X123123345Y-90549500D01*
X122650098Y-90549500D01*
X122583059Y-90529815D01*
X122562417Y-90513181D01*
X122220040Y-90170804D01*
X122186555Y-90109481D01*
X122191539Y-90039789D01*
X122233411Y-89983856D01*
X122298875Y-89959439D01*
X122307721Y-89959123D01*
X122352201Y-89959123D01*
X122352202Y-89959123D01*
X122527178Y-89931409D01*
X122695665Y-89876665D01*
X122853513Y-89796237D01*
X122996837Y-89692106D01*
X123122106Y-89566837D01*
X123226237Y-89423513D01*
X123306665Y-89265665D01*
X123361409Y-89097178D01*
X123389123Y-88922202D01*
X123389123Y-88745044D01*
X123361409Y-88570068D01*
X123326922Y-88463927D01*
X123306666Y-88401583D01*
X123306665Y-88401580D01*
X123242111Y-88274887D01*
X123226237Y-88243733D01*
X123122106Y-88100409D01*
X122996837Y-87975140D01*
X122853513Y-87871009D01*
X122695665Y-87790580D01*
X122695662Y-87790579D01*
X122527179Y-87735837D01*
X122431855Y-87720739D01*
X122352202Y-87708123D01*
X122175044Y-87708123D01*
X122116718Y-87717361D01*
X122000066Y-87735837D01*
X121831583Y-87790579D01*
X121831580Y-87790580D01*
X121673732Y-87871009D01*
X121616079Y-87912897D01*
X121530409Y-87975140D01*
X121530407Y-87975142D01*
X121530406Y-87975142D01*
X121405142Y-88100406D01*
X121405142Y-88100407D01*
X121405140Y-88100409D01*
X121392440Y-88117889D01*
X121301009Y-88243732D01*
X121220580Y-88401580D01*
X121220579Y-88401583D01*
X121165837Y-88570066D01*
X121138123Y-88745044D01*
X121138123Y-88789525D01*
X121118438Y-88856564D01*
X121065634Y-88902319D01*
X120996476Y-88912263D01*
X120932920Y-88883238D01*
X120926442Y-88877206D01*
X120360442Y-88311206D01*
X120326957Y-88249883D01*
X120324123Y-88223525D01*
X120324123Y-85485259D01*
X120343808Y-85418220D01*
X120394321Y-85373539D01*
X120601327Y-85273851D01*
X120818102Y-85126056D01*
X121010428Y-84947604D01*
X121174009Y-84742480D01*
X121305191Y-84515266D01*
X121401043Y-84271039D01*
X121459425Y-84015253D01*
X121466307Y-83923422D01*
X121479031Y-83753627D01*
X121479031Y-83753618D01*
X121459426Y-83492002D01*
X121459425Y-83491997D01*
X121459425Y-83491993D01*
X121408462Y-83268713D01*
X125574500Y-83268713D01*
X125574500Y-83481287D01*
X125583501Y-83538114D01*
X125606225Y-83681593D01*
X125607754Y-83691243D01*
X125656920Y-83842561D01*
X125673444Y-83893414D01*
X125769951Y-84082820D01*
X125894890Y-84254786D01*
X126045213Y-84405109D01*
X126217179Y-84530048D01*
X126217181Y-84530049D01*
X126217184Y-84530051D01*
X126406588Y-84626557D01*
X126608757Y-84692246D01*
X126818713Y-84725500D01*
X126818714Y-84725500D01*
X127031286Y-84725500D01*
X127031287Y-84725500D01*
X127241243Y-84692246D01*
X127443412Y-84626557D01*
X127632816Y-84530051D01*
X127701640Y-84480048D01*
X127804786Y-84405109D01*
X127804788Y-84405106D01*
X127804792Y-84405104D01*
X127955104Y-84254792D01*
X127955106Y-84254788D01*
X127955109Y-84254786D01*
X128080048Y-84082820D01*
X128080047Y-84082820D01*
X128080051Y-84082816D01*
X128176557Y-83893412D01*
X128242246Y-83691243D01*
X128275500Y-83481287D01*
X128275500Y-83268713D01*
X128242246Y-83058757D01*
X128176557Y-82856588D01*
X128080051Y-82667184D01*
X128080049Y-82667181D01*
X128080048Y-82667179D01*
X127955109Y-82495213D01*
X127804786Y-82344890D01*
X127632820Y-82219951D01*
X127443414Y-82123444D01*
X127443413Y-82123443D01*
X127443412Y-82123443D01*
X127241243Y-82057754D01*
X127241241Y-82057753D01*
X127241240Y-82057753D01*
X127079957Y-82032208D01*
X127031287Y-82024500D01*
X126818713Y-82024500D01*
X126770042Y-82032208D01*
X126608760Y-82057753D01*
X126406585Y-82123444D01*
X126217179Y-82219951D01*
X126045213Y-82344890D01*
X125894890Y-82495213D01*
X125769951Y-82667179D01*
X125673444Y-82856585D01*
X125607753Y-83058760D01*
X125583624Y-83211105D01*
X125574500Y-83268713D01*
X121408462Y-83268713D01*
X121401043Y-83236207D01*
X121305191Y-82991980D01*
X121174009Y-82764766D01*
X121010428Y-82559642D01*
X121010427Y-82559641D01*
X121010424Y-82559637D01*
X120818102Y-82381190D01*
X120772233Y-82349917D01*
X120601327Y-82233395D01*
X120601323Y-82233393D01*
X120601320Y-82233391D01*
X120601319Y-82233390D01*
X120364948Y-82119561D01*
X120364950Y-82119561D01*
X120114246Y-82042229D01*
X120114242Y-82042228D01*
X120114238Y-82042227D01*
X119989446Y-82023417D01*
X119854810Y-82003123D01*
X119854805Y-82003123D01*
X119592441Y-82003123D01*
X119592435Y-82003123D01*
X119430870Y-82027476D01*
X119333008Y-82042227D01*
X119333005Y-82042228D01*
X119332999Y-82042229D01*
X119082296Y-82119561D01*
X118845926Y-82233390D01*
X118845925Y-82233391D01*
X118629143Y-82381190D01*
X118436821Y-82559637D01*
X118273237Y-82764766D01*
X118142055Y-82991979D01*
X118046205Y-83236201D01*
X118046199Y-83236220D01*
X117987820Y-83491997D01*
X117987819Y-83492002D01*
X117968215Y-83753618D01*
X117968215Y-83753627D01*
X117987819Y-84015243D01*
X117987820Y-84015248D01*
X118046199Y-84271025D01*
X118046201Y-84271034D01*
X118046203Y-84271039D01*
X118142055Y-84515266D01*
X118273237Y-84742480D01*
X118405359Y-84908156D01*
X118436821Y-84947608D01*
X118509865Y-85015382D01*
X118629144Y-85126056D01*
X118845919Y-85273851D01*
X118845924Y-85273853D01*
X118845925Y-85273854D01*
X118845926Y-85273855D01*
X118989924Y-85343200D01*
X119052924Y-85373539D01*
X119104784Y-85420361D01*
X119123123Y-85485259D01*
X119123123Y-87299084D01*
X119103438Y-87366123D01*
X119050634Y-87411878D01*
X118981476Y-87421822D01*
X118917920Y-87392797D01*
X118900748Y-87374572D01*
X118879267Y-87346578D01*
X118670670Y-87137981D01*
X118670663Y-87137975D01*
X118436616Y-86958384D01*
X118181133Y-86810881D01*
X118181123Y-86810877D01*
X117908584Y-86697987D01*
X117908577Y-86697985D01*
X117908575Y-86697984D01*
X117623616Y-86621630D01*
X117574736Y-86615194D01*
X117331136Y-86583123D01*
X117331129Y-86583123D01*
X117036117Y-86583123D01*
X117036109Y-86583123D01*
X116757708Y-86619776D01*
X116743630Y-86621630D01*
X116458682Y-86697981D01*
X116458671Y-86697984D01*
X116458661Y-86697987D01*
X116186122Y-86810877D01*
X116186112Y-86810881D01*
X115930629Y-86958384D01*
X115696582Y-87137975D01*
X115696575Y-87137981D01*
X115487981Y-87346575D01*
X115487975Y-87346582D01*
X115308384Y-87580629D01*
X115160881Y-87836112D01*
X115160877Y-87836122D01*
X115047987Y-88108661D01*
X115047984Y-88108671D01*
X114983449Y-88349523D01*
X114971631Y-88393627D01*
X114971629Y-88393638D01*
X114933123Y-88686109D01*
X113219788Y-88686109D01*
X113201409Y-88570068D01*
X113166922Y-88463927D01*
X113146666Y-88401583D01*
X113146665Y-88401580D01*
X113100616Y-88311206D01*
X113066237Y-88243733D01*
X113065152Y-88242240D01*
X113055825Y-88229401D01*
X113032345Y-88163595D01*
X113048171Y-88095541D01*
X113098277Y-88046846D01*
X113166755Y-88032971D01*
X113174615Y-88033899D01*
X113242441Y-88044123D01*
X113504805Y-88044123D01*
X113764238Y-88005019D01*
X114014946Y-87927686D01*
X114237001Y-87820750D01*
X114251319Y-87813855D01*
X114251319Y-87813854D01*
X114251327Y-87813851D01*
X114468102Y-87666056D01*
X114660428Y-87487604D01*
X114824009Y-87282480D01*
X114955191Y-87055266D01*
X115051043Y-86811039D01*
X115109425Y-86555253D01*
X115109644Y-86552339D01*
X115129031Y-86293622D01*
X115129031Y-86293618D01*
X115109426Y-86032002D01*
X115109425Y-86031997D01*
X115109425Y-86031993D01*
X115051043Y-85776207D01*
X114955191Y-85531980D01*
X114824009Y-85304766D01*
X114660428Y-85099642D01*
X114660427Y-85099641D01*
X114660424Y-85099637D01*
X114468102Y-84921190D01*
X114251327Y-84773395D01*
X114251323Y-84773393D01*
X114251320Y-84773391D01*
X114251319Y-84773390D01*
X114014948Y-84659561D01*
X114014950Y-84659561D01*
X113764246Y-84582229D01*
X113764242Y-84582228D01*
X113764238Y-84582227D01*
X113639446Y-84563417D01*
X113504810Y-84543123D01*
X113504805Y-84543123D01*
X113242441Y-84543123D01*
X113242435Y-84543123D01*
X113080870Y-84567476D01*
X112983008Y-84582227D01*
X112983005Y-84582228D01*
X112982999Y-84582229D01*
X112732296Y-84659561D01*
X112495926Y-84773390D01*
X112495925Y-84773391D01*
X112279143Y-84921190D01*
X112086821Y-85099637D01*
X111923237Y-85304766D01*
X111792055Y-85531979D01*
X111696205Y-85776201D01*
X111696199Y-85776220D01*
X111637820Y-86031997D01*
X111637819Y-86032002D01*
X111618215Y-86293618D01*
X111618215Y-86293622D01*
X111637819Y-86555243D01*
X111637820Y-86555248D01*
X111696199Y-86811025D01*
X111696201Y-86811034D01*
X111696203Y-86811039D01*
X111792055Y-87055266D01*
X111923237Y-87282480D01*
X112026429Y-87411878D01*
X112086820Y-87487607D01*
X112093000Y-87493340D01*
X112128756Y-87553367D01*
X112126383Y-87623197D01*
X112086634Y-87680658D01*
X112022129Y-87707507D01*
X112018411Y-87707857D01*
X112015051Y-87708121D01*
X111840066Y-87735837D01*
X111671583Y-87790579D01*
X111671580Y-87790580D01*
X111513732Y-87871009D01*
X111456079Y-87912897D01*
X111370409Y-87975140D01*
X111370407Y-87975142D01*
X111370406Y-87975142D01*
X111245142Y-88100406D01*
X111245142Y-88100407D01*
X111245140Y-88100409D01*
X111232440Y-88117889D01*
X111141009Y-88243732D01*
X111060580Y-88401580D01*
X111060579Y-88401583D01*
X111005837Y-88570066D01*
X110978123Y-88745044D01*
X108134123Y-88745044D01*
X108134123Y-79958123D01*
X108153808Y-79891084D01*
X108206612Y-79845329D01*
X108258123Y-79834123D01*
X140989623Y-79834123D01*
X141056662Y-79853808D01*
G37*
G04 #@! TD.AperFunction*
G04 #@! TA.AperFunction,Conductor*
G36*
X158812890Y-99346390D02*
G01*
X158833532Y-99363024D01*
X159218746Y-99748237D01*
X159218750Y-99748241D01*
X159218755Y-99748245D01*
X159218756Y-99748246D01*
X159218803Y-99748284D01*
X159270622Y-99790045D01*
X159289363Y-99808787D01*
X159328212Y-99856995D01*
X159328218Y-99857002D01*
X159459035Y-99987819D01*
X159492520Y-100049142D01*
X159487536Y-100118834D01*
X159445664Y-100174767D01*
X159380200Y-100199184D01*
X159371354Y-100199500D01*
X157772310Y-100199500D01*
X157705271Y-100179815D01*
X157659516Y-100127011D01*
X157649572Y-100057853D01*
X157678597Y-99994297D01*
X157684629Y-99987819D01*
X158007431Y-99665015D01*
X158007450Y-99664994D01*
X158072646Y-99584963D01*
X158072655Y-99584950D01*
X158151337Y-99428282D01*
X158152800Y-99422111D01*
X158187413Y-99361417D01*
X158249345Y-99329072D01*
X158273458Y-99326705D01*
X158745851Y-99326705D01*
X158812890Y-99346390D01*
G37*
G04 #@! TD.AperFunction*
G04 #@! TA.AperFunction,Conductor*
G36*
X155058409Y-99087899D02*
G01*
X155156506Y-99111149D01*
X155215052Y-99125025D01*
X155215055Y-99125025D01*
X155390491Y-99125025D01*
X155390494Y-99125025D01*
X155394274Y-99124129D01*
X155396947Y-99124270D01*
X155397669Y-99124186D01*
X155397683Y-99124309D01*
X155464046Y-99127819D01*
X155520747Y-99168646D01*
X155546375Y-99233646D01*
X155543534Y-99273377D01*
X155542721Y-99276807D01*
X155542721Y-99452134D01*
X155557514Y-99514553D01*
X155553820Y-99584324D01*
X155512990Y-99641023D01*
X155447989Y-99666647D01*
X155381207Y-99653959D01*
X155336251Y-99631382D01*
X155336250Y-99631381D01*
X155336247Y-99631380D01*
X155165546Y-99590922D01*
X155165541Y-99590921D01*
X155165539Y-99590921D01*
X155033079Y-99590921D01*
X154966040Y-99571236D01*
X154920285Y-99518432D01*
X154909079Y-99466921D01*
X154909079Y-99334460D01*
X154890449Y-99255860D01*
X154894141Y-99186088D01*
X154923423Y-99139583D01*
X154942133Y-99120873D01*
X155003454Y-99087390D01*
X155058409Y-99087899D01*
G37*
G04 #@! TD.AperFunction*
G04 #@! TA.AperFunction,Conductor*
G36*
X177792724Y-95356237D02*
G01*
X177837071Y-95384738D01*
X178015262Y-95562929D01*
X178048747Y-95624252D01*
X178043763Y-95693944D01*
X178015262Y-95738291D01*
X177253068Y-96500485D01*
X177191745Y-96533970D01*
X177122053Y-96528986D01*
X177077706Y-96500485D01*
X176899515Y-96322294D01*
X176866030Y-96260971D01*
X176871014Y-96191279D01*
X176899515Y-96146932D01*
X177661709Y-95384738D01*
X177723032Y-95351253D01*
X177792724Y-95356237D01*
G37*
G04 #@! TD.AperFunction*
G04 #@! TA.AperFunction,Conductor*
G36*
X160933970Y-91749481D02*
G01*
X160978317Y-91777982D01*
X161156509Y-91956174D01*
X161189994Y-92017497D01*
X161185010Y-92087189D01*
X161156509Y-92131536D01*
X160854927Y-92433118D01*
X160793604Y-92466603D01*
X160723912Y-92461619D01*
X160679565Y-92433118D01*
X160501373Y-92254926D01*
X160467888Y-92193603D01*
X160472872Y-92123911D01*
X160501373Y-92079564D01*
X160802955Y-91777982D01*
X160864278Y-91744497D01*
X160933970Y-91749481D01*
G37*
G04 #@! TD.AperFunction*
G04 #@! TA.AperFunction,Conductor*
G36*
X178751600Y-91144668D02*
G01*
X178795947Y-91173169D01*
X178974138Y-91351360D01*
X179007623Y-91412683D01*
X179002639Y-91482375D01*
X178974138Y-91526722D01*
X178261334Y-92239525D01*
X178200011Y-92273010D01*
X178130319Y-92268026D01*
X178085972Y-92239525D01*
X177907781Y-92061334D01*
X177874296Y-92000011D01*
X177879280Y-91930319D01*
X177907781Y-91885972D01*
X178620585Y-91173169D01*
X178681908Y-91139684D01*
X178751600Y-91144668D01*
G37*
G04 #@! TD.AperFunction*
G04 #@! TA.AperFunction,Conductor*
G36*
X149821722Y-75353808D02*
G01*
X149867477Y-75406612D01*
X149877421Y-75475770D01*
X149869244Y-75505576D01*
X149792052Y-75691933D01*
X149792050Y-75691941D01*
X149753623Y-75885127D01*
X149753623Y-76033623D01*
X150453623Y-76033623D01*
X150453623Y-76533623D01*
X149753623Y-76533623D01*
X149753623Y-76682118D01*
X149792050Y-76875304D01*
X149792053Y-76875316D01*
X149867430Y-77057294D01*
X149867437Y-77057307D01*
X149976871Y-77221085D01*
X149976874Y-77221089D01*
X150116156Y-77360371D01*
X150116160Y-77360374D01*
X150279938Y-77469808D01*
X150279951Y-77469815D01*
X150461931Y-77545192D01*
X150503623Y-77553485D01*
X150503623Y-76750611D01*
X150513563Y-76767828D01*
X150569418Y-76823683D01*
X150637827Y-76863179D01*
X150714127Y-76883623D01*
X150793119Y-76883623D01*
X150869419Y-76863179D01*
X150937828Y-76823683D01*
X150993683Y-76767828D01*
X151003623Y-76750611D01*
X151003623Y-77553485D01*
X151045313Y-77545192D01*
X151045315Y-77545192D01*
X151161671Y-77496997D01*
X151231140Y-77489528D01*
X151293619Y-77520803D01*
X151329271Y-77580893D01*
X151333123Y-77611558D01*
X151333123Y-78885687D01*
X151313438Y-78952726D01*
X151260634Y-78998481D01*
X151191476Y-79008425D01*
X151161671Y-79000248D01*
X151045314Y-78952052D01*
X151045306Y-78952050D01*
X151003623Y-78943758D01*
X151003623Y-79746634D01*
X150993683Y-79729418D01*
X150937828Y-79673563D01*
X150869419Y-79634067D01*
X150793119Y-79613623D01*
X150714127Y-79613623D01*
X150637827Y-79634067D01*
X150569418Y-79673563D01*
X150513563Y-79729418D01*
X150503623Y-79746634D01*
X150503623Y-78943759D01*
X150503622Y-78943758D01*
X150461939Y-78952050D01*
X150461931Y-78952052D01*
X150279951Y-79027430D01*
X150279938Y-79027437D01*
X150116160Y-79136871D01*
X150116156Y-79136874D01*
X149976871Y-79276159D01*
X149864050Y-79445010D01*
X149862626Y-79444058D01*
X149819365Y-79488074D01*
X149751223Y-79503515D01*
X149685550Y-79479664D01*
X149683530Y-79477929D01*
X149683434Y-79478055D01*
X149676990Y-79473110D01*
X149676988Y-79473108D01*
X149611373Y-79435225D01*
X149545759Y-79397342D01*
X149472573Y-79377732D01*
X149399389Y-79358123D01*
X149247857Y-79358123D01*
X149101486Y-79397342D01*
X148970258Y-79473108D01*
X148970255Y-79473110D01*
X148863110Y-79580255D01*
X148863109Y-79580257D01*
X148787342Y-79711486D01*
X148748123Y-79857857D01*
X148748123Y-80009391D01*
X148748590Y-80012939D01*
X148748123Y-80015933D01*
X148748123Y-80017516D01*
X148747876Y-80017516D01*
X148737824Y-80081974D01*
X148691444Y-80134229D01*
X148625652Y-80153123D01*
X148535753Y-80153123D01*
X148535743Y-80153124D01*
X148471871Y-80159990D01*
X148445365Y-80159990D01*
X148441106Y-80159532D01*
X148381496Y-80153123D01*
X148381487Y-80153123D01*
X147985753Y-80153123D01*
X147985742Y-80153124D01*
X147946876Y-80157302D01*
X147920371Y-80157302D01*
X147881498Y-80153123D01*
X147881496Y-80153123D01*
X147803986Y-80153123D01*
X147736947Y-80133438D01*
X147696598Y-80091122D01*
X147664143Y-80034907D01*
X147411583Y-79782348D01*
X147411582Y-79782346D01*
X147282340Y-79653104D01*
X147282332Y-79653098D01*
X147156168Y-79580258D01*
X147156165Y-79580257D01*
X147145408Y-79574046D01*
X146992680Y-79533122D01*
X146834566Y-79533122D01*
X146826970Y-79533122D01*
X146826954Y-79533123D01*
X146540293Y-79533123D01*
X146540277Y-79533122D01*
X146532681Y-79533122D01*
X146374566Y-79533122D01*
X146298202Y-79553584D01*
X146221837Y-79574046D01*
X146221832Y-79574049D01*
X146084913Y-79653098D01*
X146084905Y-79653104D01*
X145703104Y-80034905D01*
X145703100Y-80034910D01*
X145670646Y-80091123D01*
X145620079Y-80139339D01*
X145563261Y-80153123D01*
X145485755Y-80153123D01*
X145485741Y-80153124D01*
X145446876Y-80157302D01*
X145420371Y-80157302D01*
X145381497Y-80153123D01*
X144985753Y-80153123D01*
X144985742Y-80153124D01*
X144946876Y-80157302D01*
X144920371Y-80157302D01*
X144881497Y-80153123D01*
X144485752Y-80153123D01*
X144485743Y-80153124D01*
X144421871Y-80159990D01*
X144395365Y-80159990D01*
X144391106Y-80159532D01*
X144331496Y-80153123D01*
X144331490Y-80153123D01*
X144241595Y-80153123D01*
X144174556Y-80133438D01*
X144128801Y-80080634D01*
X144119342Y-80017517D01*
X144119123Y-80017517D01*
X144119123Y-80016053D01*
X144118656Y-80012937D01*
X144119123Y-80009389D01*
X144119123Y-79857859D01*
X144119123Y-79857857D01*
X144079904Y-79711488D01*
X144004138Y-79580258D01*
X143896988Y-79473108D01*
X143831373Y-79435225D01*
X143765759Y-79397342D01*
X143692573Y-79377732D01*
X143619389Y-79358123D01*
X143467857Y-79358123D01*
X143321486Y-79397342D01*
X143190258Y-79473108D01*
X143183812Y-79478055D01*
X143181722Y-79475332D01*
X143133840Y-79501089D01*
X143064181Y-79495666D01*
X143008511Y-79453444D01*
X143002922Y-79444599D01*
X142890374Y-79276160D01*
X142890371Y-79276156D01*
X142751089Y-79136874D01*
X142751085Y-79136871D01*
X142587307Y-79027437D01*
X142587294Y-79027430D01*
X142405314Y-78952052D01*
X142405306Y-78952050D01*
X142363623Y-78943758D01*
X142363623Y-79746634D01*
X142353683Y-79729418D01*
X142297828Y-79673563D01*
X142229419Y-79634067D01*
X142153119Y-79613623D01*
X142074127Y-79613623D01*
X141997827Y-79634067D01*
X141929418Y-79673563D01*
X141873563Y-79729418D01*
X141863623Y-79746634D01*
X141863623Y-78943759D01*
X141863622Y-78943758D01*
X141821939Y-78952050D01*
X141821931Y-78952052D01*
X141705575Y-79000248D01*
X141636105Y-79007717D01*
X141573626Y-78976441D01*
X141537975Y-78916352D01*
X141534123Y-78885687D01*
X141534123Y-77611558D01*
X141553808Y-77544519D01*
X141606612Y-77498764D01*
X141675770Y-77488820D01*
X141705575Y-77496997D01*
X141821931Y-77545192D01*
X141863623Y-77553485D01*
X141863623Y-76750611D01*
X141873563Y-76767828D01*
X141929418Y-76823683D01*
X141997827Y-76863179D01*
X142074127Y-76883623D01*
X142153119Y-76883623D01*
X142229419Y-76863179D01*
X142297828Y-76823683D01*
X142353683Y-76767828D01*
X142363623Y-76750611D01*
X142363623Y-77553485D01*
X142405313Y-77545192D01*
X142405315Y-77545192D01*
X142587294Y-77469815D01*
X142587307Y-77469808D01*
X142751085Y-77360374D01*
X142751089Y-77360371D01*
X142890371Y-77221089D01*
X142890374Y-77221085D01*
X142999808Y-77057307D01*
X142999815Y-77057294D01*
X143075192Y-76875316D01*
X143075195Y-76875304D01*
X143113622Y-76682118D01*
X143113623Y-76682115D01*
X143113623Y-76533623D01*
X142413623Y-76533623D01*
X142413623Y-76033623D01*
X143113623Y-76033623D01*
X143113623Y-75885131D01*
X143113622Y-75885127D01*
X143075195Y-75691941D01*
X143075193Y-75691933D01*
X142998002Y-75505576D01*
X142990533Y-75436106D01*
X143021808Y-75373627D01*
X143081897Y-75337975D01*
X143112563Y-75334123D01*
X149754683Y-75334123D01*
X149821722Y-75353808D01*
G37*
G04 #@! TD.AperFunction*
M02*
