G04 #@! TF.GenerationSoftware,KiCad,Pcbnew,8.0.6*
G04 #@! TF.CreationDate,2025-01-18T20:04:13+00:00*
G04 #@! TF.ProjectId,macro-keyboard,6d616372-6f2d-46b6-9579-626f6172642e,rev?*
G04 #@! TF.SameCoordinates,Original*
G04 #@! TF.FileFunction,Soldermask,Bot*
G04 #@! TF.FilePolarity,Negative*
%FSLAX46Y46*%
G04 Gerber Fmt 4.6, Leading zero omitted, Abs format (unit mm)*
G04 Created by KiCad (PCBNEW 8.0.6) date 2025-01-18 20:04:13*
%MOMM*%
%LPD*%
G01*
G04 APERTURE LIST*
G04 Aperture macros list*
%AMRoundRect*
0 Rectangle with rounded corners*
0 $1 Rounding radius*
0 $2 $3 $4 $5 $6 $7 $8 $9 X,Y pos of 4 corners*
0 Add a 4 corners polygon primitive as box body*
4,1,4,$2,$3,$4,$5,$6,$7,$8,$9,$2,$3,0*
0 Add four circle primitives for the rounded corners*
1,1,$1+$1,$2,$3*
1,1,$1+$1,$4,$5*
1,1,$1+$1,$6,$7*
1,1,$1+$1,$8,$9*
0 Add four rect primitives between the rounded corners*
20,1,$1+$1,$2,$3,$4,$5,0*
20,1,$1+$1,$4,$5,$6,$7,0*
20,1,$1+$1,$6,$7,$8,$9,0*
20,1,$1+$1,$8,$9,$2,$3,0*%
%AMRotRect*
0 Rectangle, with rotation*
0 The origin of the aperture is its center*
0 $1 length*
0 $2 width*
0 $3 Rotation angle, in degrees counterclockwise*
0 Add horizontal line*
21,1,$1,$2,0,0,$3*%
G04 Aperture macros list end*
%ADD10C,2.200000*%
%ADD11C,1.750000*%
%ADD12C,4.000000*%
%ADD13C,2.500000*%
%ADD14RoundRect,0.225000X0.375000X-0.225000X0.375000X0.225000X-0.375000X0.225000X-0.375000X-0.225000X0*%
%ADD15RoundRect,0.250000X-0.350000X-0.450000X0.350000X-0.450000X0.350000X0.450000X-0.350000X0.450000X0*%
%ADD16RoundRect,0.250000X-0.574524X-0.097227X-0.097227X-0.574524X0.574524X0.097227X0.097227X0.574524X0*%
%ADD17RoundRect,0.250000X0.565685X0.070711X0.070711X0.565685X-0.565685X-0.070711X-0.070711X-0.565685X0*%
%ADD18RoundRect,0.250000X0.070711X-0.565685X0.565685X-0.070711X-0.070711X0.565685X-0.565685X0.070711X0*%
%ADD19RoundRect,0.250000X0.574524X0.097227X0.097227X0.574524X-0.574524X-0.097227X-0.097227X-0.574524X0*%
%ADD20RotRect,2.100000X1.800000X45.000000*%
%ADD21C,0.650000*%
%ADD22R,0.600000X2.450000*%
%ADD23R,0.300000X2.450000*%
%ADD24RotRect,1.500000X0.550000X315.000000*%
%ADD25RotRect,1.500000X0.550000X225.000000*%
%ADD26RoundRect,0.250000X0.350000X0.450000X-0.350000X0.450000X-0.350000X-0.450000X0.350000X-0.450000X0*%
%ADD27R,0.700000X1.000000*%
%ADD28R,0.700000X0.600000*%
%ADD29RoundRect,0.250001X0.624999X-0.462499X0.624999X0.462499X-0.624999X0.462499X-0.624999X-0.462499X0*%
%ADD30R,1.800000X1.100000*%
%ADD31RoundRect,0.250000X0.097227X-0.574524X0.574524X-0.097227X-0.097227X0.574524X-0.574524X0.097227X0*%
%ADD32C,0.600000*%
G04 APERTURE END LIST*
D10*
X146425000Y-108975000D03*
X165925000Y-83325000D03*
D11*
X112103623Y-108333623D03*
D12*
X117183623Y-108333623D03*
D11*
X122263623Y-108333623D03*
D13*
X113373623Y-105793623D03*
X119723623Y-103253623D03*
D11*
X131603623Y-108333623D03*
D12*
X136683623Y-108333623D03*
D11*
X141763623Y-108333623D03*
D13*
X132873623Y-105793623D03*
X139223623Y-103253623D03*
D11*
X170603623Y-88833623D03*
D12*
X175683623Y-88833623D03*
D11*
X180763623Y-88833623D03*
D13*
X171873623Y-86293623D03*
X178223623Y-83753623D03*
D11*
X112103623Y-88833623D03*
D12*
X117183623Y-88833623D03*
D11*
X122263623Y-88833623D03*
D13*
X113373623Y-86293623D03*
X119723623Y-83753623D03*
D10*
X126925000Y-83375000D03*
D11*
X151103623Y-108333623D03*
D12*
X156183623Y-108333623D03*
D11*
X161263623Y-108333623D03*
D13*
X152373623Y-105793623D03*
X158723623Y-103253623D03*
D11*
X170603623Y-108333623D03*
D12*
X175683623Y-108333623D03*
D11*
X180763623Y-108333623D03*
D13*
X171873623Y-105793623D03*
X178223623Y-103253623D03*
D11*
X151103623Y-88833623D03*
D12*
X156183623Y-88833623D03*
D11*
X161263623Y-88833623D03*
D13*
X152373623Y-86293623D03*
X158723623Y-83753623D03*
D11*
X131603623Y-88833623D03*
D12*
X136683623Y-88833623D03*
D11*
X141763623Y-88833623D03*
D13*
X132873623Y-86293623D03*
X139223623Y-83753623D03*
D14*
X142133623Y-114283623D03*
X142133623Y-110983623D03*
X181233623Y-86183623D03*
X181233623Y-82883623D03*
D15*
X142433623Y-86533623D03*
X144433623Y-86533623D03*
D16*
X172366377Y-90166377D03*
X173833623Y-91633623D03*
X155400000Y-97800000D03*
X156867246Y-99267246D03*
D17*
X155007107Y-100907107D03*
X153592893Y-99492893D03*
D14*
X131200000Y-94750000D03*
X131200000Y-91450000D03*
D18*
X166885786Y-108614214D03*
X168300000Y-107200000D03*
D19*
X164633623Y-107133623D03*
X163166377Y-105666377D03*
D14*
X161633623Y-86183623D03*
X161633623Y-82883623D03*
D20*
X176123044Y-94024264D03*
X178173654Y-91973654D03*
X179800000Y-93600000D03*
X177749390Y-95650610D03*
D21*
X143543623Y-79933623D03*
X149323623Y-79933623D03*
D22*
X143208623Y-81878623D03*
X143983623Y-81878623D03*
D23*
X144683623Y-81878623D03*
X145183623Y-81878623D03*
X145683623Y-81878623D03*
X146183623Y-81878623D03*
X146683623Y-81878623D03*
X147183623Y-81878623D03*
X147683623Y-81878623D03*
X148183623Y-81878623D03*
D22*
X148883623Y-81878623D03*
X149658623Y-81878623D03*
D14*
X161733623Y-114383623D03*
X161733623Y-111083623D03*
X122700000Y-94800000D03*
X122700000Y-91500000D03*
D24*
X159874687Y-96231541D03*
X160440373Y-95665856D03*
X161006058Y-95100171D03*
X161571743Y-94534485D03*
X162137429Y-93968800D03*
X162703114Y-93403114D03*
X163268800Y-92837429D03*
X163834485Y-92271743D03*
X164400171Y-91706058D03*
X164965856Y-91140373D03*
X165531541Y-90574687D03*
D25*
X167935705Y-90574687D03*
X168501390Y-91140373D03*
X169067075Y-91706058D03*
X169632761Y-92271743D03*
X170198446Y-92837429D03*
X170764132Y-93403114D03*
X171329817Y-93968800D03*
X171895503Y-94534485D03*
X172461188Y-95100171D03*
X173026873Y-95665856D03*
X173592559Y-96231541D03*
D24*
X173592559Y-98635705D03*
X173026873Y-99201390D03*
X172461188Y-99767075D03*
X171895503Y-100332761D03*
X171329817Y-100898446D03*
X170764132Y-101464132D03*
X170198446Y-102029817D03*
X169632761Y-102595503D03*
X169067075Y-103161188D03*
X168501390Y-103726873D03*
X167935705Y-104292559D03*
D25*
X165531541Y-104292559D03*
X164965856Y-103726873D03*
X164400171Y-103161188D03*
X163834485Y-102595503D03*
X163268800Y-102029817D03*
X162703114Y-101464132D03*
X162137429Y-100898446D03*
X161571743Y-100332761D03*
X161006058Y-99767075D03*
X160440373Y-99201390D03*
X159874687Y-98635705D03*
D26*
X157233623Y-92433623D03*
X155233623Y-92433623D03*
D27*
X147433623Y-89033623D03*
D28*
X147433623Y-90733623D03*
X145433623Y-90733623D03*
X145433623Y-88833623D03*
D14*
X181233623Y-114383623D03*
X181233623Y-111083623D03*
D29*
X143433623Y-94008623D03*
X143433623Y-91033623D03*
D14*
X122683623Y-114283623D03*
X122683623Y-110983623D03*
D30*
X143300000Y-101200000D03*
X149500000Y-101200000D03*
X143300000Y-97500000D03*
X149500000Y-97500000D03*
D16*
X181689421Y-95490641D03*
X183156667Y-96957887D03*
D26*
X149933623Y-86533623D03*
X147933623Y-86533623D03*
D31*
X175200000Y-100467246D03*
X176667246Y-99000000D03*
D26*
X157233623Y-94640730D03*
X155233623Y-94640730D03*
D16*
X179689421Y-97490641D03*
X181156667Y-98957887D03*
X159300000Y-90700000D03*
X160767246Y-92167246D03*
D32*
X151350000Y-94500000D03*
X149250000Y-92500000D03*
X151350000Y-92500000D03*
X149250000Y-94500000D03*
X164750000Y-93750000D03*
X176100000Y-101500000D03*
X154500000Y-96900000D03*
X163600000Y-108100000D03*
X168000000Y-88000000D03*
X159516377Y-86183623D03*
X134700000Y-94750000D03*
X149533623Y-84733623D03*
X143424123Y-84733623D03*
X155923298Y-101796800D03*
X167500000Y-92100000D03*
M02*
