M48
; DRILL file {KiCad 8.0.6} date 2025-01-18T20:04:22+0000
; FORMAT={-:-/ absolute / inch / decimal}
; #@! TF.CreationDate,2025-01-18T20:04:22+00:00
; #@! TF.GenerationSoftware,Kicad,Pcbnew,8.0.6
; #@! TF.FileFunction,Plated,1,2,PTH
FMAT,2
INCH
; #@! TA.AperFunction,Plated,PTH,ViaDrill
T1C0.0118
; #@! TA.AperFunction,Plated,PTH,ComponentDrill
T2C0.0236
; #@! TA.AperFunction,Plated,PTH,ComponentDrill
T3C0.0591
%
G90
G05
T1
X5.3031Y-3.7303
X5.6466Y-3.336
X5.876Y-3.6417
X5.876Y-3.7205
X5.8872Y-3.336
X5.9587Y-3.6417
X5.9587Y-3.7205
X6.0827Y-3.815
X6.1387Y-4.0077
X6.2802Y-3.3931
X6.4409Y-4.2559
X6.4862Y-3.6909
X6.5945Y-3.626
X6.6142Y-3.4646
X6.9331Y-3.9961
T3
X4.4635Y-3.3974
X4.4635Y-4.1651
X4.7135Y-3.2974
X4.7135Y-4.0651
X5.2312Y-3.3974
X5.2312Y-4.1651
X5.4812Y-3.2974
X5.4812Y-4.0651
X5.999Y-3.3974
X5.999Y-4.1651
X6.249Y-3.2974
X6.249Y-4.0651
X6.7667Y-3.3974
X6.7667Y-4.1651
X7.0167Y-3.2974
X7.0167Y-4.0651
T2
G00X5.595Y-2.9915
M15
G01X5.595Y-3.0151
M16
G05
G00X5.595Y-3.1462
M15
G01X5.595Y-3.1895
M16
G05
G00X5.9352Y-2.9915
M15
G01X5.9352Y-3.0151
M16
G05
G00X5.9352Y-3.1462
M15
G01X5.9352Y-3.1895
M16
G05
M30
