G04 #@! TF.GenerationSoftware,KiCad,Pcbnew,8.0.6*
G04 #@! TF.CreationDate,2025-01-18T20:04:13+00:00*
G04 #@! TF.ProjectId,macro-keyboard,6d616372-6f2d-46b6-9579-626f6172642e,rev?*
G04 #@! TF.SameCoordinates,Original*
G04 #@! TF.FileFunction,Legend,Bot*
G04 #@! TF.FilePolarity,Positive*
%FSLAX46Y46*%
G04 Gerber Fmt 4.6, Leading zero omitted, Abs format (unit mm)*
G04 Created by KiCad (PCBNEW 8.0.6) date 2025-01-18 20:04:13*
%MOMM*%
%LPD*%
G01*
G04 APERTURE LIST*
%ADD10C,0.150000*%
%ADD11C,0.120000*%
G04 APERTURE END LIST*
D10*
X144588442Y-111895528D02*
X143588442Y-111895528D01*
X143588442Y-111895528D02*
X143588442Y-112133623D01*
X143588442Y-112133623D02*
X143636061Y-112276480D01*
X143636061Y-112276480D02*
X143731299Y-112371718D01*
X143731299Y-112371718D02*
X143826537Y-112419337D01*
X143826537Y-112419337D02*
X144017013Y-112466956D01*
X144017013Y-112466956D02*
X144159870Y-112466956D01*
X144159870Y-112466956D02*
X144350346Y-112419337D01*
X144350346Y-112419337D02*
X144445584Y-112371718D01*
X144445584Y-112371718D02*
X144540823Y-112276480D01*
X144540823Y-112276480D02*
X144588442Y-112133623D01*
X144588442Y-112133623D02*
X144588442Y-111895528D01*
X143588442Y-113324099D02*
X143588442Y-113133623D01*
X143588442Y-113133623D02*
X143636061Y-113038385D01*
X143636061Y-113038385D02*
X143683680Y-112990766D01*
X143683680Y-112990766D02*
X143826537Y-112895528D01*
X143826537Y-112895528D02*
X144017013Y-112847909D01*
X144017013Y-112847909D02*
X144397965Y-112847909D01*
X144397965Y-112847909D02*
X144493203Y-112895528D01*
X144493203Y-112895528D02*
X144540823Y-112943147D01*
X144540823Y-112943147D02*
X144588442Y-113038385D01*
X144588442Y-113038385D02*
X144588442Y-113228861D01*
X144588442Y-113228861D02*
X144540823Y-113324099D01*
X144540823Y-113324099D02*
X144493203Y-113371718D01*
X144493203Y-113371718D02*
X144397965Y-113419337D01*
X144397965Y-113419337D02*
X144159870Y-113419337D01*
X144159870Y-113419337D02*
X144064632Y-113371718D01*
X144064632Y-113371718D02*
X144017013Y-113324099D01*
X144017013Y-113324099D02*
X143969394Y-113228861D01*
X143969394Y-113228861D02*
X143969394Y-113038385D01*
X143969394Y-113038385D02*
X144017013Y-112943147D01*
X144017013Y-112943147D02*
X144064632Y-112895528D01*
X144064632Y-112895528D02*
X144159870Y-112847909D01*
X183688442Y-83795528D02*
X182688442Y-83795528D01*
X182688442Y-83795528D02*
X182688442Y-84033623D01*
X182688442Y-84033623D02*
X182736061Y-84176480D01*
X182736061Y-84176480D02*
X182831299Y-84271718D01*
X182831299Y-84271718D02*
X182926537Y-84319337D01*
X182926537Y-84319337D02*
X183117013Y-84366956D01*
X183117013Y-84366956D02*
X183259870Y-84366956D01*
X183259870Y-84366956D02*
X183450346Y-84319337D01*
X183450346Y-84319337D02*
X183545584Y-84271718D01*
X183545584Y-84271718D02*
X183640823Y-84176480D01*
X183640823Y-84176480D02*
X183688442Y-84033623D01*
X183688442Y-84033623D02*
X183688442Y-83795528D01*
X183021775Y-85224099D02*
X183688442Y-85224099D01*
X182640823Y-84986004D02*
X183355108Y-84747909D01*
X183355108Y-84747909D02*
X183355108Y-85366956D01*
X145166666Y-84954819D02*
X145499999Y-84478628D01*
X145738094Y-84954819D02*
X145738094Y-83954819D01*
X145738094Y-83954819D02*
X145357142Y-83954819D01*
X145357142Y-83954819D02*
X145261904Y-84002438D01*
X145261904Y-84002438D02*
X145214285Y-84050057D01*
X145214285Y-84050057D02*
X145166666Y-84145295D01*
X145166666Y-84145295D02*
X145166666Y-84288152D01*
X145166666Y-84288152D02*
X145214285Y-84383390D01*
X145214285Y-84383390D02*
X145261904Y-84431009D01*
X145261904Y-84431009D02*
X145357142Y-84478628D01*
X145357142Y-84478628D02*
X145738094Y-84478628D01*
X144785713Y-84050057D02*
X144738094Y-84002438D01*
X144738094Y-84002438D02*
X144642856Y-83954819D01*
X144642856Y-83954819D02*
X144404761Y-83954819D01*
X144404761Y-83954819D02*
X144309523Y-84002438D01*
X144309523Y-84002438D02*
X144261904Y-84050057D01*
X144261904Y-84050057D02*
X144214285Y-84145295D01*
X144214285Y-84145295D02*
X144214285Y-84240533D01*
X144214285Y-84240533D02*
X144261904Y-84383390D01*
X144261904Y-84383390D02*
X144833332Y-84954819D01*
X144833332Y-84954819D02*
X144214285Y-84954819D01*
X171775649Y-92622112D02*
X171775649Y-92689456D01*
X171775649Y-92689456D02*
X171842993Y-92824143D01*
X171842993Y-92824143D02*
X171910336Y-92891486D01*
X171910336Y-92891486D02*
X172045023Y-92958830D01*
X172045023Y-92958830D02*
X172179710Y-92958830D01*
X172179710Y-92958830D02*
X172280725Y-92925158D01*
X172280725Y-92925158D02*
X172449084Y-92824143D01*
X172449084Y-92824143D02*
X172550099Y-92723128D01*
X172550099Y-92723128D02*
X172651115Y-92554769D01*
X172651115Y-92554769D02*
X172684786Y-92453754D01*
X172684786Y-92453754D02*
X172684786Y-92319067D01*
X172684786Y-92319067D02*
X172617443Y-92184380D01*
X172617443Y-92184380D02*
X172550099Y-92117036D01*
X172550099Y-92117036D02*
X172415412Y-92049693D01*
X172415412Y-92049693D02*
X172348069Y-92049693D01*
X171573619Y-91611960D02*
X171102214Y-92083364D01*
X172011351Y-91510945D02*
X171674634Y-92184380D01*
X171674634Y-92184380D02*
X171236901Y-91746647D01*
X158113588Y-101122112D02*
X158113588Y-101189456D01*
X158113588Y-101189456D02*
X158180932Y-101324143D01*
X158180932Y-101324143D02*
X158248275Y-101391486D01*
X158248275Y-101391486D02*
X158382962Y-101458830D01*
X158382962Y-101458830D02*
X158517649Y-101458830D01*
X158517649Y-101458830D02*
X158618664Y-101425158D01*
X158618664Y-101425158D02*
X158787023Y-101324143D01*
X158787023Y-101324143D02*
X158888038Y-101223128D01*
X158888038Y-101223128D02*
X158989054Y-101054769D01*
X158989054Y-101054769D02*
X159022725Y-100953754D01*
X159022725Y-100953754D02*
X159022725Y-100819067D01*
X159022725Y-100819067D02*
X158955382Y-100684380D01*
X158955382Y-100684380D02*
X158888038Y-100617036D01*
X158888038Y-100617036D02*
X158753351Y-100549693D01*
X158753351Y-100549693D02*
X158686008Y-100549693D01*
X158517649Y-100246647D02*
X158046245Y-99775242D01*
X158046245Y-99775242D02*
X157642184Y-100785395D01*
X151796244Y-98439456D02*
X152368663Y-98338441D01*
X152200305Y-98843517D02*
X152907411Y-98136410D01*
X152907411Y-98136410D02*
X152638037Y-97867036D01*
X152638037Y-97867036D02*
X152537022Y-97833364D01*
X152537022Y-97833364D02*
X152469679Y-97833364D01*
X152469679Y-97833364D02*
X152368663Y-97867036D01*
X152368663Y-97867036D02*
X152267648Y-97968051D01*
X152267648Y-97968051D02*
X152233976Y-98069067D01*
X152233976Y-98069067D02*
X152233976Y-98136410D01*
X152233976Y-98136410D02*
X152267648Y-98237425D01*
X152267648Y-98237425D02*
X152537022Y-98506799D01*
X151863587Y-97092586D02*
X152200305Y-97429303D01*
X152200305Y-97429303D02*
X151897259Y-97799693D01*
X151897259Y-97799693D02*
X151897259Y-97732349D01*
X151897259Y-97732349D02*
X151863587Y-97631334D01*
X151863587Y-97631334D02*
X151695228Y-97462975D01*
X151695228Y-97462975D02*
X151594213Y-97429303D01*
X151594213Y-97429303D02*
X151526870Y-97429303D01*
X151526870Y-97429303D02*
X151425854Y-97462975D01*
X151425854Y-97462975D02*
X151257496Y-97631334D01*
X151257496Y-97631334D02*
X151223824Y-97732349D01*
X151223824Y-97732349D02*
X151223824Y-97799693D01*
X151223824Y-97799693D02*
X151257496Y-97900708D01*
X151257496Y-97900708D02*
X151425854Y-98069067D01*
X151425854Y-98069067D02*
X151526870Y-98102738D01*
X151526870Y-98102738D02*
X151594213Y-98102738D01*
X133654819Y-92361905D02*
X132654819Y-92361905D01*
X132654819Y-92361905D02*
X132654819Y-92600000D01*
X132654819Y-92600000D02*
X132702438Y-92742857D01*
X132702438Y-92742857D02*
X132797676Y-92838095D01*
X132797676Y-92838095D02*
X132892914Y-92885714D01*
X132892914Y-92885714D02*
X133083390Y-92933333D01*
X133083390Y-92933333D02*
X133226247Y-92933333D01*
X133226247Y-92933333D02*
X133416723Y-92885714D01*
X133416723Y-92885714D02*
X133511961Y-92838095D01*
X133511961Y-92838095D02*
X133607200Y-92742857D01*
X133607200Y-92742857D02*
X133654819Y-92600000D01*
X133654819Y-92600000D02*
X133654819Y-92361905D01*
X132750057Y-93314286D02*
X132702438Y-93361905D01*
X132702438Y-93361905D02*
X132654819Y-93457143D01*
X132654819Y-93457143D02*
X132654819Y-93695238D01*
X132654819Y-93695238D02*
X132702438Y-93790476D01*
X132702438Y-93790476D02*
X132750057Y-93838095D01*
X132750057Y-93838095D02*
X132845295Y-93885714D01*
X132845295Y-93885714D02*
X132940533Y-93885714D01*
X132940533Y-93885714D02*
X133083390Y-93838095D01*
X133083390Y-93838095D02*
X133654819Y-93266667D01*
X133654819Y-93266667D02*
X133654819Y-93885714D01*
X169189456Y-109953754D02*
X169088441Y-109381335D01*
X169593517Y-109549693D02*
X168886410Y-108842587D01*
X168886410Y-108842587D02*
X168617036Y-109111961D01*
X168617036Y-109111961D02*
X168583364Y-109212976D01*
X168583364Y-109212976D02*
X168583364Y-109280319D01*
X168583364Y-109280319D02*
X168617036Y-109381335D01*
X168617036Y-109381335D02*
X168718051Y-109482350D01*
X168718051Y-109482350D02*
X168819067Y-109516022D01*
X168819067Y-109516022D02*
X168886410Y-109516022D01*
X168886410Y-109516022D02*
X168987425Y-109482350D01*
X168987425Y-109482350D02*
X169256799Y-109212976D01*
X167876258Y-109852739D02*
X168010945Y-109718052D01*
X168010945Y-109718052D02*
X168111960Y-109684380D01*
X168111960Y-109684380D02*
X168179303Y-109684380D01*
X168179303Y-109684380D02*
X168347662Y-109718052D01*
X168347662Y-109718052D02*
X168516021Y-109819067D01*
X168516021Y-109819067D02*
X168785395Y-110088441D01*
X168785395Y-110088441D02*
X168819067Y-110189457D01*
X168819067Y-110189457D02*
X168819067Y-110256800D01*
X168819067Y-110256800D02*
X168785395Y-110357815D01*
X168785395Y-110357815D02*
X168650708Y-110492502D01*
X168650708Y-110492502D02*
X168549693Y-110526174D01*
X168549693Y-110526174D02*
X168482349Y-110526174D01*
X168482349Y-110526174D02*
X168381334Y-110492502D01*
X168381334Y-110492502D02*
X168212975Y-110324144D01*
X168212975Y-110324144D02*
X168179303Y-110223128D01*
X168179303Y-110223128D02*
X168179303Y-110155785D01*
X168179303Y-110155785D02*
X168212975Y-110054770D01*
X168212975Y-110054770D02*
X168347662Y-109920083D01*
X168347662Y-109920083D02*
X168448677Y-109886411D01*
X168448677Y-109886411D02*
X168516021Y-109886411D01*
X168516021Y-109886411D02*
X168617036Y-109920083D01*
X161613588Y-104622112D02*
X161613588Y-104689456D01*
X161613588Y-104689456D02*
X161680932Y-104824143D01*
X161680932Y-104824143D02*
X161748275Y-104891486D01*
X161748275Y-104891486D02*
X161882962Y-104958830D01*
X161882962Y-104958830D02*
X162017649Y-104958830D01*
X162017649Y-104958830D02*
X162118664Y-104925158D01*
X162118664Y-104925158D02*
X162287023Y-104824143D01*
X162287023Y-104824143D02*
X162388038Y-104723128D01*
X162388038Y-104723128D02*
X162489054Y-104554769D01*
X162489054Y-104554769D02*
X162522725Y-104453754D01*
X162522725Y-104453754D02*
X162522725Y-104319067D01*
X162522725Y-104319067D02*
X162455382Y-104184380D01*
X162455382Y-104184380D02*
X162388038Y-104117036D01*
X162388038Y-104117036D02*
X162253351Y-104049693D01*
X162253351Y-104049693D02*
X162186008Y-104049693D01*
X161613588Y-103342586D02*
X161950306Y-103679303D01*
X161950306Y-103679303D02*
X161647260Y-104049693D01*
X161647260Y-104049693D02*
X161647260Y-103982349D01*
X161647260Y-103982349D02*
X161613588Y-103881334D01*
X161613588Y-103881334D02*
X161445229Y-103712975D01*
X161445229Y-103712975D02*
X161344214Y-103679303D01*
X161344214Y-103679303D02*
X161276871Y-103679303D01*
X161276871Y-103679303D02*
X161175855Y-103712975D01*
X161175855Y-103712975D02*
X161007497Y-103881334D01*
X161007497Y-103881334D02*
X160973825Y-103982349D01*
X160973825Y-103982349D02*
X160973825Y-104049693D01*
X160973825Y-104049693D02*
X161007497Y-104150708D01*
X161007497Y-104150708D02*
X161175855Y-104319067D01*
X161175855Y-104319067D02*
X161276871Y-104352738D01*
X161276871Y-104352738D02*
X161344214Y-104352738D01*
X164088442Y-83795528D02*
X163088442Y-83795528D01*
X163088442Y-83795528D02*
X163088442Y-84033623D01*
X163088442Y-84033623D02*
X163136061Y-84176480D01*
X163136061Y-84176480D02*
X163231299Y-84271718D01*
X163231299Y-84271718D02*
X163326537Y-84319337D01*
X163326537Y-84319337D02*
X163517013Y-84366956D01*
X163517013Y-84366956D02*
X163659870Y-84366956D01*
X163659870Y-84366956D02*
X163850346Y-84319337D01*
X163850346Y-84319337D02*
X163945584Y-84271718D01*
X163945584Y-84271718D02*
X164040823Y-84176480D01*
X164040823Y-84176480D02*
X164088442Y-84033623D01*
X164088442Y-84033623D02*
X164088442Y-83795528D01*
X163088442Y-84700290D02*
X163088442Y-85319337D01*
X163088442Y-85319337D02*
X163469394Y-84986004D01*
X163469394Y-84986004D02*
X163469394Y-85128861D01*
X163469394Y-85128861D02*
X163517013Y-85224099D01*
X163517013Y-85224099D02*
X163564632Y-85271718D01*
X163564632Y-85271718D02*
X163659870Y-85319337D01*
X163659870Y-85319337D02*
X163897965Y-85319337D01*
X163897965Y-85319337D02*
X163993203Y-85271718D01*
X163993203Y-85271718D02*
X164040823Y-85224099D01*
X164040823Y-85224099D02*
X164088442Y-85128861D01*
X164088442Y-85128861D02*
X164088442Y-84843147D01*
X164088442Y-84843147D02*
X164040823Y-84747909D01*
X164040823Y-84747909D02*
X163993203Y-84700290D01*
X181071605Y-90648170D02*
X181408323Y-90984888D01*
X180936918Y-90042079D02*
X181071605Y-90648170D01*
X181071605Y-90648170D02*
X180465514Y-90513483D01*
X180566529Y-91826681D02*
X180970590Y-91422620D01*
X180768559Y-91624651D02*
X180061453Y-90917544D01*
X180061453Y-90917544D02*
X180229811Y-90951216D01*
X180229811Y-90951216D02*
X180364498Y-90951216D01*
X180364498Y-90951216D02*
X180465514Y-90917544D01*
X164188442Y-111995528D02*
X163188442Y-111995528D01*
X163188442Y-111995528D02*
X163188442Y-112233623D01*
X163188442Y-112233623D02*
X163236061Y-112376480D01*
X163236061Y-112376480D02*
X163331299Y-112471718D01*
X163331299Y-112471718D02*
X163426537Y-112519337D01*
X163426537Y-112519337D02*
X163617013Y-112566956D01*
X163617013Y-112566956D02*
X163759870Y-112566956D01*
X163759870Y-112566956D02*
X163950346Y-112519337D01*
X163950346Y-112519337D02*
X164045584Y-112471718D01*
X164045584Y-112471718D02*
X164140823Y-112376480D01*
X164140823Y-112376480D02*
X164188442Y-112233623D01*
X164188442Y-112233623D02*
X164188442Y-111995528D01*
X163188442Y-112900290D02*
X163188442Y-113566956D01*
X163188442Y-113566956D02*
X164188442Y-113138385D01*
X125154819Y-92411905D02*
X124154819Y-92411905D01*
X124154819Y-92411905D02*
X124154819Y-92650000D01*
X124154819Y-92650000D02*
X124202438Y-92792857D01*
X124202438Y-92792857D02*
X124297676Y-92888095D01*
X124297676Y-92888095D02*
X124392914Y-92935714D01*
X124392914Y-92935714D02*
X124583390Y-92983333D01*
X124583390Y-92983333D02*
X124726247Y-92983333D01*
X124726247Y-92983333D02*
X124916723Y-92935714D01*
X124916723Y-92935714D02*
X125011961Y-92888095D01*
X125011961Y-92888095D02*
X125107200Y-92792857D01*
X125107200Y-92792857D02*
X125154819Y-92650000D01*
X125154819Y-92650000D02*
X125154819Y-92411905D01*
X125154819Y-93935714D02*
X125154819Y-93364286D01*
X125154819Y-93650000D02*
X124154819Y-93650000D01*
X124154819Y-93650000D02*
X124297676Y-93554762D01*
X124297676Y-93554762D02*
X124392914Y-93459524D01*
X124392914Y-93459524D02*
X124440533Y-93364286D01*
X164924250Y-100653246D02*
X164351830Y-101225666D01*
X164351830Y-101225666D02*
X164250815Y-101259338D01*
X164250815Y-101259338D02*
X164183471Y-101259338D01*
X164183471Y-101259338D02*
X164082456Y-101225666D01*
X164082456Y-101225666D02*
X163947769Y-101090979D01*
X163947769Y-101090979D02*
X163914097Y-100989964D01*
X163914097Y-100989964D02*
X163914097Y-100922620D01*
X163914097Y-100922620D02*
X163947769Y-100821605D01*
X163947769Y-100821605D02*
X164520189Y-100249185D01*
X164149799Y-100013483D02*
X164149799Y-99946140D01*
X164149799Y-99946140D02*
X164116128Y-99845124D01*
X164116128Y-99845124D02*
X163947769Y-99676766D01*
X163947769Y-99676766D02*
X163846754Y-99643094D01*
X163846754Y-99643094D02*
X163779410Y-99643094D01*
X163779410Y-99643094D02*
X163678395Y-99676766D01*
X163678395Y-99676766D02*
X163611051Y-99744109D01*
X163611051Y-99744109D02*
X163543708Y-99878796D01*
X163543708Y-99878796D02*
X163543708Y-100686918D01*
X163543708Y-100686918D02*
X163105975Y-100249185D01*
X153416666Y-91704819D02*
X153749999Y-91228628D01*
X153988094Y-91704819D02*
X153988094Y-90704819D01*
X153988094Y-90704819D02*
X153607142Y-90704819D01*
X153607142Y-90704819D02*
X153511904Y-90752438D01*
X153511904Y-90752438D02*
X153464285Y-90800057D01*
X153464285Y-90800057D02*
X153416666Y-90895295D01*
X153416666Y-90895295D02*
X153416666Y-91038152D01*
X153416666Y-91038152D02*
X153464285Y-91133390D01*
X153464285Y-91133390D02*
X153511904Y-91181009D01*
X153511904Y-91181009D02*
X153607142Y-91228628D01*
X153607142Y-91228628D02*
X153988094Y-91228628D01*
X152559523Y-91038152D02*
X152559523Y-91704819D01*
X152797618Y-90657200D02*
X153035713Y-91371485D01*
X153035713Y-91371485D02*
X152416666Y-91371485D01*
X149761904Y-89204819D02*
X149761904Y-90014342D01*
X149761904Y-90014342D02*
X149714285Y-90109580D01*
X149714285Y-90109580D02*
X149666666Y-90157200D01*
X149666666Y-90157200D02*
X149571428Y-90204819D01*
X149571428Y-90204819D02*
X149380952Y-90204819D01*
X149380952Y-90204819D02*
X149285714Y-90157200D01*
X149285714Y-90157200D02*
X149238095Y-90109580D01*
X149238095Y-90109580D02*
X149190476Y-90014342D01*
X149190476Y-90014342D02*
X149190476Y-89204819D01*
X148190476Y-90204819D02*
X148761904Y-90204819D01*
X148476190Y-90204819D02*
X148476190Y-89204819D01*
X148476190Y-89204819D02*
X148571428Y-89347676D01*
X148571428Y-89347676D02*
X148666666Y-89442914D01*
X148666666Y-89442914D02*
X148761904Y-89490533D01*
X183688442Y-111995528D02*
X182688442Y-111995528D01*
X182688442Y-111995528D02*
X182688442Y-112233623D01*
X182688442Y-112233623D02*
X182736061Y-112376480D01*
X182736061Y-112376480D02*
X182831299Y-112471718D01*
X182831299Y-112471718D02*
X182926537Y-112519337D01*
X182926537Y-112519337D02*
X183117013Y-112566956D01*
X183117013Y-112566956D02*
X183259870Y-112566956D01*
X183259870Y-112566956D02*
X183450346Y-112519337D01*
X183450346Y-112519337D02*
X183545584Y-112471718D01*
X183545584Y-112471718D02*
X183640823Y-112376480D01*
X183640823Y-112376480D02*
X183688442Y-112233623D01*
X183688442Y-112233623D02*
X183688442Y-111995528D01*
X183117013Y-113138385D02*
X183069394Y-113043147D01*
X183069394Y-113043147D02*
X183021775Y-112995528D01*
X183021775Y-112995528D02*
X182926537Y-112947909D01*
X182926537Y-112947909D02*
X182878918Y-112947909D01*
X182878918Y-112947909D02*
X182783680Y-112995528D01*
X182783680Y-112995528D02*
X182736061Y-113043147D01*
X182736061Y-113043147D02*
X182688442Y-113138385D01*
X182688442Y-113138385D02*
X182688442Y-113328861D01*
X182688442Y-113328861D02*
X182736061Y-113424099D01*
X182736061Y-113424099D02*
X182783680Y-113471718D01*
X182783680Y-113471718D02*
X182878918Y-113519337D01*
X182878918Y-113519337D02*
X182926537Y-113519337D01*
X182926537Y-113519337D02*
X183021775Y-113471718D01*
X183021775Y-113471718D02*
X183069394Y-113424099D01*
X183069394Y-113424099D02*
X183117013Y-113328861D01*
X183117013Y-113328861D02*
X183117013Y-113138385D01*
X183117013Y-113138385D02*
X183164632Y-113043147D01*
X183164632Y-113043147D02*
X183212251Y-112995528D01*
X183212251Y-112995528D02*
X183307489Y-112947909D01*
X183307489Y-112947909D02*
X183497965Y-112947909D01*
X183497965Y-112947909D02*
X183593203Y-112995528D01*
X183593203Y-112995528D02*
X183640823Y-113043147D01*
X183640823Y-113043147D02*
X183688442Y-113138385D01*
X183688442Y-113138385D02*
X183688442Y-113328861D01*
X183688442Y-113328861D02*
X183640823Y-113424099D01*
X183640823Y-113424099D02*
X183593203Y-113471718D01*
X183593203Y-113471718D02*
X183497965Y-113519337D01*
X183497965Y-113519337D02*
X183307489Y-113519337D01*
X183307489Y-113519337D02*
X183212251Y-113471718D01*
X183212251Y-113471718D02*
X183164632Y-113424099D01*
X183164632Y-113424099D02*
X183117013Y-113328861D01*
X141181009Y-92166666D02*
X141181009Y-91833333D01*
X141704819Y-91833333D02*
X140704819Y-91833333D01*
X140704819Y-91833333D02*
X140704819Y-92309523D01*
X141704819Y-93214285D02*
X141704819Y-92642857D01*
X141704819Y-92928571D02*
X140704819Y-92928571D01*
X140704819Y-92928571D02*
X140847676Y-92833333D01*
X140847676Y-92833333D02*
X140942914Y-92738095D01*
X140942914Y-92738095D02*
X140990533Y-92642857D01*
X125138442Y-111895528D02*
X124138442Y-111895528D01*
X124138442Y-111895528D02*
X124138442Y-112133623D01*
X124138442Y-112133623D02*
X124186061Y-112276480D01*
X124186061Y-112276480D02*
X124281299Y-112371718D01*
X124281299Y-112371718D02*
X124376537Y-112419337D01*
X124376537Y-112419337D02*
X124567013Y-112466956D01*
X124567013Y-112466956D02*
X124709870Y-112466956D01*
X124709870Y-112466956D02*
X124900346Y-112419337D01*
X124900346Y-112419337D02*
X124995584Y-112371718D01*
X124995584Y-112371718D02*
X125090823Y-112276480D01*
X125090823Y-112276480D02*
X125138442Y-112133623D01*
X125138442Y-112133623D02*
X125138442Y-111895528D01*
X124138442Y-113371718D02*
X124138442Y-112895528D01*
X124138442Y-112895528D02*
X124614632Y-112847909D01*
X124614632Y-112847909D02*
X124567013Y-112895528D01*
X124567013Y-112895528D02*
X124519394Y-112990766D01*
X124519394Y-112990766D02*
X124519394Y-113228861D01*
X124519394Y-113228861D02*
X124567013Y-113324099D01*
X124567013Y-113324099D02*
X124614632Y-113371718D01*
X124614632Y-113371718D02*
X124709870Y-113419337D01*
X124709870Y-113419337D02*
X124947965Y-113419337D01*
X124947965Y-113419337D02*
X125043203Y-113371718D01*
X125043203Y-113371718D02*
X125090823Y-113324099D01*
X125090823Y-113324099D02*
X125138442Y-113228861D01*
X125138442Y-113228861D02*
X125138442Y-112990766D01*
X125138442Y-112990766D02*
X125090823Y-112895528D01*
X125090823Y-112895528D02*
X125043203Y-112847909D01*
X183363587Y-94622112D02*
X183363587Y-94689456D01*
X183363587Y-94689456D02*
X183430931Y-94824143D01*
X183430931Y-94824143D02*
X183498274Y-94891486D01*
X183498274Y-94891486D02*
X183632961Y-94958830D01*
X183632961Y-94958830D02*
X183767648Y-94958830D01*
X183767648Y-94958830D02*
X183868663Y-94925158D01*
X183868663Y-94925158D02*
X184037022Y-94824143D01*
X184037022Y-94824143D02*
X184138037Y-94723128D01*
X184138037Y-94723128D02*
X184239053Y-94554769D01*
X184239053Y-94554769D02*
X184272724Y-94453754D01*
X184272724Y-94453754D02*
X184272724Y-94319067D01*
X184272724Y-94319067D02*
X184205381Y-94184380D01*
X184205381Y-94184380D02*
X184138037Y-94117036D01*
X184138037Y-94117036D02*
X184003350Y-94049693D01*
X184003350Y-94049693D02*
X183936007Y-94049693D01*
X183666633Y-93780319D02*
X183666633Y-93712975D01*
X183666633Y-93712975D02*
X183632961Y-93611960D01*
X183632961Y-93611960D02*
X183464602Y-93443601D01*
X183464602Y-93443601D02*
X183363587Y-93409929D01*
X183363587Y-93409929D02*
X183296244Y-93409929D01*
X183296244Y-93409929D02*
X183195228Y-93443601D01*
X183195228Y-93443601D02*
X183127885Y-93510945D01*
X183127885Y-93510945D02*
X183060541Y-93645632D01*
X183060541Y-93645632D02*
X183060541Y-94453754D01*
X183060541Y-94453754D02*
X182622809Y-94016021D01*
X147916666Y-84954819D02*
X148249999Y-84478628D01*
X148488094Y-84954819D02*
X148488094Y-83954819D01*
X148488094Y-83954819D02*
X148107142Y-83954819D01*
X148107142Y-83954819D02*
X148011904Y-84002438D01*
X148011904Y-84002438D02*
X147964285Y-84050057D01*
X147964285Y-84050057D02*
X147916666Y-84145295D01*
X147916666Y-84145295D02*
X147916666Y-84288152D01*
X147916666Y-84288152D02*
X147964285Y-84383390D01*
X147964285Y-84383390D02*
X148011904Y-84431009D01*
X148011904Y-84431009D02*
X148107142Y-84478628D01*
X148107142Y-84478628D02*
X148488094Y-84478628D01*
X146964285Y-84954819D02*
X147535713Y-84954819D01*
X147249999Y-84954819D02*
X147249999Y-83954819D01*
X147249999Y-83954819D02*
X147345237Y-84097676D01*
X147345237Y-84097676D02*
X147440475Y-84192914D01*
X147440475Y-84192914D02*
X147535713Y-84240533D01*
X174122112Y-102136411D02*
X174189456Y-102136411D01*
X174189456Y-102136411D02*
X174324143Y-102069067D01*
X174324143Y-102069067D02*
X174391486Y-102001724D01*
X174391486Y-102001724D02*
X174458830Y-101867037D01*
X174458830Y-101867037D02*
X174458830Y-101732350D01*
X174458830Y-101732350D02*
X174425158Y-101631335D01*
X174425158Y-101631335D02*
X174324143Y-101462976D01*
X174324143Y-101462976D02*
X174223128Y-101361961D01*
X174223128Y-101361961D02*
X174054769Y-101260945D01*
X174054769Y-101260945D02*
X173953754Y-101227274D01*
X173953754Y-101227274D02*
X173819067Y-101227274D01*
X173819067Y-101227274D02*
X173684380Y-101294617D01*
X173684380Y-101294617D02*
X173617036Y-101361961D01*
X173617036Y-101361961D02*
X173549693Y-101496648D01*
X173549693Y-101496648D02*
X173549693Y-101563991D01*
X173246647Y-101732350D02*
X172808914Y-102170083D01*
X172808914Y-102170083D02*
X173313990Y-102203754D01*
X173313990Y-102203754D02*
X173212975Y-102304770D01*
X173212975Y-102304770D02*
X173179303Y-102405785D01*
X173179303Y-102405785D02*
X173179303Y-102473128D01*
X173179303Y-102473128D02*
X173212975Y-102574144D01*
X173212975Y-102574144D02*
X173381334Y-102742502D01*
X173381334Y-102742502D02*
X173482349Y-102776174D01*
X173482349Y-102776174D02*
X173549693Y-102776174D01*
X173549693Y-102776174D02*
X173650708Y-102742502D01*
X173650708Y-102742502D02*
X173852738Y-102540472D01*
X173852738Y-102540472D02*
X173886410Y-102439457D01*
X173886410Y-102439457D02*
X173886410Y-102372113D01*
X153416666Y-96204819D02*
X153749999Y-95728628D01*
X153988094Y-96204819D02*
X153988094Y-95204819D01*
X153988094Y-95204819D02*
X153607142Y-95204819D01*
X153607142Y-95204819D02*
X153511904Y-95252438D01*
X153511904Y-95252438D02*
X153464285Y-95300057D01*
X153464285Y-95300057D02*
X153416666Y-95395295D01*
X153416666Y-95395295D02*
X153416666Y-95538152D01*
X153416666Y-95538152D02*
X153464285Y-95633390D01*
X153464285Y-95633390D02*
X153511904Y-95681009D01*
X153511904Y-95681009D02*
X153607142Y-95728628D01*
X153607142Y-95728628D02*
X153988094Y-95728628D01*
X153083332Y-95204819D02*
X152464285Y-95204819D01*
X152464285Y-95204819D02*
X152797618Y-95585771D01*
X152797618Y-95585771D02*
X152654761Y-95585771D01*
X152654761Y-95585771D02*
X152559523Y-95633390D01*
X152559523Y-95633390D02*
X152511904Y-95681009D01*
X152511904Y-95681009D02*
X152464285Y-95776247D01*
X152464285Y-95776247D02*
X152464285Y-96014342D01*
X152464285Y-96014342D02*
X152511904Y-96109580D01*
X152511904Y-96109580D02*
X152559523Y-96157200D01*
X152559523Y-96157200D02*
X152654761Y-96204819D01*
X152654761Y-96204819D02*
X152940475Y-96204819D01*
X152940475Y-96204819D02*
X153035713Y-96157200D01*
X153035713Y-96157200D02*
X153083332Y-96109580D01*
X179098693Y-100372112D02*
X179098693Y-100439456D01*
X179098693Y-100439456D02*
X179166037Y-100574143D01*
X179166037Y-100574143D02*
X179233380Y-100641486D01*
X179233380Y-100641486D02*
X179368067Y-100708830D01*
X179368067Y-100708830D02*
X179502754Y-100708830D01*
X179502754Y-100708830D02*
X179603769Y-100675158D01*
X179603769Y-100675158D02*
X179772128Y-100574143D01*
X179772128Y-100574143D02*
X179873143Y-100473128D01*
X179873143Y-100473128D02*
X179974159Y-100304769D01*
X179974159Y-100304769D02*
X180007830Y-100203754D01*
X180007830Y-100203754D02*
X180007830Y-100069067D01*
X180007830Y-100069067D02*
X179940487Y-99934380D01*
X179940487Y-99934380D02*
X179873143Y-99867036D01*
X179873143Y-99867036D02*
X179738456Y-99799693D01*
X179738456Y-99799693D02*
X179671113Y-99799693D01*
X178357915Y-99766021D02*
X178761976Y-100170082D01*
X178559945Y-99968051D02*
X179267052Y-99260945D01*
X179267052Y-99260945D02*
X179233380Y-99429303D01*
X179233380Y-99429303D02*
X179233380Y-99563990D01*
X179233380Y-99563990D02*
X179267052Y-99665006D01*
X159113588Y-93872112D02*
X159113588Y-93939456D01*
X159113588Y-93939456D02*
X159180932Y-94074143D01*
X159180932Y-94074143D02*
X159248275Y-94141486D01*
X159248275Y-94141486D02*
X159382962Y-94208830D01*
X159382962Y-94208830D02*
X159517649Y-94208830D01*
X159517649Y-94208830D02*
X159618664Y-94175158D01*
X159618664Y-94175158D02*
X159787023Y-94074143D01*
X159787023Y-94074143D02*
X159888038Y-93973128D01*
X159888038Y-93973128D02*
X159989054Y-93804769D01*
X159989054Y-93804769D02*
X160022725Y-93703754D01*
X160022725Y-93703754D02*
X160022725Y-93569067D01*
X160022725Y-93569067D02*
X159955382Y-93434380D01*
X159955382Y-93434380D02*
X159888038Y-93367036D01*
X159888038Y-93367036D02*
X159753351Y-93299693D01*
X159753351Y-93299693D02*
X159686008Y-93299693D01*
X159046245Y-93131334D02*
X159147260Y-93165006D01*
X159147260Y-93165006D02*
X159214603Y-93165006D01*
X159214603Y-93165006D02*
X159315619Y-93131334D01*
X159315619Y-93131334D02*
X159349290Y-93097662D01*
X159349290Y-93097662D02*
X159382962Y-92996647D01*
X159382962Y-92996647D02*
X159382962Y-92929303D01*
X159382962Y-92929303D02*
X159349290Y-92828288D01*
X159349290Y-92828288D02*
X159214603Y-92693601D01*
X159214603Y-92693601D02*
X159113588Y-92659929D01*
X159113588Y-92659929D02*
X159046245Y-92659929D01*
X159046245Y-92659929D02*
X158945229Y-92693601D01*
X158945229Y-92693601D02*
X158911558Y-92727273D01*
X158911558Y-92727273D02*
X158877886Y-92828288D01*
X158877886Y-92828288D02*
X158877886Y-92895632D01*
X158877886Y-92895632D02*
X158911558Y-92996647D01*
X158911558Y-92996647D02*
X159046245Y-93131334D01*
X159046245Y-93131334D02*
X159079916Y-93232349D01*
X159079916Y-93232349D02*
X159079916Y-93299693D01*
X159079916Y-93299693D02*
X159046245Y-93400708D01*
X159046245Y-93400708D02*
X158911558Y-93535395D01*
X158911558Y-93535395D02*
X158810542Y-93569067D01*
X158810542Y-93569067D02*
X158743199Y-93569067D01*
X158743199Y-93569067D02*
X158642184Y-93535395D01*
X158642184Y-93535395D02*
X158507497Y-93400708D01*
X158507497Y-93400708D02*
X158473825Y-93299693D01*
X158473825Y-93299693D02*
X158473825Y-93232349D01*
X158473825Y-93232349D02*
X158507497Y-93131334D01*
X158507497Y-93131334D02*
X158642184Y-92996647D01*
X158642184Y-92996647D02*
X158743199Y-92962975D01*
X158743199Y-92962975D02*
X158810542Y-92962975D01*
X158810542Y-92962975D02*
X158911558Y-92996647D01*
D11*
X141133623Y-110983623D02*
X141133623Y-114993623D01*
X141133623Y-114993623D02*
X143133623Y-114993623D01*
X143133623Y-110983623D02*
X143133623Y-114993623D01*
X180233623Y-82883623D02*
X180233623Y-86893623D01*
X180233623Y-86893623D02*
X182233623Y-86893623D01*
X182233623Y-82883623D02*
X182233623Y-86893623D01*
X143660687Y-85798623D02*
X143206559Y-85798623D01*
X143660687Y-87268623D02*
X143206559Y-87268623D01*
X172765010Y-91604457D02*
X172395543Y-91234990D01*
X173804457Y-90565010D02*
X173434990Y-90195543D01*
X155798633Y-99238080D02*
X155429166Y-98868613D01*
X156838080Y-98198633D02*
X156468613Y-97829166D01*
X153619718Y-100559165D02*
X153940835Y-100880282D01*
X154659165Y-99519718D02*
X154980282Y-99840835D01*
X130200000Y-91450000D02*
X130200000Y-95460000D01*
X130200000Y-95460000D02*
X132200000Y-95460000D01*
X132200000Y-91450000D02*
X132200000Y-95460000D01*
X167233728Y-107226825D02*
X166912611Y-107547942D01*
X168273175Y-108266272D02*
X167952058Y-108587389D01*
X163195543Y-106734990D02*
X163565010Y-107104457D01*
X164234990Y-105695543D02*
X164604457Y-106065010D01*
X160633623Y-82883623D02*
X160633623Y-86893623D01*
X160633623Y-86893623D02*
X162633623Y-86893623D01*
X162633623Y-82883623D02*
X162633623Y-86893623D01*
X174461343Y-94130330D02*
X177643324Y-97312311D01*
X178279720Y-90311953D02*
X174461343Y-94130330D01*
X160733623Y-111083623D02*
X160733623Y-115093623D01*
X160733623Y-115093623D02*
X162733623Y-115093623D01*
X162733623Y-111083623D02*
X162733623Y-115093623D01*
X121700000Y-91500000D02*
X121700000Y-95510000D01*
X121700000Y-95510000D02*
X123700000Y-95510000D01*
X123700000Y-91500000D02*
X123700000Y-95510000D01*
D10*
X159849938Y-96998752D02*
X159415068Y-97433623D01*
X159892365Y-97910920D02*
X159415068Y-97433623D01*
X166256326Y-90592365D02*
X166733623Y-90115068D01*
X166256326Y-104274881D02*
X166733623Y-104752178D01*
X167210920Y-90592365D02*
X166733623Y-90115068D01*
X167210920Y-104274881D02*
X166733623Y-104752178D01*
X173574881Y-96956326D02*
X174052178Y-97433623D01*
X173574881Y-97910920D02*
X174052178Y-97433623D01*
D11*
X159287789Y-97072999D02*
X158806956Y-96592166D01*
X159379712Y-96500242D01*
X159287789Y-97072999D01*
G36*
X159287789Y-97072999D02*
G01*
X158806956Y-96592166D01*
X159379712Y-96500242D01*
X159287789Y-97072999D01*
G37*
X156006559Y-91698623D02*
X156460687Y-91698623D01*
X156006559Y-93168623D02*
X156460687Y-93168623D01*
D10*
X145783623Y-91233623D02*
X145783623Y-88333623D01*
X145783623Y-91233623D02*
X147083623Y-91233623D01*
X147083623Y-88333623D02*
X145783623Y-88333623D01*
X147083623Y-91233623D02*
X147083623Y-88333623D01*
D11*
X180233623Y-111083623D02*
X180233623Y-115093623D01*
X180233623Y-115093623D02*
X182233623Y-115093623D01*
X182233623Y-111083623D02*
X182233623Y-115093623D01*
X142523623Y-91919059D02*
X142523623Y-93123187D01*
X144343623Y-91919059D02*
X144343623Y-93123187D01*
X121683623Y-110983623D02*
X121683623Y-114993623D01*
X121683623Y-114993623D02*
X123683623Y-114993623D01*
X123683623Y-110983623D02*
X123683623Y-114993623D01*
X143680000Y-100390000D02*
X143680000Y-98310000D01*
X144460000Y-97120000D02*
X144950000Y-96630000D01*
X144460000Y-101580000D02*
X144950000Y-102070000D01*
X147850000Y-96630000D02*
X144950000Y-96630000D01*
X147850000Y-102070000D02*
X144950000Y-102070000D01*
X148340000Y-97120000D02*
X147850000Y-96630000D01*
X148340000Y-101580000D02*
X147850000Y-102070000D01*
X149120000Y-100390000D02*
X149120000Y-98310000D01*
X182088054Y-96928721D02*
X181718587Y-96559254D01*
X183127501Y-95889274D02*
X182758034Y-95519807D01*
X148706559Y-85798623D02*
X149160687Y-85798623D01*
X148706559Y-87268623D02*
X149160687Y-87268623D01*
X175598633Y-99029166D02*
X175229166Y-99398633D01*
X176638080Y-100068613D02*
X176268613Y-100438080D01*
X156006559Y-93905730D02*
X156460687Y-93905730D01*
X156006559Y-95375730D02*
X156460687Y-95375730D01*
X180088054Y-98928721D02*
X179718587Y-98559254D01*
X181127501Y-97889274D02*
X180758034Y-97519807D01*
X159698633Y-92138080D02*
X159329166Y-91768613D01*
X160738080Y-91098633D02*
X160368613Y-90729166D01*
M02*
