G04 #@! TF.GenerationSoftware,KiCad,Pcbnew,8.0.6*
G04 #@! TF.CreationDate,2025-06-28T12:58:56+01:00*
G04 #@! TF.ProjectId,1x1,3178312e-6b69-4636-9164-5f7063625858,0.1*
G04 #@! TF.SameCoordinates,Original*
G04 #@! TF.FileFunction,Legend,Top*
G04 #@! TF.FilePolarity,Positive*
%FSLAX46Y46*%
G04 Gerber Fmt 4.6, Leading zero omitted, Abs format (unit mm)*
G04 Created by KiCad (PCBNEW 8.0.6) date 2025-06-28 12:58:56*
%MOMM*%
%LPD*%
G01*
G04 APERTURE LIST*
%ADD10C,0.100000*%
G04 APERTURE END LIST*
D10*
X92343884Y-69142475D02*
X92343884Y-68142475D01*
X92820074Y-69142475D02*
X92820074Y-68475808D01*
X92820074Y-68571046D02*
X92867693Y-68523427D01*
X92867693Y-68523427D02*
X92962931Y-68475808D01*
X92962931Y-68475808D02*
X93105788Y-68475808D01*
X93105788Y-68475808D02*
X93201026Y-68523427D01*
X93201026Y-68523427D02*
X93248645Y-68618665D01*
X93248645Y-68618665D02*
X93248645Y-69142475D01*
X93248645Y-68618665D02*
X93296264Y-68523427D01*
X93296264Y-68523427D02*
X93391502Y-68475808D01*
X93391502Y-68475808D02*
X93534359Y-68475808D01*
X93534359Y-68475808D02*
X93629598Y-68523427D01*
X93629598Y-68523427D02*
X93677217Y-68618665D01*
X93677217Y-68618665D02*
X93677217Y-69142475D01*
X94105788Y-69094856D02*
X94248645Y-69142475D01*
X94248645Y-69142475D02*
X94486740Y-69142475D01*
X94486740Y-69142475D02*
X94581978Y-69094856D01*
X94581978Y-69094856D02*
X94629597Y-69047236D01*
X94629597Y-69047236D02*
X94677216Y-68951998D01*
X94677216Y-68951998D02*
X94677216Y-68856760D01*
X94677216Y-68856760D02*
X94629597Y-68761522D01*
X94629597Y-68761522D02*
X94581978Y-68713903D01*
X94581978Y-68713903D02*
X94486740Y-68666284D01*
X94486740Y-68666284D02*
X94296264Y-68618665D01*
X94296264Y-68618665D02*
X94201026Y-68571046D01*
X94201026Y-68571046D02*
X94153407Y-68523427D01*
X94153407Y-68523427D02*
X94105788Y-68428189D01*
X94105788Y-68428189D02*
X94105788Y-68332951D01*
X94105788Y-68332951D02*
X94153407Y-68237713D01*
X94153407Y-68237713D02*
X94201026Y-68190094D01*
X94201026Y-68190094D02*
X94296264Y-68142475D01*
X94296264Y-68142475D02*
X94534359Y-68142475D01*
X94534359Y-68142475D02*
X94677216Y-68190094D01*
X95486740Y-69094856D02*
X95391502Y-69142475D01*
X95391502Y-69142475D02*
X95201026Y-69142475D01*
X95201026Y-69142475D02*
X95105788Y-69094856D01*
X95105788Y-69094856D02*
X95058169Y-68999617D01*
X95058169Y-68999617D02*
X95058169Y-68618665D01*
X95058169Y-68618665D02*
X95105788Y-68523427D01*
X95105788Y-68523427D02*
X95201026Y-68475808D01*
X95201026Y-68475808D02*
X95391502Y-68475808D01*
X95391502Y-68475808D02*
X95486740Y-68523427D01*
X95486740Y-68523427D02*
X95534359Y-68618665D01*
X95534359Y-68618665D02*
X95534359Y-68713903D01*
X95534359Y-68713903D02*
X95058169Y-68809141D01*
X96391502Y-69142475D02*
X96391502Y-68618665D01*
X96391502Y-68618665D02*
X96343883Y-68523427D01*
X96343883Y-68523427D02*
X96248645Y-68475808D01*
X96248645Y-68475808D02*
X96058169Y-68475808D01*
X96058169Y-68475808D02*
X95962931Y-68523427D01*
X96391502Y-69094856D02*
X96296264Y-69142475D01*
X96296264Y-69142475D02*
X96058169Y-69142475D01*
X96058169Y-69142475D02*
X95962931Y-69094856D01*
X95962931Y-69094856D02*
X95915312Y-68999617D01*
X95915312Y-68999617D02*
X95915312Y-68904379D01*
X95915312Y-68904379D02*
X95962931Y-68809141D01*
X95962931Y-68809141D02*
X96058169Y-68761522D01*
X96058169Y-68761522D02*
X96296264Y-68761522D01*
X96296264Y-68761522D02*
X96391502Y-68713903D01*
X96867693Y-68475808D02*
X96867693Y-69142475D01*
X96867693Y-68571046D02*
X96915312Y-68523427D01*
X96915312Y-68523427D02*
X97010550Y-68475808D01*
X97010550Y-68475808D02*
X97153407Y-68475808D01*
X97153407Y-68475808D02*
X97248645Y-68523427D01*
X97248645Y-68523427D02*
X97296264Y-68618665D01*
X97296264Y-68618665D02*
X97296264Y-69142475D01*
X98343883Y-69047236D02*
X98296264Y-69094856D01*
X98296264Y-69094856D02*
X98153407Y-69142475D01*
X98153407Y-69142475D02*
X98058169Y-69142475D01*
X98058169Y-69142475D02*
X97915312Y-69094856D01*
X97915312Y-69094856D02*
X97820074Y-68999617D01*
X97820074Y-68999617D02*
X97772455Y-68904379D01*
X97772455Y-68904379D02*
X97724836Y-68713903D01*
X97724836Y-68713903D02*
X97724836Y-68571046D01*
X97724836Y-68571046D02*
X97772455Y-68380570D01*
X97772455Y-68380570D02*
X97820074Y-68285332D01*
X97820074Y-68285332D02*
X97915312Y-68190094D01*
X97915312Y-68190094D02*
X98058169Y-68142475D01*
X98058169Y-68142475D02*
X98153407Y-68142475D01*
X98153407Y-68142475D02*
X98296264Y-68190094D01*
X98296264Y-68190094D02*
X98343883Y-68237713D01*
X98915312Y-69142475D02*
X98820074Y-69094856D01*
X98820074Y-69094856D02*
X98772455Y-69047236D01*
X98772455Y-69047236D02*
X98724836Y-68951998D01*
X98724836Y-68951998D02*
X98724836Y-68666284D01*
X98724836Y-68666284D02*
X98772455Y-68571046D01*
X98772455Y-68571046D02*
X98820074Y-68523427D01*
X98820074Y-68523427D02*
X98915312Y-68475808D01*
X98915312Y-68475808D02*
X99058169Y-68475808D01*
X99058169Y-68475808D02*
X99153407Y-68523427D01*
X99153407Y-68523427D02*
X99201026Y-68571046D01*
X99201026Y-68571046D02*
X99248645Y-68666284D01*
X99248645Y-68666284D02*
X99248645Y-68951998D01*
X99248645Y-68951998D02*
X99201026Y-69047236D01*
X99201026Y-69047236D02*
X99153407Y-69094856D01*
X99153407Y-69094856D02*
X99058169Y-69142475D01*
X99058169Y-69142475D02*
X98915312Y-69142475D01*
X99677217Y-68475808D02*
X99677217Y-69142475D01*
X99677217Y-68571046D02*
X99724836Y-68523427D01*
X99724836Y-68523427D02*
X99820074Y-68475808D01*
X99820074Y-68475808D02*
X99962931Y-68475808D01*
X99962931Y-68475808D02*
X100058169Y-68523427D01*
X100058169Y-68523427D02*
X100105788Y-68618665D01*
X100105788Y-68618665D02*
X100105788Y-69142475D01*
X100581979Y-69142475D02*
X100581979Y-68475808D01*
X100581979Y-68666284D02*
X100629598Y-68571046D01*
X100629598Y-68571046D02*
X100677217Y-68523427D01*
X100677217Y-68523427D02*
X100772455Y-68475808D01*
X100772455Y-68475808D02*
X100867693Y-68475808D01*
X101343884Y-69142475D02*
X101248646Y-69094856D01*
X101248646Y-69094856D02*
X101201027Y-69047236D01*
X101201027Y-69047236D02*
X101153408Y-68951998D01*
X101153408Y-68951998D02*
X101153408Y-68666284D01*
X101153408Y-68666284D02*
X101201027Y-68571046D01*
X101201027Y-68571046D02*
X101248646Y-68523427D01*
X101248646Y-68523427D02*
X101343884Y-68475808D01*
X101343884Y-68475808D02*
X101486741Y-68475808D01*
X101486741Y-68475808D02*
X101581979Y-68523427D01*
X101581979Y-68523427D02*
X101629598Y-68571046D01*
X101629598Y-68571046D02*
X101677217Y-68666284D01*
X101677217Y-68666284D02*
X101677217Y-68951998D01*
X101677217Y-68951998D02*
X101629598Y-69047236D01*
X101629598Y-69047236D02*
X101581979Y-69094856D01*
X101581979Y-69094856D02*
X101486741Y-69142475D01*
X101486741Y-69142475D02*
X101343884Y-69142475D01*
X102010551Y-68475808D02*
X102248646Y-69142475D01*
X102486741Y-68475808D02*
X102248646Y-69142475D01*
X102248646Y-69142475D02*
X102153408Y-69380570D01*
X102153408Y-69380570D02*
X102105789Y-69428189D01*
X102105789Y-69428189D02*
X102010551Y-69475808D01*
X103581979Y-68094856D02*
X102724837Y-69380570D01*
X103915313Y-69142475D02*
X103915313Y-68142475D01*
X103915313Y-68142475D02*
X104248646Y-68856760D01*
X104248646Y-68856760D02*
X104581979Y-68142475D01*
X104581979Y-68142475D02*
X104581979Y-69142475D01*
X105486741Y-69142475D02*
X105486741Y-68618665D01*
X105486741Y-68618665D02*
X105439122Y-68523427D01*
X105439122Y-68523427D02*
X105343884Y-68475808D01*
X105343884Y-68475808D02*
X105153408Y-68475808D01*
X105153408Y-68475808D02*
X105058170Y-68523427D01*
X105486741Y-69094856D02*
X105391503Y-69142475D01*
X105391503Y-69142475D02*
X105153408Y-69142475D01*
X105153408Y-69142475D02*
X105058170Y-69094856D01*
X105058170Y-69094856D02*
X105010551Y-68999617D01*
X105010551Y-68999617D02*
X105010551Y-68904379D01*
X105010551Y-68904379D02*
X105058170Y-68809141D01*
X105058170Y-68809141D02*
X105153408Y-68761522D01*
X105153408Y-68761522D02*
X105391503Y-68761522D01*
X105391503Y-68761522D02*
X105486741Y-68713903D01*
X106391503Y-69094856D02*
X106296265Y-69142475D01*
X106296265Y-69142475D02*
X106105789Y-69142475D01*
X106105789Y-69142475D02*
X106010551Y-69094856D01*
X106010551Y-69094856D02*
X105962932Y-69047236D01*
X105962932Y-69047236D02*
X105915313Y-68951998D01*
X105915313Y-68951998D02*
X105915313Y-68666284D01*
X105915313Y-68666284D02*
X105962932Y-68571046D01*
X105962932Y-68571046D02*
X106010551Y-68523427D01*
X106010551Y-68523427D02*
X106105789Y-68475808D01*
X106105789Y-68475808D02*
X106296265Y-68475808D01*
X106296265Y-68475808D02*
X106391503Y-68523427D01*
X106820075Y-69142475D02*
X106820075Y-68475808D01*
X106820075Y-68666284D02*
X106867694Y-68571046D01*
X106867694Y-68571046D02*
X106915313Y-68523427D01*
X106915313Y-68523427D02*
X107010551Y-68475808D01*
X107010551Y-68475808D02*
X107105789Y-68475808D01*
X107581980Y-69142475D02*
X107486742Y-69094856D01*
X107486742Y-69094856D02*
X107439123Y-69047236D01*
X107439123Y-69047236D02*
X107391504Y-68951998D01*
X107391504Y-68951998D02*
X107391504Y-68666284D01*
X107391504Y-68666284D02*
X107439123Y-68571046D01*
X107439123Y-68571046D02*
X107486742Y-68523427D01*
X107486742Y-68523427D02*
X107581980Y-68475808D01*
X107581980Y-68475808D02*
X107724837Y-68475808D01*
X107724837Y-68475808D02*
X107820075Y-68523427D01*
X107820075Y-68523427D02*
X107867694Y-68571046D01*
X107867694Y-68571046D02*
X107915313Y-68666284D01*
X107915313Y-68666284D02*
X107915313Y-68951998D01*
X107915313Y-68951998D02*
X107867694Y-69047236D01*
X107867694Y-69047236D02*
X107820075Y-69094856D01*
X107820075Y-69094856D02*
X107724837Y-69142475D01*
X107724837Y-69142475D02*
X107581980Y-69142475D01*
X108343885Y-68761522D02*
X109105790Y-68761522D01*
X109581980Y-69142475D02*
X109581980Y-68142475D01*
X110153408Y-69142475D02*
X109724837Y-68571046D01*
X110153408Y-68142475D02*
X109581980Y-68713903D01*
X110962932Y-69094856D02*
X110867694Y-69142475D01*
X110867694Y-69142475D02*
X110677218Y-69142475D01*
X110677218Y-69142475D02*
X110581980Y-69094856D01*
X110581980Y-69094856D02*
X110534361Y-68999617D01*
X110534361Y-68999617D02*
X110534361Y-68618665D01*
X110534361Y-68618665D02*
X110581980Y-68523427D01*
X110581980Y-68523427D02*
X110677218Y-68475808D01*
X110677218Y-68475808D02*
X110867694Y-68475808D01*
X110867694Y-68475808D02*
X110962932Y-68523427D01*
X110962932Y-68523427D02*
X111010551Y-68618665D01*
X111010551Y-68618665D02*
X111010551Y-68713903D01*
X111010551Y-68713903D02*
X110534361Y-68809141D01*
X111343885Y-68475808D02*
X111581980Y-69142475D01*
X111820075Y-68475808D02*
X111581980Y-69142475D01*
X111581980Y-69142475D02*
X111486742Y-69380570D01*
X111486742Y-69380570D02*
X111439123Y-69428189D01*
X111439123Y-69428189D02*
X111343885Y-69475808D01*
X112201028Y-69142475D02*
X112201028Y-68142475D01*
X112201028Y-68523427D02*
X112296266Y-68475808D01*
X112296266Y-68475808D02*
X112486742Y-68475808D01*
X112486742Y-68475808D02*
X112581980Y-68523427D01*
X112581980Y-68523427D02*
X112629599Y-68571046D01*
X112629599Y-68571046D02*
X112677218Y-68666284D01*
X112677218Y-68666284D02*
X112677218Y-68951998D01*
X112677218Y-68951998D02*
X112629599Y-69047236D01*
X112629599Y-69047236D02*
X112581980Y-69094856D01*
X112581980Y-69094856D02*
X112486742Y-69142475D01*
X112486742Y-69142475D02*
X112296266Y-69142475D01*
X112296266Y-69142475D02*
X112201028Y-69094856D01*
X113248647Y-69142475D02*
X113153409Y-69094856D01*
X113153409Y-69094856D02*
X113105790Y-69047236D01*
X113105790Y-69047236D02*
X113058171Y-68951998D01*
X113058171Y-68951998D02*
X113058171Y-68666284D01*
X113058171Y-68666284D02*
X113105790Y-68571046D01*
X113105790Y-68571046D02*
X113153409Y-68523427D01*
X113153409Y-68523427D02*
X113248647Y-68475808D01*
X113248647Y-68475808D02*
X113391504Y-68475808D01*
X113391504Y-68475808D02*
X113486742Y-68523427D01*
X113486742Y-68523427D02*
X113534361Y-68571046D01*
X113534361Y-68571046D02*
X113581980Y-68666284D01*
X113581980Y-68666284D02*
X113581980Y-68951998D01*
X113581980Y-68951998D02*
X113534361Y-69047236D01*
X113534361Y-69047236D02*
X113486742Y-69094856D01*
X113486742Y-69094856D02*
X113391504Y-69142475D01*
X113391504Y-69142475D02*
X113248647Y-69142475D01*
X114439123Y-69142475D02*
X114439123Y-68618665D01*
X114439123Y-68618665D02*
X114391504Y-68523427D01*
X114391504Y-68523427D02*
X114296266Y-68475808D01*
X114296266Y-68475808D02*
X114105790Y-68475808D01*
X114105790Y-68475808D02*
X114010552Y-68523427D01*
X114439123Y-69094856D02*
X114343885Y-69142475D01*
X114343885Y-69142475D02*
X114105790Y-69142475D01*
X114105790Y-69142475D02*
X114010552Y-69094856D01*
X114010552Y-69094856D02*
X113962933Y-68999617D01*
X113962933Y-68999617D02*
X113962933Y-68904379D01*
X113962933Y-68904379D02*
X114010552Y-68809141D01*
X114010552Y-68809141D02*
X114105790Y-68761522D01*
X114105790Y-68761522D02*
X114343885Y-68761522D01*
X114343885Y-68761522D02*
X114439123Y-68713903D01*
X114915314Y-69142475D02*
X114915314Y-68475808D01*
X114915314Y-68666284D02*
X114962933Y-68571046D01*
X114962933Y-68571046D02*
X115010552Y-68523427D01*
X115010552Y-68523427D02*
X115105790Y-68475808D01*
X115105790Y-68475808D02*
X115201028Y-68475808D01*
X115962933Y-69142475D02*
X115962933Y-68142475D01*
X115962933Y-69094856D02*
X115867695Y-69142475D01*
X115867695Y-69142475D02*
X115677219Y-69142475D01*
X115677219Y-69142475D02*
X115581981Y-69094856D01*
X115581981Y-69094856D02*
X115534362Y-69047236D01*
X115534362Y-69047236D02*
X115486743Y-68951998D01*
X115486743Y-68951998D02*
X115486743Y-68666284D01*
X115486743Y-68666284D02*
X115534362Y-68571046D01*
X115534362Y-68571046D02*
X115581981Y-68523427D01*
X115581981Y-68523427D02*
X115677219Y-68475808D01*
X115677219Y-68475808D02*
X115867695Y-68475808D01*
X115867695Y-68475808D02*
X115962933Y-68523427D01*
X92867693Y-70752419D02*
X92296265Y-70752419D01*
X92581979Y-70752419D02*
X92581979Y-69752419D01*
X92581979Y-69752419D02*
X92486741Y-69895276D01*
X92486741Y-69895276D02*
X92391503Y-69990514D01*
X92391503Y-69990514D02*
X92296265Y-70038133D01*
X93201027Y-70752419D02*
X93724836Y-70085752D01*
X93201027Y-70085752D02*
X93724836Y-70752419D01*
X94629598Y-70752419D02*
X94058170Y-70752419D01*
X94343884Y-70752419D02*
X94343884Y-69752419D01*
X94343884Y-69752419D02*
X94248646Y-69895276D01*
X94248646Y-69895276D02*
X94153408Y-69990514D01*
X94153408Y-69990514D02*
X94058170Y-70038133D01*
X96105789Y-71133371D02*
X96058170Y-71085752D01*
X96058170Y-71085752D02*
X95962932Y-70942895D01*
X95962932Y-70942895D02*
X95915313Y-70847657D01*
X95915313Y-70847657D02*
X95867694Y-70704800D01*
X95867694Y-70704800D02*
X95820075Y-70466704D01*
X95820075Y-70466704D02*
X95820075Y-70276228D01*
X95820075Y-70276228D02*
X95867694Y-70038133D01*
X95867694Y-70038133D02*
X95915313Y-69895276D01*
X95915313Y-69895276D02*
X95962932Y-69800038D01*
X95962932Y-69800038D02*
X96058170Y-69657180D01*
X96058170Y-69657180D02*
X96105789Y-69609561D01*
X96391504Y-70085752D02*
X96629599Y-70752419D01*
X96629599Y-70752419D02*
X96867694Y-70085752D01*
X97439123Y-69752419D02*
X97534361Y-69752419D01*
X97534361Y-69752419D02*
X97629599Y-69800038D01*
X97629599Y-69800038D02*
X97677218Y-69847657D01*
X97677218Y-69847657D02*
X97724837Y-69942895D01*
X97724837Y-69942895D02*
X97772456Y-70133371D01*
X97772456Y-70133371D02*
X97772456Y-70371466D01*
X97772456Y-70371466D02*
X97724837Y-70561942D01*
X97724837Y-70561942D02*
X97677218Y-70657180D01*
X97677218Y-70657180D02*
X97629599Y-70704800D01*
X97629599Y-70704800D02*
X97534361Y-70752419D01*
X97534361Y-70752419D02*
X97439123Y-70752419D01*
X97439123Y-70752419D02*
X97343885Y-70704800D01*
X97343885Y-70704800D02*
X97296266Y-70657180D01*
X97296266Y-70657180D02*
X97248647Y-70561942D01*
X97248647Y-70561942D02*
X97201028Y-70371466D01*
X97201028Y-70371466D02*
X97201028Y-70133371D01*
X97201028Y-70133371D02*
X97248647Y-69942895D01*
X97248647Y-69942895D02*
X97296266Y-69847657D01*
X97296266Y-69847657D02*
X97343885Y-69800038D01*
X97343885Y-69800038D02*
X97439123Y-69752419D01*
X98201028Y-70657180D02*
X98248647Y-70704800D01*
X98248647Y-70704800D02*
X98201028Y-70752419D01*
X98201028Y-70752419D02*
X98153409Y-70704800D01*
X98153409Y-70704800D02*
X98201028Y-70657180D01*
X98201028Y-70657180D02*
X98201028Y-70752419D01*
X99201027Y-70752419D02*
X98629599Y-70752419D01*
X98915313Y-70752419D02*
X98915313Y-69752419D01*
X98915313Y-69752419D02*
X98820075Y-69895276D01*
X98820075Y-69895276D02*
X98724837Y-69990514D01*
X98724837Y-69990514D02*
X98629599Y-70038133D01*
X99534361Y-71133371D02*
X99581980Y-71085752D01*
X99581980Y-71085752D02*
X99677218Y-70942895D01*
X99677218Y-70942895D02*
X99724837Y-70847657D01*
X99724837Y-70847657D02*
X99772456Y-70704800D01*
X99772456Y-70704800D02*
X99820075Y-70466704D01*
X99820075Y-70466704D02*
X99820075Y-70276228D01*
X99820075Y-70276228D02*
X99772456Y-70038133D01*
X99772456Y-70038133D02*
X99724837Y-69895276D01*
X99724837Y-69895276D02*
X99677218Y-69800038D01*
X99677218Y-69800038D02*
X99581980Y-69657180D01*
X99581980Y-69657180D02*
X99534361Y-69609561D01*
M02*
