G04 #@! TF.GenerationSoftware,KiCad,Pcbnew,8.0.6*
G04 #@! TF.CreationDate,2025-06-28T12:58:56+01:00*
G04 #@! TF.ProjectId,1x1,3178312e-6b69-4636-9164-5f7063625858,0.1*
G04 #@! TF.SameCoordinates,Original*
G04 #@! TF.FileFunction,Copper,L2,Bot*
G04 #@! TF.FilePolarity,Positive*
%FSLAX46Y46*%
G04 Gerber Fmt 4.6, Leading zero omitted, Abs format (unit mm)*
G04 Created by KiCad (PCBNEW 8.0.6) date 2025-06-28 12:58:56*
%MOMM*%
%LPD*%
G01*
G04 APERTURE LIST*
G04 #@! TA.AperFunction,SMDPad,CuDef*
%ADD10R,2.500000X2.550000*%
G04 #@! TD*
G04 #@! TA.AperFunction,SMDPad,CuDef*
%ADD11O,1.998980X2.748280*%
G04 #@! TD*
G04 #@! TA.AperFunction,SMDPad,CuDef*
%ADD12O,2.032000X1.016000*%
G04 #@! TD*
G04 #@! TA.AperFunction,SMDPad,CuDef*
%ADD13C,1.143000*%
G04 #@! TD*
G04 #@! TA.AperFunction,ViaPad*
%ADD14C,0.600000*%
G04 #@! TD*
G04 #@! TA.AperFunction,Conductor*
%ADD15C,0.200000*%
G04 #@! TD*
G04 APERTURE END LIST*
D10*
X117460000Y-54573000D03*
X120000000Y-67500000D03*
D11*
X94376066Y-53608000D03*
X96916066Y-53608000D03*
X99456066Y-53608000D03*
X101996066Y-53608000D03*
X104536066Y-53608000D03*
X107076066Y-53608000D03*
X109616066Y-53608000D03*
X109616066Y-69772560D03*
X107076066Y-69772560D03*
X104536066Y-69772560D03*
X101996066Y-69772560D03*
X99456066Y-69772560D03*
X96916066Y-69772560D03*
X94376066Y-69772560D03*
D12*
X110693886Y-60474880D03*
X110693886Y-63024880D03*
D13*
X93689699Y-60473683D03*
X93689699Y-63013683D03*
X96229699Y-60473683D03*
X96229699Y-63013683D03*
D14*
X115344066Y-54546000D03*
X95786066Y-55308000D03*
D15*
X94376066Y-53608000D02*
X94376066Y-53939266D01*
X94376066Y-53939266D02*
X95744800Y-55308000D01*
X95744800Y-55308000D02*
X95786066Y-55308000D01*
X115371066Y-54573000D02*
X117460000Y-54573000D01*
X115344066Y-54546000D02*
X115371066Y-54573000D01*
X96916066Y-53608000D02*
X96945816Y-53608000D01*
X101996066Y-53608000D02*
X102025816Y-53608000D01*
X99456066Y-53608000D02*
X99485816Y-53608000D01*
G04 #@! TA.AperFunction,Conductor*
G36*
X93558763Y-51764185D02*
G01*
X93604518Y-51816989D01*
X93614462Y-51886147D01*
X93585437Y-51949703D01*
X93564609Y-51968818D01*
X93398894Y-52089216D01*
X93398889Y-52089220D01*
X93231936Y-52256173D01*
X93231932Y-52256178D01*
X93093162Y-52447180D01*
X92985972Y-52657549D01*
X92913011Y-52882101D01*
X92876076Y-53115298D01*
X92876076Y-54100701D01*
X92913011Y-54333898D01*
X92985972Y-54558450D01*
X93059686Y-54703121D01*
X93070961Y-54725249D01*
X93093162Y-54768819D01*
X93231932Y-54959821D01*
X93231936Y-54959826D01*
X93398889Y-55126779D01*
X93398894Y-55126783D01*
X93466383Y-55175816D01*
X93589900Y-55265556D01*
X93719063Y-55331368D01*
X93800265Y-55372743D01*
X93800267Y-55372743D01*
X93800270Y-55372745D01*
X94024818Y-55445705D01*
X94258014Y-55482640D01*
X94258015Y-55482640D01*
X94494117Y-55482640D01*
X94494118Y-55482640D01*
X94727314Y-55445705D01*
X94844420Y-55407654D01*
X94914261Y-55405660D01*
X94974094Y-55441740D01*
X94999780Y-55484631D01*
X95000697Y-55487254D01*
X95000698Y-55487255D01*
X95017389Y-55534956D01*
X95060277Y-55657523D01*
X95099231Y-55719517D01*
X95156250Y-55810262D01*
X95283804Y-55937816D01*
X95436544Y-56033789D01*
X95598123Y-56090328D01*
X95606811Y-56093368D01*
X95606816Y-56093369D01*
X95786062Y-56113565D01*
X95786066Y-56113565D01*
X95786070Y-56113565D01*
X95965315Y-56093369D01*
X95965318Y-56093368D01*
X95965321Y-56093368D01*
X96135588Y-56033789D01*
X96288328Y-55937816D01*
X96415882Y-55810262D01*
X96511855Y-55657522D01*
X96550671Y-55546590D01*
X96591391Y-55489817D01*
X96656344Y-55464069D01*
X96687110Y-55465074D01*
X96733194Y-55472373D01*
X96798014Y-55482640D01*
X96798015Y-55482640D01*
X97034117Y-55482640D01*
X97034118Y-55482640D01*
X97267314Y-55445705D01*
X97491862Y-55372745D01*
X97702232Y-55265556D01*
X97893244Y-55126778D01*
X98060194Y-54959828D01*
X98085747Y-54924656D01*
X98141076Y-54881991D01*
X98210689Y-54876010D01*
X98272485Y-54908615D01*
X98286385Y-54924657D01*
X98311934Y-54959824D01*
X98478889Y-55126779D01*
X98478894Y-55126783D01*
X98546383Y-55175816D01*
X98669900Y-55265556D01*
X98799063Y-55331368D01*
X98880265Y-55372743D01*
X98880267Y-55372743D01*
X98880270Y-55372745D01*
X99104818Y-55445705D01*
X99338014Y-55482640D01*
X99338015Y-55482640D01*
X99574117Y-55482640D01*
X99574118Y-55482640D01*
X99807314Y-55445705D01*
X100031862Y-55372745D01*
X100242232Y-55265556D01*
X100433244Y-55126778D01*
X100600194Y-54959828D01*
X100625747Y-54924656D01*
X100681076Y-54881991D01*
X100750689Y-54876010D01*
X100812485Y-54908615D01*
X100826385Y-54924657D01*
X100851934Y-54959824D01*
X101018889Y-55126779D01*
X101018894Y-55126783D01*
X101086383Y-55175816D01*
X101209900Y-55265556D01*
X101339063Y-55331368D01*
X101420265Y-55372743D01*
X101420267Y-55372743D01*
X101420270Y-55372745D01*
X101644818Y-55445705D01*
X101878014Y-55482640D01*
X101878015Y-55482640D01*
X102114117Y-55482640D01*
X102114118Y-55482640D01*
X102347314Y-55445705D01*
X102571862Y-55372745D01*
X102782232Y-55265556D01*
X102973244Y-55126778D01*
X103140194Y-54959828D01*
X103165747Y-54924656D01*
X103221076Y-54881991D01*
X103290689Y-54876010D01*
X103352485Y-54908615D01*
X103366385Y-54924657D01*
X103391934Y-54959824D01*
X103558889Y-55126779D01*
X103558894Y-55126783D01*
X103626383Y-55175816D01*
X103749900Y-55265556D01*
X103879063Y-55331368D01*
X103960265Y-55372743D01*
X103960267Y-55372743D01*
X103960270Y-55372745D01*
X104184818Y-55445705D01*
X104418014Y-55482640D01*
X104418015Y-55482640D01*
X104654117Y-55482640D01*
X104654118Y-55482640D01*
X104887314Y-55445705D01*
X105111862Y-55372745D01*
X105322232Y-55265556D01*
X105513244Y-55126778D01*
X105680194Y-54959828D01*
X105705747Y-54924656D01*
X105761076Y-54881991D01*
X105830689Y-54876010D01*
X105892485Y-54908615D01*
X105906385Y-54924657D01*
X105931934Y-54959824D01*
X106098889Y-55126779D01*
X106098894Y-55126783D01*
X106166383Y-55175816D01*
X106289900Y-55265556D01*
X106419063Y-55331368D01*
X106500265Y-55372743D01*
X106500267Y-55372743D01*
X106500270Y-55372745D01*
X106724818Y-55445705D01*
X106958014Y-55482640D01*
X106958015Y-55482640D01*
X107194117Y-55482640D01*
X107194118Y-55482640D01*
X107427314Y-55445705D01*
X107651862Y-55372745D01*
X107862232Y-55265556D01*
X108053244Y-55126778D01*
X108220194Y-54959828D01*
X108245747Y-54924656D01*
X108301076Y-54881991D01*
X108370689Y-54876010D01*
X108432485Y-54908615D01*
X108446385Y-54924657D01*
X108471934Y-54959824D01*
X108638889Y-55126779D01*
X108638894Y-55126783D01*
X108706383Y-55175816D01*
X108829900Y-55265556D01*
X108959063Y-55331368D01*
X109040265Y-55372743D01*
X109040267Y-55372743D01*
X109040270Y-55372745D01*
X109264818Y-55445705D01*
X109498014Y-55482640D01*
X109498015Y-55482640D01*
X109734117Y-55482640D01*
X109734118Y-55482640D01*
X109967314Y-55445705D01*
X110191862Y-55372745D01*
X110402232Y-55265556D01*
X110593244Y-55126778D01*
X110760194Y-54959828D01*
X110898972Y-54768816D01*
X111006161Y-54558446D01*
X111079121Y-54333898D01*
X111116056Y-54100702D01*
X111116056Y-53115298D01*
X111079121Y-52882102D01*
X111006161Y-52657554D01*
X111006159Y-52657551D01*
X111006159Y-52657549D01*
X110967272Y-52581230D01*
X110898972Y-52447184D01*
X110881242Y-52422781D01*
X110760199Y-52256178D01*
X110760195Y-52256173D01*
X110593242Y-52089220D01*
X110593237Y-52089216D01*
X110427523Y-51968818D01*
X110384857Y-51913488D01*
X110378878Y-51843875D01*
X110411484Y-51782080D01*
X110472322Y-51747723D01*
X110500408Y-51744500D01*
X124457566Y-51744500D01*
X124524605Y-51764185D01*
X124570360Y-51816989D01*
X124581566Y-51868500D01*
X124581566Y-71447500D01*
X124561881Y-71514539D01*
X124509077Y-71560294D01*
X124457566Y-71571500D01*
X110589267Y-71571500D01*
X110522228Y-71551815D01*
X110476473Y-71499011D01*
X110466529Y-71429853D01*
X110495554Y-71366297D01*
X110516382Y-71347182D01*
X110593238Y-71291343D01*
X110593240Y-71291340D01*
X110593244Y-71291338D01*
X110760194Y-71124388D01*
X110898972Y-70933376D01*
X111006161Y-70723006D01*
X111079121Y-70498458D01*
X111116056Y-70265262D01*
X111116056Y-69279858D01*
X111079121Y-69046662D01*
X111006398Y-68822844D01*
X118250000Y-68822844D01*
X118256401Y-68882372D01*
X118256403Y-68882379D01*
X118306645Y-69017086D01*
X118306649Y-69017093D01*
X118392809Y-69132187D01*
X118392812Y-69132190D01*
X118507906Y-69218350D01*
X118507913Y-69218354D01*
X118642620Y-69268596D01*
X118642627Y-69268598D01*
X118702155Y-69274999D01*
X118702172Y-69275000D01*
X119750000Y-69275000D01*
X120250000Y-69275000D01*
X121297828Y-69275000D01*
X121297844Y-69274999D01*
X121357372Y-69268598D01*
X121357379Y-69268596D01*
X121492086Y-69218354D01*
X121492093Y-69218350D01*
X121607187Y-69132190D01*
X121607190Y-69132187D01*
X121693350Y-69017093D01*
X121693354Y-69017086D01*
X121743596Y-68882379D01*
X121743598Y-68882372D01*
X121749999Y-68822844D01*
X121750000Y-68822827D01*
X121750000Y-67750000D01*
X120250000Y-67750000D01*
X120250000Y-69275000D01*
X119750000Y-69275000D01*
X119750000Y-67750000D01*
X118250000Y-67750000D01*
X118250000Y-68822844D01*
X111006398Y-68822844D01*
X111006161Y-68822114D01*
X111006159Y-68822111D01*
X111006159Y-68822109D01*
X110967272Y-68745790D01*
X110898972Y-68611744D01*
X110881242Y-68587341D01*
X110760199Y-68420738D01*
X110760195Y-68420733D01*
X110593242Y-68253780D01*
X110593237Y-68253776D01*
X110402235Y-68115006D01*
X110402234Y-68115005D01*
X110402232Y-68115004D01*
X110336537Y-68081530D01*
X110191866Y-68007816D01*
X109967314Y-67934855D01*
X109734118Y-67897920D01*
X109498014Y-67897920D01*
X109381416Y-67916387D01*
X109264817Y-67934855D01*
X109040265Y-68007816D01*
X108829896Y-68115006D01*
X108638894Y-68253776D01*
X108638889Y-68253780D01*
X108471940Y-68420729D01*
X108471935Y-68420735D01*
X108446384Y-68455904D01*
X108391054Y-68498570D01*
X108321441Y-68504549D01*
X108259646Y-68471943D01*
X108245748Y-68455904D01*
X108220431Y-68421058D01*
X108220194Y-68420732D01*
X108053244Y-68253782D01*
X108053242Y-68253780D01*
X108053237Y-68253776D01*
X107862235Y-68115006D01*
X107862234Y-68115005D01*
X107862232Y-68115004D01*
X107796537Y-68081530D01*
X107651866Y-68007816D01*
X107427314Y-67934855D01*
X107194118Y-67897920D01*
X106958014Y-67897920D01*
X106841416Y-67916387D01*
X106724817Y-67934855D01*
X106500265Y-68007816D01*
X106289896Y-68115006D01*
X106098894Y-68253776D01*
X106098889Y-68253780D01*
X105931940Y-68420729D01*
X105931935Y-68420735D01*
X105906384Y-68455904D01*
X105851054Y-68498570D01*
X105781441Y-68504549D01*
X105719646Y-68471943D01*
X105705748Y-68455904D01*
X105680431Y-68421058D01*
X105680194Y-68420732D01*
X105513244Y-68253782D01*
X105513242Y-68253780D01*
X105513237Y-68253776D01*
X105322235Y-68115006D01*
X105322234Y-68115005D01*
X105322232Y-68115004D01*
X105256537Y-68081530D01*
X105111866Y-68007816D01*
X104887314Y-67934855D01*
X104654118Y-67897920D01*
X104418014Y-67897920D01*
X104301416Y-67916387D01*
X104184817Y-67934855D01*
X103960265Y-68007816D01*
X103749896Y-68115006D01*
X103558894Y-68253776D01*
X103558889Y-68253780D01*
X103391940Y-68420729D01*
X103391935Y-68420735D01*
X103366384Y-68455904D01*
X103311054Y-68498570D01*
X103241441Y-68504549D01*
X103179646Y-68471943D01*
X103165748Y-68455904D01*
X103140431Y-68421058D01*
X103140194Y-68420732D01*
X102973244Y-68253782D01*
X102973242Y-68253780D01*
X102973237Y-68253776D01*
X102782235Y-68115006D01*
X102782234Y-68115005D01*
X102782232Y-68115004D01*
X102716537Y-68081530D01*
X102571866Y-68007816D01*
X102347314Y-67934855D01*
X102114118Y-67897920D01*
X101878014Y-67897920D01*
X101761416Y-67916387D01*
X101644817Y-67934855D01*
X101420265Y-68007816D01*
X101209896Y-68115006D01*
X101018894Y-68253776D01*
X101018889Y-68253780D01*
X100851940Y-68420729D01*
X100851935Y-68420735D01*
X100826384Y-68455904D01*
X100771054Y-68498570D01*
X100701441Y-68504549D01*
X100639646Y-68471943D01*
X100625748Y-68455904D01*
X100600431Y-68421058D01*
X100600194Y-68420732D01*
X100433244Y-68253782D01*
X100433242Y-68253780D01*
X100433237Y-68253776D01*
X100242235Y-68115006D01*
X100242234Y-68115005D01*
X100242232Y-68115004D01*
X100176537Y-68081530D01*
X100031866Y-68007816D01*
X99807314Y-67934855D01*
X99574118Y-67897920D01*
X99338014Y-67897920D01*
X99221416Y-67916387D01*
X99104817Y-67934855D01*
X98880265Y-68007816D01*
X98669896Y-68115006D01*
X98478894Y-68253776D01*
X98478889Y-68253780D01*
X98311940Y-68420729D01*
X98311940Y-68420730D01*
X98311938Y-68420732D01*
X98286076Y-68456328D01*
X98286075Y-68456330D01*
X98230745Y-68498995D01*
X98161131Y-68504974D01*
X98099336Y-68472368D01*
X98085439Y-68456330D01*
X98059810Y-68421055D01*
X97892920Y-68254165D01*
X97701970Y-68115431D01*
X97491672Y-68008279D01*
X97267193Y-67935341D01*
X97166066Y-67919323D01*
X97166066Y-69898560D01*
X97146381Y-69965599D01*
X97093577Y-70011354D01*
X97042066Y-70022560D01*
X96790066Y-70022560D01*
X96723027Y-70002875D01*
X96677272Y-69950071D01*
X96666066Y-69898560D01*
X96666066Y-67919323D01*
X96564938Y-67935341D01*
X96340459Y-68008279D01*
X96130161Y-68115431D01*
X95939212Y-68254165D01*
X95939211Y-68254165D01*
X95772318Y-68421058D01*
X95746692Y-68456330D01*
X95691362Y-68498995D01*
X95621748Y-68504973D01*
X95559954Y-68472366D01*
X95546057Y-68456328D01*
X95520199Y-68420738D01*
X95520195Y-68420733D01*
X95353242Y-68253780D01*
X95353237Y-68253776D01*
X95162235Y-68115006D01*
X95162234Y-68115005D01*
X95162232Y-68115004D01*
X95096537Y-68081530D01*
X94951866Y-68007816D01*
X94727314Y-67934855D01*
X94494118Y-67897920D01*
X94258014Y-67897920D01*
X94141416Y-67916387D01*
X94024817Y-67934855D01*
X93800265Y-68007816D01*
X93589896Y-68115006D01*
X93398894Y-68253776D01*
X93398889Y-68253780D01*
X93231936Y-68420733D01*
X93231932Y-68420738D01*
X93093162Y-68611740D01*
X92985972Y-68822109D01*
X92913011Y-69046661D01*
X92876076Y-69279858D01*
X92876076Y-70265261D01*
X92913011Y-70498458D01*
X92985972Y-70723010D01*
X93093162Y-70933379D01*
X93231932Y-71124381D01*
X93231936Y-71124386D01*
X93398893Y-71291343D01*
X93475750Y-71347182D01*
X93518416Y-71402511D01*
X93524395Y-71472125D01*
X93491790Y-71533920D01*
X93430951Y-71568277D01*
X93402865Y-71571500D01*
X91584566Y-71571500D01*
X91517527Y-71551815D01*
X91471772Y-71499011D01*
X91460566Y-71447500D01*
X91460566Y-66649421D01*
X113794500Y-66649421D01*
X113794500Y-66826578D01*
X113822214Y-67001556D01*
X113876956Y-67170039D01*
X113876957Y-67170042D01*
X113957386Y-67327890D01*
X114061517Y-67471214D01*
X114186786Y-67596483D01*
X114330110Y-67700614D01*
X114407529Y-67740061D01*
X114487957Y-67781042D01*
X114487960Y-67781043D01*
X114572201Y-67808414D01*
X114656445Y-67835786D01*
X114831421Y-67863500D01*
X114831422Y-67863500D01*
X115008578Y-67863500D01*
X115008579Y-67863500D01*
X115183555Y-67835786D01*
X115352042Y-67781042D01*
X115509890Y-67700614D01*
X115653214Y-67596483D01*
X115778483Y-67471214D01*
X115882614Y-67327890D01*
X115963042Y-67170042D01*
X116017786Y-67001555D01*
X116045500Y-66826579D01*
X116045500Y-66649421D01*
X116017786Y-66474445D01*
X115963042Y-66305958D01*
X115963042Y-66305957D01*
X115882613Y-66148109D01*
X115778483Y-66004786D01*
X115653214Y-65879517D01*
X115509890Y-65775386D01*
X115501957Y-65771344D01*
X115352042Y-65694957D01*
X115352039Y-65694956D01*
X115183556Y-65640214D01*
X115096067Y-65626357D01*
X115008579Y-65612500D01*
X114831421Y-65612500D01*
X114773095Y-65621738D01*
X114656443Y-65640214D01*
X114487960Y-65694956D01*
X114487957Y-65694957D01*
X114330109Y-65775386D01*
X114248338Y-65834796D01*
X114186786Y-65879517D01*
X114186784Y-65879519D01*
X114186783Y-65879519D01*
X114061519Y-66004783D01*
X114061519Y-66004784D01*
X114061517Y-66004786D01*
X114016796Y-66066338D01*
X113957386Y-66148109D01*
X113876957Y-66305957D01*
X113876956Y-66305960D01*
X113822214Y-66474443D01*
X113794500Y-66649421D01*
X91460566Y-66649421D01*
X91460566Y-63013682D01*
X92613106Y-63013682D01*
X92613106Y-63013683D01*
X92631436Y-63211505D01*
X92631437Y-63211508D01*
X92685803Y-63402588D01*
X92685806Y-63402594D01*
X92774361Y-63580436D01*
X92894088Y-63738981D01*
X92969626Y-63807842D01*
X93040907Y-63872823D01*
X93209820Y-63977410D01*
X93395075Y-64049178D01*
X93590364Y-64085683D01*
X93590367Y-64085683D01*
X93789031Y-64085683D01*
X93789034Y-64085683D01*
X93984323Y-64049178D01*
X94169578Y-63977410D01*
X94250639Y-63927219D01*
X95669714Y-63927219D01*
X95669714Y-63927220D01*
X95750040Y-63976957D01*
X95750047Y-63976960D01*
X95935210Y-64048692D01*
X95935215Y-64048693D01*
X96130412Y-64085183D01*
X96328986Y-64085183D01*
X96339283Y-64083258D01*
X118249500Y-64083258D01*
X118249500Y-64312741D01*
X118274446Y-64502215D01*
X118279452Y-64540238D01*
X118279453Y-64540240D01*
X118338842Y-64761887D01*
X118426650Y-64973876D01*
X118426657Y-64973890D01*
X118541392Y-65172617D01*
X118681081Y-65354661D01*
X118681089Y-65354670D01*
X118839738Y-65513319D01*
X118873223Y-65574642D01*
X118868239Y-65644334D01*
X118826367Y-65700267D01*
X118760903Y-65724684D01*
X118752057Y-65725000D01*
X118702155Y-65725000D01*
X118642627Y-65731401D01*
X118642620Y-65731403D01*
X118507913Y-65781645D01*
X118507906Y-65781649D01*
X118392812Y-65867809D01*
X118392809Y-65867812D01*
X118306649Y-65982906D01*
X118306645Y-65982913D01*
X118256403Y-66117620D01*
X118256401Y-66117627D01*
X118250000Y-66177155D01*
X118250000Y-67250000D01*
X121750000Y-67250000D01*
X121750000Y-66177172D01*
X121749999Y-66177155D01*
X121743598Y-66117627D01*
X121743596Y-66117620D01*
X121693354Y-65982913D01*
X121693350Y-65982906D01*
X121607190Y-65867812D01*
X121607187Y-65867809D01*
X121492093Y-65781649D01*
X121492086Y-65781645D01*
X121357379Y-65731403D01*
X121357372Y-65731401D01*
X121297844Y-65725000D01*
X121247943Y-65725000D01*
X121180904Y-65705315D01*
X121135149Y-65652511D01*
X121125205Y-65583353D01*
X121154230Y-65519797D01*
X121160262Y-65513319D01*
X121318911Y-65354670D01*
X121318914Y-65354665D01*
X121318919Y-65354661D01*
X121458611Y-65172612D01*
X121573344Y-64973888D01*
X121661158Y-64761887D01*
X121720548Y-64540238D01*
X121750500Y-64312734D01*
X121750500Y-64083266D01*
X121720548Y-63855762D01*
X121661158Y-63634113D01*
X121573344Y-63422112D01*
X121458611Y-63223388D01*
X121458608Y-63223385D01*
X121458607Y-63223382D01*
X121318918Y-63041338D01*
X121318911Y-63041330D01*
X121156670Y-62879089D01*
X121156661Y-62879081D01*
X120974617Y-62739392D01*
X120775890Y-62624657D01*
X120775876Y-62624650D01*
X120563887Y-62536842D01*
X120342238Y-62477452D01*
X120304215Y-62472446D01*
X120114741Y-62447500D01*
X120114734Y-62447500D01*
X119885266Y-62447500D01*
X119885258Y-62447500D01*
X119668715Y-62476009D01*
X119657762Y-62477452D01*
X119564076Y-62502554D01*
X119436112Y-62536842D01*
X119224123Y-62624650D01*
X119224109Y-62624657D01*
X119025382Y-62739392D01*
X118843338Y-62879081D01*
X118681081Y-63041338D01*
X118541392Y-63223382D01*
X118426657Y-63422109D01*
X118426650Y-63422123D01*
X118338842Y-63634112D01*
X118279453Y-63855759D01*
X118279451Y-63855770D01*
X118249500Y-64083258D01*
X96339283Y-64083258D01*
X96524182Y-64048693D01*
X96524183Y-64048693D01*
X96709353Y-63976958D01*
X96709363Y-63976953D01*
X96789682Y-63927220D01*
X96789683Y-63927219D01*
X96229700Y-63367236D01*
X96229699Y-63367236D01*
X95669714Y-63927219D01*
X94250639Y-63927219D01*
X94338491Y-63872823D01*
X94485311Y-63738979D01*
X94605037Y-63580436D01*
X94693592Y-63402593D01*
X94693592Y-63402590D01*
X94693594Y-63402588D01*
X94724724Y-63293174D01*
X94747961Y-63211506D01*
X94766292Y-63013683D01*
X94766292Y-63013682D01*
X95153609Y-63013682D01*
X95153609Y-63013683D01*
X95171930Y-63211413D01*
X95226274Y-63402409D01*
X95226279Y-63402422D01*
X95313082Y-63576745D01*
X95313083Y-63576745D01*
X95876146Y-63013683D01*
X95876145Y-63013682D01*
X96583252Y-63013682D01*
X96583252Y-63013683D01*
X97146313Y-63576744D01*
X97146314Y-63576744D01*
X97233120Y-63402416D01*
X97233126Y-63402401D01*
X97269409Y-63274880D01*
X109207866Y-63274880D01*
X109216621Y-63318897D01*
X109216623Y-63318903D01*
X109292606Y-63502344D01*
X109292611Y-63502353D01*
X109402920Y-63667441D01*
X109402923Y-63667445D01*
X109543320Y-63807842D01*
X109543324Y-63807845D01*
X109708412Y-63918154D01*
X109708421Y-63918159D01*
X109891862Y-63994142D01*
X109891870Y-63994144D01*
X110086602Y-64032879D01*
X110086605Y-64032880D01*
X110443886Y-64032880D01*
X110943886Y-64032880D01*
X111301167Y-64032880D01*
X111301169Y-64032879D01*
X111495901Y-63994144D01*
X111495909Y-63994142D01*
X111679350Y-63918159D01*
X111679359Y-63918154D01*
X111844447Y-63807845D01*
X111844451Y-63807842D01*
X111984848Y-63667445D01*
X111984851Y-63667441D01*
X112095160Y-63502353D01*
X112095165Y-63502344D01*
X112171148Y-63318903D01*
X112171150Y-63318897D01*
X112179906Y-63274880D01*
X110943886Y-63274880D01*
X110943886Y-64032880D01*
X110443886Y-64032880D01*
X110443886Y-63274880D01*
X109207866Y-63274880D01*
X97269409Y-63274880D01*
X97287466Y-63211415D01*
X97287467Y-63211413D01*
X97305789Y-63013683D01*
X97305789Y-63013682D01*
X97287467Y-62815952D01*
X97287466Y-62815950D01*
X97275780Y-62774879D01*
X109207865Y-62774879D01*
X109207866Y-62774880D01*
X110443886Y-62774880D01*
X110943886Y-62774880D01*
X112179906Y-62774880D01*
X112179906Y-62774879D01*
X112171150Y-62730862D01*
X112171148Y-62730856D01*
X112095165Y-62547415D01*
X112095160Y-62547406D01*
X111984851Y-62382318D01*
X111984848Y-62382314D01*
X111844451Y-62241917D01*
X111844447Y-62241914D01*
X111679359Y-62131605D01*
X111679350Y-62131600D01*
X111495909Y-62055617D01*
X111495901Y-62055615D01*
X111301168Y-62016880D01*
X110943886Y-62016880D01*
X110943886Y-62774880D01*
X110443886Y-62774880D01*
X110443886Y-62016880D01*
X110086604Y-62016880D01*
X109891870Y-62055615D01*
X109891862Y-62055617D01*
X109708421Y-62131600D01*
X109708412Y-62131605D01*
X109543324Y-62241914D01*
X109543320Y-62241917D01*
X109402923Y-62382314D01*
X109402920Y-62382318D01*
X109292611Y-62547406D01*
X109292606Y-62547415D01*
X109216623Y-62730856D01*
X109216621Y-62730862D01*
X109207865Y-62774879D01*
X97275780Y-62774879D01*
X97233126Y-62624964D01*
X97233120Y-62624949D01*
X97146314Y-62450620D01*
X97146313Y-62450620D01*
X96583252Y-63013682D01*
X95876145Y-63013682D01*
X95313082Y-62450619D01*
X95226279Y-62624943D01*
X95226274Y-62624956D01*
X95171930Y-62815952D01*
X95153609Y-63013682D01*
X94766292Y-63013682D01*
X94747961Y-62815860D01*
X94723777Y-62730862D01*
X94693594Y-62624777D01*
X94693591Y-62624771D01*
X94655068Y-62547406D01*
X94605037Y-62446930D01*
X94485311Y-62288387D01*
X94485309Y-62288384D01*
X94338492Y-62154544D01*
X94338491Y-62154543D01*
X94250636Y-62100145D01*
X95669713Y-62100145D01*
X96229699Y-62660130D01*
X96229700Y-62660130D01*
X96789683Y-62100145D01*
X96709354Y-62050407D01*
X96709350Y-62050405D01*
X96524187Y-61978673D01*
X96524182Y-61978672D01*
X96328986Y-61942183D01*
X96130412Y-61942183D01*
X95935215Y-61978672D01*
X95935210Y-61978673D01*
X95750049Y-62050404D01*
X95750040Y-62050408D01*
X95669714Y-62100144D01*
X95669713Y-62100145D01*
X94250636Y-62100145D01*
X94250634Y-62100144D01*
X94169579Y-62049956D01*
X94169577Y-62049955D01*
X93984326Y-61978189D01*
X93984325Y-61978188D01*
X93984323Y-61978188D01*
X93789034Y-61941683D01*
X93590364Y-61941683D01*
X93395075Y-61978188D01*
X93395073Y-61978188D01*
X93395071Y-61978189D01*
X93209820Y-62049955D01*
X93209818Y-62049956D01*
X93040905Y-62154544D01*
X92894088Y-62288384D01*
X92774361Y-62446929D01*
X92685806Y-62624771D01*
X92685803Y-62624777D01*
X92631437Y-62815857D01*
X92631436Y-62815860D01*
X92613106Y-63013682D01*
X91460566Y-63013682D01*
X91460566Y-60473682D01*
X92613106Y-60473682D01*
X92613106Y-60473683D01*
X92631436Y-60671505D01*
X92631437Y-60671508D01*
X92685803Y-60862588D01*
X92685806Y-60862594D01*
X92774361Y-61040436D01*
X92894088Y-61198981D01*
X93020392Y-61314121D01*
X93040907Y-61332823D01*
X93209820Y-61437410D01*
X93395075Y-61509178D01*
X93590364Y-61545683D01*
X93590367Y-61545683D01*
X93789031Y-61545683D01*
X93789034Y-61545683D01*
X93984323Y-61509178D01*
X94169578Y-61437410D01*
X94338491Y-61332823D01*
X94485311Y-61198979D01*
X94605037Y-61040436D01*
X94693592Y-60862593D01*
X94693592Y-60862590D01*
X94693594Y-60862588D01*
X94747960Y-60671508D01*
X94747961Y-60671505D01*
X94756977Y-60574213D01*
X94766292Y-60473683D01*
X94766292Y-60473682D01*
X95153106Y-60473682D01*
X95153106Y-60473683D01*
X95171436Y-60671505D01*
X95171437Y-60671508D01*
X95225803Y-60862588D01*
X95225806Y-60862594D01*
X95314361Y-61040436D01*
X95434088Y-61198981D01*
X95560392Y-61314121D01*
X95580907Y-61332823D01*
X95749820Y-61437410D01*
X95935075Y-61509178D01*
X96130364Y-61545683D01*
X96130367Y-61545683D01*
X96329031Y-61545683D01*
X96329034Y-61545683D01*
X96515111Y-61510900D01*
X112675600Y-61510900D01*
X112675600Y-61805099D01*
X112675601Y-61805116D01*
X112714001Y-62096796D01*
X112790152Y-62380994D01*
X112902734Y-62652794D01*
X112902742Y-62652810D01*
X113049840Y-62907589D01*
X113049851Y-62907605D01*
X113228948Y-63141009D01*
X113228954Y-63141016D01*
X113436983Y-63349045D01*
X113436990Y-63349051D01*
X113603205Y-63476592D01*
X113670403Y-63528155D01*
X113670410Y-63528159D01*
X113925189Y-63675257D01*
X113925205Y-63675265D01*
X114197005Y-63787847D01*
X114197007Y-63787847D01*
X114197013Y-63787850D01*
X114481200Y-63863998D01*
X114772894Y-63902400D01*
X114772901Y-63902400D01*
X115067099Y-63902400D01*
X115067106Y-63902400D01*
X115358800Y-63863998D01*
X115642987Y-63787850D01*
X115760973Y-63738979D01*
X115914794Y-63675265D01*
X115914797Y-63675263D01*
X115914803Y-63675261D01*
X116169597Y-63528155D01*
X116403011Y-63349050D01*
X116611050Y-63141011D01*
X116790155Y-62907597D01*
X116937261Y-62652803D01*
X116948799Y-62624949D01*
X117049847Y-62380994D01*
X117049846Y-62380994D01*
X117049850Y-62380987D01*
X117125998Y-62096800D01*
X117164400Y-61805106D01*
X117164400Y-61510894D01*
X117125998Y-61219200D01*
X117049850Y-60935013D01*
X117049847Y-60935005D01*
X116937265Y-60663205D01*
X116937257Y-60663189D01*
X116790159Y-60408410D01*
X116790155Y-60408403D01*
X116611050Y-60174989D01*
X116611045Y-60174983D01*
X116403016Y-59966954D01*
X116403009Y-59966948D01*
X116169605Y-59787851D01*
X116169603Y-59787849D01*
X116169597Y-59787845D01*
X116169592Y-59787842D01*
X116169589Y-59787840D01*
X115914810Y-59640742D01*
X115914794Y-59640734D01*
X115642994Y-59528152D01*
X115575082Y-59509955D01*
X115358800Y-59452002D01*
X115358799Y-59452001D01*
X115358796Y-59452001D01*
X115067116Y-59413601D01*
X115067111Y-59413600D01*
X115067106Y-59413600D01*
X114772894Y-59413600D01*
X114772888Y-59413600D01*
X114772883Y-59413601D01*
X114481203Y-59452001D01*
X114197005Y-59528152D01*
X113925205Y-59640734D01*
X113925189Y-59640742D01*
X113670410Y-59787840D01*
X113670394Y-59787851D01*
X113436990Y-59966948D01*
X113436983Y-59966954D01*
X113228954Y-60174983D01*
X113228948Y-60174990D01*
X113049851Y-60408394D01*
X113049840Y-60408410D01*
X112902742Y-60663189D01*
X112902734Y-60663205D01*
X112790152Y-60935005D01*
X112714001Y-61219203D01*
X112675601Y-61510883D01*
X112675600Y-61510900D01*
X96515111Y-61510900D01*
X96524323Y-61509178D01*
X96709578Y-61437410D01*
X96878491Y-61332823D01*
X97025311Y-61198979D01*
X97145037Y-61040436D01*
X97233592Y-60862593D01*
X97233592Y-60862590D01*
X97233594Y-60862588D01*
X97287960Y-60671508D01*
X97287961Y-60671505D01*
X97296977Y-60574213D01*
X97306292Y-60473683D01*
X97297198Y-60375546D01*
X109177386Y-60375546D01*
X109177386Y-60574213D01*
X109216140Y-60769041D01*
X109216142Y-60769049D01*
X109292163Y-60952581D01*
X109292168Y-60952590D01*
X109402532Y-61117760D01*
X109402535Y-61117764D01*
X109543001Y-61258230D01*
X109543005Y-61258233D01*
X109708175Y-61368597D01*
X109708181Y-61368600D01*
X109708182Y-61368601D01*
X109891717Y-61444624D01*
X110086552Y-61483379D01*
X110086556Y-61483380D01*
X110086557Y-61483380D01*
X111301216Y-61483380D01*
X111301217Y-61483379D01*
X111496055Y-61444624D01*
X111679590Y-61368601D01*
X111844767Y-61258233D01*
X111985239Y-61117761D01*
X112095607Y-60952584D01*
X112171630Y-60769049D01*
X112210386Y-60574209D01*
X112210386Y-60375551D01*
X112171630Y-60180711D01*
X112095607Y-59997176D01*
X112095606Y-59997175D01*
X112095603Y-59997169D01*
X111985239Y-59831999D01*
X111985236Y-59831995D01*
X111844770Y-59691529D01*
X111844766Y-59691526D01*
X111679596Y-59581162D01*
X111679587Y-59581157D01*
X111496055Y-59505136D01*
X111496047Y-59505134D01*
X111301219Y-59466380D01*
X111301215Y-59466380D01*
X110086557Y-59466380D01*
X110086552Y-59466380D01*
X109891724Y-59505134D01*
X109891716Y-59505136D01*
X109708184Y-59581157D01*
X109708175Y-59581162D01*
X109543005Y-59691526D01*
X109543001Y-59691529D01*
X109402535Y-59831995D01*
X109402532Y-59831999D01*
X109292168Y-59997169D01*
X109292163Y-59997178D01*
X109216142Y-60180710D01*
X109216140Y-60180718D01*
X109177386Y-60375546D01*
X97297198Y-60375546D01*
X97287961Y-60275860D01*
X97260889Y-60180711D01*
X97233594Y-60084777D01*
X97233591Y-60084771D01*
X97189974Y-59997176D01*
X97145037Y-59906930D01*
X97055108Y-59787845D01*
X97025309Y-59748384D01*
X96878492Y-59614544D01*
X96878491Y-59614543D01*
X96804204Y-59568546D01*
X96709579Y-59509956D01*
X96709577Y-59509955D01*
X96524326Y-59438189D01*
X96524325Y-59438188D01*
X96524323Y-59438188D01*
X96329034Y-59401683D01*
X96130364Y-59401683D01*
X95935075Y-59438188D01*
X95935073Y-59438188D01*
X95935071Y-59438189D01*
X95749820Y-59509955D01*
X95749818Y-59509956D01*
X95580905Y-59614544D01*
X95434088Y-59748384D01*
X95314361Y-59906929D01*
X95225806Y-60084771D01*
X95225803Y-60084777D01*
X95171437Y-60275857D01*
X95171436Y-60275860D01*
X95153106Y-60473682D01*
X94766292Y-60473682D01*
X94747961Y-60275860D01*
X94720889Y-60180711D01*
X94693594Y-60084777D01*
X94693591Y-60084771D01*
X94649974Y-59997176D01*
X94605037Y-59906930D01*
X94515108Y-59787845D01*
X94485309Y-59748384D01*
X94338492Y-59614544D01*
X94338491Y-59614543D01*
X94264204Y-59568546D01*
X94169579Y-59509956D01*
X94169577Y-59509955D01*
X93984326Y-59438189D01*
X93984325Y-59438188D01*
X93984323Y-59438188D01*
X93789034Y-59401683D01*
X93590364Y-59401683D01*
X93395075Y-59438188D01*
X93395073Y-59438188D01*
X93395071Y-59438189D01*
X93209820Y-59509955D01*
X93209818Y-59509956D01*
X93040905Y-59614544D01*
X92894088Y-59748384D01*
X92774361Y-59906929D01*
X92685806Y-60084771D01*
X92685803Y-60084777D01*
X92631437Y-60275857D01*
X92631436Y-60275860D01*
X92613106Y-60473682D01*
X91460566Y-60473682D01*
X91460566Y-56489421D01*
X113794500Y-56489421D01*
X113794500Y-56666578D01*
X113822214Y-56841556D01*
X113876956Y-57010039D01*
X113876957Y-57010042D01*
X113957386Y-57167890D01*
X114061517Y-57311214D01*
X114186786Y-57436483D01*
X114330110Y-57540614D01*
X114407529Y-57580061D01*
X114487957Y-57621042D01*
X114487960Y-57621043D01*
X114572201Y-57648414D01*
X114656445Y-57675786D01*
X114831421Y-57703500D01*
X114831422Y-57703500D01*
X115008578Y-57703500D01*
X115008579Y-57703500D01*
X115183555Y-57675786D01*
X115352042Y-57621042D01*
X115509890Y-57540614D01*
X115525161Y-57529518D01*
X115590964Y-57506038D01*
X115659018Y-57521862D01*
X115707715Y-57571966D01*
X115721592Y-57640443D01*
X115720986Y-57646022D01*
X115709500Y-57733258D01*
X115709500Y-57962741D01*
X115734446Y-58152215D01*
X115739452Y-58190238D01*
X115739453Y-58190240D01*
X115798842Y-58411887D01*
X115886650Y-58623876D01*
X115886657Y-58623890D01*
X116001392Y-58822617D01*
X116141081Y-59004661D01*
X116141089Y-59004670D01*
X116303330Y-59166911D01*
X116303338Y-59166918D01*
X116485382Y-59306607D01*
X116485385Y-59306608D01*
X116485388Y-59306611D01*
X116684112Y-59421344D01*
X116684117Y-59421346D01*
X116684123Y-59421349D01*
X116775480Y-59459190D01*
X116896113Y-59509158D01*
X117117762Y-59568548D01*
X117345266Y-59598500D01*
X117345273Y-59598500D01*
X117574727Y-59598500D01*
X117574734Y-59598500D01*
X117802238Y-59568548D01*
X118023887Y-59509158D01*
X118235888Y-59421344D01*
X118434612Y-59306611D01*
X118616661Y-59166919D01*
X118616665Y-59166914D01*
X118616670Y-59166911D01*
X118778911Y-59004670D01*
X118778914Y-59004665D01*
X118778919Y-59004661D01*
X118918611Y-58822612D01*
X119033344Y-58623888D01*
X119121158Y-58411887D01*
X119180548Y-58190238D01*
X119210500Y-57962734D01*
X119210500Y-57733266D01*
X119180548Y-57505762D01*
X119121158Y-57284113D01*
X119033344Y-57072112D01*
X118918611Y-56873388D01*
X118918608Y-56873385D01*
X118918607Y-56873382D01*
X118778918Y-56691338D01*
X118778911Y-56691330D01*
X118647761Y-56560180D01*
X118614276Y-56498857D01*
X118619260Y-56429165D01*
X118661132Y-56373232D01*
X118726596Y-56348815D01*
X118735442Y-56348499D01*
X118757871Y-56348499D01*
X118757872Y-56348499D01*
X118817483Y-56342091D01*
X118952331Y-56291796D01*
X119067546Y-56205546D01*
X119153796Y-56090331D01*
X119204091Y-55955483D01*
X119210500Y-55895873D01*
X119210499Y-53250128D01*
X119204091Y-53190517D01*
X119153796Y-53055669D01*
X119153795Y-53055668D01*
X119153793Y-53055664D01*
X119067547Y-52940455D01*
X119067544Y-52940452D01*
X118952335Y-52854206D01*
X118952328Y-52854202D01*
X118817482Y-52803908D01*
X118817483Y-52803908D01*
X118757883Y-52797501D01*
X118757881Y-52797500D01*
X118757873Y-52797500D01*
X118757864Y-52797500D01*
X116162129Y-52797500D01*
X116162123Y-52797501D01*
X116102516Y-52803908D01*
X115967671Y-52854202D01*
X115967664Y-52854206D01*
X115852455Y-52940452D01*
X115852452Y-52940455D01*
X115766206Y-53055664D01*
X115766202Y-53055671D01*
X115715908Y-53190517D01*
X115709501Y-53250116D01*
X115709501Y-53250123D01*
X115709500Y-53250135D01*
X115709500Y-53651016D01*
X115689815Y-53718055D01*
X115637011Y-53763810D01*
X115567853Y-53773754D01*
X115544548Y-53768058D01*
X115523330Y-53760634D01*
X115523315Y-53760630D01*
X115344070Y-53740435D01*
X115344062Y-53740435D01*
X115164816Y-53760630D01*
X115164811Y-53760631D01*
X114994542Y-53820211D01*
X114841803Y-53916184D01*
X114714250Y-54043737D01*
X114618277Y-54196476D01*
X114558697Y-54366745D01*
X114558696Y-54366750D01*
X114538501Y-54545996D01*
X114538501Y-54546003D01*
X114558696Y-54725249D01*
X114558697Y-54725254D01*
X114618277Y-54895523D01*
X114658682Y-54959826D01*
X114714250Y-55048262D01*
X114841804Y-55175816D01*
X114904598Y-55215272D01*
X114917702Y-55223506D01*
X114963993Y-55275841D01*
X114974641Y-55344895D01*
X114946266Y-55408743D01*
X114887876Y-55447115D01*
X114851730Y-55452500D01*
X114831421Y-55452500D01*
X114773095Y-55461738D01*
X114656443Y-55480214D01*
X114487960Y-55534956D01*
X114487957Y-55534957D01*
X114330109Y-55615386D01*
X114272113Y-55657523D01*
X114186786Y-55719517D01*
X114186784Y-55719519D01*
X114186783Y-55719519D01*
X114061519Y-55844783D01*
X114061519Y-55844784D01*
X114061517Y-55844786D01*
X114024407Y-55895864D01*
X113957386Y-55988109D01*
X113876957Y-56145957D01*
X113876956Y-56145960D01*
X113822214Y-56314443D01*
X113794500Y-56489421D01*
X91460566Y-56489421D01*
X91460566Y-51868500D01*
X91480251Y-51801461D01*
X91533055Y-51755706D01*
X91584566Y-51744500D01*
X93491724Y-51744500D01*
X93558763Y-51764185D01*
G37*
G04 #@! TD.AperFunction*
G04 #@! TA.AperFunction,NonConductor*
G36*
X108798763Y-51764185D02*
G01*
X108844518Y-51816989D01*
X108854462Y-51886147D01*
X108825437Y-51949703D01*
X108804609Y-51968818D01*
X108638894Y-52089216D01*
X108638889Y-52089220D01*
X108471940Y-52256169D01*
X108471935Y-52256175D01*
X108446384Y-52291344D01*
X108391054Y-52334010D01*
X108321441Y-52339989D01*
X108259646Y-52307383D01*
X108245748Y-52291344D01*
X108220196Y-52256175D01*
X108220194Y-52256172D01*
X108053244Y-52089222D01*
X108053242Y-52089220D01*
X108053237Y-52089216D01*
X107887523Y-51968818D01*
X107844857Y-51913488D01*
X107838878Y-51843875D01*
X107871484Y-51782080D01*
X107932322Y-51747723D01*
X107960408Y-51744500D01*
X108731724Y-51744500D01*
X108798763Y-51764185D01*
G37*
G04 #@! TD.AperFunction*
G04 #@! TA.AperFunction,NonConductor*
G36*
X106258763Y-51764185D02*
G01*
X106304518Y-51816989D01*
X106314462Y-51886147D01*
X106285437Y-51949703D01*
X106264609Y-51968818D01*
X106098894Y-52089216D01*
X106098889Y-52089220D01*
X105931940Y-52256169D01*
X105931935Y-52256175D01*
X105906384Y-52291344D01*
X105851054Y-52334010D01*
X105781441Y-52339989D01*
X105719646Y-52307383D01*
X105705748Y-52291344D01*
X105680196Y-52256175D01*
X105680194Y-52256172D01*
X105513244Y-52089222D01*
X105513242Y-52089220D01*
X105513237Y-52089216D01*
X105347523Y-51968818D01*
X105304857Y-51913488D01*
X105298878Y-51843875D01*
X105331484Y-51782080D01*
X105392322Y-51747723D01*
X105420408Y-51744500D01*
X106191724Y-51744500D01*
X106258763Y-51764185D01*
G37*
G04 #@! TD.AperFunction*
G04 #@! TA.AperFunction,NonConductor*
G36*
X103718763Y-51764185D02*
G01*
X103764518Y-51816989D01*
X103774462Y-51886147D01*
X103745437Y-51949703D01*
X103724609Y-51968818D01*
X103558894Y-52089216D01*
X103558889Y-52089220D01*
X103391940Y-52256169D01*
X103391935Y-52256175D01*
X103366384Y-52291344D01*
X103311054Y-52334010D01*
X103241441Y-52339989D01*
X103179646Y-52307383D01*
X103165748Y-52291344D01*
X103140196Y-52256175D01*
X103140194Y-52256172D01*
X102973244Y-52089222D01*
X102973242Y-52089220D01*
X102973237Y-52089216D01*
X102807523Y-51968818D01*
X102764857Y-51913488D01*
X102758878Y-51843875D01*
X102791484Y-51782080D01*
X102852322Y-51747723D01*
X102880408Y-51744500D01*
X103651724Y-51744500D01*
X103718763Y-51764185D01*
G37*
G04 #@! TD.AperFunction*
G04 #@! TA.AperFunction,NonConductor*
G36*
X101178763Y-51764185D02*
G01*
X101224518Y-51816989D01*
X101234462Y-51886147D01*
X101205437Y-51949703D01*
X101184609Y-51968818D01*
X101018894Y-52089216D01*
X101018889Y-52089220D01*
X100851940Y-52256169D01*
X100851935Y-52256175D01*
X100826384Y-52291344D01*
X100771054Y-52334010D01*
X100701441Y-52339989D01*
X100639646Y-52307383D01*
X100625748Y-52291344D01*
X100600196Y-52256175D01*
X100600194Y-52256172D01*
X100433244Y-52089222D01*
X100433242Y-52089220D01*
X100433237Y-52089216D01*
X100267523Y-51968818D01*
X100224857Y-51913488D01*
X100218878Y-51843875D01*
X100251484Y-51782080D01*
X100312322Y-51747723D01*
X100340408Y-51744500D01*
X101111724Y-51744500D01*
X101178763Y-51764185D01*
G37*
G04 #@! TD.AperFunction*
G04 #@! TA.AperFunction,NonConductor*
G36*
X98638763Y-51764185D02*
G01*
X98684518Y-51816989D01*
X98694462Y-51886147D01*
X98665437Y-51949703D01*
X98644609Y-51968818D01*
X98478894Y-52089216D01*
X98478889Y-52089220D01*
X98311940Y-52256169D01*
X98311935Y-52256175D01*
X98286384Y-52291344D01*
X98231054Y-52334010D01*
X98161441Y-52339989D01*
X98099646Y-52307383D01*
X98085748Y-52291344D01*
X98060196Y-52256175D01*
X98060194Y-52256172D01*
X97893244Y-52089222D01*
X97893242Y-52089220D01*
X97893237Y-52089216D01*
X97727523Y-51968818D01*
X97684857Y-51913488D01*
X97678878Y-51843875D01*
X97711484Y-51782080D01*
X97772322Y-51747723D01*
X97800408Y-51744500D01*
X98571724Y-51744500D01*
X98638763Y-51764185D01*
G37*
G04 #@! TD.AperFunction*
G04 #@! TA.AperFunction,NonConductor*
G36*
X96098763Y-51764185D02*
G01*
X96144518Y-51816989D01*
X96154462Y-51886147D01*
X96125437Y-51949703D01*
X96104609Y-51968818D01*
X95938894Y-52089216D01*
X95938889Y-52089220D01*
X95771940Y-52256169D01*
X95771935Y-52256175D01*
X95746384Y-52291344D01*
X95691054Y-52334010D01*
X95621441Y-52339989D01*
X95559646Y-52307383D01*
X95545748Y-52291344D01*
X95520196Y-52256175D01*
X95520194Y-52256172D01*
X95353244Y-52089222D01*
X95353242Y-52089220D01*
X95353237Y-52089216D01*
X95187523Y-51968818D01*
X95144857Y-51913488D01*
X95138878Y-51843875D01*
X95171484Y-51782080D01*
X95232322Y-51747723D01*
X95260408Y-51744500D01*
X96031724Y-51744500D01*
X96098763Y-51764185D01*
G37*
G04 #@! TD.AperFunction*
G04 #@! TA.AperFunction,NonConductor*
G36*
X108432485Y-71073175D02*
G01*
X108446385Y-71089217D01*
X108471934Y-71124384D01*
X108638893Y-71291343D01*
X108715750Y-71347182D01*
X108758416Y-71402511D01*
X108764395Y-71472125D01*
X108731790Y-71533920D01*
X108670951Y-71568277D01*
X108642865Y-71571500D01*
X108049267Y-71571500D01*
X107982228Y-71551815D01*
X107936473Y-71499011D01*
X107926529Y-71429853D01*
X107955554Y-71366297D01*
X107976382Y-71347182D01*
X108053238Y-71291343D01*
X108053240Y-71291340D01*
X108053244Y-71291338D01*
X108220194Y-71124388D01*
X108245747Y-71089216D01*
X108301076Y-71046551D01*
X108370689Y-71040570D01*
X108432485Y-71073175D01*
G37*
G04 #@! TD.AperFunction*
G04 #@! TA.AperFunction,NonConductor*
G36*
X105892485Y-71073175D02*
G01*
X105906385Y-71089217D01*
X105931934Y-71124384D01*
X106098893Y-71291343D01*
X106175750Y-71347182D01*
X106218416Y-71402511D01*
X106224395Y-71472125D01*
X106191790Y-71533920D01*
X106130951Y-71568277D01*
X106102865Y-71571500D01*
X105509267Y-71571500D01*
X105442228Y-71551815D01*
X105396473Y-71499011D01*
X105386529Y-71429853D01*
X105415554Y-71366297D01*
X105436382Y-71347182D01*
X105513238Y-71291343D01*
X105513240Y-71291340D01*
X105513244Y-71291338D01*
X105680194Y-71124388D01*
X105705747Y-71089216D01*
X105761076Y-71046551D01*
X105830689Y-71040570D01*
X105892485Y-71073175D01*
G37*
G04 #@! TD.AperFunction*
G04 #@! TA.AperFunction,NonConductor*
G36*
X103352485Y-71073175D02*
G01*
X103366385Y-71089217D01*
X103391934Y-71124384D01*
X103558893Y-71291343D01*
X103635750Y-71347182D01*
X103678416Y-71402511D01*
X103684395Y-71472125D01*
X103651790Y-71533920D01*
X103590951Y-71568277D01*
X103562865Y-71571500D01*
X102969267Y-71571500D01*
X102902228Y-71551815D01*
X102856473Y-71499011D01*
X102846529Y-71429853D01*
X102875554Y-71366297D01*
X102896382Y-71347182D01*
X102973238Y-71291343D01*
X102973240Y-71291340D01*
X102973244Y-71291338D01*
X103140194Y-71124388D01*
X103165747Y-71089216D01*
X103221076Y-71046551D01*
X103290689Y-71040570D01*
X103352485Y-71073175D01*
G37*
G04 #@! TD.AperFunction*
G04 #@! TA.AperFunction,NonConductor*
G36*
X100812485Y-71073175D02*
G01*
X100826385Y-71089217D01*
X100851934Y-71124384D01*
X101018893Y-71291343D01*
X101095750Y-71347182D01*
X101138416Y-71402511D01*
X101144395Y-71472125D01*
X101111790Y-71533920D01*
X101050951Y-71568277D01*
X101022865Y-71571500D01*
X100429267Y-71571500D01*
X100362228Y-71551815D01*
X100316473Y-71499011D01*
X100306529Y-71429853D01*
X100335554Y-71366297D01*
X100356382Y-71347182D01*
X100433238Y-71291343D01*
X100433240Y-71291340D01*
X100433244Y-71291338D01*
X100600194Y-71124388D01*
X100625747Y-71089216D01*
X100681076Y-71046551D01*
X100750689Y-71040570D01*
X100812485Y-71073175D01*
G37*
G04 #@! TD.AperFunction*
G04 #@! TA.AperFunction,NonConductor*
G36*
X98272176Y-71072750D02*
G01*
X98286076Y-71088792D01*
X98311934Y-71124384D01*
X98478893Y-71291343D01*
X98555750Y-71347182D01*
X98598416Y-71402511D01*
X98604395Y-71472125D01*
X98571790Y-71533920D01*
X98510951Y-71568277D01*
X98482865Y-71571500D01*
X97888416Y-71571500D01*
X97821377Y-71551815D01*
X97775622Y-71499011D01*
X97765678Y-71429853D01*
X97794703Y-71366297D01*
X97815531Y-71347182D01*
X97892914Y-71290959D01*
X97892920Y-71290954D01*
X98059816Y-71124058D01*
X98085438Y-71088792D01*
X98140767Y-71046126D01*
X98210380Y-71040145D01*
X98272176Y-71072750D01*
G37*
G04 #@! TD.AperFunction*
G04 #@! TA.AperFunction,NonConductor*
G36*
X95732792Y-71072748D02*
G01*
X95746692Y-71088789D01*
X95772320Y-71124063D01*
X95939211Y-71290954D01*
X95939217Y-71290959D01*
X96016601Y-71347182D01*
X96059267Y-71402512D01*
X96065246Y-71472125D01*
X96032640Y-71533920D01*
X95971802Y-71568277D01*
X95943716Y-71571500D01*
X95349267Y-71571500D01*
X95282228Y-71551815D01*
X95236473Y-71499011D01*
X95226529Y-71429853D01*
X95255554Y-71366297D01*
X95276382Y-71347182D01*
X95353238Y-71291343D01*
X95353240Y-71291340D01*
X95353244Y-71291338D01*
X95520194Y-71124388D01*
X95546056Y-71088790D01*
X95601382Y-71046125D01*
X95670996Y-71040144D01*
X95732792Y-71072748D01*
G37*
G04 #@! TD.AperFunction*
M02*
