G04 #@! TF.GenerationSoftware,KiCad,Pcbnew,8.0.6*
G04 #@! TF.CreationDate,2025-06-27T19:48:41+01:00*
G04 #@! TF.ProjectId,1x1,3178312e-6b69-4636-9164-5f7063625858,0.1*
G04 #@! TF.SameCoordinates,Original*
G04 #@! TF.FileFunction,Copper,L1,Top*
G04 #@! TF.FilePolarity,Positive*
%FSLAX46Y46*%
G04 Gerber Fmt 4.6, Leading zero omitted, Abs format (unit mm)*
G04 Created by KiCad (PCBNEW 8.0.6) date 2025-06-27 19:48:41*
%MOMM*%
%LPD*%
G01*
G04 APERTURE LIST*
G04 #@! TA.AperFunction,ViaPad*
%ADD10C,0.600000*%
G04 #@! TD*
G04 #@! TA.AperFunction,Conductor*
%ADD11C,0.200000*%
G04 #@! TD*
G04 APERTURE END LIST*
D10*
X115344066Y-54546000D03*
X95786066Y-55308000D03*
D11*
X111633124Y-55368000D02*
X112455124Y-54546000D01*
X95846066Y-55368000D02*
X111633124Y-55368000D01*
X112455124Y-54546000D02*
X115344066Y-54546000D01*
X95786066Y-55308000D02*
X95846066Y-55368000D01*
G04 #@! TA.AperFunction,NonConductor*
G36*
X124524605Y-51764185D02*
G01*
X124570360Y-51816989D01*
X124581566Y-51868500D01*
X124581566Y-71447500D01*
X124561881Y-71514539D01*
X124509077Y-71560294D01*
X124457566Y-71571500D01*
X91584566Y-71571500D01*
X91517527Y-71551815D01*
X91471772Y-71499011D01*
X91460566Y-71447500D01*
X91460566Y-66649421D01*
X113794500Y-66649421D01*
X113794500Y-66826578D01*
X113822214Y-67001556D01*
X113876956Y-67170039D01*
X113876957Y-67170042D01*
X113957386Y-67327890D01*
X114061517Y-67471214D01*
X114186786Y-67596483D01*
X114330110Y-67700614D01*
X114407529Y-67740061D01*
X114487957Y-67781042D01*
X114487960Y-67781043D01*
X114572201Y-67808414D01*
X114656445Y-67835786D01*
X114831421Y-67863500D01*
X114831422Y-67863500D01*
X115008578Y-67863500D01*
X115008579Y-67863500D01*
X115183555Y-67835786D01*
X115352042Y-67781042D01*
X115509890Y-67700614D01*
X115653214Y-67596483D01*
X115778483Y-67471214D01*
X115882614Y-67327890D01*
X115963042Y-67170042D01*
X116017786Y-67001555D01*
X116045500Y-66826579D01*
X116045500Y-66649421D01*
X116017786Y-66474445D01*
X115963042Y-66305958D01*
X115963042Y-66305957D01*
X115882613Y-66148109D01*
X115778483Y-66004786D01*
X115653214Y-65879517D01*
X115509890Y-65775386D01*
X115501953Y-65771342D01*
X115352042Y-65694957D01*
X115352039Y-65694956D01*
X115183556Y-65640214D01*
X115096067Y-65626357D01*
X115008579Y-65612500D01*
X114831421Y-65612500D01*
X114773095Y-65621738D01*
X114656443Y-65640214D01*
X114487960Y-65694956D01*
X114487957Y-65694957D01*
X114330109Y-65775386D01*
X114248338Y-65834796D01*
X114186786Y-65879517D01*
X114186784Y-65879519D01*
X114186783Y-65879519D01*
X114061519Y-66004783D01*
X114061519Y-66004784D01*
X114061517Y-66004786D01*
X114016796Y-66066338D01*
X113957386Y-66148109D01*
X113876957Y-66305957D01*
X113876956Y-66305960D01*
X113822214Y-66474443D01*
X113794500Y-66649421D01*
X91460566Y-66649421D01*
X91460566Y-64083258D01*
X118249500Y-64083258D01*
X118249500Y-64312741D01*
X118274446Y-64502215D01*
X118279452Y-64540238D01*
X118279453Y-64540240D01*
X118338842Y-64761887D01*
X118426650Y-64973876D01*
X118426657Y-64973890D01*
X118541392Y-65172617D01*
X118681081Y-65354661D01*
X118681089Y-65354670D01*
X118843330Y-65516911D01*
X118843338Y-65516918D01*
X119025382Y-65656607D01*
X119025385Y-65656608D01*
X119025388Y-65656611D01*
X119224112Y-65771344D01*
X119224117Y-65771346D01*
X119224123Y-65771349D01*
X119315480Y-65809190D01*
X119436113Y-65859158D01*
X119657762Y-65918548D01*
X119885266Y-65948500D01*
X119885273Y-65948500D01*
X120114727Y-65948500D01*
X120114734Y-65948500D01*
X120342238Y-65918548D01*
X120563887Y-65859158D01*
X120775888Y-65771344D01*
X120974612Y-65656611D01*
X121156661Y-65516919D01*
X121156665Y-65516914D01*
X121156670Y-65516911D01*
X121318911Y-65354670D01*
X121318914Y-65354665D01*
X121318919Y-65354661D01*
X121458611Y-65172612D01*
X121573344Y-64973888D01*
X121661158Y-64761887D01*
X121720548Y-64540238D01*
X121750500Y-64312734D01*
X121750500Y-64083266D01*
X121720548Y-63855762D01*
X121661158Y-63634113D01*
X121573344Y-63422112D01*
X121458611Y-63223388D01*
X121458608Y-63223385D01*
X121458607Y-63223382D01*
X121318918Y-63041338D01*
X121318911Y-63041330D01*
X121156670Y-62879089D01*
X121156661Y-62879081D01*
X120974617Y-62739392D01*
X120775890Y-62624657D01*
X120775876Y-62624650D01*
X120563887Y-62536842D01*
X120342238Y-62477452D01*
X120304215Y-62472446D01*
X120114741Y-62447500D01*
X120114734Y-62447500D01*
X119885266Y-62447500D01*
X119885258Y-62447500D01*
X119668715Y-62476009D01*
X119657762Y-62477452D01*
X119564076Y-62502554D01*
X119436112Y-62536842D01*
X119224123Y-62624650D01*
X119224109Y-62624657D01*
X119025382Y-62739392D01*
X118843338Y-62879081D01*
X118681081Y-63041338D01*
X118541392Y-63223382D01*
X118426657Y-63422109D01*
X118426650Y-63422123D01*
X118338842Y-63634112D01*
X118279453Y-63855759D01*
X118279451Y-63855770D01*
X118249500Y-64083258D01*
X91460566Y-64083258D01*
X91460566Y-61510900D01*
X112675600Y-61510900D01*
X112675600Y-61805099D01*
X112675601Y-61805116D01*
X112714001Y-62096796D01*
X112790152Y-62380994D01*
X112902734Y-62652794D01*
X112902742Y-62652810D01*
X113049840Y-62907589D01*
X113049851Y-62907605D01*
X113228948Y-63141009D01*
X113228954Y-63141016D01*
X113436983Y-63349045D01*
X113436990Y-63349051D01*
X113603205Y-63476592D01*
X113670403Y-63528155D01*
X113670410Y-63528159D01*
X113925189Y-63675257D01*
X113925205Y-63675265D01*
X114197005Y-63787847D01*
X114197007Y-63787847D01*
X114197013Y-63787850D01*
X114481200Y-63863998D01*
X114772894Y-63902400D01*
X114772901Y-63902400D01*
X115067099Y-63902400D01*
X115067106Y-63902400D01*
X115358800Y-63863998D01*
X115642987Y-63787850D01*
X115716318Y-63757475D01*
X115914794Y-63675265D01*
X115914797Y-63675263D01*
X115914803Y-63675261D01*
X116169597Y-63528155D01*
X116403011Y-63349050D01*
X116611050Y-63141011D01*
X116790155Y-62907597D01*
X116937261Y-62652803D01*
X116948920Y-62624657D01*
X117049847Y-62380994D01*
X117049846Y-62380994D01*
X117049850Y-62380987D01*
X117125998Y-62096800D01*
X117164400Y-61805106D01*
X117164400Y-61510894D01*
X117125998Y-61219200D01*
X117049850Y-60935013D01*
X117049847Y-60935005D01*
X116937265Y-60663205D01*
X116937257Y-60663189D01*
X116790159Y-60408410D01*
X116790155Y-60408403D01*
X116611050Y-60174989D01*
X116611045Y-60174983D01*
X116403016Y-59966954D01*
X116403009Y-59966948D01*
X116169605Y-59787851D01*
X116169603Y-59787849D01*
X116169597Y-59787845D01*
X116169592Y-59787842D01*
X116169589Y-59787840D01*
X115914810Y-59640742D01*
X115914794Y-59640734D01*
X115642994Y-59528152D01*
X115358796Y-59452001D01*
X115067116Y-59413601D01*
X115067111Y-59413600D01*
X115067106Y-59413600D01*
X114772894Y-59413600D01*
X114772888Y-59413600D01*
X114772883Y-59413601D01*
X114481203Y-59452001D01*
X114197005Y-59528152D01*
X113925205Y-59640734D01*
X113925189Y-59640742D01*
X113670410Y-59787840D01*
X113670394Y-59787851D01*
X113436990Y-59966948D01*
X113436983Y-59966954D01*
X113228954Y-60174983D01*
X113228948Y-60174990D01*
X113049851Y-60408394D01*
X113049840Y-60408410D01*
X112902742Y-60663189D01*
X112902734Y-60663205D01*
X112790152Y-60935005D01*
X112714001Y-61219203D01*
X112675601Y-61510883D01*
X112675600Y-61510900D01*
X91460566Y-61510900D01*
X91460566Y-55307996D01*
X94980501Y-55307996D01*
X94980501Y-55308003D01*
X95000696Y-55487249D01*
X95000697Y-55487254D01*
X95060277Y-55657523D01*
X95099231Y-55719517D01*
X95156250Y-55810262D01*
X95283804Y-55937816D01*
X95436544Y-56033789D01*
X95606805Y-56093366D01*
X95606811Y-56093368D01*
X95606816Y-56093369D01*
X95786062Y-56113565D01*
X95786066Y-56113565D01*
X95786070Y-56113565D01*
X95965315Y-56093369D01*
X95965317Y-56093368D01*
X95965321Y-56093368D01*
X95965324Y-56093366D01*
X95965328Y-56093366D01*
X96055443Y-56061832D01*
X96135588Y-56033789D01*
X96209247Y-55987505D01*
X96275219Y-55968500D01*
X111546455Y-55968500D01*
X111546471Y-55968501D01*
X111554067Y-55968501D01*
X111712178Y-55968501D01*
X111712181Y-55968501D01*
X111864909Y-55927577D01*
X111915028Y-55898639D01*
X112001840Y-55848520D01*
X112113644Y-55736716D01*
X112113644Y-55736714D01*
X112123852Y-55726507D01*
X112123853Y-55726504D01*
X112667541Y-55182819D01*
X112728864Y-55149334D01*
X112755222Y-55146500D01*
X114761654Y-55146500D01*
X114828693Y-55166185D01*
X114838969Y-55173555D01*
X114841802Y-55175814D01*
X114841804Y-55175816D01*
X114910530Y-55219000D01*
X114917702Y-55223506D01*
X114963993Y-55275841D01*
X114974641Y-55344895D01*
X114946266Y-55408743D01*
X114887876Y-55447115D01*
X114851730Y-55452500D01*
X114831421Y-55452500D01*
X114773095Y-55461738D01*
X114656443Y-55480214D01*
X114487960Y-55534956D01*
X114487957Y-55534957D01*
X114330109Y-55615386D01*
X114272113Y-55657523D01*
X114186786Y-55719517D01*
X114186784Y-55719519D01*
X114186783Y-55719519D01*
X114061519Y-55844783D01*
X114061519Y-55844784D01*
X114061517Y-55844786D01*
X114022388Y-55898642D01*
X113957386Y-55988109D01*
X113876957Y-56145957D01*
X113876956Y-56145960D01*
X113822214Y-56314443D01*
X113794500Y-56489421D01*
X113794500Y-56666578D01*
X113822214Y-56841556D01*
X113876956Y-57010039D01*
X113876957Y-57010042D01*
X113957386Y-57167890D01*
X114061517Y-57311214D01*
X114186786Y-57436483D01*
X114330110Y-57540614D01*
X114407529Y-57580061D01*
X114487957Y-57621042D01*
X114487960Y-57621043D01*
X114572201Y-57648414D01*
X114656445Y-57675786D01*
X114831421Y-57703500D01*
X114831422Y-57703500D01*
X115008578Y-57703500D01*
X115008579Y-57703500D01*
X115183555Y-57675786D01*
X115352042Y-57621042D01*
X115509890Y-57540614D01*
X115525161Y-57529518D01*
X115590964Y-57506038D01*
X115659018Y-57521862D01*
X115707715Y-57571966D01*
X115721592Y-57640443D01*
X115720986Y-57646022D01*
X115709500Y-57733258D01*
X115709500Y-57962741D01*
X115734446Y-58152215D01*
X115739452Y-58190238D01*
X115739453Y-58190240D01*
X115798842Y-58411887D01*
X115886650Y-58623876D01*
X115886657Y-58623890D01*
X116001392Y-58822617D01*
X116141081Y-59004661D01*
X116141089Y-59004670D01*
X116303330Y-59166911D01*
X116303338Y-59166918D01*
X116485382Y-59306607D01*
X116485385Y-59306608D01*
X116485388Y-59306611D01*
X116684112Y-59421344D01*
X116684117Y-59421346D01*
X116684123Y-59421349D01*
X116775480Y-59459190D01*
X116896113Y-59509158D01*
X117117762Y-59568548D01*
X117345266Y-59598500D01*
X117345273Y-59598500D01*
X117574727Y-59598500D01*
X117574734Y-59598500D01*
X117802238Y-59568548D01*
X118023887Y-59509158D01*
X118235888Y-59421344D01*
X118434612Y-59306611D01*
X118616661Y-59166919D01*
X118616665Y-59166914D01*
X118616670Y-59166911D01*
X118778911Y-59004670D01*
X118778914Y-59004665D01*
X118778919Y-59004661D01*
X118918611Y-58822612D01*
X119033344Y-58623888D01*
X119121158Y-58411887D01*
X119180548Y-58190238D01*
X119210500Y-57962734D01*
X119210500Y-57733266D01*
X119180548Y-57505762D01*
X119121158Y-57284113D01*
X119033344Y-57072112D01*
X118918611Y-56873388D01*
X118918608Y-56873385D01*
X118918607Y-56873382D01*
X118778918Y-56691338D01*
X118778911Y-56691330D01*
X118616670Y-56529089D01*
X118616661Y-56529081D01*
X118434617Y-56389392D01*
X118235890Y-56274657D01*
X118235876Y-56274650D01*
X118023887Y-56186842D01*
X117802238Y-56127452D01*
X117764215Y-56122446D01*
X117574741Y-56097500D01*
X117574734Y-56097500D01*
X117345266Y-56097500D01*
X117345258Y-56097500D01*
X117128715Y-56126009D01*
X117117762Y-56127452D01*
X117024076Y-56152554D01*
X116896112Y-56186842D01*
X116684123Y-56274650D01*
X116684109Y-56274657D01*
X116485382Y-56389392D01*
X116303338Y-56529081D01*
X116257181Y-56575238D01*
X116195858Y-56608723D01*
X116126166Y-56603739D01*
X116070233Y-56561867D01*
X116045816Y-56496403D01*
X116045621Y-56490967D01*
X116045500Y-56489423D01*
X116045500Y-56489421D01*
X116017786Y-56314445D01*
X115963042Y-56145958D01*
X115963042Y-56145957D01*
X115882613Y-55988109D01*
X115846073Y-55937816D01*
X115778483Y-55844786D01*
X115653214Y-55719517D01*
X115509890Y-55615386D01*
X115423779Y-55571510D01*
X115372983Y-55523535D01*
X115356188Y-55455714D01*
X115378726Y-55389579D01*
X115433441Y-55346128D01*
X115466192Y-55337805D01*
X115523315Y-55331369D01*
X115523318Y-55331368D01*
X115523321Y-55331368D01*
X115693588Y-55271789D01*
X115846328Y-55175816D01*
X115973882Y-55048262D01*
X116069855Y-54895522D01*
X116129434Y-54725255D01*
X116149631Y-54546000D01*
X116146998Y-54522632D01*
X116129435Y-54366750D01*
X116129434Y-54366745D01*
X116069854Y-54196476D01*
X115973881Y-54043737D01*
X115846328Y-53916184D01*
X115693589Y-53820211D01*
X115523320Y-53760631D01*
X115523315Y-53760630D01*
X115344070Y-53740435D01*
X115344062Y-53740435D01*
X115164816Y-53760630D01*
X115164811Y-53760631D01*
X114994542Y-53820211D01*
X114841802Y-53916185D01*
X114838969Y-53918445D01*
X114836790Y-53919334D01*
X114835908Y-53919889D01*
X114835810Y-53919734D01*
X114774283Y-53944855D01*
X114761654Y-53945500D01*
X112541794Y-53945500D01*
X112541778Y-53945499D01*
X112534182Y-53945499D01*
X112376067Y-53945499D01*
X112299703Y-53965961D01*
X112223338Y-53986423D01*
X112223333Y-53986426D01*
X112086414Y-54065475D01*
X112086406Y-54065481D01*
X111420708Y-54731181D01*
X111359385Y-54764666D01*
X111333027Y-54767500D01*
X96429006Y-54767500D01*
X96361967Y-54747815D01*
X96341325Y-54731181D01*
X96288328Y-54678184D01*
X96135589Y-54582211D01*
X95965320Y-54522631D01*
X95965315Y-54522630D01*
X95786070Y-54502435D01*
X95786062Y-54502435D01*
X95606816Y-54522630D01*
X95606811Y-54522631D01*
X95436542Y-54582211D01*
X95283803Y-54678184D01*
X95156250Y-54805737D01*
X95060277Y-54958476D01*
X95000697Y-55128745D01*
X95000696Y-55128750D01*
X94980501Y-55307996D01*
X91460566Y-55307996D01*
X91460566Y-51868500D01*
X91480251Y-51801461D01*
X91533055Y-51755706D01*
X91584566Y-51744500D01*
X124457566Y-51744500D01*
X124524605Y-51764185D01*
G37*
G04 #@! TD.AperFunction*
M02*
