G04 #@! TF.GenerationSoftware,KiCad,Pcbnew,8.0.6*
G04 #@! TF.CreationDate,2025-06-28T12:59:50+01:00*
G04 #@! TF.ProjectId,1x2,3178322e-6b69-4636-9164-5f7063625858,0.1*
G04 #@! TF.SameCoordinates,Original*
G04 #@! TF.FileFunction,Copper,L1,Top*
G04 #@! TF.FilePolarity,Positive*
%FSLAX46Y46*%
G04 Gerber Fmt 4.6, Leading zero omitted, Abs format (unit mm)*
G04 Created by KiCad (PCBNEW 8.0.6) date 2025-06-28 12:59:50*
%MOMM*%
%LPD*%
G01*
G04 APERTURE LIST*
G04 #@! TA.AperFunction,ViaPad*
%ADD10C,0.600000*%
G04 #@! TD*
G04 #@! TA.AperFunction,Conductor*
%ADD11C,0.200000*%
G04 #@! TD*
G04 APERTURE END LIST*
D10*
X102910000Y-56410000D03*
X83522942Y-57150000D03*
X122384942Y-56388000D03*
X86062942Y-57150000D03*
D11*
X94840000Y-56420000D02*
X93690000Y-57570000D01*
X102900000Y-56420000D02*
X94840000Y-56420000D01*
X93690000Y-57570000D02*
X86491471Y-57570000D01*
X102910000Y-56410000D02*
X102900000Y-56420000D01*
X86491471Y-57570000D02*
X86311471Y-57750000D01*
X86311471Y-57750000D02*
X84122942Y-57750000D01*
X84122942Y-57750000D02*
X83522942Y-57150000D01*
X93524314Y-57170000D02*
X94674314Y-56020000D01*
X86082942Y-57170000D02*
X93524314Y-57170000D01*
X94674314Y-56020000D02*
X102451471Y-56020000D01*
X121806942Y-55810000D02*
X122384942Y-56388000D01*
X102661471Y-55810000D02*
X121806942Y-55810000D01*
X86062942Y-57150000D02*
X86082942Y-57170000D01*
X102451471Y-56020000D02*
X102661471Y-55810000D01*
G04 #@! TA.AperFunction,NonConductor*
G36*
X131591481Y-53606185D02*
G01*
X131637236Y-53658989D01*
X131648442Y-53710500D01*
X131648442Y-73289500D01*
X131628757Y-73356539D01*
X131575953Y-73402294D01*
X131524442Y-73413500D01*
X79321442Y-73413500D01*
X79254403Y-73393815D01*
X79208648Y-73341011D01*
X79197442Y-73289500D01*
X79197442Y-68491421D01*
X101531376Y-68491421D01*
X101531376Y-68668578D01*
X101559090Y-68843556D01*
X101613832Y-69012039D01*
X101613833Y-69012042D01*
X101694262Y-69169890D01*
X101798393Y-69313214D01*
X101923662Y-69438483D01*
X102066986Y-69542614D01*
X102144405Y-69582061D01*
X102224833Y-69623042D01*
X102224836Y-69623043D01*
X102309077Y-69650414D01*
X102393321Y-69677786D01*
X102568297Y-69705500D01*
X102568298Y-69705500D01*
X102745454Y-69705500D01*
X102745455Y-69705500D01*
X102920431Y-69677786D01*
X103088918Y-69623042D01*
X103246766Y-69542614D01*
X103390090Y-69438483D01*
X103515359Y-69313214D01*
X103619490Y-69169890D01*
X103699918Y-69012042D01*
X103754662Y-68843555D01*
X103782376Y-68668579D01*
X103782376Y-68491421D01*
X120878442Y-68491421D01*
X120878442Y-68668578D01*
X120906156Y-68843556D01*
X120960898Y-69012039D01*
X120960899Y-69012042D01*
X121041328Y-69169890D01*
X121145459Y-69313214D01*
X121270728Y-69438483D01*
X121414052Y-69542614D01*
X121491471Y-69582061D01*
X121571899Y-69623042D01*
X121571902Y-69623043D01*
X121656143Y-69650414D01*
X121740387Y-69677786D01*
X121915363Y-69705500D01*
X121915364Y-69705500D01*
X122092520Y-69705500D01*
X122092521Y-69705500D01*
X122267497Y-69677786D01*
X122435984Y-69623042D01*
X122593832Y-69542614D01*
X122737156Y-69438483D01*
X122862425Y-69313214D01*
X122966556Y-69169890D01*
X123046984Y-69012042D01*
X123101728Y-68843555D01*
X123129442Y-68668579D01*
X123129442Y-68491421D01*
X123101728Y-68316445D01*
X123046984Y-68147958D01*
X123046984Y-68147957D01*
X122966555Y-67990109D01*
X122862425Y-67846786D01*
X122737156Y-67721517D01*
X122593832Y-67617386D01*
X122585895Y-67613342D01*
X122435984Y-67536957D01*
X122435981Y-67536956D01*
X122267498Y-67482214D01*
X122180009Y-67468357D01*
X122092521Y-67454500D01*
X121915363Y-67454500D01*
X121857037Y-67463738D01*
X121740385Y-67482214D01*
X121571902Y-67536956D01*
X121571899Y-67536957D01*
X121414051Y-67617386D01*
X121332280Y-67676796D01*
X121270728Y-67721517D01*
X121270726Y-67721519D01*
X121270725Y-67721519D01*
X121145461Y-67846783D01*
X121145461Y-67846784D01*
X121145459Y-67846786D01*
X121100738Y-67908338D01*
X121041328Y-67990109D01*
X120960899Y-68147957D01*
X120960898Y-68147960D01*
X120906156Y-68316443D01*
X120878442Y-68491421D01*
X103782376Y-68491421D01*
X103754662Y-68316445D01*
X103699918Y-68147958D01*
X103699918Y-68147957D01*
X103619489Y-67990109D01*
X103515359Y-67846786D01*
X103390090Y-67721517D01*
X103246766Y-67617386D01*
X103238829Y-67613342D01*
X103088918Y-67536957D01*
X103088915Y-67536956D01*
X102920432Y-67482214D01*
X102832943Y-67468357D01*
X102745455Y-67454500D01*
X102568297Y-67454500D01*
X102509971Y-67463738D01*
X102393319Y-67482214D01*
X102224836Y-67536956D01*
X102224833Y-67536957D01*
X102066985Y-67617386D01*
X101985214Y-67676796D01*
X101923662Y-67721517D01*
X101923660Y-67721519D01*
X101923659Y-67721519D01*
X101798395Y-67846783D01*
X101798395Y-67846784D01*
X101798393Y-67846786D01*
X101753672Y-67908338D01*
X101694262Y-67990109D01*
X101613833Y-68147957D01*
X101613832Y-68147960D01*
X101559090Y-68316443D01*
X101531376Y-68491421D01*
X79197442Y-68491421D01*
X79197442Y-65925258D01*
X105986376Y-65925258D01*
X105986376Y-66154741D01*
X106011322Y-66344215D01*
X106016328Y-66382238D01*
X106016329Y-66382240D01*
X106075718Y-66603887D01*
X106163526Y-66815876D01*
X106163533Y-66815890D01*
X106278268Y-67014617D01*
X106417957Y-67196661D01*
X106417965Y-67196670D01*
X106580206Y-67358911D01*
X106580214Y-67358918D01*
X106762258Y-67498607D01*
X106762261Y-67498608D01*
X106762264Y-67498611D01*
X106960988Y-67613344D01*
X106960993Y-67613346D01*
X106960999Y-67613349D01*
X107052356Y-67651190D01*
X107172989Y-67701158D01*
X107394638Y-67760548D01*
X107622142Y-67790500D01*
X107622149Y-67790500D01*
X107851603Y-67790500D01*
X107851610Y-67790500D01*
X108079114Y-67760548D01*
X108300763Y-67701158D01*
X108512764Y-67613344D01*
X108711488Y-67498611D01*
X108893537Y-67358919D01*
X108893541Y-67358914D01*
X108893546Y-67358911D01*
X109055787Y-67196670D01*
X109055790Y-67196665D01*
X109055795Y-67196661D01*
X109195487Y-67014612D01*
X109310220Y-66815888D01*
X109398034Y-66603887D01*
X109457424Y-66382238D01*
X109487376Y-66154734D01*
X109487376Y-65925266D01*
X109487375Y-65925258D01*
X125333442Y-65925258D01*
X125333442Y-66154741D01*
X125358388Y-66344215D01*
X125363394Y-66382238D01*
X125363395Y-66382240D01*
X125422784Y-66603887D01*
X125510592Y-66815876D01*
X125510599Y-66815890D01*
X125625334Y-67014617D01*
X125765023Y-67196661D01*
X125765031Y-67196670D01*
X125927272Y-67358911D01*
X125927280Y-67358918D01*
X126109324Y-67498607D01*
X126109327Y-67498608D01*
X126109330Y-67498611D01*
X126308054Y-67613344D01*
X126308059Y-67613346D01*
X126308065Y-67613349D01*
X126399422Y-67651190D01*
X126520055Y-67701158D01*
X126741704Y-67760548D01*
X126969208Y-67790500D01*
X126969215Y-67790500D01*
X127198669Y-67790500D01*
X127198676Y-67790500D01*
X127426180Y-67760548D01*
X127647829Y-67701158D01*
X127859830Y-67613344D01*
X128058554Y-67498611D01*
X128240603Y-67358919D01*
X128240607Y-67358914D01*
X128240612Y-67358911D01*
X128402853Y-67196670D01*
X128402856Y-67196665D01*
X128402861Y-67196661D01*
X128542553Y-67014612D01*
X128657286Y-66815888D01*
X128745100Y-66603887D01*
X128804490Y-66382238D01*
X128834442Y-66154734D01*
X128834442Y-65925266D01*
X128804490Y-65697762D01*
X128745100Y-65476113D01*
X128657286Y-65264112D01*
X128542553Y-65065388D01*
X128542550Y-65065385D01*
X128542549Y-65065382D01*
X128402860Y-64883338D01*
X128402853Y-64883330D01*
X128240612Y-64721089D01*
X128240603Y-64721081D01*
X128058559Y-64581392D01*
X127859832Y-64466657D01*
X127859818Y-64466650D01*
X127647829Y-64378842D01*
X127426180Y-64319452D01*
X127388157Y-64314446D01*
X127198683Y-64289500D01*
X127198676Y-64289500D01*
X126969208Y-64289500D01*
X126969200Y-64289500D01*
X126752657Y-64318009D01*
X126741704Y-64319452D01*
X126648018Y-64344554D01*
X126520054Y-64378842D01*
X126308065Y-64466650D01*
X126308051Y-64466657D01*
X126109324Y-64581392D01*
X125927280Y-64721081D01*
X125765023Y-64883338D01*
X125625334Y-65065382D01*
X125510599Y-65264109D01*
X125510592Y-65264123D01*
X125422784Y-65476112D01*
X125363395Y-65697759D01*
X125363393Y-65697770D01*
X125333442Y-65925258D01*
X109487375Y-65925258D01*
X109457424Y-65697762D01*
X109398034Y-65476113D01*
X109310220Y-65264112D01*
X109195487Y-65065388D01*
X109195484Y-65065385D01*
X109195483Y-65065382D01*
X109055794Y-64883338D01*
X109055787Y-64883330D01*
X108893546Y-64721089D01*
X108893537Y-64721081D01*
X108711493Y-64581392D01*
X108512766Y-64466657D01*
X108512752Y-64466650D01*
X108300763Y-64378842D01*
X108079114Y-64319452D01*
X108041091Y-64314446D01*
X107851617Y-64289500D01*
X107851610Y-64289500D01*
X107622142Y-64289500D01*
X107622134Y-64289500D01*
X107405591Y-64318009D01*
X107394638Y-64319452D01*
X107300952Y-64344554D01*
X107172988Y-64378842D01*
X106960999Y-64466650D01*
X106960985Y-64466657D01*
X106762258Y-64581392D01*
X106580214Y-64721081D01*
X106417957Y-64883338D01*
X106278268Y-65065382D01*
X106163533Y-65264109D01*
X106163526Y-65264123D01*
X106075718Y-65476112D01*
X106016329Y-65697759D01*
X106016327Y-65697770D01*
X105986376Y-65925258D01*
X79197442Y-65925258D01*
X79197442Y-63352900D01*
X100412476Y-63352900D01*
X100412476Y-63647099D01*
X100412477Y-63647116D01*
X100450877Y-63938796D01*
X100527028Y-64222994D01*
X100639610Y-64494794D01*
X100639618Y-64494810D01*
X100786716Y-64749589D01*
X100786727Y-64749605D01*
X100965824Y-64983009D01*
X100965830Y-64983016D01*
X101173859Y-65191045D01*
X101173866Y-65191051D01*
X101340081Y-65318592D01*
X101407279Y-65370155D01*
X101407286Y-65370159D01*
X101662065Y-65517257D01*
X101662081Y-65517265D01*
X101933881Y-65629847D01*
X101933883Y-65629847D01*
X101933889Y-65629850D01*
X102218076Y-65705998D01*
X102509770Y-65744400D01*
X102509777Y-65744400D01*
X102803975Y-65744400D01*
X102803982Y-65744400D01*
X103095676Y-65705998D01*
X103379863Y-65629850D01*
X103453194Y-65599475D01*
X103651670Y-65517265D01*
X103651673Y-65517263D01*
X103651679Y-65517261D01*
X103906473Y-65370155D01*
X104139887Y-65191050D01*
X104347926Y-64983011D01*
X104527031Y-64749597D01*
X104674137Y-64494803D01*
X104685796Y-64466657D01*
X104786723Y-64222994D01*
X104786722Y-64222994D01*
X104786726Y-64222987D01*
X104862874Y-63938800D01*
X104901276Y-63647106D01*
X104901276Y-63352900D01*
X119759542Y-63352900D01*
X119759542Y-63647099D01*
X119759543Y-63647116D01*
X119797943Y-63938796D01*
X119874094Y-64222994D01*
X119986676Y-64494794D01*
X119986684Y-64494810D01*
X120133782Y-64749589D01*
X120133793Y-64749605D01*
X120312890Y-64983009D01*
X120312896Y-64983016D01*
X120520925Y-65191045D01*
X120520932Y-65191051D01*
X120687147Y-65318592D01*
X120754345Y-65370155D01*
X120754352Y-65370159D01*
X121009131Y-65517257D01*
X121009147Y-65517265D01*
X121280947Y-65629847D01*
X121280949Y-65629847D01*
X121280955Y-65629850D01*
X121565142Y-65705998D01*
X121856836Y-65744400D01*
X121856843Y-65744400D01*
X122151041Y-65744400D01*
X122151048Y-65744400D01*
X122442742Y-65705998D01*
X122726929Y-65629850D01*
X122800260Y-65599475D01*
X122998736Y-65517265D01*
X122998739Y-65517263D01*
X122998745Y-65517261D01*
X123253539Y-65370155D01*
X123486953Y-65191050D01*
X123694992Y-64983011D01*
X123874097Y-64749597D01*
X124021203Y-64494803D01*
X124032862Y-64466657D01*
X124133789Y-64222994D01*
X124133788Y-64222994D01*
X124133792Y-64222987D01*
X124209940Y-63938800D01*
X124248342Y-63647106D01*
X124248342Y-63352894D01*
X124209940Y-63061200D01*
X124133792Y-62777013D01*
X124133789Y-62777005D01*
X124021207Y-62505205D01*
X124021199Y-62505189D01*
X123874101Y-62250410D01*
X123874097Y-62250403D01*
X123694992Y-62016989D01*
X123694987Y-62016983D01*
X123486958Y-61808954D01*
X123486951Y-61808948D01*
X123253547Y-61629851D01*
X123253545Y-61629849D01*
X123253539Y-61629845D01*
X123253534Y-61629842D01*
X123253531Y-61629840D01*
X122998752Y-61482742D01*
X122998736Y-61482734D01*
X122726936Y-61370152D01*
X122442738Y-61294001D01*
X122151058Y-61255601D01*
X122151053Y-61255600D01*
X122151048Y-61255600D01*
X121856836Y-61255600D01*
X121856830Y-61255600D01*
X121856825Y-61255601D01*
X121565145Y-61294001D01*
X121280947Y-61370152D01*
X121009147Y-61482734D01*
X121009131Y-61482742D01*
X120754352Y-61629840D01*
X120754336Y-61629851D01*
X120520932Y-61808948D01*
X120520925Y-61808954D01*
X120312896Y-62016983D01*
X120312890Y-62016990D01*
X120133793Y-62250394D01*
X120133782Y-62250410D01*
X119986684Y-62505189D01*
X119986676Y-62505205D01*
X119874094Y-62777005D01*
X119797943Y-63061203D01*
X119759543Y-63352883D01*
X119759542Y-63352900D01*
X104901276Y-63352900D01*
X104901276Y-63352894D01*
X104862874Y-63061200D01*
X104786726Y-62777013D01*
X104786723Y-62777005D01*
X104674141Y-62505205D01*
X104674133Y-62505189D01*
X104527035Y-62250410D01*
X104527031Y-62250403D01*
X104347926Y-62016989D01*
X104347921Y-62016983D01*
X104139892Y-61808954D01*
X104139885Y-61808948D01*
X103906481Y-61629851D01*
X103906479Y-61629849D01*
X103906473Y-61629845D01*
X103906468Y-61629842D01*
X103906465Y-61629840D01*
X103651686Y-61482742D01*
X103651670Y-61482734D01*
X103379870Y-61370152D01*
X103095672Y-61294001D01*
X102803992Y-61255601D01*
X102803987Y-61255600D01*
X102803982Y-61255600D01*
X102509770Y-61255600D01*
X102509764Y-61255600D01*
X102509759Y-61255601D01*
X102218079Y-61294001D01*
X101933881Y-61370152D01*
X101662081Y-61482734D01*
X101662065Y-61482742D01*
X101407286Y-61629840D01*
X101407270Y-61629851D01*
X101173866Y-61808948D01*
X101173859Y-61808954D01*
X100965830Y-62016983D01*
X100965824Y-62016990D01*
X100786727Y-62250394D01*
X100786716Y-62250410D01*
X100639618Y-62505189D01*
X100639610Y-62505205D01*
X100527028Y-62777005D01*
X100450877Y-63061203D01*
X100412477Y-63352883D01*
X100412476Y-63352900D01*
X79197442Y-63352900D01*
X79197442Y-57149996D01*
X82717377Y-57149996D01*
X82717377Y-57150003D01*
X82737572Y-57329249D01*
X82737573Y-57329254D01*
X82797153Y-57499523D01*
X82836107Y-57561517D01*
X82893126Y-57652262D01*
X83020680Y-57779816D01*
X83173420Y-57875789D01*
X83343687Y-57935368D01*
X83430611Y-57945161D01*
X83495022Y-57972226D01*
X83504407Y-57980700D01*
X83638081Y-58114374D01*
X83638091Y-58114385D01*
X83642421Y-58118715D01*
X83642422Y-58118716D01*
X83754226Y-58230520D01*
X83841037Y-58280639D01*
X83841039Y-58280641D01*
X83879093Y-58302611D01*
X83891157Y-58309577D01*
X84043885Y-58350500D01*
X84201999Y-58350500D01*
X86224802Y-58350500D01*
X86224818Y-58350501D01*
X86232414Y-58350501D01*
X86390525Y-58350501D01*
X86390528Y-58350501D01*
X86543256Y-58309577D01*
X86593375Y-58280639D01*
X86680187Y-58230520D01*
X86680191Y-58230516D01*
X86703889Y-58206819D01*
X86765212Y-58173334D01*
X86791570Y-58170500D01*
X93603331Y-58170500D01*
X93603347Y-58170501D01*
X93610943Y-58170501D01*
X93769054Y-58170501D01*
X93769057Y-58170501D01*
X93921785Y-58129577D01*
X93971904Y-58100639D01*
X94058716Y-58050520D01*
X94170520Y-57938716D01*
X94170520Y-57938714D01*
X94180728Y-57928507D01*
X94180729Y-57928504D01*
X95052417Y-57056819D01*
X95113740Y-57023334D01*
X95140098Y-57020500D01*
X102341273Y-57020500D01*
X102407245Y-57039506D01*
X102407737Y-57039815D01*
X102407738Y-57039816D01*
X102484033Y-57087755D01*
X102530324Y-57140090D01*
X102540972Y-57209143D01*
X102512597Y-57272992D01*
X102454208Y-57311364D01*
X102437462Y-57315222D01*
X102393317Y-57322214D01*
X102224836Y-57376956D01*
X102224833Y-57376957D01*
X102066985Y-57457386D01*
X102008989Y-57499523D01*
X101923662Y-57561517D01*
X101923660Y-57561519D01*
X101923659Y-57561519D01*
X101798395Y-57686783D01*
X101798395Y-57686784D01*
X101798393Y-57686786D01*
X101753672Y-57748338D01*
X101694262Y-57830109D01*
X101613833Y-57987957D01*
X101613832Y-57987960D01*
X101559090Y-58156443D01*
X101531376Y-58331421D01*
X101531376Y-58508578D01*
X101559090Y-58683556D01*
X101613832Y-58852039D01*
X101613833Y-58852042D01*
X101694262Y-59009890D01*
X101798393Y-59153214D01*
X101923662Y-59278483D01*
X102066986Y-59382614D01*
X102144405Y-59422061D01*
X102224833Y-59463042D01*
X102224836Y-59463043D01*
X102309077Y-59490414D01*
X102393321Y-59517786D01*
X102568297Y-59545500D01*
X102568298Y-59545500D01*
X102745454Y-59545500D01*
X102745455Y-59545500D01*
X102920431Y-59517786D01*
X103088918Y-59463042D01*
X103246766Y-59382614D01*
X103262037Y-59371518D01*
X103327840Y-59348038D01*
X103395894Y-59363862D01*
X103444591Y-59413966D01*
X103458468Y-59482443D01*
X103457862Y-59488022D01*
X103446376Y-59575258D01*
X103446376Y-59804741D01*
X103471322Y-59994215D01*
X103476328Y-60032238D01*
X103476329Y-60032240D01*
X103535718Y-60253887D01*
X103623526Y-60465876D01*
X103623533Y-60465890D01*
X103738268Y-60664617D01*
X103877957Y-60846661D01*
X103877965Y-60846670D01*
X104040206Y-61008911D01*
X104040214Y-61008918D01*
X104222258Y-61148607D01*
X104222261Y-61148608D01*
X104222264Y-61148611D01*
X104420988Y-61263344D01*
X104420993Y-61263346D01*
X104420999Y-61263349D01*
X104512356Y-61301190D01*
X104632989Y-61351158D01*
X104854638Y-61410548D01*
X105082142Y-61440500D01*
X105082149Y-61440500D01*
X105311603Y-61440500D01*
X105311610Y-61440500D01*
X105539114Y-61410548D01*
X105760763Y-61351158D01*
X105972764Y-61263344D01*
X106171488Y-61148611D01*
X106353537Y-61008919D01*
X106353541Y-61008914D01*
X106353546Y-61008911D01*
X106515787Y-60846670D01*
X106515790Y-60846665D01*
X106515795Y-60846661D01*
X106655487Y-60664612D01*
X106770220Y-60465888D01*
X106858034Y-60253887D01*
X106917424Y-60032238D01*
X106947376Y-59804734D01*
X106947376Y-59575266D01*
X106917424Y-59347762D01*
X106858034Y-59126113D01*
X106770220Y-58914112D01*
X106655487Y-58715388D01*
X106655484Y-58715385D01*
X106655483Y-58715382D01*
X106515794Y-58533338D01*
X106515787Y-58533330D01*
X106353546Y-58371089D01*
X106353537Y-58371081D01*
X106171493Y-58231392D01*
X105972766Y-58116657D01*
X105972752Y-58116650D01*
X105760763Y-58028842D01*
X105539114Y-57969452D01*
X105501091Y-57964446D01*
X105311617Y-57939500D01*
X105311610Y-57939500D01*
X105082142Y-57939500D01*
X105082134Y-57939500D01*
X104865591Y-57968009D01*
X104854638Y-57969452D01*
X104760952Y-57994554D01*
X104632988Y-58028842D01*
X104420999Y-58116650D01*
X104420985Y-58116657D01*
X104222258Y-58231392D01*
X104040214Y-58371081D01*
X103994057Y-58417238D01*
X103932734Y-58450723D01*
X103863042Y-58445739D01*
X103807109Y-58403867D01*
X103782692Y-58338403D01*
X103782497Y-58332967D01*
X103782376Y-58331423D01*
X103774333Y-58280641D01*
X103754662Y-58156445D01*
X103699918Y-57987958D01*
X103699918Y-57987957D01*
X103619489Y-57830109D01*
X103582949Y-57779816D01*
X103515359Y-57686786D01*
X103390090Y-57561517D01*
X103304761Y-57499522D01*
X103246764Y-57457384D01*
X103136258Y-57401078D01*
X103085463Y-57353104D01*
X103068668Y-57285283D01*
X103091206Y-57219148D01*
X103145921Y-57175697D01*
X103151580Y-57173559D01*
X103259522Y-57135789D01*
X103412262Y-57039816D01*
X103539816Y-56912262D01*
X103635789Y-56759522D01*
X103695368Y-56589255D01*
X103697848Y-56567249D01*
X103703102Y-56520617D01*
X103730168Y-56456203D01*
X103787763Y-56416648D01*
X103826322Y-56410500D01*
X121471099Y-56410500D01*
X121538138Y-56430185D01*
X121583893Y-56482989D01*
X121594319Y-56520618D01*
X121599572Y-56567248D01*
X121659152Y-56737521D01*
X121698711Y-56800478D01*
X121755126Y-56890262D01*
X121882680Y-57017816D01*
X121917693Y-57039816D01*
X121961195Y-57067150D01*
X122007486Y-57119485D01*
X122018134Y-57188538D01*
X121989759Y-57252387D01*
X121931370Y-57290759D01*
X121914621Y-57294617D01*
X121740385Y-57322213D01*
X121571902Y-57376956D01*
X121571899Y-57376957D01*
X121414051Y-57457386D01*
X121356055Y-57499523D01*
X121270728Y-57561517D01*
X121270726Y-57561519D01*
X121270725Y-57561519D01*
X121145461Y-57686783D01*
X121145461Y-57686784D01*
X121145459Y-57686786D01*
X121100738Y-57748338D01*
X121041328Y-57830109D01*
X120960899Y-57987957D01*
X120960898Y-57987960D01*
X120906156Y-58156443D01*
X120878442Y-58331421D01*
X120878442Y-58508578D01*
X120906156Y-58683556D01*
X120960898Y-58852039D01*
X120960899Y-58852042D01*
X121041328Y-59009890D01*
X121145459Y-59153214D01*
X121270728Y-59278483D01*
X121414052Y-59382614D01*
X121491471Y-59422061D01*
X121571899Y-59463042D01*
X121571902Y-59463043D01*
X121656143Y-59490414D01*
X121740387Y-59517786D01*
X121915363Y-59545500D01*
X121915364Y-59545500D01*
X122092520Y-59545500D01*
X122092521Y-59545500D01*
X122267497Y-59517786D01*
X122435984Y-59463042D01*
X122593832Y-59382614D01*
X122609103Y-59371518D01*
X122674906Y-59348038D01*
X122742960Y-59363862D01*
X122791657Y-59413966D01*
X122805534Y-59482443D01*
X122804928Y-59488022D01*
X122793442Y-59575258D01*
X122793442Y-59804741D01*
X122818388Y-59994215D01*
X122823394Y-60032238D01*
X122823395Y-60032240D01*
X122882784Y-60253887D01*
X122970592Y-60465876D01*
X122970599Y-60465890D01*
X123085334Y-60664617D01*
X123225023Y-60846661D01*
X123225031Y-60846670D01*
X123387272Y-61008911D01*
X123387280Y-61008918D01*
X123569324Y-61148607D01*
X123569327Y-61148608D01*
X123569330Y-61148611D01*
X123768054Y-61263344D01*
X123768059Y-61263346D01*
X123768065Y-61263349D01*
X123859422Y-61301190D01*
X123980055Y-61351158D01*
X124201704Y-61410548D01*
X124429208Y-61440500D01*
X124429215Y-61440500D01*
X124658669Y-61440500D01*
X124658676Y-61440500D01*
X124886180Y-61410548D01*
X125107829Y-61351158D01*
X125319830Y-61263344D01*
X125518554Y-61148611D01*
X125700603Y-61008919D01*
X125700607Y-61008914D01*
X125700612Y-61008911D01*
X125862853Y-60846670D01*
X125862856Y-60846665D01*
X125862861Y-60846661D01*
X126002553Y-60664612D01*
X126117286Y-60465888D01*
X126205100Y-60253887D01*
X126264490Y-60032238D01*
X126294442Y-59804734D01*
X126294442Y-59575266D01*
X126264490Y-59347762D01*
X126205100Y-59126113D01*
X126117286Y-58914112D01*
X126002553Y-58715388D01*
X126002550Y-58715385D01*
X126002549Y-58715382D01*
X125862860Y-58533338D01*
X125862853Y-58533330D01*
X125700612Y-58371089D01*
X125700603Y-58371081D01*
X125518559Y-58231392D01*
X125319832Y-58116657D01*
X125319818Y-58116650D01*
X125107829Y-58028842D01*
X124886180Y-57969452D01*
X124848157Y-57964446D01*
X124658683Y-57939500D01*
X124658676Y-57939500D01*
X124429208Y-57939500D01*
X124429200Y-57939500D01*
X124212657Y-57968009D01*
X124201704Y-57969452D01*
X124108018Y-57994554D01*
X123980054Y-58028842D01*
X123768065Y-58116650D01*
X123768051Y-58116657D01*
X123569324Y-58231392D01*
X123387280Y-58371081D01*
X123341123Y-58417238D01*
X123279800Y-58450723D01*
X123210108Y-58445739D01*
X123154175Y-58403867D01*
X123129758Y-58338403D01*
X123129563Y-58332967D01*
X123129442Y-58331423D01*
X123121399Y-58280641D01*
X123101728Y-58156445D01*
X123046984Y-57987958D01*
X123046984Y-57987957D01*
X122966555Y-57830109D01*
X122930015Y-57779816D01*
X122862425Y-57686786D01*
X122737156Y-57561517D01*
X122593832Y-57457386D01*
X122593831Y-57457385D01*
X122593829Y-57457384D01*
X122499922Y-57409535D01*
X122449127Y-57361560D01*
X122432332Y-57293739D01*
X122454870Y-57227605D01*
X122509585Y-57184154D01*
X122542331Y-57175831D01*
X122564197Y-57173368D01*
X122734464Y-57113789D01*
X122887204Y-57017816D01*
X123014758Y-56890262D01*
X123110731Y-56737522D01*
X123170310Y-56567255D01*
X123170311Y-56567248D01*
X123190507Y-56388003D01*
X123190507Y-56387996D01*
X123170311Y-56208750D01*
X123170310Y-56208745D01*
X123110730Y-56038476D01*
X123014757Y-55885737D01*
X122887204Y-55758184D01*
X122734463Y-55662210D01*
X122564191Y-55602630D01*
X122477272Y-55592837D01*
X122412858Y-55565770D01*
X122403475Y-55557298D01*
X122294532Y-55448355D01*
X122294530Y-55448352D01*
X122175659Y-55329481D01*
X122175658Y-55329480D01*
X122088846Y-55279360D01*
X122088846Y-55279359D01*
X122088842Y-55279358D01*
X122038727Y-55250423D01*
X121885999Y-55209499D01*
X121727885Y-55209499D01*
X121720289Y-55209499D01*
X121720273Y-55209500D01*
X102748140Y-55209500D01*
X102748124Y-55209499D01*
X102740528Y-55209499D01*
X102582414Y-55209499D01*
X102475058Y-55238265D01*
X102429681Y-55250424D01*
X102429680Y-55250425D01*
X102379567Y-55279359D01*
X102379566Y-55279360D01*
X102336160Y-55304420D01*
X102292756Y-55329479D01*
X102292753Y-55329481D01*
X102239054Y-55383181D01*
X102177731Y-55416666D01*
X102151373Y-55419500D01*
X94760984Y-55419500D01*
X94760968Y-55419499D01*
X94753372Y-55419499D01*
X94595257Y-55419499D01*
X94518893Y-55439961D01*
X94442528Y-55460423D01*
X94442523Y-55460426D01*
X94305604Y-55539475D01*
X94305596Y-55539481D01*
X93311898Y-56533181D01*
X93250575Y-56566666D01*
X93224217Y-56569500D01*
X86665882Y-56569500D01*
X86598843Y-56549815D01*
X86578201Y-56533181D01*
X86565204Y-56520184D01*
X86412465Y-56424211D01*
X86242196Y-56364631D01*
X86242191Y-56364630D01*
X86062946Y-56344435D01*
X86062938Y-56344435D01*
X85883692Y-56364630D01*
X85883687Y-56364631D01*
X85713418Y-56424211D01*
X85560679Y-56520184D01*
X85433126Y-56647737D01*
X85337152Y-56800478D01*
X85277572Y-56970750D01*
X85269840Y-57039383D01*
X85242774Y-57103797D01*
X85185179Y-57143352D01*
X85146620Y-57149500D01*
X84439263Y-57149500D01*
X84372224Y-57129815D01*
X84326469Y-57077011D01*
X84316043Y-57039383D01*
X84308310Y-56970745D01*
X84248731Y-56800478D01*
X84152758Y-56647738D01*
X84025204Y-56520184D01*
X83966009Y-56482989D01*
X83872465Y-56424211D01*
X83702196Y-56364631D01*
X83702191Y-56364630D01*
X83522946Y-56344435D01*
X83522938Y-56344435D01*
X83343692Y-56364630D01*
X83343687Y-56364631D01*
X83173418Y-56424211D01*
X83020679Y-56520184D01*
X82893126Y-56647737D01*
X82797153Y-56800476D01*
X82737573Y-56970745D01*
X82737572Y-56970750D01*
X82717377Y-57149996D01*
X79197442Y-57149996D01*
X79197442Y-53710500D01*
X79217127Y-53643461D01*
X79269931Y-53597706D01*
X79321442Y-53586500D01*
X131524442Y-53586500D01*
X131591481Y-53606185D01*
G37*
G04 #@! TD.AperFunction*
M02*
