G04 #@! TF.GenerationSoftware,KiCad,Pcbnew,8.0.6*
G04 #@! TF.CreationDate,2025-06-28T13:00:17+01:00*
G04 #@! TF.ProjectId,1x4,3178342e-6b69-4636-9164-5f7063625858,0.2*
G04 #@! TF.SameCoordinates,Original*
G04 #@! TF.FileFunction,Soldermask,Bot*
G04 #@! TF.FilePolarity,Negative*
%FSLAX46Y46*%
G04 Gerber Fmt 4.6, Leading zero omitted, Abs format (unit mm)*
G04 Created by KiCad (PCBNEW 8.0.6) date 2025-06-28 13:00:17*
%MOMM*%
%LPD*%
G01*
G04 APERTURE LIST*
%ADD10C,1.750000*%
%ADD11C,3.000000*%
%ADD12C,3.987800*%
%ADD13R,2.500000X2.550000*%
%ADD14O,1.998980X2.748280*%
%ADD15O,2.032000X1.016000*%
%ADD16C,1.143000*%
%ADD17C,0.600000*%
G04 APERTURE END LIST*
D10*
X99441000Y-58420000D03*
D11*
X101981000Y-59690000D03*
D12*
X99441000Y-63500000D03*
D11*
X104521000Y-66040000D03*
D10*
X99441000Y-68580000D03*
D13*
X101981000Y-56415000D03*
X104521000Y-69342000D03*
D10*
X118745000Y-58420000D03*
D11*
X121285000Y-59690000D03*
D12*
X118745000Y-63500000D03*
D11*
X123825000Y-66040000D03*
D10*
X118745000Y-68580000D03*
D13*
X121285000Y-56415000D03*
X123825000Y-69342000D03*
D10*
X80093934Y-58420000D03*
D11*
X82633934Y-59690000D03*
D12*
X80093934Y-63500000D03*
D11*
X85173934Y-66040000D03*
D10*
X80093934Y-68580000D03*
D13*
X82633934Y-56415000D03*
X85173934Y-69342000D03*
D10*
X138049000Y-58420000D03*
D11*
X140589000Y-59690000D03*
D12*
X138049000Y-63500000D03*
D11*
X143129000Y-66040000D03*
D10*
X138049000Y-68580000D03*
D13*
X140589000Y-56415000D03*
X143129000Y-69342000D03*
D14*
X59550000Y-55450000D03*
X62090000Y-55450000D03*
X64630000Y-55450000D03*
X67170000Y-55450000D03*
X69710000Y-55450000D03*
X72250000Y-55450000D03*
X74790000Y-55450000D03*
X74790000Y-71614560D03*
X72250000Y-71614560D03*
X69710000Y-71614560D03*
X67170000Y-71614560D03*
X64630000Y-71614560D03*
X62090000Y-71614560D03*
X59550000Y-71614560D03*
D15*
X75867820Y-62316880D03*
X75867820Y-64866880D03*
D16*
X58863633Y-62315683D03*
X58863633Y-64855683D03*
X61403633Y-62315683D03*
X61403633Y-64855683D03*
D17*
X80518000Y-56388000D03*
X60960000Y-57150000D03*
X66040000Y-57150000D03*
X119126000Y-56388000D03*
X68580000Y-57150000D03*
X138430000Y-56388000D03*
X99822000Y-56388000D03*
X63500000Y-57150000D03*
M02*
