M48
; DRILL file {KiCad 8.0.6} date 2025-06-28T13:00:19+0100
; FORMAT={-:-/ absolute / inch / decimal}
; #@! TF.CreationDate,2025-06-28T13:00:19+01:00
; #@! TF.GenerationSoftware,Kicad,Pcbnew,8.0.6
; #@! TF.FileFunction,NonPlated,1,2,NPTH
FMAT,2
INCH
; #@! TA.AperFunction,NonPlated,NPTH,ComponentDrill
T1C0.0689
; #@! TA.AperFunction,NonPlated,NPTH,ComponentDrill
T2C0.1181
; #@! TA.AperFunction,NonPlated,NPTH,ComponentDrill
T3C0.1570
%
G90
G05
T1
X3.1533Y-2.3
X3.1533Y-2.7
X3.915Y-2.3
X3.915Y-2.7
X4.675Y-2.3
X4.675Y-2.7
X5.435Y-2.3
X5.435Y-2.7
T2
X3.2533Y-2.35
X3.3533Y-2.6
X4.015Y-2.35
X4.115Y-2.6
X4.775Y-2.35
X4.875Y-2.6
X5.535Y-2.35
X5.635Y-2.6
T3
X3.1533Y-2.5
X3.915Y-2.5
X4.675Y-2.5
X5.435Y-2.5
M30
