G04 #@! TF.GenerationSoftware,KiCad,Pcbnew,8.0.6*
G04 #@! TF.CreationDate,2025-06-08T14:35:04+01:00*
G04 #@! TF.ProjectId,macro-keyboard,6d616372-6f2d-46b6-9579-626f6172642e,0.1*
G04 #@! TF.SameCoordinates,Original*
G04 #@! TF.FileFunction,Soldermask,Bot*
G04 #@! TF.FilePolarity,Negative*
%FSLAX46Y46*%
G04 Gerber Fmt 4.6, Leading zero omitted, Abs format (unit mm)*
G04 Created by KiCad (PCBNEW 8.0.6) date 2025-06-08 14:35:04*
%MOMM*%
%LPD*%
G01*
G04 APERTURE LIST*
G04 Aperture macros list*
%AMRoundRect*
0 Rectangle with rounded corners*
0 $1 Rounding radius*
0 $2 $3 $4 $5 $6 $7 $8 $9 X,Y pos of 4 corners*
0 Add a 4 corners polygon primitive as box body*
4,1,4,$2,$3,$4,$5,$6,$7,$8,$9,$2,$3,0*
0 Add four circle primitives for the rounded corners*
1,1,$1+$1,$2,$3*
1,1,$1+$1,$4,$5*
1,1,$1+$1,$6,$7*
1,1,$1+$1,$8,$9*
0 Add four rect primitives between the rounded corners*
20,1,$1+$1,$2,$3,$4,$5,0*
20,1,$1+$1,$4,$5,$6,$7,0*
20,1,$1+$1,$6,$7,$8,$9,0*
20,1,$1+$1,$8,$9,$2,$3,0*%
G04 Aperture macros list end*
%ADD10C,1.750000*%
%ADD11C,3.000000*%
%ADD12C,3.987800*%
%ADD13R,2.500000X2.550000*%
%ADD14RoundRect,1.000000X-0.000010X0.375000X-0.000010X-0.375000X0.000010X-0.375000X0.000010X0.375000X0*%
%ADD15C,0.600000*%
G04 APERTURE END LIST*
D10*
X99441000Y-58420000D03*
D11*
X101981000Y-59690000D03*
D12*
X99441000Y-63500000D03*
D11*
X104521000Y-66040000D03*
D10*
X99441000Y-68580000D03*
D13*
X101981000Y-56415000D03*
X104521000Y-69342000D03*
D10*
X118745000Y-58420000D03*
D11*
X121285000Y-59690000D03*
D12*
X118745000Y-63500000D03*
D11*
X123825000Y-66040000D03*
D10*
X118745000Y-68580000D03*
D13*
X121285000Y-56415000D03*
X123825000Y-69342000D03*
D10*
X80093934Y-58420000D03*
D11*
X82633934Y-59690000D03*
D12*
X80093934Y-63500000D03*
D11*
X85173934Y-66040000D03*
D10*
X80093934Y-68580000D03*
D13*
X82633934Y-56415000D03*
X85173934Y-69342000D03*
D10*
X138049000Y-58420000D03*
D11*
X140589000Y-59690000D03*
D12*
X138049000Y-63500000D03*
D11*
X143129000Y-66040000D03*
D10*
X138049000Y-68580000D03*
D13*
X140589000Y-56415000D03*
X143129000Y-69342000D03*
D14*
X59547250Y-55417500D03*
X62087250Y-55417500D03*
X64627250Y-55417500D03*
X67167250Y-55417500D03*
X69707250Y-55417500D03*
X72247250Y-55417500D03*
X74787250Y-55417500D03*
X74787250Y-71582500D03*
X72247250Y-71582500D03*
X69707250Y-71582500D03*
X67167250Y-71582500D03*
X64627250Y-71582500D03*
X62087250Y-71582500D03*
X59547250Y-71582500D03*
D15*
X80518000Y-56388000D03*
X60960000Y-57150000D03*
X66040000Y-57150000D03*
X119126000Y-56388000D03*
X68580000Y-57150000D03*
X138430000Y-56388000D03*
X99822000Y-56388000D03*
X63500000Y-57150000D03*
M02*
